<?xml version="1.0" encoding="UTF-8" standalone="no"?>
<!DOCTYPE svg PUBLIC "-//W3C//DTD SVG 1.1//EN"
 "http://www.w3.org/Graphics/SVG/1.1/DTD/svg11.dtd">
<!-- Generated by graphviz version 2.43.0 (0)
 -->
<!-- Title: G Pages: 1 -->
<svg width="823pt" height="708pt"
 viewBox="0.00 0.00 823.00 708.00" xmlns="http://www.w3.org/2000/svg" xmlns:xlink="http://www.w3.org/1999/xlink">
<g id="graph0" class="graph" transform="scale(1 1) rotate(0) translate(4 704)">
<title>G</title>
<polygon fill="white" stroke="transparent" points="-4,4 -4,-704 819,-704 819,4 -4,4"/>
<!-- [100, 500]\n[0, 150] -->
<g id="node1" class="node">
<title>[100, 500]\n[0, 150]</title>
<polygon fill="none" stroke="black" points="90,-288.5 0,-288.5 0,-220.5 90,-220.5 90,-288.5"/>
<text text-anchor="middle" x="45" y="-273.3" font-family="Times,serif" font-size="14.00">[100, 500]</text>
<text text-anchor="middle" x="45" y="-258.3" font-family="Times,serif" font-size="14.00">[0, 150]</text>
<text text-anchor="middle" x="45" y="-243.3" font-family="Times,serif" font-size="14.00">sp: 75.0</text>
<text text-anchor="middle" x="45" y="-228.3" font-family="Times,serif" font-size="14.00">dim: 1</text>
</g>
<!-- [100, 500]\n[0, 75.0] -->
<g id="node2" class="node">
<title>[100, 500]\n[0, 75.0]</title>
<polygon fill="none" stroke="black" points="218.5,-355.5 128.5,-355.5 128.5,-287.5 218.5,-287.5 218.5,-355.5"/>
<text text-anchor="middle" x="173.5" y="-340.3" font-family="Times,serif" font-size="14.00">[100, 500]</text>
<text text-anchor="middle" x="173.5" y="-325.3" font-family="Times,serif" font-size="14.00">[0, 75.0]</text>
<text text-anchor="middle" x="173.5" y="-310.3" font-family="Times,serif" font-size="14.00">sp: 300.0</text>
<text text-anchor="middle" x="173.5" y="-295.3" font-family="Times,serif" font-size="14.00">dim: 0</text>
</g>
<!-- [100, 500]\n[0, 150]&#45;&gt;[100, 500]\n[0, 75.0] -->
<g id="edge1" class="edge">
<title>[100, 500]\n[0, 150]&#45;&gt;[100, 500]\n[0, 75.0]</title>
<path fill="none" stroke="black" d="M90.24,-277.93C99.74,-282.96 109.86,-288.32 119.64,-293.5"/>
<polygon fill="black" stroke="black" points="118.02,-296.61 128.5,-298.19 121.3,-290.42 118.02,-296.61"/>
</g>
<!-- [100, 500]\n[75.0, 150] -->
<g id="node3" class="node">
<title>[100, 500]\n[75.0, 150]</title>
<polygon fill="none" stroke="black" points="221,-245.5 126,-245.5 126,-177.5 221,-177.5 221,-245.5"/>
<text text-anchor="middle" x="173.5" y="-230.3" font-family="Times,serif" font-size="14.00">[100, 500]</text>
<text text-anchor="middle" x="173.5" y="-215.3" font-family="Times,serif" font-size="14.00">[75.0, 150]</text>
<text text-anchor="middle" x="173.5" y="-200.3" font-family="Times,serif" font-size="14.00">sp: 112.5</text>
<text text-anchor="middle" x="173.5" y="-185.3" font-family="Times,serif" font-size="14.00">dim: 1</text>
</g>
<!-- [100, 500]\n[0, 150]&#45;&gt;[100, 500]\n[75.0, 150] -->
<g id="edge2" class="edge">
<title>[100, 500]\n[0, 150]&#45;&gt;[100, 500]\n[75.0, 150]</title>
<path fill="none" stroke="black" d="M90.24,-239.46C98.63,-236.61 107.51,-233.59 116.21,-230.64"/>
<polygon fill="black" stroke="black" points="117.58,-233.87 125.92,-227.33 115.32,-227.24 117.58,-233.87"/>
</g>
<!-- [100, 300.0]\n[0, 75.0] -->
<g id="node4" class="node">
<title>[100, 300.0]\n[0, 75.0]</title>
<polygon fill="none" stroke="black" points="363,-446.5 259,-446.5 259,-378.5 363,-378.5 363,-446.5"/>
<text text-anchor="middle" x="311" y="-431.3" font-family="Times,serif" font-size="14.00">[100, 300.0]</text>
<text text-anchor="middle" x="311" y="-416.3" font-family="Times,serif" font-size="14.00">[0, 75.0]</text>
<text text-anchor="middle" x="311" y="-401.3" font-family="Times,serif" font-size="14.00">sp: 37.5</text>
<text text-anchor="middle" x="311" y="-386.3" font-family="Times,serif" font-size="14.00">dim: 1</text>
</g>
<!-- [100, 500]\n[0, 75.0]&#45;&gt;[100, 300.0]\n[0, 75.0] -->
<g id="edge3" class="edge">
<title>[100, 500]\n[0, 75.0]&#45;&gt;[100, 300.0]\n[0, 75.0]</title>
<path fill="none" stroke="black" d="M218.87,-351.3C228.98,-358.09 239.88,-365.41 250.51,-372.54"/>
<polygon fill="black" stroke="black" points="248.7,-375.54 258.95,-378.21 252.6,-369.73 248.7,-375.54"/>
</g>
<!-- [300.0, 500]\n[0, 75.0] -->
<g id="node5" class="node">
<title>[300.0, 500]\n[0, 75.0]</title>
<polygon fill="none" stroke="black" points="363,-348 259,-348 259,-295 363,-295 363,-348"/>
<text text-anchor="middle" x="311" y="-332.8" font-family="Times,serif" font-size="14.00">[300.0, 500]</text>
<text text-anchor="middle" x="311" y="-317.8" font-family="Times,serif" font-size="14.00">[0, 75.0]</text>
<text text-anchor="middle" x="311" y="-302.8" font-family="Times,serif" font-size="14.00">LEAF</text>
</g>
<!-- [100, 500]\n[0, 75.0]&#45;&gt;[300.0, 500]\n[0, 75.0] -->
<g id="edge4" class="edge">
<title>[100, 500]\n[0, 75.0]&#45;&gt;[300.0, 500]\n[0, 75.0]</title>
<path fill="none" stroke="black" d="M218.87,-321.5C228.48,-321.5 238.8,-321.5 248.93,-321.5"/>
<polygon fill="black" stroke="black" points="248.95,-325 258.95,-321.5 248.95,-318 248.95,-325"/>
</g>
<!-- [100, 500]\n[75.0, 112.5] -->
<g id="node18" class="node">
<title>[100, 500]\n[75.0, 112.5]</title>
<polygon fill="none" stroke="black" points="365,-245.5 257,-245.5 257,-177.5 365,-177.5 365,-245.5"/>
<text text-anchor="middle" x="311" y="-230.3" font-family="Times,serif" font-size="14.00">[100, 500]</text>
<text text-anchor="middle" x="311" y="-215.3" font-family="Times,serif" font-size="14.00">[75.0, 112.5]</text>
<text text-anchor="middle" x="311" y="-200.3" font-family="Times,serif" font-size="14.00">sp: 300.0</text>
<text text-anchor="middle" x="311" y="-185.3" font-family="Times,serif" font-size="14.00">dim: 0</text>
</g>
<!-- [100, 500]\n[75.0, 150]&#45;&gt;[100, 500]\n[75.0, 112.5] -->
<g id="edge17" class="edge">
<title>[100, 500]\n[75.0, 150]&#45;&gt;[100, 500]\n[75.0, 112.5]</title>
<path fill="none" stroke="black" d="M221.13,-211.5C229.38,-211.5 238.1,-211.5 246.72,-211.5"/>
<polygon fill="black" stroke="black" points="246.77,-215 256.77,-211.5 246.77,-208 246.77,-215"/>
</g>
<!-- [100, 500]\n[112.5, 150] -->
<g id="node19" class="node">
<title>[100, 500]\n[112.5, 150]</title>
<polygon fill="none" stroke="black" points="363,-159 259,-159 259,-106 363,-106 363,-159"/>
<text text-anchor="middle" x="311" y="-143.8" font-family="Times,serif" font-size="14.00">[100, 500]</text>
<text text-anchor="middle" x="311" y="-128.8" font-family="Times,serif" font-size="14.00">[112.5, 150]</text>
<text text-anchor="middle" x="311" y="-113.8" font-family="Times,serif" font-size="14.00">LEAF</text>
</g>
<!-- [100, 500]\n[75.0, 150]&#45;&gt;[100, 500]\n[112.5, 150] -->
<g id="edge18" class="edge">
<title>[100, 500]\n[75.0, 150]&#45;&gt;[100, 500]\n[112.5, 150]</title>
<path fill="none" stroke="black" d="M221.13,-184.31C232.13,-177.9 243.94,-171.01 255.26,-164.42"/>
<polygon fill="black" stroke="black" points="257.32,-167.26 264.2,-159.2 253.8,-161.22 257.32,-167.26"/>
</g>
<!-- [100, 300.0]\n[0, 37.5] -->
<g id="node6" class="node">
<title>[100, 300.0]\n[0, 37.5]</title>
<polygon fill="none" stroke="black" points="507,-628.5 403,-628.5 403,-560.5 507,-560.5 507,-628.5"/>
<text text-anchor="middle" x="455" y="-613.3" font-family="Times,serif" font-size="14.00">[100, 300.0]</text>
<text text-anchor="middle" x="455" y="-598.3" font-family="Times,serif" font-size="14.00">[0, 37.5]</text>
<text text-anchor="middle" x="455" y="-583.3" font-family="Times,serif" font-size="14.00">sp: 18.75</text>
<text text-anchor="middle" x="455" y="-568.3" font-family="Times,serif" font-size="14.00">dim: 1</text>
</g>
<!-- [100, 300.0]\n[0, 75.0]&#45;&gt;[100, 300.0]\n[0, 37.5] -->
<g id="edge5" class="edge">
<title>[100, 300.0]\n[0, 75.0]&#45;&gt;[100, 300.0]\n[0, 37.5]</title>
<path fill="none" stroke="black" d="M338.71,-446.73C362.11,-476.73 396.21,-520.43 421.25,-552.53"/>
<polygon fill="black" stroke="black" points="418.5,-554.69 427.41,-560.42 424.02,-550.38 418.5,-554.69"/>
</g>
<!-- [100, 300.0]\n[37.5, 75.0] -->
<g id="node7" class="node">
<title>[100, 300.0]\n[37.5, 75.0]</title>
<polygon fill="none" stroke="black" points="507,-446.5 403,-446.5 403,-378.5 507,-378.5 507,-446.5"/>
<text text-anchor="middle" x="455" y="-431.3" font-family="Times,serif" font-size="14.00">[100, 300.0]</text>
<text text-anchor="middle" x="455" y="-416.3" font-family="Times,serif" font-size="14.00">[37.5, 75.0]</text>
<text text-anchor="middle" x="455" y="-401.3" font-family="Times,serif" font-size="14.00">sp: 56.25</text>
<text text-anchor="middle" x="455" y="-386.3" font-family="Times,serif" font-size="14.00">dim: 1</text>
</g>
<!-- [100, 300.0]\n[0, 75.0]&#45;&gt;[100, 300.0]\n[37.5, 75.0] -->
<g id="edge6" class="edge">
<title>[100, 300.0]\n[0, 75.0]&#45;&gt;[100, 300.0]\n[37.5, 75.0]</title>
<path fill="none" stroke="black" d="M363.27,-412.5C372.82,-412.5 382.89,-412.5 392.7,-412.5"/>
<polygon fill="black" stroke="black" points="392.81,-416 402.81,-412.5 392.81,-409 392.81,-416"/>
</g>
<!-- [100, 300.0]\n[0, 18.75] -->
<g id="node8" class="node">
<title>[100, 300.0]\n[0, 18.75]</title>
<polygon fill="none" stroke="black" points="655.5,-700 551.5,-700 551.5,-647 655.5,-647 655.5,-700"/>
<text text-anchor="middle" x="603.5" y="-684.8" font-family="Times,serif" font-size="14.00">[100, 300.0]</text>
<text text-anchor="middle" x="603.5" y="-669.8" font-family="Times,serif" font-size="14.00">[0, 18.75]</text>
<text text-anchor="middle" x="603.5" y="-654.8" font-family="Times,serif" font-size="14.00">LEAF</text>
</g>
<!-- [100, 300.0]\n[0, 37.5]&#45;&gt;[100, 300.0]\n[0, 18.75] -->
<g id="edge7" class="edge">
<title>[100, 300.0]\n[0, 37.5]&#45;&gt;[100, 300.0]\n[0, 18.75]</title>
<path fill="none" stroke="black" d="M507.24,-622.13C519.07,-628.51 531.75,-635.35 543.88,-641.89"/>
<polygon fill="black" stroke="black" points="542.55,-645.15 553.02,-646.82 545.88,-638.99 542.55,-645.15"/>
</g>
<!-- [100, 300.0]\n[18.75, 37.5] -->
<g id="node9" class="node">
<title>[100, 300.0]\n[18.75, 37.5]</title>
<polygon fill="none" stroke="black" points="657.5,-628.5 549.5,-628.5 549.5,-560.5 657.5,-560.5 657.5,-628.5"/>
<text text-anchor="middle" x="603.5" y="-613.3" font-family="Times,serif" font-size="14.00">[100, 300.0]</text>
<text text-anchor="middle" x="603.5" y="-598.3" font-family="Times,serif" font-size="14.00">[18.75, 37.5]</text>
<text text-anchor="middle" x="603.5" y="-583.3" font-family="Times,serif" font-size="14.00">sp: 28.125</text>
<text text-anchor="middle" x="603.5" y="-568.3" font-family="Times,serif" font-size="14.00">dim: 1</text>
</g>
<!-- [100, 300.0]\n[0, 37.5]&#45;&gt;[100, 300.0]\n[18.75, 37.5] -->
<g id="edge8" class="edge">
<title>[100, 300.0]\n[0, 37.5]&#45;&gt;[100, 300.0]\n[18.75, 37.5]</title>
<path fill="none" stroke="black" d="M507.24,-594.5C517.49,-594.5 528.38,-594.5 538.99,-594.5"/>
<polygon fill="black" stroke="black" points="539.05,-598 549.05,-594.5 539.05,-591 539.05,-598"/>
</g>
<!-- [100, 300.0]\n[37.5, 56.25] -->
<g id="node12" class="node">
<title>[100, 300.0]\n[37.5, 56.25]</title>
<polygon fill="none" stroke="black" points="657.5,-493.5 549.5,-493.5 549.5,-425.5 657.5,-425.5 657.5,-493.5"/>
<text text-anchor="middle" x="603.5" y="-478.3" font-family="Times,serif" font-size="14.00">[100, 300.0]</text>
<text text-anchor="middle" x="603.5" y="-463.3" font-family="Times,serif" font-size="14.00">[37.5, 56.25]</text>
<text text-anchor="middle" x="603.5" y="-448.3" font-family="Times,serif" font-size="14.00">sp: 200.0</text>
<text text-anchor="middle" x="603.5" y="-433.3" font-family="Times,serif" font-size="14.00">dim: 0</text>
</g>
<!-- [100, 300.0]\n[37.5, 75.0]&#45;&gt;[100, 300.0]\n[37.5, 56.25] -->
<g id="edge11" class="edge">
<title>[100, 300.0]\n[37.5, 75.0]&#45;&gt;[100, 300.0]\n[37.5, 56.25]</title>
<path fill="none" stroke="black" d="M507.24,-428.94C517.6,-432.26 528.61,-435.79 539.32,-439.23"/>
<polygon fill="black" stroke="black" points="538.46,-442.63 549.05,-442.35 540.6,-435.97 538.46,-442.63"/>
</g>
<!-- [100, 300.0]\n[56.25, 75.0] -->
<g id="node13" class="node">
<title>[100, 300.0]\n[56.25, 75.0]</title>
<polygon fill="none" stroke="black" points="657.5,-407.5 549.5,-407.5 549.5,-339.5 657.5,-339.5 657.5,-407.5"/>
<text text-anchor="middle" x="603.5" y="-392.3" font-family="Times,serif" font-size="14.00">[100, 300.0]</text>
<text text-anchor="middle" x="603.5" y="-377.3" font-family="Times,serif" font-size="14.00">[56.25, 75.0]</text>
<text text-anchor="middle" x="603.5" y="-362.3" font-family="Times,serif" font-size="14.00">sp: 200.0</text>
<text text-anchor="middle" x="603.5" y="-347.3" font-family="Times,serif" font-size="14.00">dim: 0</text>
</g>
<!-- [100, 300.0]\n[37.5, 75.0]&#45;&gt;[100, 300.0]\n[56.25, 75.0] -->
<g id="edge12" class="edge">
<title>[100, 300.0]\n[37.5, 75.0]&#45;&gt;[100, 300.0]\n[56.25, 75.0]</title>
<path fill="none" stroke="black" d="M507.24,-398.86C517.6,-396.1 528.61,-393.17 539.32,-390.32"/>
<polygon fill="black" stroke="black" points="540.29,-393.68 549.05,-387.73 538.49,-386.92 540.29,-393.68"/>
</g>
<!-- [100, 300.0]\n[18.75, 28.13] -->
<g id="node10" class="node">
<title>[100, 300.0]\n[18.75, 28.13]</title>
<polygon fill="none" stroke="black" points="815,-692 698,-692 698,-639 815,-639 815,-692"/>
<text text-anchor="middle" x="756.5" y="-676.8" font-family="Times,serif" font-size="14.00">[100, 300.0]</text>
<text text-anchor="middle" x="756.5" y="-661.8" font-family="Times,serif" font-size="14.00">[18.75, 28.13]</text>
<text text-anchor="middle" x="756.5" y="-646.8" font-family="Times,serif" font-size="14.00">LEAF</text>
</g>
<!-- [100, 300.0]\n[18.75, 37.5]&#45;&gt;[100, 300.0]\n[18.75, 28.13] -->
<g id="edge9" class="edge">
<title>[100, 300.0]\n[18.75, 37.5]&#45;&gt;[100, 300.0]\n[18.75, 28.13]</title>
<path fill="none" stroke="black" d="M657.74,-619.53C668.05,-624.38 678.97,-629.51 689.63,-634.53"/>
<polygon fill="black" stroke="black" points="688.36,-637.8 698.9,-638.89 691.34,-631.47 688.36,-637.8"/>
</g>
<!-- [100, 300.0]\n[28.13, 37.5] -->
<g id="node11" class="node">
<title>[100, 300.0]\n[28.13, 37.5]</title>
<polygon fill="none" stroke="black" points="810.5,-621 702.5,-621 702.5,-568 810.5,-568 810.5,-621"/>
<text text-anchor="middle" x="756.5" y="-605.8" font-family="Times,serif" font-size="14.00">[100, 300.0]</text>
<text text-anchor="middle" x="756.5" y="-590.8" font-family="Times,serif" font-size="14.00">[28.13, 37.5]</text>
<text text-anchor="middle" x="756.5" y="-575.8" font-family="Times,serif" font-size="14.00">LEAF</text>
</g>
<!-- [100, 300.0]\n[18.75, 37.5]&#45;&gt;[100, 300.0]\n[28.13, 37.5] -->
<g id="edge10" class="edge">
<title>[100, 300.0]\n[18.75, 37.5]&#45;&gt;[100, 300.0]\n[28.13, 37.5]</title>
<path fill="none" stroke="black" d="M657.74,-594.5C668.97,-594.5 680.92,-594.5 692.47,-594.5"/>
<polygon fill="black" stroke="black" points="692.49,-598 702.49,-594.5 692.49,-591 692.49,-598"/>
</g>
<!-- [100, 200.0]\n[37.5, 56.25] -->
<g id="node14" class="node">
<title>[100, 200.0]\n[37.5, 56.25]</title>
<polygon fill="none" stroke="black" points="810.5,-550 702.5,-550 702.5,-497 810.5,-497 810.5,-550"/>
<text text-anchor="middle" x="756.5" y="-534.8" font-family="Times,serif" font-size="14.00">[100, 200.0]</text>
<text text-anchor="middle" x="756.5" y="-519.8" font-family="Times,serif" font-size="14.00">[37.5, 56.25]</text>
<text text-anchor="middle" x="756.5" y="-504.8" font-family="Times,serif" font-size="14.00">LEAF</text>
</g>
<!-- [100, 300.0]\n[37.5, 56.25]&#45;&gt;[100, 200.0]\n[37.5, 56.25] -->
<g id="edge13" class="edge">
<title>[100, 300.0]\n[37.5, 56.25]&#45;&gt;[100, 200.0]\n[37.5, 56.25]</title>
<path fill="none" stroke="black" d="M657.74,-482.06C669.19,-486.92 681.4,-492.09 693.17,-497.08"/>
<polygon fill="black" stroke="black" points="691.92,-500.35 702.49,-501.03 694.65,-493.91 691.92,-500.35"/>
</g>
<!-- [200.0, 300.0]\n[37.5, 56.25] -->
<g id="node15" class="node">
<title>[200.0, 300.0]\n[37.5, 56.25]</title>
<polygon fill="none" stroke="black" points="815,-479 698,-479 698,-426 815,-426 815,-479"/>
<text text-anchor="middle" x="756.5" y="-463.8" font-family="Times,serif" font-size="14.00">[200.0, 300.0]</text>
<text text-anchor="middle" x="756.5" y="-448.8" font-family="Times,serif" font-size="14.00">[37.5, 56.25]</text>
<text text-anchor="middle" x="756.5" y="-433.8" font-family="Times,serif" font-size="14.00">LEAF</text>
</g>
<!-- [100, 300.0]\n[37.5, 56.25]&#45;&gt;[200.0, 300.0]\n[37.5, 56.25] -->
<g id="edge14" class="edge">
<title>[100, 300.0]\n[37.5, 56.25]&#45;&gt;[200.0, 300.0]\n[37.5, 56.25]</title>
<path fill="none" stroke="black" d="M657.74,-457.03C667.48,-456.58 677.77,-456.1 687.86,-455.64"/>
<polygon fill="black" stroke="black" points="688.04,-459.13 697.87,-455.17 687.72,-452.14 688.04,-459.13"/>
</g>
<!-- [100, 200.0]\n[56.25, 75.0] -->
<g id="node16" class="node">
<title>[100, 200.0]\n[56.25, 75.0]</title>
<polygon fill="none" stroke="black" points="810.5,-408 702.5,-408 702.5,-355 810.5,-355 810.5,-408"/>
<text text-anchor="middle" x="756.5" y="-392.8" font-family="Times,serif" font-size="14.00">[100, 200.0]</text>
<text text-anchor="middle" x="756.5" y="-377.8" font-family="Times,serif" font-size="14.00">[56.25, 75.0]</text>
<text text-anchor="middle" x="756.5" y="-362.8" font-family="Times,serif" font-size="14.00">LEAF</text>
</g>
<!-- [100, 300.0]\n[56.25, 75.0]&#45;&gt;[100, 200.0]\n[56.25, 75.0] -->
<g id="edge15" class="edge">
<title>[100, 300.0]\n[56.25, 75.0]&#45;&gt;[100, 200.0]\n[56.25, 75.0]</title>
<path fill="none" stroke="black" d="M657.74,-376.32C668.97,-376.92 680.92,-377.55 692.47,-378.16"/>
<polygon fill="black" stroke="black" points="692.32,-381.66 702.49,-378.69 692.69,-374.67 692.32,-381.66"/>
</g>
<!-- [200.0, 300.0]\n[56.25, 75.0] -->
<g id="node17" class="node">
<title>[200.0, 300.0]\n[56.25, 75.0]</title>
<polygon fill="none" stroke="black" points="815,-337 698,-337 698,-284 815,-284 815,-337"/>
<text text-anchor="middle" x="756.5" y="-321.8" font-family="Times,serif" font-size="14.00">[200.0, 300.0]</text>
<text text-anchor="middle" x="756.5" y="-306.8" font-family="Times,serif" font-size="14.00">[56.25, 75.0]</text>
<text text-anchor="middle" x="756.5" y="-291.8" font-family="Times,serif" font-size="14.00">LEAF</text>
</g>
<!-- [100, 300.0]\n[56.25, 75.0]&#45;&gt;[200.0, 300.0]\n[56.25, 75.0] -->
<g id="edge16" class="edge">
<title>[100, 300.0]\n[56.25, 75.0]&#45;&gt;[200.0, 300.0]\n[56.25, 75.0]</title>
<path fill="none" stroke="black" d="M657.74,-351.29C667.68,-347.14 678.2,-342.75 688.49,-338.46"/>
<polygon fill="black" stroke="black" points="689.99,-341.62 697.87,-334.54 687.29,-335.16 689.99,-341.62"/>
</g>
<!-- [100, 300.0]\n[75.0, 112.5] -->
<g id="node20" class="node">
<title>[100, 300.0]\n[75.0, 112.5]</title>
<polygon fill="none" stroke="black" points="509,-245.5 401,-245.5 401,-177.5 509,-177.5 509,-245.5"/>
<text text-anchor="middle" x="455" y="-230.3" font-family="Times,serif" font-size="14.00">[100, 300.0]</text>
<text text-anchor="middle" x="455" y="-215.3" font-family="Times,serif" font-size="14.00">[75.0, 112.5]</text>
<text text-anchor="middle" x="455" y="-200.3" font-family="Times,serif" font-size="14.00">sp: 200.0</text>
<text text-anchor="middle" x="455" y="-185.3" font-family="Times,serif" font-size="14.00">dim: 0</text>
</g>
<!-- [100, 500]\n[75.0, 112.5]&#45;&gt;[100, 300.0]\n[75.0, 112.5] -->
<g id="edge19" class="edge">
<title>[100, 500]\n[75.0, 112.5]&#45;&gt;[100, 300.0]\n[75.0, 112.5]</title>
<path fill="none" stroke="black" d="M365.28,-211.5C373.56,-211.5 382.18,-211.5 390.66,-211.5"/>
<polygon fill="black" stroke="black" points="390.89,-215 400.89,-211.5 390.89,-208 390.89,-215"/>
</g>
<!-- [300.0, 500]\n[75.0, 112.5] -->
<g id="node21" class="node">
<title>[300.0, 500]\n[75.0, 112.5]</title>
<polygon fill="none" stroke="black" points="509,-159 401,-159 401,-106 509,-106 509,-159"/>
<text text-anchor="middle" x="455" y="-143.8" font-family="Times,serif" font-size="14.00">[300.0, 500]</text>
<text text-anchor="middle" x="455" y="-128.8" font-family="Times,serif" font-size="14.00">[75.0, 112.5]</text>
<text text-anchor="middle" x="455" y="-113.8" font-family="Times,serif" font-size="14.00">LEAF</text>
</g>
<!-- [100, 500]\n[75.0, 112.5]&#45;&gt;[300.0, 500]\n[75.0, 112.5] -->
<g id="edge20" class="edge">
<title>[100, 500]\n[75.0, 112.5]&#45;&gt;[300.0, 500]\n[75.0, 112.5]</title>
<path fill="none" stroke="black" d="M365.28,-181.86C375.73,-176.04 386.73,-169.92 397.29,-164.05"/>
<polygon fill="black" stroke="black" points="399,-167.1 406.04,-159.18 395.59,-160.99 399,-167.1"/>
</g>
<!-- [100, 200.0]\n[75.0, 112.5] -->
<g id="node22" class="node">
<title>[100, 200.0]\n[75.0, 112.5]</title>
<polygon fill="none" stroke="black" points="657.5,-245.5 549.5,-245.5 549.5,-177.5 657.5,-177.5 657.5,-245.5"/>
<text text-anchor="middle" x="603.5" y="-230.3" font-family="Times,serif" font-size="14.00">[100, 200.0]</text>
<text text-anchor="middle" x="603.5" y="-215.3" font-family="Times,serif" font-size="14.00">[75.0, 112.5]</text>
<text text-anchor="middle" x="603.5" y="-200.3" font-family="Times,serif" font-size="14.00">sp: 93.75</text>
<text text-anchor="middle" x="603.5" y="-185.3" font-family="Times,serif" font-size="14.00">dim: 1</text>
</g>
<!-- [100, 300.0]\n[75.0, 112.5]&#45;&gt;[100, 200.0]\n[75.0, 112.5] -->
<g id="edge21" class="edge">
<title>[100, 300.0]\n[75.0, 112.5]&#45;&gt;[100, 200.0]\n[75.0, 112.5]</title>
<path fill="none" stroke="black" d="M509.3,-211.5C519.02,-211.5 529.24,-211.5 539.21,-211.5"/>
<polygon fill="black" stroke="black" points="539.48,-215 549.48,-211.5 539.48,-208 539.48,-215"/>
</g>
<!-- [200.0, 300.0]\n[75.0, 112.5] -->
<g id="node23" class="node">
<title>[200.0, 300.0]\n[75.0, 112.5]</title>
<polygon fill="none" stroke="black" points="662,-131.5 545,-131.5 545,-63.5 662,-63.5 662,-131.5"/>
<text text-anchor="middle" x="603.5" y="-116.3" font-family="Times,serif" font-size="14.00">[200.0, 300.0]</text>
<text text-anchor="middle" x="603.5" y="-101.3" font-family="Times,serif" font-size="14.00">[75.0, 112.5]</text>
<text text-anchor="middle" x="603.5" y="-86.3" font-family="Times,serif" font-size="14.00">sp: 250.0</text>
<text text-anchor="middle" x="603.5" y="-71.3" font-family="Times,serif" font-size="14.00">dim: 0</text>
</g>
<!-- [100, 300.0]\n[75.0, 112.5]&#45;&gt;[200.0, 300.0]\n[75.0, 112.5] -->
<g id="edge22" class="edge">
<title>[100, 300.0]\n[75.0, 112.5]&#45;&gt;[200.0, 300.0]\n[75.0, 112.5]</title>
<path fill="none" stroke="black" d="M499.95,-177.3C515.89,-164.9 534.04,-150.77 550.59,-137.89"/>
<polygon fill="black" stroke="black" points="552.83,-140.58 558.58,-131.68 548.53,-135.06 552.83,-140.58"/>
</g>
<!-- [100, 200.0]\n[75.0, 93.75] -->
<g id="node24" class="node">
<title>[100, 200.0]\n[75.0, 93.75]</title>
<polygon fill="none" stroke="black" points="810.5,-266 702.5,-266 702.5,-213 810.5,-213 810.5,-266"/>
<text text-anchor="middle" x="756.5" y="-250.8" font-family="Times,serif" font-size="14.00">[100, 200.0]</text>
<text text-anchor="middle" x="756.5" y="-235.8" font-family="Times,serif" font-size="14.00">[75.0, 93.75]</text>
<text text-anchor="middle" x="756.5" y="-220.8" font-family="Times,serif" font-size="14.00">LEAF</text>
</g>
<!-- [100, 200.0]\n[75.0, 112.5]&#45;&gt;[100, 200.0]\n[75.0, 93.75] -->
<g id="edge23" class="edge">
<title>[100, 200.0]\n[75.0, 112.5]&#45;&gt;[100, 200.0]\n[75.0, 93.75]</title>
<path fill="none" stroke="black" d="M657.74,-221.37C668.97,-223.45 680.92,-225.67 692.47,-227.81"/>
<polygon fill="black" stroke="black" points="692.02,-231.29 702.49,-229.67 693.3,-224.41 692.02,-231.29"/>
</g>
<!-- [100, 200.0]\n[93.75, 112.5] -->
<g id="node25" class="node">
<title>[100, 200.0]\n[93.75, 112.5]</title>
<polygon fill="none" stroke="black" points="815,-195 698,-195 698,-142 815,-142 815,-195"/>
<text text-anchor="middle" x="756.5" y="-179.8" font-family="Times,serif" font-size="14.00">[100, 200.0]</text>
<text text-anchor="middle" x="756.5" y="-164.8" font-family="Times,serif" font-size="14.00">[93.75, 112.5]</text>
<text text-anchor="middle" x="756.5" y="-149.8" font-family="Times,serif" font-size="14.00">LEAF</text>
</g>
<!-- [100, 200.0]\n[75.0, 112.5]&#45;&gt;[100, 200.0]\n[93.75, 112.5] -->
<g id="edge24" class="edge">
<title>[100, 200.0]\n[75.0, 112.5]&#45;&gt;[100, 200.0]\n[93.75, 112.5]</title>
<path fill="none" stroke="black" d="M657.74,-196.34C667.58,-193.54 677.98,-190.57 688.18,-187.67"/>
<polygon fill="black" stroke="black" points="689.21,-191.02 697.87,-184.91 687.29,-184.28 689.21,-191.02"/>
</g>
<!-- [200.0, 250.0]\n[75.0, 112.5] -->
<g id="node26" class="node">
<title>[200.0, 250.0]\n[75.0, 112.5]</title>
<polygon fill="none" stroke="black" points="815,-124 698,-124 698,-71 815,-71 815,-124"/>
<text text-anchor="middle" x="756.5" y="-108.8" font-family="Times,serif" font-size="14.00">[200.0, 250.0]</text>
<text text-anchor="middle" x="756.5" y="-93.8" font-family="Times,serif" font-size="14.00">[75.0, 112.5]</text>
<text text-anchor="middle" x="756.5" y="-78.8" font-family="Times,serif" font-size="14.00">LEAF</text>
</g>
<!-- [200.0, 300.0]\n[75.0, 112.5]&#45;&gt;[200.0, 250.0]\n[75.0, 112.5] -->
<g id="edge25" class="edge">
<title>[200.0, 300.0]\n[75.0, 112.5]&#45;&gt;[200.0, 250.0]\n[75.0, 112.5]</title>
<path fill="none" stroke="black" d="M662.02,-97.5C670.46,-97.5 679.23,-97.5 687.86,-97.5"/>
<polygon fill="black" stroke="black" points="687.89,-101 697.89,-97.5 687.89,-94 687.89,-101"/>
</g>
<!-- [250.0, 300.0]\n[75.0, 112.5] -->
<g id="node27" class="node">
<title>[250.0, 300.0]\n[75.0, 112.5]</title>
<polygon fill="none" stroke="black" points="815,-53 698,-53 698,0 815,0 815,-53"/>
<text text-anchor="middle" x="756.5" y="-37.8" font-family="Times,serif" font-size="14.00">[250.0, 300.0]</text>
<text text-anchor="middle" x="756.5" y="-22.8" font-family="Times,serif" font-size="14.00">[75.0, 112.5]</text>
<text text-anchor="middle" x="756.5" y="-7.8" font-family="Times,serif" font-size="14.00">LEAF</text>
</g>
<!-- [200.0, 300.0]\n[75.0, 112.5]&#45;&gt;[250.0, 300.0]\n[75.0, 112.5] -->
<g id="edge26" class="edge">
<title>[200.0, 300.0]\n[75.0, 112.5]&#45;&gt;[250.0, 300.0]\n[75.0, 112.5]</title>
<path fill="none" stroke="black" d="M662.02,-70.46C671.14,-66.16 680.64,-61.7 689.94,-57.33"/>
<polygon fill="black" stroke="black" points="691.58,-60.42 699.14,-53 688.6,-54.09 691.58,-60.42"/>
</g>
</g>
</svg>
