<?xml version="1.0" encoding="UTF-8" standalone="no"?>
<!DOCTYPE svg PUBLIC "-//W3C//DTD SVG 1.1//EN"
 "http://www.w3.org/Graphics/SVG/1.1/DTD/svg11.dtd">
<!-- Generated by graphviz version 2.43.0 (0)
 -->
<!-- Title: G Pages: 1 -->
<svg width="1312pt" height="377pt"
 viewBox="0.00 0.00 1312.00 377.00" xmlns="http://www.w3.org/2000/svg" xmlns:xlink="http://www.w3.org/1999/xlink">
<g id="graph0" class="graph" transform="scale(1 1) rotate(0) translate(4 373)">
<title>G</title>
<polygon fill="white" stroke="transparent" points="-4,4 -4,-373 1308,-373 1308,4 -4,4"/>
<!-- [160.95, 238.62]\n[6.95, 85.7] -->
<g id="node1" class="node">
<title>[160.95, 238.62]\n[6.95, 85.7]</title>
<polygon fill="none" stroke="black" points="191,-303.5 0,-303.5 0,-235.5 191,-235.5 191,-303.5"/>
<text text-anchor="middle" x="95.5" y="-288.3" font-family="Times,serif" font-size="14.00">[160.95, 238.62]</text>
<text text-anchor="middle" x="95.5" y="-273.3" font-family="Times,serif" font-size="14.00">[6.95, 85.7]</text>
<text text-anchor="middle" x="95.5" y="-258.3" font-family="Times,serif" font-size="14.00">sp: 14.08885242122055</text>
<text text-anchor="middle" x="95.5" y="-243.3" font-family="Times,serif" font-size="14.00">dim: 1</text>
</g>
<!-- [215.83, 215.83]\n[6.95, 6.95] -->
<g id="node2" class="node">
<title>[215.83, 215.83]\n[6.95, 6.95]</title>
<polygon fill="none" stroke="black" points="398,-336 256,-336 256,-283 398,-283 398,-336"/>
<text text-anchor="middle" x="327" y="-320.8" font-family="Times,serif" font-size="14.00">[215.83, 215.83]</text>
<text text-anchor="middle" x="327" y="-305.8" font-family="Times,serif" font-size="14.00">[6.95, 6.95]</text>
<text text-anchor="middle" x="327" y="-290.8" font-family="Times,serif" font-size="14.00">path_length: 8.04</text>
</g>
<!-- [160.95, 238.62]\n[6.95, 85.7]&#45;&gt;[215.83, 215.83]\n[6.95, 6.95] -->
<g id="edge1" class="edge">
<title>[160.95, 238.62]\n[6.95, 85.7]&#45;&gt;[215.83, 215.83]\n[6.95, 6.95]</title>
<path fill="none" stroke="black" d="M191.17,-286C209.23,-289.15 227.98,-292.42 245.55,-295.48"/>
<polygon fill="black" stroke="black" points="245.29,-298.99 255.74,-297.25 246.49,-292.09 245.29,-298.99"/>
</g>
<!-- [160.95, 238.62]\n[25.97, 85.7] -->
<g id="node3" class="node">
<title>[160.95, 238.62]\n[25.97, 85.7]</title>
<polygon fill="none" stroke="black" points="427,-264.5 227,-264.5 227,-196.5 427,-196.5 427,-264.5"/>
<text text-anchor="middle" x="327" y="-249.3" font-family="Times,serif" font-size="14.00">[160.95, 238.62]</text>
<text text-anchor="middle" x="327" y="-234.3" font-family="Times,serif" font-size="14.00">[25.97, 85.7]</text>
<text text-anchor="middle" x="327" y="-219.3" font-family="Times,serif" font-size="14.00">sp: 29.608212934627115</text>
<text text-anchor="middle" x="327" y="-204.3" font-family="Times,serif" font-size="14.00">dim: 1</text>
</g>
<!-- [160.95, 238.62]\n[6.95, 85.7]&#45;&gt;[160.95, 238.62]\n[25.97, 85.7] -->
<g id="edge2" class="edge">
<title>[160.95, 238.62]\n[6.95, 85.7]&#45;&gt;[160.95, 238.62]\n[25.97, 85.7]</title>
<path fill="none" stroke="black" d="M191.17,-253.41C199.6,-251.98 208.18,-250.52 216.72,-249.07"/>
<polygon fill="black" stroke="black" points="217.44,-252.5 226.72,-247.37 216.27,-245.6 217.44,-252.5"/>
</g>
<!-- [160.95, 202.97]\n[25.97, 29.53] -->
<g id="node4" class="node">
<title>[160.95, 202.97]\n[25.97, 29.53]</title>
<polygon fill="none" stroke="black" points="663,-307.5 463,-307.5 463,-239.5 663,-239.5 663,-307.5"/>
<text text-anchor="middle" x="563" y="-292.3" font-family="Times,serif" font-size="14.00">[160.95, 202.97]</text>
<text text-anchor="middle" x="563" y="-277.3" font-family="Times,serif" font-size="14.00">[25.97, 29.53]</text>
<text text-anchor="middle" x="563" y="-262.3" font-family="Times,serif" font-size="14.00">sp: 29.182763423478196</text>
<text text-anchor="middle" x="563" y="-247.3" font-family="Times,serif" font-size="14.00">dim: 1</text>
</g>
<!-- [160.95, 238.62]\n[25.97, 85.7]&#45;&gt;[160.95, 202.97]\n[25.97, 29.53] -->
<g id="edge3" class="edge">
<title>[160.95, 238.62]\n[25.97, 85.7]&#45;&gt;[160.95, 202.97]\n[25.97, 29.53]</title>
<path fill="none" stroke="black" d="M427.24,-248.74C435.74,-250.3 444.38,-251.89 452.95,-253.46"/>
<polygon fill="black" stroke="black" points="452.51,-256.94 462.98,-255.3 453.78,-250.05 452.51,-256.94"/>
</g>
<!-- [170.06, 238.62]\n[35.1, 85.7] -->
<g id="node5" class="node">
<title>[170.06, 238.62]\n[35.1, 85.7]</title>
<polygon fill="none" stroke="black" points="658.5,-221.5 467.5,-221.5 467.5,-153.5 658.5,-153.5 658.5,-221.5"/>
<text text-anchor="middle" x="563" y="-206.3" font-family="Times,serif" font-size="14.00">[170.06, 238.62]</text>
<text text-anchor="middle" x="563" y="-191.3" font-family="Times,serif" font-size="14.00">[35.1, 85.7]</text>
<text text-anchor="middle" x="563" y="-176.3" font-family="Times,serif" font-size="14.00">sp: 38.11845117848394</text>
<text text-anchor="middle" x="563" y="-161.3" font-family="Times,serif" font-size="14.00">dim: 1</text>
</g>
<!-- [160.95, 238.62]\n[25.97, 85.7]&#45;&gt;[170.06, 238.62]\n[35.1, 85.7] -->
<g id="edge4" class="edge">
<title>[160.95, 238.62]\n[25.97, 85.7]&#45;&gt;[170.06, 238.62]\n[35.1, 85.7]</title>
<path fill="none" stroke="black" d="M427.24,-212.26C437.23,-210.43 447.41,-208.56 457.46,-206.71"/>
<polygon fill="black" stroke="black" points="458.25,-210.12 467.45,-204.87 456.99,-203.24 458.25,-210.12"/>
</g>
<!-- [202.97, 202.97]\n[25.97, 25.97] -->
<g id="node6" class="node">
<title>[202.97, 202.97]\n[25.97, 25.97]</title>
<polygon fill="none" stroke="black" points="862,-369 727,-369 727,-316 862,-316 862,-369"/>
<text text-anchor="middle" x="794.5" y="-353.8" font-family="Times,serif" font-size="14.00">[202.97, 202.97]</text>
<text text-anchor="middle" x="794.5" y="-338.8" font-family="Times,serif" font-size="14.00">[25.97, 25.97]</text>
<text text-anchor="middle" x="794.5" y="-323.8" font-family="Times,serif" font-size="14.00">path_length: 5</text>
</g>
<!-- [160.95, 202.97]\n[25.97, 29.53]&#45;&gt;[202.97, 202.97]\n[25.97, 25.97] -->
<g id="edge5" class="edge">
<title>[160.95, 202.97]\n[25.97, 29.53]&#45;&gt;[202.97, 202.97]\n[25.97, 25.97]</title>
<path fill="none" stroke="black" d="M663.33,-303.36C681.25,-308.75 699.69,-314.29 716.84,-319.45"/>
<polygon fill="black" stroke="black" points="716.2,-322.91 726.78,-322.44 718.21,-316.21 716.2,-322.91"/>
</g>
<!-- [160.95, 160.95]\n[29.53, 29.53] -->
<g id="node7" class="node">
<title>[160.95, 160.95]\n[29.53, 29.53]</title>
<polygon fill="none" stroke="black" points="862,-298 727,-298 727,-245 862,-245 862,-298"/>
<text text-anchor="middle" x="794.5" y="-282.8" font-family="Times,serif" font-size="14.00">[160.95, 160.95]</text>
<text text-anchor="middle" x="794.5" y="-267.8" font-family="Times,serif" font-size="14.00">[29.53, 29.53]</text>
<text text-anchor="middle" x="794.5" y="-252.8" font-family="Times,serif" font-size="14.00">path_length: 5</text>
</g>
<!-- [160.95, 202.97]\n[25.97, 29.53]&#45;&gt;[160.95, 160.95]\n[29.53, 29.53] -->
<g id="edge6" class="edge">
<title>[160.95, 202.97]\n[25.97, 29.53]&#45;&gt;[160.95, 160.95]\n[29.53, 29.53]</title>
<path fill="none" stroke="black" d="M663.33,-272.63C681.08,-272.48 699.34,-272.32 716.36,-272.17"/>
<polygon fill="black" stroke="black" points="716.81,-275.67 726.78,-272.08 716.75,-268.67 716.81,-275.67"/>
</g>
<!-- [177.62, 212.74]\n[35.1, 37.15] -->
<g id="node8" class="node">
<title>[177.62, 212.74]\n[35.1, 37.15]</title>
<polygon fill="none" stroke="black" points="890,-223.5 699,-223.5 699,-155.5 890,-155.5 890,-223.5"/>
<text text-anchor="middle" x="794.5" y="-208.3" font-family="Times,serif" font-size="14.00">[177.62, 212.74]</text>
<text text-anchor="middle" x="794.5" y="-193.3" font-family="Times,serif" font-size="14.00">[35.1, 37.15]</text>
<text text-anchor="middle" x="794.5" y="-178.3" font-family="Times,serif" font-size="14.00">sp: 180.2176614794943</text>
<text text-anchor="middle" x="794.5" y="-163.3" font-family="Times,serif" font-size="14.00">dim: 0</text>
</g>
<!-- [170.06, 238.62]\n[35.1, 85.7]&#45;&gt;[177.62, 212.74]\n[35.1, 37.15] -->
<g id="edge7" class="edge">
<title>[170.06, 238.62]\n[35.1, 85.7]&#45;&gt;[177.62, 212.74]\n[35.1, 37.15]</title>
<path fill="none" stroke="black" d="M658.67,-188.33C668.48,-188.41 678.48,-188.5 688.4,-188.58"/>
<polygon fill="black" stroke="black" points="688.65,-192.09 698.68,-188.67 688.71,-185.09 688.65,-192.09"/>
</g>
<!-- [170.06, 238.62]\n[40.01, 85.7] -->
<g id="node9" class="node">
<title>[170.06, 238.62]\n[40.01, 85.7]</title>
<polygon fill="none" stroke="black" points="890,-137.5 699,-137.5 699,-69.5 890,-69.5 890,-137.5"/>
<text text-anchor="middle" x="794.5" y="-122.3" font-family="Times,serif" font-size="14.00">[170.06, 238.62]</text>
<text text-anchor="middle" x="794.5" y="-107.3" font-family="Times,serif" font-size="14.00">[40.01, 85.7]</text>
<text text-anchor="middle" x="794.5" y="-92.3" font-family="Times,serif" font-size="14.00">sp: 82.97578728691424</text>
<text text-anchor="middle" x="794.5" y="-77.3" font-family="Times,serif" font-size="14.00">dim: 1</text>
</g>
<!-- [170.06, 238.62]\n[35.1, 85.7]&#45;&gt;[170.06, 238.62]\n[40.01, 85.7] -->
<g id="edge8" class="edge">
<title>[170.06, 238.62]\n[35.1, 85.7]&#45;&gt;[170.06, 238.62]\n[40.01, 85.7]</title>
<path fill="none" stroke="black" d="M657.02,-153.46C668.18,-149.37 679.63,-145.18 690.92,-141.05"/>
<polygon fill="black" stroke="black" points="692.16,-144.32 700.35,-137.59 689.76,-137.74 692.16,-144.32"/>
</g>
<!-- [177.62, 177.62]\n[37.15, 37.15] -->
<g id="node10" class="node">
<title>[177.62, 177.62]\n[37.15, 37.15]</title>
<polygon fill="none" stroke="black" points="1089,-285 954,-285 954,-232 1089,-232 1089,-285"/>
<text text-anchor="middle" x="1021.5" y="-269.8" font-family="Times,serif" font-size="14.00">[177.62, 177.62]</text>
<text text-anchor="middle" x="1021.5" y="-254.8" font-family="Times,serif" font-size="14.00">[37.15, 37.15]</text>
<text text-anchor="middle" x="1021.5" y="-239.8" font-family="Times,serif" font-size="14.00">path_length: 6</text>
</g>
<!-- [177.62, 212.74]\n[35.1, 37.15]&#45;&gt;[177.62, 177.62]\n[37.15, 37.15] -->
<g id="edge9" class="edge">
<title>[177.62, 212.74]\n[35.1, 37.15]&#45;&gt;[177.62, 177.62]\n[37.15, 37.15]</title>
<path fill="none" stroke="black" d="M890.27,-218.56C908.14,-224.04 926.62,-229.71 943.85,-234.99"/>
<polygon fill="black" stroke="black" points="943.25,-238.47 953.84,-238.06 945.3,-231.78 943.25,-238.47"/>
</g>
<!-- [212.74, 212.74]\n[35.1, 35.1] -->
<g id="node11" class="node">
<title>[212.74, 212.74]\n[35.1, 35.1]</title>
<polygon fill="none" stroke="black" points="1089,-214 954,-214 954,-161 1089,-161 1089,-214"/>
<text text-anchor="middle" x="1021.5" y="-198.8" font-family="Times,serif" font-size="14.00">[212.74, 212.74]</text>
<text text-anchor="middle" x="1021.5" y="-183.8" font-family="Times,serif" font-size="14.00">[35.1, 35.1]</text>
<text text-anchor="middle" x="1021.5" y="-168.8" font-family="Times,serif" font-size="14.00">path_length: 6</text>
</g>
<!-- [177.62, 212.74]\n[35.1, 37.15]&#45;&gt;[212.74, 212.74]\n[35.1, 35.1] -->
<g id="edge10" class="edge">
<title>[177.62, 212.74]\n[35.1, 37.15]&#45;&gt;[212.74, 212.74]\n[35.1, 35.1]</title>
<path fill="none" stroke="black" d="M890.27,-188.66C907.97,-188.5 926.28,-188.34 943.37,-188.19"/>
<polygon fill="black" stroke="black" points="943.87,-191.68 953.84,-188.09 943.81,-184.68 943.87,-191.68"/>
</g>
<!-- [170.06, 238.62]\n[40.01, 80.45] -->
<g id="node12" class="node">
<title>[170.06, 238.62]\n[40.01, 80.45]</title>
<polygon fill="none" stroke="black" points="1117,-139.5 926,-139.5 926,-71.5 1117,-71.5 1117,-139.5"/>
<text text-anchor="middle" x="1021.5" y="-124.3" font-family="Times,serif" font-size="14.00">[170.06, 238.62]</text>
<text text-anchor="middle" x="1021.5" y="-109.3" font-family="Times,serif" font-size="14.00">[40.01, 80.45]</text>
<text text-anchor="middle" x="1021.5" y="-94.3" font-family="Times,serif" font-size="14.00">sp: 217.5253672431152</text>
<text text-anchor="middle" x="1021.5" y="-79.3" font-family="Times,serif" font-size="14.00">dim: 0</text>
</g>
<!-- [170.06, 238.62]\n[40.01, 85.7]&#45;&gt;[170.06, 238.62]\n[40.01, 80.45] -->
<g id="edge11" class="edge">
<title>[170.06, 238.62]\n[40.01, 85.7]&#45;&gt;[170.06, 238.62]\n[40.01, 80.45]</title>
<path fill="none" stroke="black" d="M890.27,-104.34C898.64,-104.42 907.14,-104.49 915.58,-104.57"/>
<polygon fill="black" stroke="black" points="915.81,-108.07 925.84,-104.66 915.87,-101.07 915.81,-108.07"/>
</g>
<!-- [174.85, 174.85]\n[85.7, 85.7] -->
<g id="node13" class="node">
<title>[174.85, 174.85]\n[85.7, 85.7]</title>
<polygon fill="none" stroke="black" points="1097,-53 946,-53 946,0 1097,0 1097,-53"/>
<text text-anchor="middle" x="1021.5" y="-37.8" font-family="Times,serif" font-size="14.00">[174.85, 174.85]</text>
<text text-anchor="middle" x="1021.5" y="-22.8" font-family="Times,serif" font-size="14.00">[85.7, 85.7]</text>
<text text-anchor="middle" x="1021.5" y="-7.8" font-family="Times,serif" font-size="14.00">path_length: 10.43</text>
</g>
<!-- [170.06, 238.62]\n[40.01, 85.7]&#45;&gt;[174.85, 174.85]\n[85.7, 85.7] -->
<g id="edge12" class="edge">
<title>[170.06, 238.62]\n[40.01, 85.7]&#45;&gt;[174.85, 174.85]\n[85.7, 85.7]</title>
<path fill="none" stroke="black" d="M890.27,-71.07C905.54,-65.84 921.26,-60.46 936.26,-55.33"/>
<polygon fill="black" stroke="black" points="937.67,-58.55 946,-52 935.4,-51.92 937.67,-58.55"/>
</g>
<!-- [170.06, 213.91]\n[40.01, 80.45] -->
<g id="node14" class="node">
<title>[170.06, 213.91]\n[40.01, 80.45]</title>
<polygon fill="none" stroke="black" points="1304,-167 1153,-167 1153,-114 1304,-114 1304,-167"/>
<text text-anchor="middle" x="1228.5" y="-151.8" font-family="Times,serif" font-size="14.00">[170.06, 213.91]</text>
<text text-anchor="middle" x="1228.5" y="-136.8" font-family="Times,serif" font-size="14.00">[40.01, 80.45]</text>
<text text-anchor="middle" x="1228.5" y="-121.8" font-family="Times,serif" font-size="14.00">path_length: 11.28</text>
</g>
<!-- [170.06, 238.62]\n[40.01, 80.45]&#45;&gt;[170.06, 213.91]\n[40.01, 80.45] -->
<g id="edge13" class="edge">
<title>[170.06, 238.62]\n[40.01, 80.45]&#45;&gt;[170.06, 213.91]\n[40.01, 80.45]</title>
<path fill="none" stroke="black" d="M1117.2,-121.67C1125.8,-123.14 1134.46,-124.62 1142.96,-126.07"/>
<polygon fill="black" stroke="black" points="1142.4,-129.52 1152.85,-127.75 1143.58,-122.62 1142.4,-129.52"/>
</g>
<!-- [237.66, 238.62]\n[54.24, 70.66] -->
<g id="node15" class="node">
<title>[237.66, 238.62]\n[54.24, 70.66]</title>
<polygon fill="none" stroke="black" points="1304,-96 1153,-96 1153,-43 1304,-43 1304,-96"/>
<text text-anchor="middle" x="1228.5" y="-80.8" font-family="Times,serif" font-size="14.00">[237.66, 238.62]</text>
<text text-anchor="middle" x="1228.5" y="-65.8" font-family="Times,serif" font-size="14.00">[54.24, 70.66]</text>
<text text-anchor="middle" x="1228.5" y="-50.8" font-family="Times,serif" font-size="14.00">path_length: 11.28</text>
</g>
<!-- [170.06, 238.62]\n[40.01, 80.45]&#45;&gt;[237.66, 238.62]\n[54.24, 70.66] -->
<g id="edge14" class="edge">
<title>[170.06, 238.62]\n[40.01, 80.45]&#45;&gt;[237.66, 238.62]\n[54.24, 70.66]</title>
<path fill="none" stroke="black" d="M1117.2,-88.87C1125.8,-87.36 1134.46,-85.84 1142.96,-84.35"/>
<polygon fill="black" stroke="black" points="1143.61,-87.79 1152.85,-82.61 1142.39,-80.89 1143.61,-87.79"/>
</g>
</g>
</svg>
