<?xml version="1.0" encoding="UTF-8" standalone="no"?>
<!DOCTYPE svg PUBLIC "-//W3C//DTD SVG 1.1//EN"
 "http://www.w3.org/Graphics/SVG/1.1/DTD/svg11.dtd">
<!-- Generated by graphviz version 2.43.0 (0)
 -->
<!-- Title: G Pages: 1 -->
<svg width="828pt" height="662pt"
 viewBox="0.00 0.00 828.00 662.00" xmlns="http://www.w3.org/2000/svg" xmlns:xlink="http://www.w3.org/1999/xlink">
<g id="graph0" class="graph" transform="scale(1 1) rotate(0) translate(4 658)">
<title>G</title>
<polygon fill="white" stroke="transparent" points="-4,4 -4,-658 824,-658 824,4 -4,4"/>
<!-- [100, 500]\n[0, 150] -->
<g id="node1" class="node">
<title>[100, 500]\n[0, 150]</title>
<polygon fill="none" stroke="black" points="90,-262 0,-262 0,-224 90,-224 90,-262"/>
<text text-anchor="middle" x="45" y="-246.8" font-family="Times,serif" font-size="14.00">[100, 500]</text>
<text text-anchor="middle" x="45" y="-231.8" font-family="Times,serif" font-size="14.00">[0, 150]</text>
</g>
<!-- [100, 500]\n[0, 75.0] -->
<g id="node2" class="node">
<title>[100, 500]\n[0, 75.0]</title>
<polygon fill="none" stroke="black" points="218.5,-374 128.5,-374 128.5,-336 218.5,-336 218.5,-374"/>
<text text-anchor="middle" x="173.5" y="-358.8" font-family="Times,serif" font-size="14.00">[100, 500]</text>
<text text-anchor="middle" x="173.5" y="-343.8" font-family="Times,serif" font-size="14.00">[0, 75.0]</text>
</g>
<!-- [100, 500]\n[0, 150]&#45;&gt;[100, 500]\n[0, 75.0] -->
<g id="edge1" class="edge">
<title>[100, 500]\n[0, 150]&#45;&gt;[100, 500]\n[0, 75.0]</title>
<path fill="none" stroke="black" d="M67.75,-262.25C88.6,-280.72 120.23,-308.72 143.28,-329.13"/>
<polygon fill="black" stroke="black" points="141.23,-331.99 151.04,-336 145.87,-326.75 141.23,-331.99"/>
</g>
<!-- [100, 500]\n[75.0, 150] -->
<g id="node3" class="node">
<title>[100, 500]\n[75.0, 150]</title>
<polygon fill="none" stroke="black" points="221,-178 126,-178 126,-140 221,-140 221,-178"/>
<text text-anchor="middle" x="173.5" y="-162.8" font-family="Times,serif" font-size="14.00">[100, 500]</text>
<text text-anchor="middle" x="173.5" y="-147.8" font-family="Times,serif" font-size="14.00">[75.0, 150]</text>
</g>
<!-- [100, 500]\n[0, 150]&#45;&gt;[100, 500]\n[75.0, 150] -->
<g id="edge2" class="edge">
<title>[100, 500]\n[0, 150]&#45;&gt;[100, 500]\n[75.0, 150]</title>
<path fill="none" stroke="black" d="M74.7,-223.94C92.53,-212.1 115.64,-196.76 134.92,-183.96"/>
<polygon fill="black" stroke="black" points="137.08,-186.72 143.47,-178.28 133.2,-180.89 137.08,-186.72"/>
</g>
<!-- [100, 500]\n[0, 37.5] -->
<g id="node4" class="node">
<title>[100, 500]\n[0, 37.5]</title>
<polygon fill="none" stroke="black" points="354,-458 264,-458 264,-420 354,-420 354,-458"/>
<text text-anchor="middle" x="309" y="-442.8" font-family="Times,serif" font-size="14.00">[100, 500]</text>
<text text-anchor="middle" x="309" y="-427.8" font-family="Times,serif" font-size="14.00">[0, 37.5]</text>
</g>
<!-- [100, 500]\n[0, 75.0]&#45;&gt;[100, 500]\n[0, 37.5] -->
<g id="edge3" class="edge">
<title>[100, 500]\n[0, 75.0]&#45;&gt;[100, 500]\n[0, 37.5]</title>
<path fill="none" stroke="black" d="M204.79,-374.06C223.78,-386 248.43,-401.52 268.89,-414.39"/>
<polygon fill="black" stroke="black" points="267.04,-417.36 277.36,-419.72 270.76,-411.44 267.04,-417.36"/>
</g>
<!-- [100, 500]\n[37.5, 75.0] -->
<g id="node5" class="node">
<title>[100, 500]\n[37.5, 75.0]</title>
<polygon fill="none" stroke="black" points="358.5,-374 259.5,-374 259.5,-336 358.5,-336 358.5,-374"/>
<text text-anchor="middle" x="309" y="-358.8" font-family="Times,serif" font-size="14.00">[100, 500]</text>
<text text-anchor="middle" x="309" y="-343.8" font-family="Times,serif" font-size="14.00">[37.5, 75.0]</text>
</g>
<!-- [100, 500]\n[0, 75.0]&#45;&gt;[100, 500]\n[37.5, 75.0] -->
<g id="edge4" class="edge">
<title>[100, 500]\n[0, 75.0]&#45;&gt;[100, 500]\n[37.5, 75.0]</title>
<path fill="none" stroke="black" d="M218.58,-355C228.38,-355 238.92,-355 249.2,-355"/>
<polygon fill="black" stroke="black" points="249.36,-358.5 259.36,-355 249.36,-351.5 249.36,-358.5"/>
</g>
<!-- [100, 300.0]\n[75.0, 150] -->
<g id="node24" class="node">
<title>[100, 300.0]\n[75.0, 150]</title>
<polygon fill="none" stroke="black" points="361,-178 257,-178 257,-140 361,-140 361,-178"/>
<text text-anchor="middle" x="309" y="-162.8" font-family="Times,serif" font-size="14.00">[100, 300.0]</text>
<text text-anchor="middle" x="309" y="-147.8" font-family="Times,serif" font-size="14.00">[75.0, 150]</text>
</g>
<!-- [100, 500]\n[75.0, 150]&#45;&gt;[100, 300.0]\n[75.0, 150] -->
<g id="edge23" class="edge">
<title>[100, 500]\n[75.0, 150]&#45;&gt;[100, 300.0]\n[75.0, 150]</title>
<path fill="none" stroke="black" d="M221.19,-159C229.32,-159 237.88,-159 246.33,-159"/>
<polygon fill="black" stroke="black" points="246.55,-162.5 256.55,-159 246.55,-155.5 246.55,-162.5"/>
</g>
<!-- [300.0, 500]\n[75.0, 150] -->
<g id="node25" class="node">
<title>[300.0, 500]\n[75.0, 150]</title>
<polygon fill="none" stroke="black" points="361,-122 257,-122 257,-84 361,-84 361,-122"/>
<text text-anchor="middle" x="309" y="-106.8" font-family="Times,serif" font-size="14.00">[300.0, 500]</text>
<text text-anchor="middle" x="309" y="-91.8" font-family="Times,serif" font-size="14.00">[75.0, 150]</text>
</g>
<!-- [100, 500]\n[75.0, 150]&#45;&gt;[300.0, 500]\n[75.0, 150] -->
<g id="edge24" class="edge">
<title>[100, 500]\n[75.0, 150]&#45;&gt;[300.0, 500]\n[75.0, 150]</title>
<path fill="none" stroke="black" d="M220.07,-139.88C230.7,-135.42 242.14,-130.63 253.12,-126.02"/>
<polygon fill="black" stroke="black" points="254.77,-129.13 262.64,-122.03 252.06,-122.67 254.77,-129.13"/>
</g>
<!-- [100, 300.0]\n[0, 37.5] -->
<g id="node6" class="node">
<title>[100, 300.0]\n[0, 37.5]</title>
<polygon fill="none" stroke="black" points="507.5,-528 403.5,-528 403.5,-490 507.5,-490 507.5,-528"/>
<text text-anchor="middle" x="455.5" y="-512.8" font-family="Times,serif" font-size="14.00">[100, 300.0]</text>
<text text-anchor="middle" x="455.5" y="-497.8" font-family="Times,serif" font-size="14.00">[0, 37.5]</text>
</g>
<!-- [100, 500]\n[0, 37.5]&#45;&gt;[100, 300.0]\n[0, 37.5] -->
<g id="edge5" class="edge">
<title>[100, 500]\n[0, 37.5]&#45;&gt;[100, 300.0]\n[0, 37.5]</title>
<path fill="none" stroke="black" d="M349.49,-458.13C366.93,-466.58 387.6,-476.59 405.97,-485.49"/>
<polygon fill="black" stroke="black" points="404.54,-488.69 415.06,-489.9 407.59,-482.39 404.54,-488.69"/>
</g>
<!-- [300.0, 500]\n[0, 37.5] -->
<g id="node7" class="node">
<title>[300.0, 500]\n[0, 37.5]</title>
<polygon fill="none" stroke="black" points="507.5,-458 403.5,-458 403.5,-420 507.5,-420 507.5,-458"/>
<text text-anchor="middle" x="455.5" y="-442.8" font-family="Times,serif" font-size="14.00">[300.0, 500]</text>
<text text-anchor="middle" x="455.5" y="-427.8" font-family="Times,serif" font-size="14.00">[0, 37.5]</text>
</g>
<!-- [100, 500]\n[0, 37.5]&#45;&gt;[300.0, 500]\n[0, 37.5] -->
<g id="edge6" class="edge">
<title>[100, 500]\n[0, 37.5]&#45;&gt;[300.0, 500]\n[0, 37.5]</title>
<path fill="none" stroke="black" d="M354.14,-439C366.39,-439 379.91,-439 392.96,-439"/>
<polygon fill="black" stroke="black" points="393.28,-442.5 403.28,-439 393.28,-435.5 393.28,-442.5"/>
</g>
<!-- [100, 500]\n[37.5, 56.25] -->
<g id="node14" class="node">
<title>[100, 500]\n[37.5, 56.25]</title>
<polygon fill="none" stroke="black" points="509.5,-374 401.5,-374 401.5,-336 509.5,-336 509.5,-374"/>
<text text-anchor="middle" x="455.5" y="-358.8" font-family="Times,serif" font-size="14.00">[100, 500]</text>
<text text-anchor="middle" x="455.5" y="-343.8" font-family="Times,serif" font-size="14.00">[37.5, 56.25]</text>
</g>
<!-- [100, 500]\n[37.5, 75.0]&#45;&gt;[100, 500]\n[37.5, 56.25] -->
<g id="edge13" class="edge">
<title>[100, 500]\n[37.5, 75.0]&#45;&gt;[100, 500]\n[37.5, 56.25]</title>
<path fill="none" stroke="black" d="M358.52,-355C369.06,-355 380.37,-355 391.39,-355"/>
<polygon fill="black" stroke="black" points="391.39,-358.5 401.39,-355 391.39,-351.5 391.39,-358.5"/>
</g>
<!-- [100, 500]\n[56.25, 75.0] -->
<g id="node15" class="node">
<title>[100, 500]\n[56.25, 75.0]</title>
<polygon fill="none" stroke="black" points="509.5,-318 401.5,-318 401.5,-280 509.5,-280 509.5,-318"/>
<text text-anchor="middle" x="455.5" y="-302.8" font-family="Times,serif" font-size="14.00">[100, 500]</text>
<text text-anchor="middle" x="455.5" y="-287.8" font-family="Times,serif" font-size="14.00">[56.25, 75.0]</text>
</g>
<!-- [100, 500]\n[37.5, 75.0]&#45;&gt;[100, 500]\n[56.25, 75.0] -->
<g id="edge14" class="edge">
<title>[100, 500]\n[37.5, 75.0]&#45;&gt;[100, 500]\n[56.25, 75.0]</title>
<path fill="none" stroke="black" d="M358.52,-336.2C370.54,-331.54 383.55,-326.5 395.99,-321.67"/>
<polygon fill="black" stroke="black" points="397.31,-324.92 405.37,-318.04 394.78,-318.39 397.31,-324.92"/>
</g>
<!-- [100, 200.0]\n[0, 37.5] -->
<g id="node8" class="node">
<title>[100, 200.0]\n[0, 37.5]</title>
<polygon fill="none" stroke="black" points="660.5,-598 556.5,-598 556.5,-560 660.5,-560 660.5,-598"/>
<text text-anchor="middle" x="608.5" y="-582.8" font-family="Times,serif" font-size="14.00">[100, 200.0]</text>
<text text-anchor="middle" x="608.5" y="-567.8" font-family="Times,serif" font-size="14.00">[0, 37.5]</text>
</g>
<!-- [100, 300.0]\n[0, 37.5]&#45;&gt;[100, 200.0]\n[0, 37.5] -->
<g id="edge7" class="edge">
<title>[100, 300.0]\n[0, 37.5]&#45;&gt;[100, 200.0]\n[0, 37.5]</title>
<path fill="none" stroke="black" d="M497.76,-528.13C516.07,-536.62 537.79,-546.68 557.05,-555.61"/>
<polygon fill="black" stroke="black" points="555.74,-558.86 566.29,-559.9 558.69,-552.51 555.74,-558.86"/>
</g>
<!-- [200.0, 300.0]\n[0, 37.5] -->
<g id="node9" class="node">
<title>[200.0, 300.0]\n[0, 37.5]</title>
<polygon fill="none" stroke="black" points="667,-528 550,-528 550,-490 667,-490 667,-528"/>
<text text-anchor="middle" x="608.5" y="-512.8" font-family="Times,serif" font-size="14.00">[200.0, 300.0]</text>
<text text-anchor="middle" x="608.5" y="-497.8" font-family="Times,serif" font-size="14.00">[0, 37.5]</text>
</g>
<!-- [100, 300.0]\n[0, 37.5]&#45;&gt;[200.0, 300.0]\n[0, 37.5] -->
<g id="edge8" class="edge">
<title>[100, 300.0]\n[0, 37.5]&#45;&gt;[200.0, 300.0]\n[0, 37.5]</title>
<path fill="none" stroke="black" d="M507.62,-509C517.93,-509 528.92,-509 539.7,-509"/>
<polygon fill="black" stroke="black" points="539.94,-512.5 549.94,-509 539.94,-505.5 539.94,-512.5"/>
</g>
<!-- [100, 150.0]\n[0, 37.5] -->
<g id="node10" class="node">
<title>[100, 150.0]\n[0, 37.5]</title>
<polygon fill="none" stroke="black" points="813.5,-654 709.5,-654 709.5,-616 813.5,-616 813.5,-654"/>
<text text-anchor="middle" x="761.5" y="-638.8" font-family="Times,serif" font-size="14.00">[100, 150.0]</text>
<text text-anchor="middle" x="761.5" y="-623.8" font-family="Times,serif" font-size="14.00">[0, 37.5]</text>
</g>
<!-- [100, 200.0]\n[0, 37.5]&#45;&gt;[100, 150.0]\n[0, 37.5] -->
<g id="edge9" class="edge">
<title>[100, 200.0]\n[0, 37.5]&#45;&gt;[100, 150.0]\n[0, 37.5]</title>
<path fill="none" stroke="black" d="M660.62,-597.96C673.29,-602.66 686.98,-607.74 700.05,-612.58"/>
<polygon fill="black" stroke="black" points="698.84,-615.86 709.43,-616.06 701.27,-609.3 698.84,-615.86"/>
</g>
<!-- [150.0, 200.0]\n[0, 37.5] -->
<g id="node11" class="node">
<title>[150.0, 200.0]\n[0, 37.5]</title>
<polygon fill="none" stroke="black" points="820,-598 703,-598 703,-560 820,-560 820,-598"/>
<text text-anchor="middle" x="761.5" y="-582.8" font-family="Times,serif" font-size="14.00">[150.0, 200.0]</text>
<text text-anchor="middle" x="761.5" y="-567.8" font-family="Times,serif" font-size="14.00">[0, 37.5]</text>
</g>
<!-- [100, 200.0]\n[0, 37.5]&#45;&gt;[150.0, 200.0]\n[0, 37.5] -->
<g id="edge10" class="edge">
<title>[100, 200.0]\n[0, 37.5]&#45;&gt;[150.0, 200.0]\n[0, 37.5]</title>
<path fill="none" stroke="black" d="M660.62,-579C670.93,-579 681.92,-579 692.7,-579"/>
<polygon fill="black" stroke="black" points="692.94,-582.5 702.94,-579 692.94,-575.5 692.94,-582.5"/>
</g>
<!-- [200.0, 250.0]\n[0, 37.5] -->
<g id="node12" class="node">
<title>[200.0, 250.0]\n[0, 37.5]</title>
<polygon fill="none" stroke="black" points="820,-542 703,-542 703,-504 820,-504 820,-542"/>
<text text-anchor="middle" x="761.5" y="-526.8" font-family="Times,serif" font-size="14.00">[200.0, 250.0]</text>
<text text-anchor="middle" x="761.5" y="-511.8" font-family="Times,serif" font-size="14.00">[0, 37.5]</text>
</g>
<!-- [200.0, 300.0]\n[0, 37.5]&#45;&gt;[200.0, 250.0]\n[0, 37.5] -->
<g id="edge11" class="edge">
<title>[200.0, 300.0]\n[0, 37.5]&#45;&gt;[200.0, 250.0]\n[0, 37.5]</title>
<path fill="none" stroke="black" d="M667.02,-514.33C675.46,-515.12 684.23,-515.93 692.86,-516.73"/>
<polygon fill="black" stroke="black" points="692.61,-520.22 702.89,-517.66 693.26,-513.25 692.61,-520.22"/>
</g>
<!-- [250.0, 300.0]\n[0, 37.5] -->
<g id="node13" class="node">
<title>[250.0, 300.0]\n[0, 37.5]</title>
<polygon fill="none" stroke="black" points="820,-486 703,-486 703,-448 820,-448 820,-486"/>
<text text-anchor="middle" x="761.5" y="-470.8" font-family="Times,serif" font-size="14.00">[250.0, 300.0]</text>
<text text-anchor="middle" x="761.5" y="-455.8" font-family="Times,serif" font-size="14.00">[0, 37.5]</text>
</g>
<!-- [200.0, 300.0]\n[0, 37.5]&#45;&gt;[250.0, 300.0]\n[0, 37.5] -->
<g id="edge12" class="edge">
<title>[200.0, 300.0]\n[0, 37.5]&#45;&gt;[250.0, 300.0]\n[0, 37.5]</title>
<path fill="none" stroke="black" d="M667.02,-493C675.56,-490.63 684.42,-488.16 693.14,-485.74"/>
<polygon fill="black" stroke="black" points="694.2,-489.08 702.89,-483.02 692.32,-482.33 694.2,-489.08"/>
</g>
<!-- [100, 300.0]\n[37.5, 56.25] -->
<g id="node16" class="node">
<title>[100, 300.0]\n[37.5, 56.25]</title>
<polygon fill="none" stroke="black" points="662.5,-430 554.5,-430 554.5,-392 662.5,-392 662.5,-430"/>
<text text-anchor="middle" x="608.5" y="-414.8" font-family="Times,serif" font-size="14.00">[100, 300.0]</text>
<text text-anchor="middle" x="608.5" y="-399.8" font-family="Times,serif" font-size="14.00">[37.5, 56.25]</text>
</g>
<!-- [100, 500]\n[37.5, 56.25]&#45;&gt;[100, 300.0]\n[37.5, 56.25] -->
<g id="edge15" class="edge">
<title>[100, 500]\n[37.5, 56.25]&#45;&gt;[100, 300.0]\n[37.5, 56.25]</title>
<path fill="none" stroke="black" d="M508.04,-374.12C520.43,-378.71 533.79,-383.66 546.56,-388.4"/>
<polygon fill="black" stroke="black" points="545.6,-391.78 556.19,-391.97 548.03,-385.21 545.6,-391.78"/>
</g>
<!-- [300.0, 500]\n[37.5, 56.25] -->
<g id="node17" class="node">
<title>[300.0, 500]\n[37.5, 56.25]</title>
<polygon fill="none" stroke="black" points="662.5,-374 554.5,-374 554.5,-336 662.5,-336 662.5,-374"/>
<text text-anchor="middle" x="608.5" y="-358.8" font-family="Times,serif" font-size="14.00">[300.0, 500]</text>
<text text-anchor="middle" x="608.5" y="-343.8" font-family="Times,serif" font-size="14.00">[37.5, 56.25]</text>
</g>
<!-- [100, 500]\n[37.5, 56.25]&#45;&gt;[300.0, 500]\n[37.5, 56.25] -->
<g id="edge16" class="edge">
<title>[100, 500]\n[37.5, 56.25]&#45;&gt;[300.0, 500]\n[37.5, 56.25]</title>
<path fill="none" stroke="black" d="M509.74,-355C520.97,-355 532.92,-355 544.47,-355"/>
<polygon fill="black" stroke="black" points="544.49,-358.5 554.49,-355 544.49,-351.5 544.49,-358.5"/>
</g>
<!-- [100, 300.0]\n[56.25, 75.0] -->
<g id="node20" class="node">
<title>[100, 300.0]\n[56.25, 75.0]</title>
<polygon fill="none" stroke="black" points="662.5,-318 554.5,-318 554.5,-280 662.5,-280 662.5,-318"/>
<text text-anchor="middle" x="608.5" y="-302.8" font-family="Times,serif" font-size="14.00">[100, 300.0]</text>
<text text-anchor="middle" x="608.5" y="-287.8" font-family="Times,serif" font-size="14.00">[56.25, 75.0]</text>
</g>
<!-- [100, 500]\n[56.25, 75.0]&#45;&gt;[100, 300.0]\n[56.25, 75.0] -->
<g id="edge19" class="edge">
<title>[100, 500]\n[56.25, 75.0]&#45;&gt;[100, 300.0]\n[56.25, 75.0]</title>
<path fill="none" stroke="black" d="M509.74,-299C520.97,-299 532.92,-299 544.47,-299"/>
<polygon fill="black" stroke="black" points="544.49,-302.5 554.49,-299 544.49,-295.5 544.49,-302.5"/>
</g>
<!-- [300.0, 500]\n[56.25, 75.0] -->
<g id="node21" class="node">
<title>[300.0, 500]\n[56.25, 75.0]</title>
<polygon fill="none" stroke="black" points="662.5,-262 554.5,-262 554.5,-224 662.5,-224 662.5,-262"/>
<text text-anchor="middle" x="608.5" y="-246.8" font-family="Times,serif" font-size="14.00">[300.0, 500]</text>
<text text-anchor="middle" x="608.5" y="-231.8" font-family="Times,serif" font-size="14.00">[56.25, 75.0]</text>
</g>
<!-- [100, 500]\n[56.25, 75.0]&#45;&gt;[300.0, 500]\n[56.25, 75.0] -->
<g id="edge20" class="edge">
<title>[100, 500]\n[56.25, 75.0]&#45;&gt;[300.0, 500]\n[56.25, 75.0]</title>
<path fill="none" stroke="black" d="M508.04,-279.88C520.43,-275.29 533.79,-270.34 546.56,-265.6"/>
<polygon fill="black" stroke="black" points="548.03,-268.79 556.19,-262.03 545.6,-262.22 548.03,-268.79"/>
</g>
<!-- [100, 300.0]\n[37.5, 46.88] -->
<g id="node18" class="node">
<title>[100, 300.0]\n[37.5, 46.88]</title>
<polygon fill="none" stroke="black" points="815.5,-430 707.5,-430 707.5,-392 815.5,-392 815.5,-430"/>
<text text-anchor="middle" x="761.5" y="-414.8" font-family="Times,serif" font-size="14.00">[100, 300.0]</text>
<text text-anchor="middle" x="761.5" y="-399.8" font-family="Times,serif" font-size="14.00">[37.5, 46.88]</text>
</g>
<!-- [100, 300.0]\n[37.5, 56.25]&#45;&gt;[100, 300.0]\n[37.5, 46.88] -->
<g id="edge17" class="edge">
<title>[100, 300.0]\n[37.5, 56.25]&#45;&gt;[100, 300.0]\n[37.5, 46.88]</title>
<path fill="none" stroke="black" d="M662.74,-411C673.97,-411 685.92,-411 697.47,-411"/>
<polygon fill="black" stroke="black" points="697.49,-414.5 707.49,-411 697.49,-407.5 697.49,-414.5"/>
</g>
<!-- [100, 300.0]\n[46.88, 56.25] -->
<g id="node19" class="node">
<title>[100, 300.0]\n[46.88, 56.25]</title>
<polygon fill="none" stroke="black" points="820,-374 703,-374 703,-336 820,-336 820,-374"/>
<text text-anchor="middle" x="761.5" y="-358.8" font-family="Times,serif" font-size="14.00">[100, 300.0]</text>
<text text-anchor="middle" x="761.5" y="-343.8" font-family="Times,serif" font-size="14.00">[46.88, 56.25]</text>
</g>
<!-- [100, 300.0]\n[37.5, 56.25]&#45;&gt;[100, 300.0]\n[46.88, 56.25] -->
<g id="edge18" class="edge">
<title>[100, 300.0]\n[37.5, 56.25]&#45;&gt;[100, 300.0]\n[46.88, 56.25]</title>
<path fill="none" stroke="black" d="M661.04,-391.88C673.43,-387.29 686.79,-382.34 699.56,-377.6"/>
<polygon fill="black" stroke="black" points="701.03,-380.79 709.19,-374.03 698.6,-374.22 701.03,-380.79"/>
</g>
<!-- [100, 200.0]\n[56.25, 75.0] -->
<g id="node22" class="node">
<title>[100, 200.0]\n[56.25, 75.0]</title>
<polygon fill="none" stroke="black" points="815.5,-318 707.5,-318 707.5,-280 815.5,-280 815.5,-318"/>
<text text-anchor="middle" x="761.5" y="-302.8" font-family="Times,serif" font-size="14.00">[100, 200.0]</text>
<text text-anchor="middle" x="761.5" y="-287.8" font-family="Times,serif" font-size="14.00">[56.25, 75.0]</text>
</g>
<!-- [100, 300.0]\n[56.25, 75.0]&#45;&gt;[100, 200.0]\n[56.25, 75.0] -->
<g id="edge21" class="edge">
<title>[100, 300.0]\n[56.25, 75.0]&#45;&gt;[100, 200.0]\n[56.25, 75.0]</title>
<path fill="none" stroke="black" d="M662.74,-299C673.97,-299 685.92,-299 697.47,-299"/>
<polygon fill="black" stroke="black" points="697.49,-302.5 707.49,-299 697.49,-295.5 697.49,-302.5"/>
</g>
<!-- [200.0, 300.0]\n[56.25, 75.0] -->
<g id="node23" class="node">
<title>[200.0, 300.0]\n[56.25, 75.0]</title>
<polygon fill="none" stroke="black" points="820,-262 703,-262 703,-224 820,-224 820,-262"/>
<text text-anchor="middle" x="761.5" y="-246.8" font-family="Times,serif" font-size="14.00">[200.0, 300.0]</text>
<text text-anchor="middle" x="761.5" y="-231.8" font-family="Times,serif" font-size="14.00">[56.25, 75.0]</text>
</g>
<!-- [100, 300.0]\n[56.25, 75.0]&#45;&gt;[200.0, 300.0]\n[56.25, 75.0] -->
<g id="edge22" class="edge">
<title>[100, 300.0]\n[56.25, 75.0]&#45;&gt;[200.0, 300.0]\n[56.25, 75.0]</title>
<path fill="none" stroke="black" d="M661.04,-279.88C673.43,-275.29 686.79,-270.34 699.56,-265.6"/>
<polygon fill="black" stroke="black" points="701.03,-268.79 709.19,-262.03 698.6,-262.22 701.03,-268.79"/>
</g>
<!-- [100, 200.0]\n[75.0, 150] -->
<g id="node26" class="node">
<title>[100, 200.0]\n[75.0, 150]</title>
<polygon fill="none" stroke="black" points="507.5,-178 403.5,-178 403.5,-140 507.5,-140 507.5,-178"/>
<text text-anchor="middle" x="455.5" y="-162.8" font-family="Times,serif" font-size="14.00">[100, 200.0]</text>
<text text-anchor="middle" x="455.5" y="-147.8" font-family="Times,serif" font-size="14.00">[75.0, 150]</text>
</g>
<!-- [100, 300.0]\n[75.0, 150]&#45;&gt;[100, 200.0]\n[75.0, 150] -->
<g id="edge25" class="edge">
<title>[100, 300.0]\n[75.0, 150]&#45;&gt;[100, 200.0]\n[75.0, 150]</title>
<path fill="none" stroke="black" d="M361.35,-159C371.68,-159 382.63,-159 393.26,-159"/>
<polygon fill="black" stroke="black" points="393.31,-162.5 403.31,-159 393.31,-155.5 393.31,-162.5"/>
</g>
<!-- [200.0, 300.0]\n[75.0, 150] -->
<g id="node27" class="node">
<title>[200.0, 300.0]\n[75.0, 150]</title>
<polygon fill="none" stroke="black" points="514,-94 397,-94 397,-56 514,-56 514,-94"/>
<text text-anchor="middle" x="455.5" y="-78.8" font-family="Times,serif" font-size="14.00">[200.0, 300.0]</text>
<text text-anchor="middle" x="455.5" y="-63.8" font-family="Times,serif" font-size="14.00">[75.0, 150]</text>
</g>
<!-- [100, 300.0]\n[75.0, 150]&#45;&gt;[200.0, 300.0]\n[75.0, 150] -->
<g id="edge26" class="edge">
<title>[100, 300.0]\n[75.0, 150]&#45;&gt;[200.0, 300.0]\n[75.0, 150]</title>
<path fill="none" stroke="black" d="M345.21,-139.89C350.52,-136.95 355.92,-133.92 361,-131 378.59,-120.91 397.83,-109.46 414.27,-99.55"/>
<polygon fill="black" stroke="black" points="416.33,-102.39 423.08,-94.22 412.71,-96.4 416.33,-102.39"/>
</g>
<!-- [100, 150.0]\n[75.0, 150] -->
<g id="node28" class="node">
<title>[100, 150.0]\n[75.0, 150]</title>
<polygon fill="none" stroke="black" points="660.5,-206 556.5,-206 556.5,-168 660.5,-168 660.5,-206"/>
<text text-anchor="middle" x="608.5" y="-190.8" font-family="Times,serif" font-size="14.00">[100, 150.0]</text>
<text text-anchor="middle" x="608.5" y="-175.8" font-family="Times,serif" font-size="14.00">[75.0, 150]</text>
</g>
<!-- [100, 200.0]\n[75.0, 150]&#45;&gt;[100, 150.0]\n[75.0, 150] -->
<g id="edge27" class="edge">
<title>[100, 200.0]\n[75.0, 150]&#45;&gt;[100, 150.0]\n[75.0, 150]</title>
<path fill="none" stroke="black" d="M507.62,-168.48C520.04,-170.78 533.45,-173.27 546.29,-175.65"/>
<polygon fill="black" stroke="black" points="545.96,-179.15 556.43,-177.53 547.24,-172.27 545.96,-179.15"/>
</g>
<!-- [150.0, 200.0]\n[75.0, 150] -->
<g id="node29" class="node">
<title>[150.0, 200.0]\n[75.0, 150]</title>
<polygon fill="none" stroke="black" points="667,-150 550,-150 550,-112 667,-112 667,-150"/>
<text text-anchor="middle" x="608.5" y="-134.8" font-family="Times,serif" font-size="14.00">[150.0, 200.0]</text>
<text text-anchor="middle" x="608.5" y="-119.8" font-family="Times,serif" font-size="14.00">[75.0, 150]</text>
</g>
<!-- [100, 200.0]\n[75.0, 150]&#45;&gt;[150.0, 200.0]\n[75.0, 150] -->
<g id="edge28" class="edge">
<title>[100, 200.0]\n[75.0, 150]&#45;&gt;[150.0, 200.0]\n[75.0, 150]</title>
<path fill="none" stroke="black" d="M507.62,-149.52C518.04,-147.59 529.15,-145.53 540.03,-143.51"/>
<polygon fill="black" stroke="black" points="540.74,-146.94 549.94,-141.67 539.46,-140.06 540.74,-146.94"/>
</g>
<!-- [200.0, 300.0]\n[75.0, 112.5] -->
<g id="node32" class="node">
<title>[200.0, 300.0]\n[75.0, 112.5]</title>
<polygon fill="none" stroke="black" points="667,-94 550,-94 550,-56 667,-56 667,-94"/>
<text text-anchor="middle" x="608.5" y="-78.8" font-family="Times,serif" font-size="14.00">[200.0, 300.0]</text>
<text text-anchor="middle" x="608.5" y="-63.8" font-family="Times,serif" font-size="14.00">[75.0, 112.5]</text>
</g>
<!-- [200.0, 300.0]\n[75.0, 150]&#45;&gt;[200.0, 300.0]\n[75.0, 112.5] -->
<g id="edge31" class="edge">
<title>[200.0, 300.0]\n[75.0, 150]&#45;&gt;[200.0, 300.0]\n[75.0, 112.5]</title>
<path fill="none" stroke="black" d="M514.02,-75C522.46,-75 531.23,-75 539.86,-75"/>
<polygon fill="black" stroke="black" points="539.89,-78.5 549.89,-75 539.89,-71.5 539.89,-78.5"/>
</g>
<!-- [200.0, 300.0]\n[112.5, 150] -->
<g id="node33" class="node">
<title>[200.0, 300.0]\n[112.5, 150]</title>
<polygon fill="none" stroke="black" points="667,-38 550,-38 550,0 667,0 667,-38"/>
<text text-anchor="middle" x="608.5" y="-22.8" font-family="Times,serif" font-size="14.00">[200.0, 300.0]</text>
<text text-anchor="middle" x="608.5" y="-7.8" font-family="Times,serif" font-size="14.00">[112.5, 150]</text>
</g>
<!-- [200.0, 300.0]\n[75.0, 150]&#45;&gt;[200.0, 300.0]\n[112.5, 150] -->
<g id="edge32" class="edge">
<title>[200.0, 300.0]\n[75.0, 150]&#45;&gt;[200.0, 300.0]\n[112.5, 150]</title>
<path fill="none" stroke="black" d="M508.04,-55.88C520.43,-51.29 533.79,-46.34 546.56,-41.6"/>
<polygon fill="black" stroke="black" points="548.03,-44.79 556.19,-38.03 545.6,-38.22 548.03,-44.79"/>
</g>
<!-- [150.0, 200.0]\n[75.0, 112.5] -->
<g id="node30" class="node">
<title>[150.0, 200.0]\n[75.0, 112.5]</title>
<polygon fill="none" stroke="black" points="820,-206 703,-206 703,-168 820,-168 820,-206"/>
<text text-anchor="middle" x="761.5" y="-190.8" font-family="Times,serif" font-size="14.00">[150.0, 200.0]</text>
<text text-anchor="middle" x="761.5" y="-175.8" font-family="Times,serif" font-size="14.00">[75.0, 112.5]</text>
</g>
<!-- [150.0, 200.0]\n[75.0, 150]&#45;&gt;[150.0, 200.0]\n[75.0, 112.5] -->
<g id="edge29" class="edge">
<title>[150.0, 200.0]\n[75.0, 150]&#45;&gt;[150.0, 200.0]\n[75.0, 112.5]</title>
<path fill="none" stroke="black" d="M661.04,-150.12C673.43,-154.71 686.79,-159.66 699.56,-164.4"/>
<polygon fill="black" stroke="black" points="698.6,-167.78 709.19,-167.97 701.03,-161.21 698.6,-167.78"/>
</g>
<!-- [150.0, 200.0]\n[112.5, 150] -->
<g id="node31" class="node">
<title>[150.0, 200.0]\n[112.5, 150]</title>
<polygon fill="none" stroke="black" points="820,-150 703,-150 703,-112 820,-112 820,-150"/>
<text text-anchor="middle" x="761.5" y="-134.8" font-family="Times,serif" font-size="14.00">[150.0, 200.0]</text>
<text text-anchor="middle" x="761.5" y="-119.8" font-family="Times,serif" font-size="14.00">[112.5, 150]</text>
</g>
<!-- [150.0, 200.0]\n[75.0, 150]&#45;&gt;[150.0, 200.0]\n[112.5, 150] -->
<g id="edge30" class="edge">
<title>[150.0, 200.0]\n[75.0, 150]&#45;&gt;[150.0, 200.0]\n[112.5, 150]</title>
<path fill="none" stroke="black" d="M667.02,-131C675.46,-131 684.23,-131 692.86,-131"/>
<polygon fill="black" stroke="black" points="692.89,-134.5 702.89,-131 692.89,-127.5 692.89,-134.5"/>
</g>
<!-- [200.0, 250.0]\n[75.0, 112.5] -->
<g id="node34" class="node">
<title>[200.0, 250.0]\n[75.0, 112.5]</title>
<polygon fill="none" stroke="black" points="820,-94 703,-94 703,-56 820,-56 820,-94"/>
<text text-anchor="middle" x="761.5" y="-78.8" font-family="Times,serif" font-size="14.00">[200.0, 250.0]</text>
<text text-anchor="middle" x="761.5" y="-63.8" font-family="Times,serif" font-size="14.00">[75.0, 112.5]</text>
</g>
<!-- [200.0, 300.0]\n[75.0, 112.5]&#45;&gt;[200.0, 250.0]\n[75.0, 112.5] -->
<g id="edge33" class="edge">
<title>[200.0, 300.0]\n[75.0, 112.5]&#45;&gt;[200.0, 250.0]\n[75.0, 112.5]</title>
<path fill="none" stroke="black" d="M667.02,-75C675.46,-75 684.23,-75 692.86,-75"/>
<polygon fill="black" stroke="black" points="692.89,-78.5 702.89,-75 692.89,-71.5 692.89,-78.5"/>
</g>
<!-- [250.0, 300.0]\n[75.0, 112.5] -->
<g id="node35" class="node">
<title>[250.0, 300.0]\n[75.0, 112.5]</title>
<polygon fill="none" stroke="black" points="820,-38 703,-38 703,0 820,0 820,-38"/>
<text text-anchor="middle" x="761.5" y="-22.8" font-family="Times,serif" font-size="14.00">[250.0, 300.0]</text>
<text text-anchor="middle" x="761.5" y="-7.8" font-family="Times,serif" font-size="14.00">[75.0, 112.5]</text>
</g>
<!-- [200.0, 300.0]\n[75.0, 112.5]&#45;&gt;[250.0, 300.0]\n[75.0, 112.5] -->
<g id="edge34" class="edge">
<title>[200.0, 300.0]\n[75.0, 112.5]&#45;&gt;[250.0, 300.0]\n[75.0, 112.5]</title>
<path fill="none" stroke="black" d="M661.04,-55.88C673.43,-51.29 686.79,-46.34 699.56,-41.6"/>
<polygon fill="black" stroke="black" points="701.03,-44.79 709.19,-38.03 698.6,-38.22 701.03,-44.79"/>
</g>
</g>
</svg>
