<?xml version="1.0" encoding="UTF-8" standalone="no"?>
<!DOCTYPE svg PUBLIC "-//W3C//DTD SVG 1.1//EN"
 "http://www.w3.org/Graphics/SVG/1.1/DTD/svg11.dtd">
<!-- Generated by graphviz version 12.0.0 (0)
 -->
<!-- Title: G Pages: 1 -->
<svg width="2700pt" height="926pt"
 viewBox="0.00 0.00 2700.12 926.25" xmlns="http://www.w3.org/2000/svg" xmlns:xlink="http://www.w3.org/1999/xlink">
<g id="graph0" class="graph" transform="scale(1 1) rotate(0) translate(4 922.25)">
<title>G</title>
<polygon fill="white" stroke="none" points="-4,4 -4,-922.25 2696.12,-922.25 2696.12,4 -4,4"/>
<!-- [[0, 110], [&#45;5, 105]] -->
<g id="node1" class="node">
<title>[[0, 110], [&#45;5, 105]]</title>
<polygon fill="none" stroke="black" points="1557.25,-50.75 1385.25,-50.75 1385.25,0 1557.25,0 1557.25,-50.75"/>
<text text-anchor="middle" x="1471.25" y="-33.45" font-family="Times,serif" font-size="14.00">borders: [[0, 110], [&#45;5, 105]]</text>
<text text-anchor="middle" x="1471.25" y="-19.2" font-family="Times,serif" font-size="14.00">sp: 55.0</text>
<text text-anchor="middle" x="1471.25" y="-4.95" font-family="Times,serif" font-size="14.00">dim: 0</text>
</g>
<!-- [0..55.0, [&#45;5, 105]] -->
<g id="node2" class="node">
<title>[0..55.0, [&#45;5, 105]]</title>
<polygon fill="none" stroke="black" points="1455.12,-137.5 1279.38,-137.5 1279.38,-86.75 1455.12,-86.75 1455.12,-137.5"/>
<text text-anchor="middle" x="1367.25" y="-120.2" font-family="Times,serif" font-size="14.00">borders: [[0, 55.0], [&#45;5, 105]]</text>
<text text-anchor="middle" x="1367.25" y="-105.95" font-family="Times,serif" font-size="14.00">sp: 50.0</text>
<text text-anchor="middle" x="1367.25" y="-91.7" font-family="Times,serif" font-size="14.00">dim: 1</text>
</g>
<!-- [[0, 110], [&#45;5, 105]]&#45;&gt;[0..55.0, [&#45;5, 105]] -->
<g id="edge1" class="edge">
<title>[[0, 110], [&#45;5, 105]]&#45;&gt;[0..55.0, [&#45;5, 105]]</title>
<path fill="none" stroke="black" d="M1440.89,-51.12C1430.1,-59.91 1417.8,-69.93 1406.39,-79.23"/>
<polygon fill="black" stroke="black" points="1404.18,-76.51 1398.64,-85.54 1408.6,-81.94 1404.18,-76.51"/>
</g>
<!-- [55.0..110, [&#45;5, 105]] -->
<g id="node23" class="node">
<title>[55.0..110, [&#45;5, 105]]</title>
<polygon fill="none" stroke="black" points="1680.88,-137.5 1491.62,-137.5 1491.62,-86.75 1680.88,-86.75 1680.88,-137.5"/>
<text text-anchor="middle" x="1586.25" y="-120.2" font-family="Times,serif" font-size="14.00">borders: [[55.0, 110], [&#45;5, 105]]</text>
<text text-anchor="middle" x="1586.25" y="-105.95" font-family="Times,serif" font-size="14.00">sp: 82.5</text>
<text text-anchor="middle" x="1586.25" y="-91.7" font-family="Times,serif" font-size="14.00">dim: 0</text>
</g>
<!-- [[0, 110], [&#45;5, 105]]&#45;&gt;[55.0..110, [&#45;5, 105]] -->
<g id="edge2" class="edge">
<title>[[0, 110], [&#45;5, 105]]&#45;&gt;[55.0..110, [&#45;5, 105]]</title>
<path fill="none" stroke="black" d="M1504.82,-51.12C1516.99,-60.08 1530.89,-70.33 1543.72,-79.78"/>
<polygon fill="black" stroke="black" points="1541.49,-82.49 1551.62,-85.6 1545.64,-76.85 1541.49,-82.49"/>
</g>
<!-- [0..55.0, &#45;5..50.0] -->
<g id="node3" class="node">
<title>[0..55.0, &#45;5..50.0]</title>
<polygon fill="none" stroke="black" points="1255,-224.25 1075.5,-224.25 1075.5,-173.5 1255,-173.5 1255,-224.25"/>
<text text-anchor="middle" x="1165.25" y="-206.95" font-family="Times,serif" font-size="14.00">borders: [[0, 55.0], [&#45;5, 50.0]]</text>
<text text-anchor="middle" x="1165.25" y="-192.7" font-family="Times,serif" font-size="14.00">path_length: 2</text>
<text text-anchor="middle" x="1165.25" y="-178.45" font-family="Times,serif" font-size="14.00">depth: 2</text>
</g>
<!-- [0..55.0, [&#45;5, 105]]&#45;&gt;[0..55.0, &#45;5..50.0] -->
<g id="edge3" class="edge">
<title>[0..55.0, [&#45;5, 105]]&#45;&gt;[0..55.0, &#45;5..50.0]</title>
<path fill="none" stroke="black" d="M1308.01,-137.98C1285.09,-147.6 1258.69,-158.67 1234.87,-168.66"/>
<polygon fill="black" stroke="black" points="1233.75,-165.34 1225.89,-172.43 1236.46,-171.79 1233.75,-165.34"/>
</g>
<!-- [0..55.0, 50.0..105] -->
<g id="node4" class="node">
<title>[0..55.0, 50.0..105]</title>
<polygon fill="none" stroke="black" points="1461.5,-224.25 1273,-224.25 1273,-173.5 1461.5,-173.5 1461.5,-224.25"/>
<text text-anchor="middle" x="1367.25" y="-206.95" font-family="Times,serif" font-size="14.00">borders: [[0, 55.0], [50.0, 105]]</text>
<text text-anchor="middle" x="1367.25" y="-192.7" font-family="Times,serif" font-size="14.00">sp: 77.5</text>
<text text-anchor="middle" x="1367.25" y="-178.45" font-family="Times,serif" font-size="14.00">dim: 1</text>
</g>
<!-- [0..55.0, [&#45;5, 105]]&#45;&gt;[0..55.0, 50.0..105] -->
<g id="edge4" class="edge">
<title>[0..55.0, [&#45;5, 105]]&#45;&gt;[0..55.0, 50.0..105]</title>
<path fill="none" stroke="black" d="M1367.25,-137.64C1367.25,-145.13 1367.25,-153.53 1367.25,-161.62"/>
<polygon fill="black" stroke="black" points="1363.75,-161.61 1367.25,-171.61 1370.75,-161.61 1363.75,-161.61"/>
</g>
<!-- [0..55.0, 50.0..77.5] -->
<g id="node5" class="node">
<title>[0..55.0, 50.0..77.5]</title>
<polygon fill="none" stroke="black" points="1255.38,-311 1063.12,-311 1063.12,-260.25 1255.38,-260.25 1255.38,-311"/>
<text text-anchor="middle" x="1159.25" y="-293.7" font-family="Times,serif" font-size="14.00">borders: [[0, 55.0], [50.0, 77.5]]</text>
<text text-anchor="middle" x="1159.25" y="-279.45" font-family="Times,serif" font-size="14.00">path_length: 3</text>
<text text-anchor="middle" x="1159.25" y="-265.2" font-family="Times,serif" font-size="14.00">depth: 3</text>
</g>
<!-- [0..55.0, 50.0..105]&#45;&gt;[0..55.0, 50.0..77.5] -->
<g id="edge5" class="edge">
<title>[0..55.0, 50.0..105]&#45;&gt;[0..55.0, 50.0..77.5]</title>
<path fill="none" stroke="black" d="M1306.25,-224.73C1282.54,-234.39 1255.22,-245.52 1230.61,-255.55"/>
<polygon fill="black" stroke="black" points="1229.59,-252.18 1221.65,-259.2 1232.23,-258.67 1229.59,-252.18"/>
</g>
<!-- [0..55.0, 77.5..105] -->
<g id="node6" class="node">
<title>[0..55.0, 77.5..105]</title>
<polygon fill="none" stroke="black" points="1461.5,-311 1273,-311 1273,-260.25 1461.5,-260.25 1461.5,-311"/>
<text text-anchor="middle" x="1367.25" y="-293.7" font-family="Times,serif" font-size="14.00">borders: [[0, 55.0], [77.5, 105]]</text>
<text text-anchor="middle" x="1367.25" y="-279.45" font-family="Times,serif" font-size="14.00">sp: 91.25</text>
<text text-anchor="middle" x="1367.25" y="-265.2" font-family="Times,serif" font-size="14.00">dim: 1</text>
</g>
<!-- [0..55.0, 50.0..105]&#45;&gt;[0..55.0, 77.5..105] -->
<g id="edge6" class="edge">
<title>[0..55.0, 50.0..105]&#45;&gt;[0..55.0, 77.5..105]</title>
<path fill="none" stroke="black" d="M1367.25,-224.39C1367.25,-231.88 1367.25,-240.28 1367.25,-248.37"/>
<polygon fill="black" stroke="black" points="1363.75,-248.36 1367.25,-258.36 1370.75,-248.36 1363.75,-248.36"/>
</g>
<!-- [0..55.0, 77.5..91.25] -->
<g id="node7" class="node">
<title>[0..55.0, 77.5..91.25]</title>
<polygon fill="none" stroke="black" points="1125.75,-397.75 926.75,-397.75 926.75,-347 1125.75,-347 1125.75,-397.75"/>
<text text-anchor="middle" x="1026.25" y="-380.45" font-family="Times,serif" font-size="14.00">borders: [[0, 55.0], [77.5, 91.25]]</text>
<text text-anchor="middle" x="1026.25" y="-366.2" font-family="Times,serif" font-size="14.00">sp: 84.38</text>
<text text-anchor="middle" x="1026.25" y="-351.95" font-family="Times,serif" font-size="14.00">dim: 1</text>
</g>
<!-- [0..55.0, 77.5..105]&#45;&gt;[0..55.0, 77.5..91.25] -->
<g id="edge7" class="edge">
<title>[0..55.0, 77.5..105]&#45;&gt;[0..55.0, 77.5..91.25]</title>
<path fill="none" stroke="black" d="M1272.72,-310.12C1230.65,-320.57 1180.83,-332.96 1137.03,-343.84"/>
<polygon fill="black" stroke="black" points="1136.36,-340.4 1127.5,-346.21 1138.05,-347.2 1136.36,-340.4"/>
</g>
<!-- [0..55.0, 91.25..105] -->
<g id="node22" class="node">
<title>[0..55.0, 91.25..105]</title>
<polygon fill="none" stroke="black" points="1464.88,-397.75 1269.62,-397.75 1269.62,-347 1464.88,-347 1464.88,-397.75"/>
<text text-anchor="middle" x="1367.25" y="-380.45" font-family="Times,serif" font-size="14.00">borders: [[0, 55.0], [91.25, 105]]</text>
<text text-anchor="middle" x="1367.25" y="-366.2" font-family="Times,serif" font-size="14.00">path_length: 4</text>
<text text-anchor="middle" x="1367.25" y="-351.95" font-family="Times,serif" font-size="14.00">depth: 4</text>
</g>
<!-- [0..55.0, 77.5..105]&#45;&gt;[0..55.0, 91.25..105] -->
<g id="edge8" class="edge">
<title>[0..55.0, 77.5..105]&#45;&gt;[0..55.0, 91.25..105]</title>
<path fill="none" stroke="black" d="M1367.25,-311.14C1367.25,-318.63 1367.25,-327.03 1367.25,-335.12"/>
<polygon fill="black" stroke="black" points="1363.75,-335.11 1367.25,-345.11 1370.75,-335.11 1363.75,-335.11"/>
</g>
<!-- [0..55.0, 77.5..84.375] -->
<g id="node8" class="node">
<title>[0..55.0, 77.5..84.375]</title>
<polygon fill="none" stroke="black" points="905.75,-484.5 706.75,-484.5 706.75,-433.75 905.75,-433.75 905.75,-484.5"/>
<text text-anchor="middle" x="806.25" y="-467.2" font-family="Times,serif" font-size="14.00">borders: [[0, 55.0], [77.5, 84.38]]</text>
<text text-anchor="middle" x="806.25" y="-452.95" font-family="Times,serif" font-size="14.00">path_length: 5</text>
<text text-anchor="middle" x="806.25" y="-438.7" font-family="Times,serif" font-size="14.00">depth: 5</text>
</g>
<!-- [0..55.0, 77.5..91.25]&#45;&gt;[0..55.0, 77.5..84.375] -->
<g id="edge9" class="edge">
<title>[0..55.0, 77.5..91.25]&#45;&gt;[0..55.0, 77.5..84.375]</title>
<path fill="none" stroke="black" d="M961.73,-398.23C936.54,-407.93 907.5,-419.12 881.38,-429.18"/>
<polygon fill="black" stroke="black" points="880.26,-425.87 872.18,-432.73 882.77,-432.4 880.26,-425.87"/>
</g>
<!-- [0..55.0, 84.375..91.25] -->
<g id="node9" class="node">
<title>[0..55.0, 84.375..91.25]</title>
<polygon fill="none" stroke="black" points="1129.12,-484.5 923.38,-484.5 923.38,-433.75 1129.12,-433.75 1129.12,-484.5"/>
<text text-anchor="middle" x="1026.25" y="-467.2" font-family="Times,serif" font-size="14.00">borders: [[0, 55.0], [84.38, 91.25]]</text>
<text text-anchor="middle" x="1026.25" y="-452.95" font-family="Times,serif" font-size="14.00">sp: 27.5</text>
<text text-anchor="middle" x="1026.25" y="-438.7" font-family="Times,serif" font-size="14.00">dim: 0</text>
</g>
<!-- [0..55.0, 77.5..91.25]&#45;&gt;[0..55.0, 84.375..91.25] -->
<g id="edge10" class="edge">
<title>[0..55.0, 77.5..91.25]&#45;&gt;[0..55.0, 84.375..91.25]</title>
<path fill="none" stroke="black" d="M1026.25,-397.89C1026.25,-405.38 1026.25,-413.78 1026.25,-421.87"/>
<polygon fill="black" stroke="black" points="1022.75,-421.86 1026.25,-431.86 1029.75,-421.86 1022.75,-421.86"/>
</g>
<!-- [0..27.5, 84.375..91.25] -->
<g id="node10" class="node">
<title>[0..27.5, 84.375..91.25]</title>
<polygon fill="none" stroke="black" points="776.12,-571.25 570.38,-571.25 570.38,-520.5 776.12,-520.5 776.12,-571.25"/>
<text text-anchor="middle" x="673.25" y="-553.95" font-family="Times,serif" font-size="14.00">borders: [[0, 27.5], [84.38, 91.25]]</text>
<text text-anchor="middle" x="673.25" y="-539.7" font-family="Times,serif" font-size="14.00">sp: 87.81</text>
<text text-anchor="middle" x="673.25" y="-525.45" font-family="Times,serif" font-size="14.00">dim: 1</text>
</g>
<!-- [0..55.0, 84.375..91.25]&#45;&gt;[0..27.5, 84.375..91.25] -->
<g id="edge11" class="edge">
<title>[0..55.0, 84.375..91.25]&#45;&gt;[0..27.5, 84.375..91.25]</title>
<path fill="none" stroke="black" d="M923.2,-484.87C880.61,-495.09 831.08,-506.98 787.4,-517.47"/>
<polygon fill="black" stroke="black" points="786.81,-514.01 777.9,-519.75 788.44,-520.82 786.81,-514.01"/>
</g>
<!-- [27.5..55.0, 84.375..91.25] -->
<g id="node19" class="node">
<title>[27.5..55.0, 84.375..91.25]</title>
<polygon fill="none" stroke="black" points="1137.75,-571.25 914.75,-571.25 914.75,-520.5 1137.75,-520.5 1137.75,-571.25"/>
<text text-anchor="middle" x="1026.25" y="-553.95" font-family="Times,serif" font-size="14.00">borders: [[27.5, 55.0], [84.38, 91.25]]</text>
<text text-anchor="middle" x="1026.25" y="-539.7" font-family="Times,serif" font-size="14.00">sp: 87.81</text>
<text text-anchor="middle" x="1026.25" y="-525.45" font-family="Times,serif" font-size="14.00">dim: 1</text>
</g>
<!-- [0..55.0, 84.375..91.25]&#45;&gt;[27.5..55.0, 84.375..91.25] -->
<g id="edge12" class="edge">
<title>[0..55.0, 84.375..91.25]&#45;&gt;[27.5..55.0, 84.375..91.25]</title>
<path fill="none" stroke="black" d="M1026.25,-484.64C1026.25,-492.13 1026.25,-500.53 1026.25,-508.62"/>
<polygon fill="black" stroke="black" points="1022.75,-508.61 1026.25,-518.61 1029.75,-508.61 1022.75,-508.61"/>
</g>
<!-- [0..27.5, 84.375..87.8125] -->
<g id="node11" class="node">
<title>[0..27.5, 84.375..87.8125]</title>
<polygon fill="none" stroke="black" points="552.12,-658 346.38,-658 346.38,-607.25 552.12,-607.25 552.12,-658"/>
<text text-anchor="middle" x="449.25" y="-640.7" font-family="Times,serif" font-size="14.00">borders: [[0, 27.5], [84.38, 87.81]]</text>
<text text-anchor="middle" x="449.25" y="-626.45" font-family="Times,serif" font-size="14.00">sp: 86.09</text>
<text text-anchor="middle" x="449.25" y="-612.2" font-family="Times,serif" font-size="14.00">dim: 1</text>
</g>
<!-- [0..27.5, 84.375..91.25]&#45;&gt;[0..27.5, 84.375..87.8125] -->
<g id="edge13" class="edge">
<title>[0..27.5, 84.375..91.25]&#45;&gt;[0..27.5, 84.375..87.8125]</title>
<path fill="none" stroke="black" d="M607.56,-571.73C581.8,-581.47 552.08,-592.72 525.39,-602.82"/>
<polygon fill="black" stroke="black" points="524.47,-599.42 516.36,-606.23 526.95,-605.97 524.47,-599.42"/>
</g>
<!-- [0..27.5, 87.8125..91.25] -->
<g id="node18" class="node">
<title>[0..27.5, 87.8125..91.25]</title>
<polygon fill="none" stroke="black" points="776.12,-658 570.38,-658 570.38,-607.25 776.12,-607.25 776.12,-658"/>
<text text-anchor="middle" x="673.25" y="-640.7" font-family="Times,serif" font-size="14.00">borders: [[0, 27.5], [87.81, 91.25]]</text>
<text text-anchor="middle" x="673.25" y="-626.45" font-family="Times,serif" font-size="14.00">path_length: 7</text>
<text text-anchor="middle" x="673.25" y="-612.2" font-family="Times,serif" font-size="14.00">depth: 7</text>
</g>
<!-- [0..27.5, 84.375..91.25]&#45;&gt;[0..27.5, 87.8125..91.25] -->
<g id="edge14" class="edge">
<title>[0..27.5, 84.375..91.25]&#45;&gt;[0..27.5, 87.8125..91.25]</title>
<path fill="none" stroke="black" d="M673.25,-571.39C673.25,-578.88 673.25,-587.28 673.25,-595.37"/>
<polygon fill="black" stroke="black" points="669.75,-595.36 673.25,-605.36 676.75,-595.36 669.75,-595.36"/>
</g>
<!-- [0..27.5, 84.375..86.09375] -->
<g id="node12" class="node">
<title>[0..27.5, 84.375..86.09375]</title>
<polygon fill="none" stroke="black" points="440.12,-744.75 234.38,-744.75 234.38,-694 440.12,-694 440.12,-744.75"/>
<text text-anchor="middle" x="337.25" y="-727.45" font-family="Times,serif" font-size="14.00">borders: [[0, 27.5], [84.38, 86.09]]</text>
<text text-anchor="middle" x="337.25" y="-713.2" font-family="Times,serif" font-size="14.00">sp: 85.23</text>
<text text-anchor="middle" x="337.25" y="-698.95" font-family="Times,serif" font-size="14.00">dim: 1</text>
</g>
<!-- [0..27.5, 84.375..87.8125]&#45;&gt;[0..27.5, 84.375..86.09375] -->
<g id="edge15" class="edge">
<title>[0..27.5, 84.375..87.8125]&#45;&gt;[0..27.5, 84.375..86.09375]</title>
<path fill="none" stroke="black" d="M416.55,-658.37C404.71,-667.33 391.17,-677.58 378.67,-687.03"/>
<polygon fill="black" stroke="black" points="376.86,-684.01 371,-692.84 381.09,-689.59 376.86,-684.01"/>
</g>
<!-- [0..27.5, 86.09375..87.8125] -->
<g id="node17" class="node">
<title>[0..27.5, 86.09375..87.8125]</title>
<polygon fill="none" stroke="black" points="664.12,-744.75 458.38,-744.75 458.38,-694 664.12,-694 664.12,-744.75"/>
<text text-anchor="middle" x="561.25" y="-727.45" font-family="Times,serif" font-size="14.00">borders: [[0, 27.5], [86.09, 87.81]]</text>
<text text-anchor="middle" x="561.25" y="-713.2" font-family="Times,serif" font-size="14.00">path_length: 8</text>
<text text-anchor="middle" x="561.25" y="-698.95" font-family="Times,serif" font-size="14.00">depth: 8</text>
</g>
<!-- [0..27.5, 84.375..87.8125]&#45;&gt;[0..27.5, 86.09375..87.8125] -->
<g id="edge16" class="edge">
<title>[0..27.5, 84.375..87.8125]&#45;&gt;[0..27.5, 86.09375..87.8125]</title>
<path fill="none" stroke="black" d="M481.95,-658.37C493.79,-667.33 507.33,-677.58 519.83,-687.03"/>
<polygon fill="black" stroke="black" points="517.41,-689.59 527.5,-692.84 521.64,-684.01 517.41,-689.59"/>
</g>
<!-- [0..27.5, 84.375..85.234375] -->
<g id="node13" class="node">
<title>[0..27.5, 84.375..85.234375]</title>
<polygon fill="none" stroke="black" points="328.12,-831.5 122.38,-831.5 122.38,-780.75 328.12,-780.75 328.12,-831.5"/>
<text text-anchor="middle" x="225.25" y="-814.2" font-family="Times,serif" font-size="14.00">borders: [[0, 27.5], [84.38, 85.23]]</text>
<text text-anchor="middle" x="225.25" y="-799.95" font-family="Times,serif" font-size="14.00">sp: 13.75</text>
<text text-anchor="middle" x="225.25" y="-785.7" font-family="Times,serif" font-size="14.00">dim: 0</text>
</g>
<!-- [0..27.5, 84.375..86.09375]&#45;&gt;[0..27.5, 84.375..85.234375] -->
<g id="edge17" class="edge">
<title>[0..27.5, 84.375..86.09375]&#45;&gt;[0..27.5, 84.375..85.234375]</title>
<path fill="none" stroke="black" d="M304.55,-745.12C292.71,-754.08 279.17,-764.33 266.67,-773.78"/>
<polygon fill="black" stroke="black" points="264.86,-770.76 259,-779.59 269.09,-776.34 264.86,-770.76"/>
</g>
<!-- [0..27.5, 85.234375..86.09375] -->
<g id="node16" class="node">
<title>[0..27.5, 85.234375..86.09375]</title>
<polygon fill="none" stroke="black" points="552.12,-831.5 346.38,-831.5 346.38,-780.75 552.12,-780.75 552.12,-831.5"/>
<text text-anchor="middle" x="449.25" y="-814.2" font-family="Times,serif" font-size="14.00">borders: [[0, 27.5], [85.23, 86.09]]</text>
<text text-anchor="middle" x="449.25" y="-799.95" font-family="Times,serif" font-size="14.00">path_length: 9</text>
<text text-anchor="middle" x="449.25" y="-785.7" font-family="Times,serif" font-size="14.00">depth: 9</text>
</g>
<!-- [0..27.5, 84.375..86.09375]&#45;&gt;[0..27.5, 85.234375..86.09375] -->
<g id="edge18" class="edge">
<title>[0..27.5, 84.375..86.09375]&#45;&gt;[0..27.5, 85.234375..86.09375]</title>
<path fill="none" stroke="black" d="M369.95,-745.12C381.79,-754.08 395.33,-764.33 407.83,-773.78"/>
<polygon fill="black" stroke="black" points="405.41,-776.34 415.5,-779.59 409.64,-770.76 405.41,-776.34"/>
</g>
<!-- [0..13.75, 84.375..85.234375] -->
<g id="node14" class="node">
<title>[0..13.75, 84.375..85.234375]</title>
<polygon fill="none" stroke="black" points="212.5,-918.25 0,-918.25 0,-867.5 212.5,-867.5 212.5,-918.25"/>
<text text-anchor="middle" x="106.25" y="-900.95" font-family="Times,serif" font-size="14.00">borders: [[0, 13.75], [84.38, 85.23]]</text>
<text text-anchor="middle" x="106.25" y="-886.7" font-family="Times,serif" font-size="14.00">path_length: 10</text>
<text text-anchor="middle" x="106.25" y="-872.45" font-family="Times,serif" font-size="14.00">depth: 10</text>
</g>
<!-- [0..27.5, 84.375..85.234375]&#45;&gt;[0..13.75, 84.375..85.234375] -->
<g id="edge19" class="edge">
<title>[0..27.5, 84.375..85.234375]&#45;&gt;[0..13.75, 84.375..85.234375]</title>
<path fill="none" stroke="black" d="M190.51,-831.87C177.8,-840.92 163.26,-851.27 149.87,-860.81"/>
<polygon fill="black" stroke="black" points="148.17,-857.72 142.06,-866.37 152.24,-863.42 148.17,-857.72"/>
</g>
<!-- [13.75..27.5, 84.375..85.234375] -->
<g id="node15" class="node">
<title>[13.75..27.5, 84.375..85.234375]</title>
<polygon fill="none" stroke="black" points="460.12,-918.25 230.38,-918.25 230.38,-867.5 460.12,-867.5 460.12,-918.25"/>
<text text-anchor="middle" x="345.25" y="-900.95" font-family="Times,serif" font-size="14.00">borders: [[13.75, 27.5], [84.38, 85.23]]</text>
<text text-anchor="middle" x="345.25" y="-886.7" font-family="Times,serif" font-size="14.00">path_length: 11</text>
<text text-anchor="middle" x="345.25" y="-872.45" font-family="Times,serif" font-size="14.00">depth: 10</text>
</g>
<!-- [0..27.5, 84.375..85.234375]&#45;&gt;[13.75..27.5, 84.375..85.234375] -->
<g id="edge20" class="edge">
<title>[0..27.5, 84.375..85.234375]&#45;&gt;[13.75..27.5, 84.375..85.234375]</title>
<path fill="none" stroke="black" d="M260.28,-831.87C273.1,-840.92 287.76,-851.27 301.26,-860.81"/>
<polygon fill="black" stroke="black" points="298.96,-863.47 309.15,-866.38 303,-857.75 298.96,-863.47"/>
</g>
<!-- [27.5..55.0, 84.375..87.8125] -->
<g id="node20" class="node">
<title>[27.5..55.0, 84.375..87.8125]</title>
<polygon fill="none" stroke="black" points="1016.75,-658 793.75,-658 793.75,-607.25 1016.75,-607.25 1016.75,-658"/>
<text text-anchor="middle" x="905.25" y="-640.7" font-family="Times,serif" font-size="14.00">borders: [[27.5, 55.0], [84.38, 87.81]]</text>
<text text-anchor="middle" x="905.25" y="-626.45" font-family="Times,serif" font-size="14.00">path_length: 7</text>
<text text-anchor="middle" x="905.25" y="-612.2" font-family="Times,serif" font-size="14.00">depth: 7</text>
</g>
<!-- [27.5..55.0, 84.375..91.25]&#45;&gt;[27.5..55.0, 84.375..87.8125] -->
<g id="edge21" class="edge">
<title>[27.5..55.0, 84.375..91.25]&#45;&gt;[27.5..55.0, 84.375..87.8125]</title>
<path fill="none" stroke="black" d="M990.93,-571.62C978,-580.67 963.22,-591.02 949.61,-600.56"/>
<polygon fill="black" stroke="black" points="947.83,-597.53 941.65,-606.13 951.85,-603.26 947.83,-597.53"/>
</g>
<!-- [27.5..55.0, 87.8125..91.25] -->
<g id="node21" class="node">
<title>[27.5..55.0, 87.8125..91.25]</title>
<polygon fill="none" stroke="black" points="1257.75,-658 1034.75,-658 1034.75,-607.25 1257.75,-607.25 1257.75,-658"/>
<text text-anchor="middle" x="1146.25" y="-640.7" font-family="Times,serif" font-size="14.00">borders: [[27.5, 55.0], [87.81, 91.25]]</text>
<text text-anchor="middle" x="1146.25" y="-626.45" font-family="Times,serif" font-size="14.00">path_length: 7</text>
<text text-anchor="middle" x="1146.25" y="-612.2" font-family="Times,serif" font-size="14.00">depth: 7</text>
</g>
<!-- [27.5..55.0, 84.375..91.25]&#45;&gt;[27.5..55.0, 87.8125..91.25] -->
<g id="edge22" class="edge">
<title>[27.5..55.0, 84.375..91.25]&#45;&gt;[27.5..55.0, 87.8125..91.25]</title>
<path fill="none" stroke="black" d="M1061.28,-571.62C1074.1,-580.67 1088.76,-591.02 1102.26,-600.56"/>
<polygon fill="black" stroke="black" points="1099.96,-603.22 1110.15,-606.13 1104,-597.5 1099.96,-603.22"/>
</g>
<!-- [55.0..82.5, [&#45;5, 105]] -->
<g id="node24" class="node">
<title>[55.0..82.5, [&#45;5, 105]]</title>
<polygon fill="none" stroke="black" points="1682.75,-224.25 1489.75,-224.25 1489.75,-173.5 1682.75,-173.5 1682.75,-224.25"/>
<text text-anchor="middle" x="1586.25" y="-206.95" font-family="Times,serif" font-size="14.00">borders: [[55.0, 82.5], [&#45;5, 105]]</text>
<text text-anchor="middle" x="1586.25" y="-192.7" font-family="Times,serif" font-size="14.00">path_length: 2</text>
<text text-anchor="middle" x="1586.25" y="-178.45" font-family="Times,serif" font-size="14.00">depth: 2</text>
</g>
<!-- [55.0..110, [&#45;5, 105]]&#45;&gt;[55.0..82.5, [&#45;5, 105]] -->
<g id="edge23" class="edge">
<title>[55.0..110, [&#45;5, 105]]&#45;&gt;[55.0..82.5, [&#45;5, 105]]</title>
<path fill="none" stroke="black" d="M1586.25,-137.64C1586.25,-145.13 1586.25,-153.53 1586.25,-161.62"/>
<polygon fill="black" stroke="black" points="1582.75,-161.61 1586.25,-171.61 1589.75,-161.61 1582.75,-161.61"/>
</g>
<!-- [82.5..110, [&#45;5, 105]] -->
<g id="node25" class="node">
<title>[82.5..110, [&#45;5, 105]]</title>
<polygon fill="none" stroke="black" points="1894.88,-224.25 1705.62,-224.25 1705.62,-173.5 1894.88,-173.5 1894.88,-224.25"/>
<text text-anchor="middle" x="1800.25" y="-206.95" font-family="Times,serif" font-size="14.00">borders: [[82.5, 110], [&#45;5, 105]]</text>
<text text-anchor="middle" x="1800.25" y="-192.7" font-family="Times,serif" font-size="14.00">sp: 50.0</text>
<text text-anchor="middle" x="1800.25" y="-178.45" font-family="Times,serif" font-size="14.00">dim: 1</text>
</g>
<!-- [55.0..110, [&#45;5, 105]]&#45;&gt;[82.5..110, [&#45;5, 105]] -->
<g id="edge24" class="edge">
<title>[55.0..110, [&#45;5, 105]]&#45;&gt;[82.5..110, [&#45;5, 105]]</title>
<path fill="none" stroke="black" d="M1649.01,-137.98C1673.4,-147.64 1701.51,-158.77 1726.83,-168.8"/>
<polygon fill="black" stroke="black" points="1725.5,-172.03 1736.08,-172.46 1728.07,-165.53 1725.5,-172.03"/>
</g>
<!-- [82.5..110, &#45;5..50.0] -->
<g id="node26" class="node">
<title>[82.5..110, &#45;5..50.0]</title>
<polygon fill="none" stroke="black" points="1896.75,-311 1703.75,-311 1703.75,-260.25 1896.75,-260.25 1896.75,-311"/>
<text text-anchor="middle" x="1800.25" y="-293.7" font-family="Times,serif" font-size="14.00">borders: [[82.5, 110], [&#45;5, 50.0]]</text>
<text text-anchor="middle" x="1800.25" y="-279.45" font-family="Times,serif" font-size="14.00">sp: 22.5</text>
<text text-anchor="middle" x="1800.25" y="-265.2" font-family="Times,serif" font-size="14.00">dim: 1</text>
</g>
<!-- [82.5..110, [&#45;5, 105]]&#45;&gt;[82.5..110, &#45;5..50.0] -->
<g id="edge25" class="edge">
<title>[82.5..110, [&#45;5, 105]]&#45;&gt;[82.5..110, &#45;5..50.0]</title>
<path fill="none" stroke="black" d="M1800.25,-224.39C1800.25,-231.88 1800.25,-240.28 1800.25,-248.37"/>
<polygon fill="black" stroke="black" points="1796.75,-248.36 1800.25,-258.36 1803.75,-248.36 1796.75,-248.36"/>
</g>
<!-- [82.5..110, 50.0..105] -->
<g id="node49" class="node">
<title>[82.5..110, 50.0..105]</title>
<polygon fill="none" stroke="black" points="2117.25,-311 1915.25,-311 1915.25,-260.25 2117.25,-260.25 2117.25,-311"/>
<text text-anchor="middle" x="2016.25" y="-293.7" font-family="Times,serif" font-size="14.00">borders: [[82.5, 110], [50.0, 105]]</text>
<text text-anchor="middle" x="2016.25" y="-279.45" font-family="Times,serif" font-size="14.00">path_length: 3</text>
<text text-anchor="middle" x="2016.25" y="-265.2" font-family="Times,serif" font-size="14.00">depth: 3</text>
</g>
<!-- [82.5..110, [&#45;5, 105]]&#45;&gt;[82.5..110, 50.0..105] -->
<g id="edge26" class="edge">
<title>[82.5..110, [&#45;5, 105]]&#45;&gt;[82.5..110, 50.0..105]</title>
<path fill="none" stroke="black" d="M1863.6,-224.73C1888.32,-234.43 1916.84,-245.62 1942.48,-255.68"/>
<polygon fill="black" stroke="black" points="1940.91,-258.82 1951.49,-259.22 1943.46,-252.31 1940.91,-258.82"/>
</g>
<!-- [82.5..110, &#45;5..22.5] -->
<g id="node27" class="node">
<title>[82.5..110, &#45;5..22.5]</title>
<polygon fill="none" stroke="black" points="1896.75,-397.75 1703.75,-397.75 1703.75,-347 1896.75,-347 1896.75,-397.75"/>
<text text-anchor="middle" x="1800.25" y="-380.45" font-family="Times,serif" font-size="14.00">borders: [[82.5, 110], [&#45;5, 22.5]]</text>
<text text-anchor="middle" x="1800.25" y="-366.2" font-family="Times,serif" font-size="14.00">sp: 8.75</text>
<text text-anchor="middle" x="1800.25" y="-351.95" font-family="Times,serif" font-size="14.00">dim: 1</text>
</g>
<!-- [82.5..110, &#45;5..50.0]&#45;&gt;[82.5..110, &#45;5..22.5] -->
<g id="edge27" class="edge">
<title>[82.5..110, &#45;5..50.0]&#45;&gt;[82.5..110, &#45;5..22.5]</title>
<path fill="none" stroke="black" d="M1800.25,-311.14C1800.25,-318.63 1800.25,-327.03 1800.25,-335.12"/>
<polygon fill="black" stroke="black" points="1796.75,-335.11 1800.25,-345.11 1803.75,-335.11 1796.75,-335.11"/>
</g>
<!-- [82.5..110, 22.5..50.0] -->
<g id="node42" class="node">
<title>[82.5..110, 22.5..50.0]</title>
<polygon fill="none" stroke="black" points="2436.12,-397.75 2230.38,-397.75 2230.38,-347 2436.12,-347 2436.12,-397.75"/>
<text text-anchor="middle" x="2333.25" y="-380.45" font-family="Times,serif" font-size="14.00">borders: [[82.5, 110], [22.5, 50.0]]</text>
<text text-anchor="middle" x="2333.25" y="-366.2" font-family="Times,serif" font-size="14.00">sp: 36.25</text>
<text text-anchor="middle" x="2333.25" y="-351.95" font-family="Times,serif" font-size="14.00">dim: 1</text>
</g>
<!-- [82.5..110, &#45;5..50.0]&#45;&gt;[82.5..110, 22.5..50.0] -->
<g id="edge28" class="edge">
<title>[82.5..110, &#45;5..50.0]&#45;&gt;[82.5..110, 22.5..50.0]</title>
<path fill="none" stroke="black" d="M1897.23,-309.27C1900.27,-309.87 1903.28,-310.45 1906.25,-311 2011.58,-330.52 2132.55,-347.08 2218.78,-357.89"/>
<polygon fill="black" stroke="black" points="2218.32,-361.36 2228.68,-359.12 2219.19,-354.41 2218.32,-361.36"/>
</g>
<!-- [82.5..110, &#45;5..8.75] -->
<g id="node28" class="node">
<title>[82.5..110, &#45;5..8.75]</title>
<polygon fill="none" stroke="black" points="1700.75,-484.5 1507.75,-484.5 1507.75,-433.75 1700.75,-433.75 1700.75,-484.5"/>
<text text-anchor="middle" x="1604.25" y="-467.2" font-family="Times,serif" font-size="14.00">borders: [[82.5, 110], [&#45;5, 8.75]]</text>
<text text-anchor="middle" x="1604.25" y="-452.95" font-family="Times,serif" font-size="14.00">path_length: 5</text>
<text text-anchor="middle" x="1604.25" y="-438.7" font-family="Times,serif" font-size="14.00">depth: 5</text>
</g>
<!-- [82.5..110, &#45;5..22.5]&#45;&gt;[82.5..110, &#45;5..8.75] -->
<g id="edge29" class="edge">
<title>[82.5..110, &#45;5..22.5]&#45;&gt;[82.5..110, &#45;5..8.75]</title>
<path fill="none" stroke="black" d="M1742.77,-398.23C1720.63,-407.8 1695.14,-418.82 1672.12,-428.78"/>
<polygon fill="black" stroke="black" points="1670.91,-425.49 1663.12,-432.67 1673.69,-431.91 1670.91,-425.49"/>
</g>
<!-- [82.5..110, 8.75..22.5] -->
<g id="node29" class="node">
<title>[82.5..110, 8.75..22.5]</title>
<polygon fill="none" stroke="black" points="1924.12,-484.5 1718.38,-484.5 1718.38,-433.75 1924.12,-433.75 1924.12,-484.5"/>
<text text-anchor="middle" x="1821.25" y="-467.2" font-family="Times,serif" font-size="14.00">borders: [[82.5, 110], [8.75, 22.5]]</text>
<text text-anchor="middle" x="1821.25" y="-452.95" font-family="Times,serif" font-size="14.00">sp: 15.63</text>
<text text-anchor="middle" x="1821.25" y="-438.7" font-family="Times,serif" font-size="14.00">dim: 1</text>
</g>
<!-- [82.5..110, &#45;5..22.5]&#45;&gt;[82.5..110, 8.75..22.5] -->
<g id="edge30" class="edge">
<title>[82.5..110, &#45;5..22.5]&#45;&gt;[82.5..110, 8.75..22.5]</title>
<path fill="none" stroke="black" d="M1806.32,-397.89C1808.22,-405.55 1810.36,-414.17 1812.41,-422.44"/>
<polygon fill="black" stroke="black" points="1808.95,-423.04 1814.75,-431.9 1815.74,-421.36 1808.95,-423.04"/>
</g>
<!-- [82.5..110, 8.75..15.625] -->
<g id="node30" class="node">
<title>[82.5..110, 8.75..15.625]</title>
<polygon fill="none" stroke="black" points="1732.5,-571.25 1520,-571.25 1520,-520.5 1732.5,-520.5 1732.5,-571.25"/>
<text text-anchor="middle" x="1626.25" y="-553.95" font-family="Times,serif" font-size="14.00">borders: [[82.5, 110], [8.75, 15.63]]</text>
<text text-anchor="middle" x="1626.25" y="-539.7" font-family="Times,serif" font-size="14.00">sp: 96.25</text>
<text text-anchor="middle" x="1626.25" y="-525.45" font-family="Times,serif" font-size="14.00">dim: 0</text>
</g>
<!-- [82.5..110, 8.75..22.5]&#45;&gt;[82.5..110, 8.75..15.625] -->
<g id="edge31" class="edge">
<title>[82.5..110, 8.75..22.5]&#45;&gt;[82.5..110, 8.75..15.625]</title>
<path fill="none" stroke="black" d="M1764.06,-484.98C1742.04,-494.55 1716.68,-505.57 1693.77,-515.53"/>
<polygon fill="black" stroke="black" points="1692.6,-512.22 1684.83,-519.42 1695.39,-518.64 1692.6,-512.22"/>
</g>
<!-- [82.5..110, 15.625..22.5] -->
<g id="node35" class="node">
<title>[82.5..110, 15.625..22.5]</title>
<polygon fill="none" stroke="black" points="1969.5,-571.25 1757,-571.25 1757,-520.5 1969.5,-520.5 1969.5,-571.25"/>
<text text-anchor="middle" x="1863.25" y="-553.95" font-family="Times,serif" font-size="14.00">borders: [[82.5, 110], [15.63, 22.5]]</text>
<text text-anchor="middle" x="1863.25" y="-539.7" font-family="Times,serif" font-size="14.00">sp: 19.06</text>
<text text-anchor="middle" x="1863.25" y="-525.45" font-family="Times,serif" font-size="14.00">dim: 1</text>
</g>
<!-- [82.5..110, 8.75..22.5]&#45;&gt;[82.5..110, 15.625..22.5] -->
<g id="edge32" class="edge">
<title>[82.5..110, 8.75..22.5]&#45;&gt;[82.5..110, 15.625..22.5]</title>
<path fill="none" stroke="black" d="M1833.4,-484.64C1837.33,-492.56 1841.76,-501.51 1845.98,-510.03"/>
<polygon fill="black" stroke="black" points="1842.74,-511.36 1850.31,-518.77 1849.01,-508.25 1842.74,-511.36"/>
</g>
<!-- [82.5..96.25, 8.75..15.625] -->
<g id="node31" class="node">
<title>[82.5..96.25, 8.75..15.625]</title>
<polygon fill="none" stroke="black" points="1498.75,-658 1275.75,-658 1275.75,-607.25 1498.75,-607.25 1498.75,-658"/>
<text text-anchor="middle" x="1387.25" y="-640.7" font-family="Times,serif" font-size="14.00">borders: [[82.5, 96.25], [8.75, 15.63]]</text>
<text text-anchor="middle" x="1387.25" y="-626.45" font-family="Times,serif" font-size="14.00">sp: 12.19</text>
<text text-anchor="middle" x="1387.25" y="-612.2" font-family="Times,serif" font-size="14.00">dim: 1</text>
</g>
<!-- [82.5..110, 8.75..15.625]&#45;&gt;[82.5..96.25, 8.75..15.625] -->
<g id="edge33" class="edge">
<title>[82.5..110, 8.75..15.625]&#45;&gt;[82.5..96.25, 8.75..15.625]</title>
<path fill="none" stroke="black" d="M1556.16,-571.73C1528.55,-581.52 1496.68,-592.82 1468.11,-602.95"/>
<polygon fill="black" stroke="black" points="1467.02,-599.62 1458.77,-606.26 1469.36,-606.22 1467.02,-599.62"/>
</g>
<!-- [96.25..110, 8.75..15.625] -->
<g id="node34" class="node">
<title>[96.25..110, 8.75..15.625]</title>
<polygon fill="none" stroke="black" points="1735.88,-658 1516.62,-658 1516.62,-607.25 1735.88,-607.25 1735.88,-658"/>
<text text-anchor="middle" x="1626.25" y="-640.7" font-family="Times,serif" font-size="14.00">borders: [[96.25, 110], [8.75, 15.63]]</text>
<text text-anchor="middle" x="1626.25" y="-626.45" font-family="Times,serif" font-size="14.00">path_length: 7</text>
<text text-anchor="middle" x="1626.25" y="-612.2" font-family="Times,serif" font-size="14.00">depth: 7</text>
</g>
<!-- [82.5..110, 8.75..15.625]&#45;&gt;[96.25..110, 8.75..15.625] -->
<g id="edge34" class="edge">
<title>[82.5..110, 8.75..15.625]&#45;&gt;[96.25..110, 8.75..15.625]</title>
<path fill="none" stroke="black" d="M1626.25,-571.39C1626.25,-578.88 1626.25,-587.28 1626.25,-595.37"/>
<polygon fill="black" stroke="black" points="1622.75,-595.36 1626.25,-605.36 1629.75,-595.36 1622.75,-595.36"/>
</g>
<!-- [82.5..96.25, 8.75..12.1875] -->
<g id="node32" class="node">
<title>[82.5..96.25, 8.75..12.1875]</title>
<polygon fill="none" stroke="black" points="1376.75,-744.75 1153.75,-744.75 1153.75,-694 1376.75,-694 1376.75,-744.75"/>
<text text-anchor="middle" x="1265.25" y="-727.45" font-family="Times,serif" font-size="14.00">borders: [[82.5, 96.25], [8.75, 12.19]]</text>
<text text-anchor="middle" x="1265.25" y="-713.2" font-family="Times,serif" font-size="14.00">path_length: 8</text>
<text text-anchor="middle" x="1265.25" y="-698.95" font-family="Times,serif" font-size="14.00">depth: 8</text>
</g>
<!-- [82.5..96.25, 8.75..15.625]&#45;&gt;[82.5..96.25, 8.75..12.1875] -->
<g id="edge35" class="edge">
<title>[82.5..96.25, 8.75..15.625]&#45;&gt;[82.5..96.25, 8.75..12.1875]</title>
<path fill="none" stroke="black" d="M1351.63,-658.37C1338.61,-667.42 1323.7,-677.77 1309.97,-687.31"/>
<polygon fill="black" stroke="black" points="1308.16,-684.31 1301.94,-692.89 1312.15,-690.06 1308.16,-684.31"/>
</g>
<!-- [82.5..96.25, 12.1875..15.625] -->
<g id="node33" class="node">
<title>[82.5..96.25, 12.1875..15.625]</title>
<polygon fill="none" stroke="black" points="1624.12,-744.75 1394.38,-744.75 1394.38,-694 1624.12,-694 1624.12,-744.75"/>
<text text-anchor="middle" x="1509.25" y="-727.45" font-family="Times,serif" font-size="14.00">borders: [[82.5, 96.25], [12.19, 15.63]]</text>
<text text-anchor="middle" x="1509.25" y="-713.2" font-family="Times,serif" font-size="14.00">path_length: 8</text>
<text text-anchor="middle" x="1509.25" y="-698.95" font-family="Times,serif" font-size="14.00">depth: 8</text>
</g>
<!-- [82.5..96.25, 8.75..15.625]&#45;&gt;[82.5..96.25, 12.1875..15.625] -->
<g id="edge36" class="edge">
<title>[82.5..96.25, 8.75..15.625]&#45;&gt;[82.5..96.25, 12.1875..15.625]</title>
<path fill="none" stroke="black" d="M1422.87,-658.37C1435.89,-667.42 1450.8,-677.77 1464.53,-687.31"/>
<polygon fill="black" stroke="black" points="1462.35,-690.06 1472.56,-692.89 1466.34,-684.31 1462.35,-690.06"/>
</g>
<!-- [82.5..110, 15.625..19.0625] -->
<g id="node36" class="node">
<title>[82.5..110, 15.625..19.0625]</title>
<polygon fill="none" stroke="black" points="1972.88,-658 1753.62,-658 1753.62,-607.25 1972.88,-607.25 1972.88,-658"/>
<text text-anchor="middle" x="1863.25" y="-640.7" font-family="Times,serif" font-size="14.00">borders: [[82.5, 110], [15.63, 19.06]]</text>
<text text-anchor="middle" x="1863.25" y="-626.45" font-family="Times,serif" font-size="14.00">path_length: 7</text>
<text text-anchor="middle" x="1863.25" y="-612.2" font-family="Times,serif" font-size="14.00">depth: 7</text>
</g>
<!-- [82.5..110, 15.625..22.5]&#45;&gt;[82.5..110, 15.625..19.0625] -->
<g id="edge37" class="edge">
<title>[82.5..110, 15.625..22.5]&#45;&gt;[82.5..110, 15.625..19.0625]</title>
<path fill="none" stroke="black" d="M1863.25,-571.39C1863.25,-578.88 1863.25,-587.28 1863.25,-595.37"/>
<polygon fill="black" stroke="black" points="1859.75,-595.36 1863.25,-605.36 1866.75,-595.36 1859.75,-595.36"/>
</g>
<!-- [82.5..110, 19.0625..22.5] -->
<g id="node37" class="node">
<title>[82.5..110, 19.0625..22.5]</title>
<polygon fill="none" stroke="black" points="2203.5,-658 1991,-658 1991,-607.25 2203.5,-607.25 2203.5,-658"/>
<text text-anchor="middle" x="2097.25" y="-640.7" font-family="Times,serif" font-size="14.00">borders: [[82.5, 110], [19.06, 22.5]]</text>
<text text-anchor="middle" x="2097.25" y="-626.45" font-family="Times,serif" font-size="14.00">sp: 20.78</text>
<text text-anchor="middle" x="2097.25" y="-612.2" font-family="Times,serif" font-size="14.00">dim: 1</text>
</g>
<!-- [82.5..110, 15.625..22.5]&#45;&gt;[82.5..110, 19.0625..22.5] -->
<g id="edge38" class="edge">
<title>[82.5..110, 15.625..22.5]&#45;&gt;[82.5..110, 19.0625..22.5]</title>
<path fill="none" stroke="black" d="M1931.88,-571.73C1958.9,-581.52 1990.11,-592.82 2018.08,-602.95"/>
<polygon fill="black" stroke="black" points="2016.61,-606.14 2027.2,-606.25 2018.99,-599.56 2016.61,-606.14"/>
</g>
<!-- [82.5..110, 19.0625..20.78125] -->
<g id="node38" class="node">
<title>[82.5..110, 19.0625..20.78125]</title>
<polygon fill="none" stroke="black" points="2089.88,-744.75 1870.62,-744.75 1870.62,-694 2089.88,-694 2089.88,-744.75"/>
<text text-anchor="middle" x="1980.25" y="-727.45" font-family="Times,serif" font-size="14.00">borders: [[82.5, 110], [19.06, 20.78]]</text>
<text text-anchor="middle" x="1980.25" y="-713.2" font-family="Times,serif" font-size="14.00">sp: 96.25</text>
<text text-anchor="middle" x="1980.25" y="-698.95" font-family="Times,serif" font-size="14.00">dim: 0</text>
</g>
<!-- [82.5..110, 19.0625..22.5]&#45;&gt;[82.5..110, 19.0625..20.78125] -->
<g id="edge39" class="edge">
<title>[82.5..110, 19.0625..22.5]&#45;&gt;[82.5..110, 19.0625..20.78125]</title>
<path fill="none" stroke="black" d="M2063.09,-658.37C2050.72,-667.33 2036.58,-677.58 2023.52,-687.03"/>
<polygon fill="black" stroke="black" points="2021.52,-684.16 2015.47,-692.86 2025.62,-689.83 2021.52,-684.16"/>
</g>
<!-- [82.5..110, 20.78125..22.5] -->
<g id="node41" class="node">
<title>[82.5..110, 20.78125..22.5]</title>
<polygon fill="none" stroke="black" points="2320.5,-744.75 2108,-744.75 2108,-694 2320.5,-694 2320.5,-744.75"/>
<text text-anchor="middle" x="2214.25" y="-727.45" font-family="Times,serif" font-size="14.00">borders: [[82.5, 110], [20.78, 22.5]]</text>
<text text-anchor="middle" x="2214.25" y="-713.2" font-family="Times,serif" font-size="14.00">path_length: 8</text>
<text text-anchor="middle" x="2214.25" y="-698.95" font-family="Times,serif" font-size="14.00">depth: 8</text>
</g>
<!-- [82.5..110, 19.0625..22.5]&#45;&gt;[82.5..110, 20.78125..22.5] -->
<g id="edge40" class="edge">
<title>[82.5..110, 19.0625..22.5]&#45;&gt;[82.5..110, 20.78125..22.5]</title>
<path fill="none" stroke="black" d="M2131.41,-658.37C2143.78,-667.33 2157.92,-677.58 2170.98,-687.03"/>
<polygon fill="black" stroke="black" points="2168.88,-689.83 2179.03,-692.86 2172.98,-684.16 2168.88,-689.83"/>
</g>
<!-- [82.5..96.25, 19.0625..20.78125] -->
<g id="node39" class="node">
<title>[82.5..96.25, 19.0625..20.78125]</title>
<polygon fill="none" stroke="black" points="1972.12,-831.5 1742.38,-831.5 1742.38,-780.75 1972.12,-780.75 1972.12,-831.5"/>
<text text-anchor="middle" x="1857.25" y="-814.2" font-family="Times,serif" font-size="14.00">borders: [[82.5, 96.25], [19.06, 20.78]]</text>
<text text-anchor="middle" x="1857.25" y="-799.95" font-family="Times,serif" font-size="14.00">path_length: 9</text>
<text text-anchor="middle" x="1857.25" y="-785.7" font-family="Times,serif" font-size="14.00">depth: 9</text>
</g>
<!-- [82.5..110, 19.0625..20.78125]&#45;&gt;[82.5..96.25, 19.0625..20.78125] -->
<g id="edge41" class="edge">
<title>[82.5..110, 19.0625..20.78125]&#45;&gt;[82.5..96.25, 19.0625..20.78125]</title>
<path fill="none" stroke="black" d="M1944.34,-745.12C1931.21,-754.17 1916.18,-764.52 1902.34,-774.06"/>
<polygon fill="black" stroke="black" points="1900.48,-771.09 1894.24,-779.64 1904.46,-776.85 1900.48,-771.09"/>
</g>
<!-- [96.25..110, 19.0625..20.78125] -->
<g id="node40" class="node">
<title>[96.25..110, 19.0625..20.78125]</title>
<polygon fill="none" stroke="black" points="2216.25,-831.5 1990.25,-831.5 1990.25,-780.75 2216.25,-780.75 2216.25,-831.5"/>
<text text-anchor="middle" x="2103.25" y="-814.2" font-family="Times,serif" font-size="14.00">borders: [[96.25, 110], [19.06, 20.78]]</text>
<text text-anchor="middle" x="2103.25" y="-799.95" font-family="Times,serif" font-size="14.00">path_length: 9</text>
<text text-anchor="middle" x="2103.25" y="-785.7" font-family="Times,serif" font-size="14.00">depth: 9</text>
</g>
<!-- [82.5..110, 19.0625..20.78125]&#45;&gt;[96.25..110, 19.0625..20.78125] -->
<g id="edge42" class="edge">
<title>[82.5..110, 19.0625..20.78125]&#45;&gt;[96.25..110, 19.0625..20.78125]</title>
<path fill="none" stroke="black" d="M2016.16,-745.12C2029.29,-754.17 2044.32,-764.52 2058.16,-774.06"/>
<polygon fill="black" stroke="black" points="2056.04,-776.85 2066.26,-779.64 2060.02,-771.09 2056.04,-776.85"/>
</g>
<!-- [82.5..110, 22.5..36.25] -->
<g id="node43" class="node">
<title>[82.5..110, 22.5..36.25]</title>
<polygon fill="none" stroke="black" points="2439.5,-484.5 2227,-484.5 2227,-433.75 2439.5,-433.75 2439.5,-484.5"/>
<text text-anchor="middle" x="2333.25" y="-467.2" font-family="Times,serif" font-size="14.00">borders: [[82.5, 110], [22.5, 36.25]]</text>
<text text-anchor="middle" x="2333.25" y="-452.95" font-family="Times,serif" font-size="14.00">sp: 96.25</text>
<text text-anchor="middle" x="2333.25" y="-438.7" font-family="Times,serif" font-size="14.00">dim: 0</text>
</g>
<!-- [82.5..110, 22.5..50.0]&#45;&gt;[82.5..110, 22.5..36.25] -->
<g id="edge43" class="edge">
<title>[82.5..110, 22.5..50.0]&#45;&gt;[82.5..110, 22.5..36.25]</title>
<path fill="none" stroke="black" d="M2333.25,-397.89C2333.25,-405.38 2333.25,-413.78 2333.25,-421.87"/>
<polygon fill="black" stroke="black" points="2329.75,-421.86 2333.25,-431.86 2336.75,-421.86 2329.75,-421.86"/>
</g>
<!-- [82.5..110, 36.25..50.0] -->
<g id="node48" class="node">
<title>[82.5..110, 36.25..50.0]</title>
<polygon fill="none" stroke="black" points="2670.5,-484.5 2458,-484.5 2458,-433.75 2670.5,-433.75 2670.5,-484.5"/>
<text text-anchor="middle" x="2564.25" y="-467.2" font-family="Times,serif" font-size="14.00">borders: [[82.5, 110], [36.25, 50.0]]</text>
<text text-anchor="middle" x="2564.25" y="-452.95" font-family="Times,serif" font-size="14.00">path_length: 5</text>
<text text-anchor="middle" x="2564.25" y="-438.7" font-family="Times,serif" font-size="14.00">depth: 5</text>
</g>
<!-- [82.5..110, 22.5..50.0]&#45;&gt;[82.5..110, 36.25..50.0] -->
<g id="edge44" class="edge">
<title>[82.5..110, 22.5..50.0]&#45;&gt;[82.5..110, 36.25..50.0]</title>
<path fill="none" stroke="black" d="M2401,-398.23C2427.56,-407.97 2458.21,-419.22 2485.73,-429.32"/>
<polygon fill="black" stroke="black" points="2484.49,-432.59 2495.08,-432.75 2486.9,-426.02 2484.49,-432.59"/>
</g>
<!-- [82.5..96.25, 22.5..36.25] -->
<g id="node44" class="node">
<title>[82.5..96.25, 22.5..36.25]</title>
<polygon fill="none" stroke="black" points="2444.75,-571.25 2221.75,-571.25 2221.75,-520.5 2444.75,-520.5 2444.75,-571.25"/>
<text text-anchor="middle" x="2333.25" y="-553.95" font-family="Times,serif" font-size="14.00">borders: [[82.5, 96.25], [22.5, 36.25]]</text>
<text text-anchor="middle" x="2333.25" y="-539.7" font-family="Times,serif" font-size="14.00">sp: 29.38</text>
<text text-anchor="middle" x="2333.25" y="-525.45" font-family="Times,serif" font-size="14.00">dim: 1</text>
</g>
<!-- [82.5..110, 22.5..36.25]&#45;&gt;[82.5..96.25, 22.5..36.25] -->
<g id="edge45" class="edge">
<title>[82.5..110, 22.5..36.25]&#45;&gt;[82.5..96.25, 22.5..36.25]</title>
<path fill="none" stroke="black" d="M2333.25,-484.64C2333.25,-492.13 2333.25,-500.53 2333.25,-508.62"/>
<polygon fill="black" stroke="black" points="2329.75,-508.61 2333.25,-518.61 2336.75,-508.61 2329.75,-508.61"/>
</g>
<!-- [96.25..110, 22.5..36.25] -->
<g id="node47" class="node">
<title>[96.25..110, 22.5..36.25]</title>
<polygon fill="none" stroke="black" points="2681.88,-571.25 2462.62,-571.25 2462.62,-520.5 2681.88,-520.5 2681.88,-571.25"/>
<text text-anchor="middle" x="2572.25" y="-553.95" font-family="Times,serif" font-size="14.00">borders: [[96.25, 110], [22.5, 36.25]]</text>
<text text-anchor="middle" x="2572.25" y="-539.7" font-family="Times,serif" font-size="14.00">path_length: 6</text>
<text text-anchor="middle" x="2572.25" y="-525.45" font-family="Times,serif" font-size="14.00">depth: 6</text>
</g>
<!-- [82.5..110, 22.5..36.25]&#45;&gt;[96.25..110, 22.5..36.25] -->
<g id="edge46" class="edge">
<title>[82.5..110, 22.5..36.25]&#45;&gt;[96.25..110, 22.5..36.25]</title>
<path fill="none" stroke="black" d="M2403.34,-484.98C2430.95,-494.77 2462.82,-506.07 2491.39,-516.2"/>
<polygon fill="black" stroke="black" points="2490.14,-519.47 2500.73,-519.51 2492.48,-512.87 2490.14,-519.47"/>
</g>
<!-- [82.5..96.25, 22.5..29.375] -->
<g id="node45" class="node">
<title>[82.5..96.25, 22.5..29.375]</title>
<polygon fill="none" stroke="black" points="2444.75,-658 2221.75,-658 2221.75,-607.25 2444.75,-607.25 2444.75,-658"/>
<text text-anchor="middle" x="2333.25" y="-640.7" font-family="Times,serif" font-size="14.00">borders: [[82.5, 96.25], [22.5, 29.38]]</text>
<text text-anchor="middle" x="2333.25" y="-626.45" font-family="Times,serif" font-size="14.00">path_length: 7</text>
<text text-anchor="middle" x="2333.25" y="-612.2" font-family="Times,serif" font-size="14.00">depth: 7</text>
</g>
<!-- [82.5..96.25, 22.5..36.25]&#45;&gt;[82.5..96.25, 22.5..29.375] -->
<g id="edge47" class="edge">
<title>[82.5..96.25, 22.5..36.25]&#45;&gt;[82.5..96.25, 22.5..29.375]</title>
<path fill="none" stroke="black" d="M2333.25,-571.39C2333.25,-578.88 2333.25,-587.28 2333.25,-595.37"/>
<polygon fill="black" stroke="black" points="2329.75,-595.36 2333.25,-605.36 2336.75,-595.36 2329.75,-595.36"/>
</g>
<!-- [82.5..96.25, 29.375..36.25] -->
<g id="node46" class="node">
<title>[82.5..96.25, 29.375..36.25]</title>
<polygon fill="none" stroke="black" points="2692.12,-658 2462.38,-658 2462.38,-607.25 2692.12,-607.25 2692.12,-658"/>
<text text-anchor="middle" x="2577.25" y="-640.7" font-family="Times,serif" font-size="14.00">borders: [[82.5, 96.25], [29.38, 36.25]]</text>
<text text-anchor="middle" x="2577.25" y="-626.45" font-family="Times,serif" font-size="14.00">path_length: 7</text>
<text text-anchor="middle" x="2577.25" y="-612.2" font-family="Times,serif" font-size="14.00">depth: 7</text>
</g>
<!-- [82.5..96.25, 22.5..36.25]&#45;&gt;[82.5..96.25, 29.375..36.25] -->
<g id="edge48" class="edge">
<title>[82.5..96.25, 22.5..36.25]&#45;&gt;[82.5..96.25, 29.375..36.25]</title>
<path fill="none" stroke="black" d="M2404.81,-571.73C2433.11,-581.56 2465.81,-592.92 2495.08,-603.08"/>
<polygon fill="black" stroke="black" points="2493.67,-606.3 2504.26,-606.27 2495.96,-599.69 2493.67,-606.3"/>
</g>
</g>
</svg>
