<?xml version="1.0" encoding="UTF-8" standalone="no"?>
<!DOCTYPE svg PUBLIC "-//W3C//DTD SVG 1.1//EN"
 "http://www.w3.org/Graphics/SVG/1.1/DTD/svg11.dtd">
<!-- Generated by graphviz version 2.43.0 (0)
 -->
<!-- Title: G Pages: 1 -->
<svg width="1666pt" height="670pt"
 viewBox="0.00 0.00 1666.00 670.00" xmlns="http://www.w3.org/2000/svg" xmlns:xlink="http://www.w3.org/1999/xlink">
<g id="graph0" class="graph" transform="scale(1 1) rotate(0) translate(4 666)">
<title>G</title>
<polygon fill="white" stroke="transparent" points="-4,4 -4,-666 1662,-666 1662,4 -4,4"/>
<!-- [100..500, 0..150] -->
<g id="node1" class="node">
<title>[100..500, 0..150]</title>
<polygon fill="none" stroke="black" points="209,-231.5 0,-231.5 0,-178.5 209,-178.5 209,-231.5"/>
<text text-anchor="middle" x="104.5" y="-216.3" font-family="Times,serif" font-size="14.00">borders: [100..500, 0..150]</text>
<text text-anchor="middle" x="104.5" y="-201.3" font-family="Times,serif" font-size="14.00">sp: 75.0</text>
<text text-anchor="middle" x="104.5" y="-186.3" font-family="Times,serif" font-size="14.00">dim: 1</text>
</g>
<!-- [100..500, 0..75.0] -->
<g id="node2" class="node">
<title>[100..500, 0..75.0]</title>
<polygon fill="none" stroke="black" points="467,-271.5 254,-271.5 254,-218.5 467,-218.5 467,-271.5"/>
<text text-anchor="middle" x="360.5" y="-256.3" font-family="Times,serif" font-size="14.00">borders: [100..500, 0..75.0]</text>
<text text-anchor="middle" x="360.5" y="-241.3" font-family="Times,serif" font-size="14.00">sp: 300.0</text>
<text text-anchor="middle" x="360.5" y="-226.3" font-family="Times,serif" font-size="14.00">dim: 0</text>
</g>
<!-- [100..500, 0..150]&#45;&gt;[100..500, 0..75.0] -->
<g id="edge1" class="edge">
<title>[100..500, 0..150]&#45;&gt;[100..500, 0..75.0]</title>
<path fill="none" stroke="black" d="M209.18,-221.33C220.53,-223.11 232.14,-224.94 243.63,-226.75"/>
<polygon fill="black" stroke="black" points="243.26,-230.24 253.68,-228.34 244.35,-223.32 243.26,-230.24"/>
</g>
<!-- [100..500, 75.0..150] -->
<g id="node19" class="node">
<title>[100..500, 75.0..150]</title>
<polygon fill="none" stroke="black" points="476,-196.5 245,-196.5 245,-143.5 476,-143.5 476,-196.5"/>
<text text-anchor="middle" x="360.5" y="-181.3" font-family="Times,serif" font-size="14.00">borders: [100..500, 75.0..150]</text>
<text text-anchor="middle" x="360.5" y="-166.3" font-family="Times,serif" font-size="14.00">sp: 300.0</text>
<text text-anchor="middle" x="360.5" y="-151.3" font-family="Times,serif" font-size="14.00">dim: 0</text>
</g>
<!-- [100..500, 0..150]&#45;&gt;[100..500, 75.0..150] -->
<g id="edge2" class="edge">
<title>[100..500, 0..150]&#45;&gt;[100..500, 75.0..150]</title>
<path fill="none" stroke="black" d="M209.18,-190.71C217.66,-189.55 226.28,-188.36 234.89,-187.17"/>
<polygon fill="black" stroke="black" points="235.55,-190.61 244.98,-185.78 234.59,-183.68 235.55,-190.61"/>
</g>
<!-- [100..300.0, 0..75.0] -->
<g id="node3" class="node">
<title>[100..300.0, 0..75.0]</title>
<polygon fill="none" stroke="black" points="748,-337.5 521,-337.5 521,-284.5 748,-284.5 748,-337.5"/>
<text text-anchor="middle" x="634.5" y="-322.3" font-family="Times,serif" font-size="14.00">borders: [100..300.0, 0..75.0]</text>
<text text-anchor="middle" x="634.5" y="-307.3" font-family="Times,serif" font-size="14.00">sp: 200.0</text>
<text text-anchor="middle" x="634.5" y="-292.3" font-family="Times,serif" font-size="14.00">dim: 0</text>
</g>
<!-- [100..500, 0..75.0]&#45;&gt;[100..300.0, 0..75.0] -->
<g id="edge3" class="edge">
<title>[100..500, 0..75.0]&#45;&gt;[100..300.0, 0..75.0]</title>
<path fill="none" stroke="black" d="M467.05,-270.61C482.51,-274.36 498.52,-278.25 514.23,-282.06"/>
<polygon fill="black" stroke="black" points="513.42,-285.46 523.96,-284.42 515.07,-278.66 513.42,-285.46"/>
</g>
<!-- [300.0..500, 0..75.0] -->
<g id="node18" class="node">
<title>[300.0..500, 0..75.0]</title>
<polygon fill="none" stroke="black" points="748,-264 521,-264 521,-226 748,-226 748,-264"/>
<text text-anchor="middle" x="634.5" y="-248.8" font-family="Times,serif" font-size="14.00">borders: [300.0..500, 0..75.0]</text>
<text text-anchor="middle" x="634.5" y="-233.8" font-family="Times,serif" font-size="14.00">depth: 2</text>
</g>
<!-- [100..500, 0..75.0]&#45;&gt;[300.0..500, 0..75.0] -->
<g id="edge4" class="edge">
<title>[100..500, 0..75.0]&#45;&gt;[300.0..500, 0..75.0]</title>
<path fill="none" stroke="black" d="M467.05,-245C481.37,-245 496.16,-245 510.75,-245"/>
<polygon fill="black" stroke="black" points="510.8,-248.5 520.8,-245 510.8,-241.5 510.8,-248.5"/>
</g>
<!-- [100..200.0, 0..75.0] -->
<g id="node4" class="node">
<title>[100..200.0, 0..75.0]</title>
<polygon fill="none" stroke="black" points="1035.5,-521.5 808.5,-521.5 808.5,-468.5 1035.5,-468.5 1035.5,-521.5"/>
<text text-anchor="middle" x="922" y="-506.3" font-family="Times,serif" font-size="14.00">borders: [100..200.0, 0..75.0]</text>
<text text-anchor="middle" x="922" y="-491.3" font-family="Times,serif" font-size="14.00">sp: 37.5</text>
<text text-anchor="middle" x="922" y="-476.3" font-family="Times,serif" font-size="14.00">dim: 1</text>
</g>
<!-- [100..300.0, 0..75.0]&#45;&gt;[100..200.0, 0..75.0] -->
<g id="edge5" class="edge">
<title>[100..300.0, 0..75.0]&#45;&gt;[100..200.0, 0..75.0]</title>
<path fill="none" stroke="black" d="M676.71,-337.56C728.16,-370.72 816.09,-427.39 871.24,-462.93"/>
<polygon fill="black" stroke="black" points="869.5,-465.97 879.8,-468.45 873.29,-460.09 869.5,-465.97"/>
</g>
<!-- [200.0..300.0, 0..75.0] -->
<g id="node11" class="node">
<title>[200.0..300.0, 0..75.0]</title>
<polygon fill="none" stroke="black" points="1042,-337.5 802,-337.5 802,-284.5 1042,-284.5 1042,-337.5"/>
<text text-anchor="middle" x="922" y="-322.3" font-family="Times,serif" font-size="14.00">borders: [200.0..300.0, 0..75.0]</text>
<text text-anchor="middle" x="922" y="-307.3" font-family="Times,serif" font-size="14.00">sp: 37.5</text>
<text text-anchor="middle" x="922" y="-292.3" font-family="Times,serif" font-size="14.00">dim: 1</text>
</g>
<!-- [100..300.0, 0..75.0]&#45;&gt;[200.0..300.0, 0..75.0] -->
<g id="edge6" class="edge">
<title>[100..300.0, 0..75.0]&#45;&gt;[200.0..300.0, 0..75.0]</title>
<path fill="none" stroke="black" d="M748.34,-311C762.65,-311 777.38,-311 791.92,-311"/>
<polygon fill="black" stroke="black" points="791.94,-314.5 801.94,-311 791.94,-307.5 791.94,-314.5"/>
</g>
<!-- [100..200.0, 0..37.5] -->
<g id="node5" class="node">
<title>[100..200.0, 0..37.5]</title>
<polygon fill="none" stroke="black" points="1332,-613.5 1105,-613.5 1105,-560.5 1332,-560.5 1332,-613.5"/>
<text text-anchor="middle" x="1218.5" y="-598.3" font-family="Times,serif" font-size="14.00">borders: [100..200.0, 0..37.5]</text>
<text text-anchor="middle" x="1218.5" y="-583.3" font-family="Times,serif" font-size="14.00">sp: 150.0</text>
<text text-anchor="middle" x="1218.5" y="-568.3" font-family="Times,serif" font-size="14.00">dim: 0</text>
</g>
<!-- [100..200.0, 0..75.0]&#45;&gt;[100..200.0, 0..37.5] -->
<g id="edge7" class="edge">
<title>[100..200.0, 0..75.0]&#45;&gt;[100..200.0, 0..37.5]</title>
<path fill="none" stroke="black" d="M1008.18,-521.61C1044.05,-532.81 1085.93,-545.9 1122.76,-557.4"/>
<polygon fill="black" stroke="black" points="1121.92,-560.81 1132.51,-560.45 1124.01,-554.13 1121.92,-560.81"/>
</g>
<!-- [100..200.0, 37.5..75.0] -->
<g id="node8" class="node">
<title>[100..200.0, 37.5..75.0]</title>
<polygon fill="none" stroke="black" points="1343,-521.5 1094,-521.5 1094,-468.5 1343,-468.5 1343,-521.5"/>
<text text-anchor="middle" x="1218.5" y="-506.3" font-family="Times,serif" font-size="14.00">borders: [100..200.0, 37.5..75.0]</text>
<text text-anchor="middle" x="1218.5" y="-491.3" font-family="Times,serif" font-size="14.00">sp: 150.0</text>
<text text-anchor="middle" x="1218.5" y="-476.3" font-family="Times,serif" font-size="14.00">dim: 0</text>
</g>
<!-- [100..200.0, 0..75.0]&#45;&gt;[100..200.0, 37.5..75.0] -->
<g id="edge8" class="edge">
<title>[100..200.0, 0..75.0]&#45;&gt;[100..200.0, 37.5..75.0]</title>
<path fill="none" stroke="black" d="M1035.6,-495C1051.18,-495 1067.32,-495 1083.25,-495"/>
<polygon fill="black" stroke="black" points="1083.68,-498.5 1093.68,-495 1083.68,-491.5 1083.68,-498.5"/>
</g>
<!-- [100..150.0, 0..37.5] -->
<g id="node6" class="node">
<title>[100..150.0, 0..37.5]</title>
<polygon fill="none" stroke="black" points="1635.5,-662 1408.5,-662 1408.5,-624 1635.5,-624 1635.5,-662"/>
<text text-anchor="middle" x="1522" y="-646.8" font-family="Times,serif" font-size="14.00">borders: [100..150.0, 0..37.5]</text>
<text text-anchor="middle" x="1522" y="-631.8" font-family="Times,serif" font-size="14.00">depth: 5</text>
</g>
<!-- [100..200.0, 0..37.5]&#45;&gt;[100..150.0, 0..37.5] -->
<g id="edge9" class="edge">
<title>[100..200.0, 0..37.5]&#45;&gt;[100..150.0, 0..37.5]</title>
<path fill="none" stroke="black" d="M1332.2,-607.93C1357.15,-612.57 1383.59,-617.48 1408.54,-622.11"/>
<polygon fill="black" stroke="black" points="1407.91,-625.56 1418.39,-623.94 1409.19,-618.67 1407.91,-625.56"/>
</g>
<!-- [150.0..200.0, 0..37.5] -->
<g id="node7" class="node">
<title>[150.0..200.0, 0..37.5]</title>
<polygon fill="none" stroke="black" points="1642,-606 1402,-606 1402,-568 1642,-568 1642,-606"/>
<text text-anchor="middle" x="1522" y="-590.8" font-family="Times,serif" font-size="14.00">borders: [150.0..200.0, 0..37.5]</text>
<text text-anchor="middle" x="1522" y="-575.8" font-family="Times,serif" font-size="14.00">depth: 6</text>
</g>
<!-- [100..200.0, 0..37.5]&#45;&gt;[150.0..200.0, 0..37.5] -->
<g id="edge10" class="edge">
<title>[100..200.0, 0..37.5]&#45;&gt;[150.0..200.0, 0..37.5]</title>
<path fill="none" stroke="black" d="M1332.2,-587C1351.66,-587 1372.02,-587 1391.87,-587"/>
<polygon fill="black" stroke="black" points="1391.89,-590.5 1401.89,-587 1391.89,-583.5 1391.89,-590.5"/>
</g>
<!-- [100..150.0, 37.5..75.0] -->
<g id="node9" class="node">
<title>[100..150.0, 37.5..75.0]</title>
<polygon fill="none" stroke="black" points="1646.5,-550 1397.5,-550 1397.5,-512 1646.5,-512 1646.5,-550"/>
<text text-anchor="middle" x="1522" y="-534.8" font-family="Times,serif" font-size="14.00">borders: [100..150.0, 37.5..75.0]</text>
<text text-anchor="middle" x="1522" y="-519.8" font-family="Times,serif" font-size="14.00">depth: 5</text>
</g>
<!-- [100..200.0, 37.5..75.0]&#45;&gt;[100..150.0, 37.5..75.0] -->
<g id="edge11" class="edge">
<title>[100..200.0, 37.5..75.0]&#45;&gt;[100..150.0, 37.5..75.0]</title>
<path fill="none" stroke="black" d="M1343,-509.75C1357.54,-511.48 1372.42,-513.26 1387.09,-515.01"/>
<polygon fill="black" stroke="black" points="1386.86,-518.51 1397.2,-516.22 1387.69,-511.56 1386.86,-518.51"/>
</g>
<!-- [150.0..200.0, 37.5..75.0] -->
<g id="node10" class="node">
<title>[150.0..200.0, 37.5..75.0]</title>
<polygon fill="none" stroke="black" points="1653.5,-494 1390.5,-494 1390.5,-456 1653.5,-456 1653.5,-494"/>
<text text-anchor="middle" x="1522" y="-478.8" font-family="Times,serif" font-size="14.00">borders: [150.0..200.0, 37.5..75.0]</text>
<text text-anchor="middle" x="1522" y="-463.8" font-family="Times,serif" font-size="14.00">depth: 7.54072569091989</text>
</g>
<!-- [100..200.0, 37.5..75.0]&#45;&gt;[150.0..200.0, 37.5..75.0] -->
<g id="edge12" class="edge">
<title>[100..200.0, 37.5..75.0]&#45;&gt;[150.0..200.0, 37.5..75.0]</title>
<path fill="none" stroke="black" d="M1343,-486.81C1355.32,-485.99 1367.89,-485.16 1380.37,-484.33"/>
<polygon fill="black" stroke="black" points="1380.6,-487.82 1390.35,-483.67 1380.14,-480.84 1380.6,-487.82"/>
</g>
<!-- [200.0..300.0, 0..37.5] -->
<g id="node12" class="node">
<title>[200.0..300.0, 0..37.5]</title>
<polygon fill="none" stroke="black" points="1338.5,-397.5 1098.5,-397.5 1098.5,-344.5 1338.5,-344.5 1338.5,-397.5"/>
<text text-anchor="middle" x="1218.5" y="-382.3" font-family="Times,serif" font-size="14.00">borders: [200.0..300.0, 0..37.5]</text>
<text text-anchor="middle" x="1218.5" y="-367.3" font-family="Times,serif" font-size="14.00">sp: 18.75</text>
<text text-anchor="middle" x="1218.5" y="-352.3" font-family="Times,serif" font-size="14.00">dim: 1</text>
</g>
<!-- [200.0..300.0, 0..75.0]&#45;&gt;[200.0..300.0, 0..37.5] -->
<g id="edge13" class="edge">
<title>[200.0..300.0, 0..75.0]&#45;&gt;[200.0..300.0, 0..37.5]</title>
<path fill="none" stroke="black" d="M1042.36,-335.32C1057.53,-338.41 1073.11,-341.58 1088.43,-344.7"/>
<polygon fill="black" stroke="black" points="1087.95,-348.18 1098.45,-346.75 1089.35,-341.32 1087.95,-348.18"/>
</g>
<!-- [200.0..300.0, 37.5..75.0] -->
<g id="node15" class="node">
<title>[200.0..300.0, 37.5..75.0]</title>
<polygon fill="none" stroke="black" points="1350,-326.5 1087,-326.5 1087,-273.5 1350,-273.5 1350,-326.5"/>
<text text-anchor="middle" x="1218.5" y="-311.3" font-family="Times,serif" font-size="14.00">borders: [200.0..300.0, 37.5..75.0]</text>
<text text-anchor="middle" x="1218.5" y="-296.3" font-family="Times,serif" font-size="14.00">sp: 250.0</text>
<text text-anchor="middle" x="1218.5" y="-281.3" font-family="Times,serif" font-size="14.00">dim: 0</text>
</g>
<!-- [200.0..300.0, 0..75.0]&#45;&gt;[200.0..300.0, 37.5..75.0] -->
<g id="edge14" class="edge">
<title>[200.0..300.0, 0..75.0]&#45;&gt;[200.0..300.0, 37.5..75.0]</title>
<path fill="none" stroke="black" d="M1042.36,-306.54C1053.71,-306.12 1065.28,-305.69 1076.8,-305.26"/>
<polygon fill="black" stroke="black" points="1077.04,-308.75 1086.9,-304.88 1076.78,-301.75 1077.04,-308.75"/>
</g>
<!-- [200.0..300.0, 0..18.75] -->
<g id="node13" class="node">
<title>[200.0..300.0, 0..18.75]</title>
<polygon fill="none" stroke="black" points="1646.5,-438 1397.5,-438 1397.5,-400 1646.5,-400 1646.5,-438"/>
<text text-anchor="middle" x="1522" y="-422.8" font-family="Times,serif" font-size="14.00">borders: [200.0..300.0, 0..18.75]</text>
<text text-anchor="middle" x="1522" y="-407.8" font-family="Times,serif" font-size="14.00">depth: 5</text>
</g>
<!-- [200.0..300.0, 0..37.5]&#45;&gt;[200.0..300.0, 0..18.75] -->
<g id="edge15" class="edge">
<title>[200.0..300.0, 0..37.5]&#45;&gt;[200.0..300.0, 0..18.75]</title>
<path fill="none" stroke="black" d="M1338.66,-389.97C1355.86,-392.71 1373.63,-395.54 1391.03,-398.31"/>
<polygon fill="black" stroke="black" points="1390.8,-401.82 1401.22,-399.93 1391.9,-394.9 1390.8,-401.82"/>
</g>
<!-- [200.0..300.0, 18.75..37.5] -->
<g id="node14" class="node">
<title>[200.0..300.0, 18.75..37.5]</title>
<polygon fill="none" stroke="black" points="1658,-382 1386,-382 1386,-344 1658,-344 1658,-382"/>
<text text-anchor="middle" x="1522" y="-366.8" font-family="Times,serif" font-size="14.00">borders: [200.0..300.0, 18.75..37.5]</text>
<text text-anchor="middle" x="1522" y="-351.8" font-family="Times,serif" font-size="14.00">depth: 6</text>
</g>
<!-- [200.0..300.0, 0..37.5]&#45;&gt;[200.0..300.0, 18.75..37.5] -->
<g id="edge16" class="edge">
<title>[200.0..300.0, 0..37.5]&#45;&gt;[200.0..300.0, 18.75..37.5]</title>
<path fill="none" stroke="black" d="M1338.66,-367.84C1350.75,-367.52 1363.12,-367.19 1375.44,-366.86"/>
<polygon fill="black" stroke="black" points="1375.88,-370.35 1385.78,-366.59 1375.69,-363.35 1375.88,-370.35"/>
</g>
<!-- [200.0..250.0, 37.5..75.0] -->
<g id="node16" class="node">
<title>[200.0..250.0, 37.5..75.0]</title>
<polygon fill="none" stroke="black" points="1653.5,-326 1390.5,-326 1390.5,-288 1653.5,-288 1653.5,-326"/>
<text text-anchor="middle" x="1522" y="-310.8" font-family="Times,serif" font-size="14.00">borders: [200.0..250.0, 37.5..75.0]</text>
<text text-anchor="middle" x="1522" y="-295.8" font-family="Times,serif" font-size="14.00">depth: 10.046251627910626</text>
</g>
<!-- [200.0..300.0, 37.5..75.0]&#45;&gt;[200.0..250.0, 37.5..75.0] -->
<g id="edge17" class="edge">
<title>[200.0..300.0, 37.5..75.0]&#45;&gt;[200.0..250.0, 37.5..75.0]</title>
<path fill="none" stroke="black" d="M1350.43,-303.04C1360.22,-303.27 1370.12,-303.5 1379.97,-303.73"/>
<polygon fill="black" stroke="black" points="1380.12,-307.23 1390.2,-303.96 1380.29,-300.23 1380.12,-307.23"/>
</g>
<!-- [250.0..300.0, 37.5..75.0] -->
<g id="node17" class="node">
<title>[250.0..300.0, 37.5..75.0]</title>
<polygon fill="none" stroke="black" points="1653.5,-270 1390.5,-270 1390.5,-232 1653.5,-232 1653.5,-270"/>
<text text-anchor="middle" x="1522" y="-254.8" font-family="Times,serif" font-size="14.00">borders: [250.0..300.0, 37.5..75.0]</text>
<text text-anchor="middle" x="1522" y="-239.8" font-family="Times,serif" font-size="14.00">depth: 5</text>
</g>
<!-- [200.0..300.0, 37.5..75.0]&#45;&gt;[250.0..300.0, 37.5..75.0] -->
<g id="edge18" class="edge">
<title>[200.0..300.0, 37.5..75.0]&#45;&gt;[250.0..300.0, 37.5..75.0]</title>
<path fill="none" stroke="black" d="M1350.43,-278.72C1364.89,-276.37 1379.6,-273.98 1394.01,-271.64"/>
<polygon fill="black" stroke="black" points="1394.62,-275.08 1403.93,-270.03 1393.5,-268.18 1394.62,-275.08"/>
</g>
<!-- [100..300.0, 75.0..150] -->
<g id="node20" class="node">
<title>[100..300.0, 75.0..150]</title>
<polygon fill="none" stroke="black" points="757,-196.5 512,-196.5 512,-143.5 757,-143.5 757,-196.5"/>
<text text-anchor="middle" x="634.5" y="-181.3" font-family="Times,serif" font-size="14.00">borders: [100..300.0, 75.0..150]</text>
<text text-anchor="middle" x="634.5" y="-166.3" font-family="Times,serif" font-size="14.00">sp: 200.0</text>
<text text-anchor="middle" x="634.5" y="-151.3" font-family="Times,serif" font-size="14.00">dim: 0</text>
</g>
<!-- [100..500, 75.0..150]&#45;&gt;[100..300.0, 75.0..150] -->
<g id="edge19" class="edge">
<title>[100..500, 75.0..150]&#45;&gt;[100..300.0, 75.0..150]</title>
<path fill="none" stroke="black" d="M476.06,-170C484.52,-170 493.08,-170 501.63,-170"/>
<polygon fill="black" stroke="black" points="501.64,-173.5 511.64,-170 501.64,-166.5 501.64,-173.5"/>
</g>
<!-- [300.0..500, 75.0..150] -->
<g id="node31" class="node">
<title>[300.0..500, 75.0..150]</title>
<polygon fill="none" stroke="black" points="757,-125 512,-125 512,-87 757,-87 757,-125"/>
<text text-anchor="middle" x="634.5" y="-109.8" font-family="Times,serif" font-size="14.00">borders: [300.0..500, 75.0..150]</text>
<text text-anchor="middle" x="634.5" y="-94.8" font-family="Times,serif" font-size="14.00">depth: 2</text>
</g>
<!-- [100..500, 75.0..150]&#45;&gt;[300.0..500, 75.0..150] -->
<g id="edge20" class="edge">
<title>[100..500, 75.0..150]&#45;&gt;[300.0..500, 75.0..150]</title>
<path fill="none" stroke="black" d="M474.49,-143.41C497.15,-138.08 520.68,-132.55 542.48,-127.42"/>
<polygon fill="black" stroke="black" points="543.43,-130.79 552.36,-125.09 541.83,-123.97 543.43,-130.79"/>
</g>
<!-- [100..200.0, 75.0..150] -->
<g id="node21" class="node">
<title>[100..200.0, 75.0..150]</title>
<polygon fill="none" stroke="black" points="1044.5,-196.5 799.5,-196.5 799.5,-143.5 1044.5,-143.5 1044.5,-196.5"/>
<text text-anchor="middle" x="922" y="-181.3" font-family="Times,serif" font-size="14.00">borders: [100..200.0, 75.0..150]</text>
<text text-anchor="middle" x="922" y="-166.3" font-family="Times,serif" font-size="14.00">sp: 150.0</text>
<text text-anchor="middle" x="922" y="-151.3" font-family="Times,serif" font-size="14.00">dim: 0</text>
</g>
<!-- [100..300.0, 75.0..150]&#45;&gt;[100..200.0, 75.0..150] -->
<g id="edge21" class="edge">
<title>[100..300.0, 75.0..150]&#45;&gt;[100..200.0, 75.0..150]</title>
<path fill="none" stroke="black" d="M757.41,-170C767.86,-170 778.46,-170 788.99,-170"/>
<polygon fill="black" stroke="black" points="789.05,-173.5 799.05,-170 789.05,-166.5 789.05,-173.5"/>
</g>
<!-- [200.0..300.0, 75.0..150] -->
<g id="node26" class="node">
<title>[200.0..300.0, 75.0..150]</title>
<polygon fill="none" stroke="black" points="1051,-109.5 793,-109.5 793,-56.5 1051,-56.5 1051,-109.5"/>
<text text-anchor="middle" x="922" y="-94.3" font-family="Times,serif" font-size="14.00">borders: [200.0..300.0, 75.0..150]</text>
<text text-anchor="middle" x="922" y="-79.3" font-family="Times,serif" font-size="14.00">sp: 250.0</text>
<text text-anchor="middle" x="922" y="-64.3" font-family="Times,serif" font-size="14.00">dim: 0</text>
</g>
<!-- [100..300.0, 75.0..150]&#45;&gt;[200.0..300.0, 75.0..150] -->
<g id="edge22" class="edge">
<title>[100..300.0, 75.0..150]&#45;&gt;[200.0..300.0, 75.0..150]</title>
<path fill="none" stroke="black" d="M725.45,-143.5C736.09,-140.32 746.79,-137.1 757,-134 779.59,-127.14 803.9,-119.64 826.7,-112.56"/>
<polygon fill="black" stroke="black" points="827.86,-115.87 836.37,-109.56 825.78,-109.18 827.86,-115.87"/>
</g>
<!-- [100..150.0, 75.0..150] -->
<g id="node22" class="node">
<title>[100..150.0, 75.0..150]</title>
<polygon fill="none" stroke="black" points="1341,-244 1096,-244 1096,-206 1341,-206 1341,-244"/>
<text text-anchor="middle" x="1218.5" y="-228.8" font-family="Times,serif" font-size="14.00">borders: [100..150.0, 75.0..150]</text>
<text text-anchor="middle" x="1218.5" y="-213.8" font-family="Times,serif" font-size="14.00">depth: 4</text>
</g>
<!-- [100..200.0, 75.0..150]&#45;&gt;[100..150.0, 75.0..150] -->
<g id="edge23" class="edge">
<title>[100..200.0, 75.0..150]&#45;&gt;[100..150.0, 75.0..150]</title>
<path fill="none" stroke="black" d="M1044.91,-192.77C1064.94,-196.51 1085.62,-200.37 1105.41,-204.07"/>
<polygon fill="black" stroke="black" points="1104.87,-207.53 1115.35,-205.92 1106.16,-200.65 1104.87,-207.53"/>
</g>
<!-- [150.0..200.0, 75.0..150] -->
<g id="node23" class="node">
<title>[150.0..200.0, 75.0..150]</title>
<polygon fill="none" stroke="black" points="1347.5,-187.5 1089.5,-187.5 1089.5,-134.5 1347.5,-134.5 1347.5,-187.5"/>
<text text-anchor="middle" x="1218.5" y="-172.3" font-family="Times,serif" font-size="14.00">borders: [150.0..200.0, 75.0..150]</text>
<text text-anchor="middle" x="1218.5" y="-157.3" font-family="Times,serif" font-size="14.00">sp: 112.5</text>
<text text-anchor="middle" x="1218.5" y="-142.3" font-family="Times,serif" font-size="14.00">dim: 1</text>
</g>
<!-- [100..200.0, 75.0..150]&#45;&gt;[150.0..200.0, 75.0..150] -->
<g id="edge24" class="edge">
<title>[100..200.0, 75.0..150]&#45;&gt;[150.0..200.0, 75.0..150]</title>
<path fill="none" stroke="black" d="M1044.91,-166.27C1056.29,-165.93 1067.88,-165.57 1079.4,-165.22"/>
<polygon fill="black" stroke="black" points="1079.6,-168.72 1089.49,-164.91 1079.39,-161.72 1079.6,-168.72"/>
</g>
<!-- [150.0..200.0, 75.0..112.5] -->
<g id="node24" class="node">
<title>[150.0..200.0, 75.0..112.5]</title>
<polygon fill="none" stroke="black" points="1658,-214 1386,-214 1386,-176 1658,-176 1658,-214"/>
<text text-anchor="middle" x="1522" y="-198.8" font-family="Times,serif" font-size="14.00">borders: [150.0..200.0, 75.0..112.5]</text>
<text text-anchor="middle" x="1522" y="-183.8" font-family="Times,serif" font-size="14.00">depth: 6</text>
</g>
<!-- [150.0..200.0, 75.0..150]&#45;&gt;[150.0..200.0, 75.0..112.5] -->
<g id="edge25" class="edge">
<title>[150.0..200.0, 75.0..150]&#45;&gt;[150.0..200.0, 75.0..112.5]</title>
<path fill="none" stroke="black" d="M1347.8,-175.47C1356.98,-176.5 1366.28,-177.55 1375.54,-178.6"/>
<polygon fill="black" stroke="black" points="1375.25,-182.09 1385.58,-179.73 1376.04,-175.13 1375.25,-182.09"/>
</g>
<!-- [150.0..200.0, 112.5..150] -->
<g id="node25" class="node">
<title>[150.0..200.0, 112.5..150]</title>
<polygon fill="none" stroke="black" points="1655.5,-158 1388.5,-158 1388.5,-120 1655.5,-120 1655.5,-158"/>
<text text-anchor="middle" x="1522" y="-142.8" font-family="Times,serif" font-size="14.00">borders: [150.0..200.0, 112.5..150]</text>
<text text-anchor="middle" x="1522" y="-127.8" font-family="Times,serif" font-size="14.00">depth: 5</text>
</g>
<!-- [150.0..200.0, 75.0..150]&#45;&gt;[150.0..200.0, 112.5..150] -->
<g id="edge26" class="edge">
<title>[150.0..200.0, 75.0..150]&#45;&gt;[150.0..200.0, 112.5..150]</title>
<path fill="none" stroke="black" d="M1347.8,-151.64C1357.9,-150.9 1368.13,-150.15 1378.32,-149.41"/>
<polygon fill="black" stroke="black" points="1378.76,-152.89 1388.48,-148.67 1378.25,-145.91 1378.76,-152.89"/>
</g>
<!-- [200.0..250.0, 75.0..150] -->
<g id="node27" class="node">
<title>[200.0..250.0, 75.0..150]</title>
<polygon fill="none" stroke="black" points="1347.5,-109.5 1089.5,-109.5 1089.5,-56.5 1347.5,-56.5 1347.5,-109.5"/>
<text text-anchor="middle" x="1218.5" y="-94.3" font-family="Times,serif" font-size="14.00">borders: [200.0..250.0, 75.0..150]</text>
<text text-anchor="middle" x="1218.5" y="-79.3" font-family="Times,serif" font-size="14.00">sp: 225.0</text>
<text text-anchor="middle" x="1218.5" y="-64.3" font-family="Times,serif" font-size="14.00">dim: 0</text>
</g>
<!-- [200.0..300.0, 75.0..150]&#45;&gt;[200.0..250.0, 75.0..150] -->
<g id="edge27" class="edge">
<title>[200.0..300.0, 75.0..150]&#45;&gt;[200.0..250.0, 75.0..150]</title>
<path fill="none" stroke="black" d="M1051.32,-83C1060.54,-83 1069.86,-83 1079.13,-83"/>
<polygon fill="black" stroke="black" points="1079.17,-86.5 1089.17,-83 1079.17,-79.5 1079.17,-86.5"/>
</g>
<!-- [250.0..300.0, 75.0..150] -->
<g id="node30" class="node">
<title>[250.0..300.0, 75.0..150]</title>
<polygon fill="none" stroke="black" points="1347.5,-38 1089.5,-38 1089.5,0 1347.5,0 1347.5,-38"/>
<text text-anchor="middle" x="1218.5" y="-22.8" font-family="Times,serif" font-size="14.00">borders: [250.0..300.0, 75.0..150]</text>
<text text-anchor="middle" x="1218.5" y="-7.8" font-family="Times,serif" font-size="14.00">depth: 4</text>
</g>
<!-- [200.0..300.0, 75.0..150]&#45;&gt;[250.0..300.0, 75.0..150] -->
<g id="edge28" class="edge">
<title>[200.0..300.0, 75.0..150]&#45;&gt;[250.0..300.0, 75.0..150]</title>
<path fill="none" stroke="black" d="M1043.45,-56.49C1058.12,-53.28 1072.9,-50.06 1087,-47 1097.12,-44.8 1107.69,-42.52 1118.24,-40.25"/>
<polygon fill="black" stroke="black" points="1119.3,-43.6 1128.33,-38.07 1117.82,-36.76 1119.3,-43.6"/>
</g>
<!-- [200.0..225.0, 75.0..150] -->
<g id="node28" class="node">
<title>[200.0..225.0, 75.0..150]</title>
<polygon fill="none" stroke="black" points="1651,-102 1393,-102 1393,-64 1651,-64 1651,-102"/>
<text text-anchor="middle" x="1522" y="-86.8" font-family="Times,serif" font-size="14.00">borders: [200.0..225.0, 75.0..150]</text>
<text text-anchor="middle" x="1522" y="-71.8" font-family="Times,serif" font-size="14.00">depth: 6</text>
</g>
<!-- [200.0..250.0, 75.0..150]&#45;&gt;[200.0..225.0, 75.0..150] -->
<g id="edge29" class="edge">
<title>[200.0..250.0, 75.0..150]&#45;&gt;[200.0..225.0, 75.0..150]</title>
<path fill="none" stroke="black" d="M1347.8,-83C1359.33,-83 1371.04,-83 1382.65,-83"/>
<polygon fill="black" stroke="black" points="1382.81,-86.5 1392.81,-83 1382.81,-79.5 1382.81,-86.5"/>
</g>
<!-- [225.0..250.0, 75.0..150] -->
<g id="node29" class="node">
<title>[225.0..250.0, 75.0..150]</title>
<polygon fill="none" stroke="black" points="1651,-46 1393,-46 1393,-8 1651,-8 1651,-46"/>
<text text-anchor="middle" x="1522" y="-30.8" font-family="Times,serif" font-size="14.00">borders: [225.0..250.0, 75.0..150]</text>
<text text-anchor="middle" x="1522" y="-15.8" font-family="Times,serif" font-size="14.00">depth: 5</text>
</g>
<!-- [200.0..250.0, 75.0..150]&#45;&gt;[225.0..250.0, 75.0..150] -->
<g id="edge30" class="edge">
<title>[200.0..250.0, 75.0..150]&#45;&gt;[225.0..250.0, 75.0..150]</title>
<path fill="none" stroke="black" d="M1347.8,-59.17C1367.96,-55.43 1388.66,-51.58 1408.42,-47.91"/>
<polygon fill="black" stroke="black" points="1409.16,-51.33 1418.35,-46.07 1407.88,-44.45 1409.16,-51.33"/>
</g>
</g>
</svg>
