<?xml version="1.0" encoding="UTF-8" standalone="no"?>
<!DOCTYPE svg PUBLIC "-//W3C//DTD SVG 1.1//EN"
 "http://www.w3.org/Graphics/SVG/1.1/DTD/svg11.dtd">
<!-- Generated by graphviz version 2.43.0 (0)
 -->
<!-- Title: G Pages: 1 -->
<svg width="2094pt" height="442pt"
 viewBox="0.00 0.00 2094.00 442.00" xmlns="http://www.w3.org/2000/svg" xmlns:xlink="http://www.w3.org/1999/xlink">
<g id="graph0" class="graph" transform="scale(1 1) rotate(0) translate(4 438)">
<title>G</title>
<polygon fill="white" stroke="transparent" points="-4,4 -4,-438 2090,-438 2090,4 -4,4"/>
<!-- [139.14705900721026..255.50777324982403, &#45;28.898540626856743..117.32742620044479] -->
<g id="node1" class="node">
<title>[139.14705900721026..255.50777324982403, &#45;28.898540626856743..117.32742620044479]</title>
<polygon fill="none" stroke="black" points="324,-257 0,-257 0,-204 324,-204 324,-257"/>
<text text-anchor="middle" x="162" y="-241.8" font-family="Times,serif" font-size="14.00">borders: [[139.15, 255.51], [&#45;28.9, 117.33]]</text>
<text text-anchor="middle" x="162" y="-226.8" font-family="Times,serif" font-size="14.00">sp: 109.69</text>
<text text-anchor="middle" x="162" y="-211.8" font-family="Times,serif" font-size="14.00">dim: 1</text>
</g>
<!-- [139.14705900721026..222.33750412007487, &#45;28.898540626856743..90.6950025226958] -->
<g id="node2" class="node">
<title>[139.14705900721026..222.33750412007487, &#45;28.898540626856743..90.6950025226958]</title>
<polygon fill="none" stroke="black" points="673,-293 367,-293 367,-240 673,-240 673,-293"/>
<text text-anchor="middle" x="520" y="-277.8" font-family="Times,serif" font-size="14.00">borders: [[139.15, 222.34], [&#45;28.9, 90.7]]</text>
<text text-anchor="middle" x="520" y="-262.8" font-family="Times,serif" font-size="14.00">sp: 180.02</text>
<text text-anchor="middle" x="520" y="-247.8" font-family="Times,serif" font-size="14.00">dim: 0</text>
</g>
<!-- [139.14705900721026..255.50777324982403, &#45;28.898540626856743..117.32742620044479]&#45;&gt;[139.14705900721026..222.33750412007487, &#45;28.898540626856743..90.6950025226958] -->
<g id="edge1" class="edge">
<title>[139.14705900721026..255.50777324982403, &#45;28.898540626856743..117.32742620044479]&#45;&gt;[139.14705900721026..222.33750412007487, &#45;28.898540626856743..90.6950025226958]</title>
<path fill="none" stroke="black" d="M324.07,-246.79C335,-247.89 346.01,-249.01 356.94,-250.11"/>
<polygon fill="black" stroke="black" points="356.65,-253.6 366.95,-251.12 357.35,-246.64 356.65,-253.6"/>
</g>
<!-- [158.1028969119084..158.1028969119084, 110.37871387829875..110.37871387829875] -->
<g id="node19" class="node">
<title>[158.1028969119084..158.1028969119084, 110.37871387829875..110.37871387829875]</title>
<polygon fill="none" stroke="black" points="680,-222 360,-222 360,-169 680,-169 680,-222"/>
<text text-anchor="middle" x="520" y="-206.8" font-family="Times,serif" font-size="14.00">borders: [[158.1, 158.1], [110.38, 110.38]]</text>
<text text-anchor="middle" x="520" y="-191.8" font-family="Times,serif" font-size="14.00">path_length: 1</text>
<text text-anchor="middle" x="520" y="-176.8" font-family="Times,serif" font-size="14.00">depth: 1</text>
</g>
<!-- [139.14705900721026..255.50777324982403, &#45;28.898540626856743..117.32742620044479]&#45;&gt;[158.1028969119084..158.1028969119084, 110.37871387829875..110.37871387829875] -->
<g id="edge2" class="edge">
<title>[139.14705900721026..255.50777324982403, &#45;28.898540626856743..117.32742620044479]&#45;&gt;[158.1028969119084..158.1028969119084, 110.37871387829875..110.37871387829875]</title>
<path fill="none" stroke="black" d="M324.07,-214.66C332.61,-213.82 341.2,-212.98 349.76,-212.14"/>
<polygon fill="black" stroke="black" points="350.18,-215.61 359.79,-211.15 349.5,-208.65 350.18,-215.61"/>
</g>
<!-- [139.14705900721026..167.18606271494795, 6.8828439936309..83.63143787904505] -->
<g id="node3" class="node">
<title>[139.14705900721026..167.18606271494795, 6.8828439936309..83.63143787904505]</title>
<polygon fill="none" stroke="black" points="1027,-328 716,-328 716,-275 1027,-275 1027,-328"/>
<text text-anchor="middle" x="871.5" y="-312.8" font-family="Times,serif" font-size="14.00">borders: [[139.15, 167.19], [6.88, 83.63]]</text>
<text text-anchor="middle" x="871.5" y="-297.8" font-family="Times,serif" font-size="14.00">sp: 166.96</text>
<text text-anchor="middle" x="871.5" y="-282.8" font-family="Times,serif" font-size="14.00">dim: 0</text>
</g>
<!-- [139.14705900721026..222.33750412007487, &#45;28.898540626856743..90.6950025226958]&#45;&gt;[139.14705900721026..167.18606271494795, 6.8828439936309..83.63143787904505] -->
<g id="edge3" class="edge">
<title>[139.14705900721026..222.33750412007487, &#45;28.898540626856743..90.6950025226958]&#45;&gt;[139.14705900721026..167.18606271494795, 6.8828439936309..83.63143787904505]</title>
<path fill="none" stroke="black" d="M673.03,-281.72C683.88,-282.81 694.85,-283.91 705.77,-285"/>
<polygon fill="black" stroke="black" points="705.48,-288.49 715.78,-286.01 706.17,-281.53 705.48,-288.49"/>
</g>
<!-- [180.87587357245306..222.33750412007487, &#45;28.898540626856743..90.6950025226958] -->
<g id="node10" class="node">
<title>[180.87587357245306..222.33750412007487, &#45;28.898540626856743..90.6950025226958]</title>
<polygon fill="none" stroke="black" points="1024.5,-257 718.5,-257 718.5,-204 1024.5,-204 1024.5,-257"/>
<text text-anchor="middle" x="871.5" y="-241.8" font-family="Times,serif" font-size="14.00">borders: [[180.88, 222.34], [&#45;28.9, 90.7]]</text>
<text text-anchor="middle" x="871.5" y="-226.8" font-family="Times,serif" font-size="14.00">sp: &#45;1.14</text>
<text text-anchor="middle" x="871.5" y="-211.8" font-family="Times,serif" font-size="14.00">dim: 1</text>
</g>
<!-- [139.14705900721026..222.33750412007487, &#45;28.898540626856743..90.6950025226958]&#45;&gt;[180.87587357245306..222.33750412007487, &#45;28.898540626856743..90.6950025226958] -->
<g id="edge4" class="edge">
<title>[139.14705900721026..222.33750412007487, &#45;28.898540626856743..90.6950025226958]&#45;&gt;[180.87587357245306..222.33750412007487, &#45;28.898540626856743..90.6950025226958]</title>
<path fill="none" stroke="black" d="M673.03,-250.84C684.63,-249.65 696.37,-248.44 708.04,-247.23"/>
<polygon fill="black" stroke="black" points="708.67,-250.69 718.26,-246.18 707.96,-243.72 708.67,-250.69"/>
</g>
<!-- [139.14705900721026..165.95816638172403, 31.592933301727044..83.63143787904505] -->
<g id="node4" class="node">
<title>[139.14705900721026..165.95816638172403, 31.592933301727044..83.63143787904505]</title>
<polygon fill="none" stroke="black" points="1383,-399 1063,-399 1063,-346 1383,-346 1383,-399"/>
<text text-anchor="middle" x="1223" y="-383.8" font-family="Times,serif" font-size="14.00">borders: [[139.15, 165.96], [31.59, 83.63]]</text>
<text text-anchor="middle" x="1223" y="-368.8" font-family="Times,serif" font-size="14.00">sp: 146.17</text>
<text text-anchor="middle" x="1223" y="-353.8" font-family="Times,serif" font-size="14.00">dim: 0</text>
</g>
<!-- [139.14705900721026..167.18606271494795, 6.8828439936309..83.63143787904505]&#45;&gt;[139.14705900721026..165.95816638172403, 31.592933301727044..83.63143787904505] -->
<g id="edge5" class="edge">
<title>[139.14705900721026..167.18606271494795, 6.8828439936309..83.63143787904505]&#45;&gt;[139.14705900721026..165.95816638172403, 31.592933301727044..83.63143787904505]</title>
<path fill="none" stroke="black" d="M1003.14,-328.04C1028.75,-333.24 1055.72,-338.72 1081.64,-343.99"/>
<polygon fill="black" stroke="black" points="1081.02,-347.43 1091.52,-345.99 1082.42,-340.57 1081.02,-347.43"/>
</g>
<!-- [167.18606271494795..167.18606271494795, 6.8828439936309..6.8828439936309] -->
<g id="node9" class="node">
<title>[167.18606271494795..167.18606271494795, 6.8828439936309..6.8828439936309]</title>
<polygon fill="none" stroke="black" points="1374,-328 1072,-328 1072,-275 1374,-275 1374,-328"/>
<text text-anchor="middle" x="1223" y="-312.8" font-family="Times,serif" font-size="14.00">borders: [[167.19, 167.19], [6.88, 6.88]]</text>
<text text-anchor="middle" x="1223" y="-297.8" font-family="Times,serif" font-size="14.00">path_length: 3</text>
<text text-anchor="middle" x="1223" y="-282.8" font-family="Times,serif" font-size="14.00">depth: 3</text>
</g>
<!-- [139.14705900721026..167.18606271494795, 6.8828439936309..83.63143787904505]&#45;&gt;[167.18606271494795..167.18606271494795, 6.8828439936309..6.8828439936309] -->
<g id="edge6" class="edge">
<title>[139.14705900721026..167.18606271494795, 6.8828439936309..83.63143787904505]&#45;&gt;[167.18606271494795..167.18606271494795, 6.8828439936309..6.8828439936309]</title>
<path fill="none" stroke="black" d="M1027.07,-301.5C1038.59,-301.5 1050.22,-301.5 1061.77,-301.5"/>
<polygon fill="black" stroke="black" points="1061.9,-305 1071.9,-301.5 1061.9,-298 1061.9,-305"/>
</g>
<!-- [139.14705900721026..139.14705900721026, 62.49990086292553..62.49990086292553] -->
<g id="node5" class="node">
<title>[139.14705900721026..139.14705900721026, 62.49990086292553..62.49990086292553]</title>
<polygon fill="none" stroke="black" points="1725.5,-434 1423.5,-434 1423.5,-381 1725.5,-381 1725.5,-434"/>
<text text-anchor="middle" x="1574.5" y="-418.8" font-family="Times,serif" font-size="14.00">borders: [[139.15, 139.15], [62.5, 62.5]]</text>
<text text-anchor="middle" x="1574.5" y="-403.8" font-family="Times,serif" font-size="14.00">path_length: 4</text>
<text text-anchor="middle" x="1574.5" y="-388.8" font-family="Times,serif" font-size="14.00">depth: 4</text>
</g>
<!-- [139.14705900721026..165.95816638172403, 31.592933301727044..83.63143787904505]&#45;&gt;[139.14705900721026..139.14705900721026, 62.49990086292553..62.49990086292553] -->
<g id="edge7" class="edge">
<title>[139.14705900721026..165.95816638172403, 31.592933301727044..83.63143787904505]&#45;&gt;[139.14705900721026..139.14705900721026, 62.49990086292553..62.49990086292553]</title>
<path fill="none" stroke="black" d="M1383.15,-388.44C1393.22,-389.45 1403.36,-390.46 1413.43,-391.47"/>
<polygon fill="black" stroke="black" points="1413.18,-394.96 1423.47,-392.48 1413.87,-388 1413.18,-394.96"/>
</g>
<!-- [158.40188090279793..165.95816638172403, 31.592933301727044..83.63143787904505] -->
<g id="node6" class="node">
<title>[158.40188090279793..165.95816638172403, 31.592933301727044..83.63143787904505]</title>
<polygon fill="none" stroke="black" points="1730,-363 1419,-363 1419,-310 1730,-310 1730,-363"/>
<text text-anchor="middle" x="1574.5" y="-347.8" font-family="Times,serif" font-size="14.00">borders: [[158.4, 165.96], [31.59, 83.63]]</text>
<text text-anchor="middle" x="1574.5" y="-332.8" font-family="Times,serif" font-size="14.00">sp: 165.53</text>
<text text-anchor="middle" x="1574.5" y="-317.8" font-family="Times,serif" font-size="14.00">dim: 0</text>
</g>
<!-- [139.14705900721026..165.95816638172403, 31.592933301727044..83.63143787904505]&#45;&gt;[158.40188090279793..165.95816638172403, 31.592933301727044..83.63143787904505] -->
<g id="edge8" class="edge">
<title>[139.14705900721026..165.95816638172403, 31.592933301727044..83.63143787904505]&#45;&gt;[158.40188090279793..165.95816638172403, 31.592933301727044..83.63143787904505]</title>
<path fill="none" stroke="black" d="M1383.15,-356.11C1391.7,-355.23 1400.3,-354.34 1408.86,-353.46"/>
<polygon fill="black" stroke="black" points="1409.31,-356.93 1418.9,-352.42 1408.59,-349.97 1409.31,-356.93"/>
</g>
<!-- [158.40188090279793..158.40188090279793, 83.63143787904505..83.63143787904505] -->
<g id="node7" class="node">
<title>[158.40188090279793..158.40188090279793, 83.63143787904505..83.63143787904505]</title>
<polygon fill="none" stroke="black" points="2077,-417 1775,-417 1775,-364 2077,-364 2077,-417"/>
<text text-anchor="middle" x="1926" y="-401.8" font-family="Times,serif" font-size="14.00">borders: [[158.4, 158.4], [83.63, 83.63]]</text>
<text text-anchor="middle" x="1926" y="-386.8" font-family="Times,serif" font-size="14.00">path_length: 5</text>
<text text-anchor="middle" x="1926" y="-371.8" font-family="Times,serif" font-size="14.00">depth: 5</text>
</g>
<!-- [158.40188090279793..165.95816638172403, 31.592933301727044..83.63143787904505]&#45;&gt;[158.40188090279793..158.40188090279793, 83.63143787904505..83.63143787904505] -->
<g id="edge9" class="edge">
<title>[158.40188090279793..165.95816638172403, 31.592933301727044..83.63143787904505]&#45;&gt;[158.40188090279793..158.40188090279793, 83.63143787904505..83.63143787904505]</title>
<path fill="none" stroke="black" d="M1730.07,-360.38C1741.59,-362.16 1753.22,-363.96 1764.77,-365.74"/>
<polygon fill="black" stroke="black" points="1764.48,-369.24 1774.9,-367.31 1765.55,-362.32 1764.48,-369.24"/>
</g>
<!-- [165.95816638172403..165.95816638172403, 31.592933301727044..31.592933301727044] -->
<g id="node8" class="node">
<title>[165.95816638172403..165.95816638172403, 31.592933301727044..31.592933301727044]</title>
<polygon fill="none" stroke="black" points="2086,-346 1766,-346 1766,-293 2086,-293 2086,-346"/>
<text text-anchor="middle" x="1926" y="-330.8" font-family="Times,serif" font-size="14.00">borders: [[165.96, 165.96], [31.59, 31.59]]</text>
<text text-anchor="middle" x="1926" y="-315.8" font-family="Times,serif" font-size="14.00">path_length: 5</text>
<text text-anchor="middle" x="1926" y="-300.8" font-family="Times,serif" font-size="14.00">depth: 5</text>
</g>
<!-- [158.40188090279793..165.95816638172403, 31.592933301727044..83.63143787904505]&#45;&gt;[165.95816638172403..165.95816638172403, 31.592933301727044..31.592933301727044] -->
<g id="edge10" class="edge">
<title>[158.40188090279793..165.95816638172403, 31.592933301727044..83.63143787904505]&#45;&gt;[165.95816638172403..165.95816638172403, 31.592933301727044..31.592933301727044]</title>
<path fill="none" stroke="black" d="M1730.07,-328.98C1738.6,-328.57 1747.21,-328.15 1755.79,-327.73"/>
<polygon fill="black" stroke="black" points="1756.04,-331.22 1765.85,-327.24 1755.7,-324.23 1756.04,-331.22"/>
</g>
<!-- [194.7796966931797..194.7796966931797, &#45;28.898540626856743..&#45;28.898540626856743] -->
<g id="node11" class="node">
<title>[194.7796966931797..194.7796966931797, &#45;28.898540626856743..&#45;28.898540626856743]</title>
<polygon fill="none" stroke="black" points="1378.5,-257 1067.5,-257 1067.5,-204 1378.5,-204 1378.5,-257"/>
<text text-anchor="middle" x="1223" y="-241.8" font-family="Times,serif" font-size="14.00">borders: [[194.78, 194.78], [&#45;28.9, &#45;28.9]]</text>
<text text-anchor="middle" x="1223" y="-226.8" font-family="Times,serif" font-size="14.00">path_length: 3</text>
<text text-anchor="middle" x="1223" y="-211.8" font-family="Times,serif" font-size="14.00">depth: 3</text>
</g>
<!-- [180.87587357245306..222.33750412007487, &#45;28.898540626856743..90.6950025226958]&#45;&gt;[194.7796966931797..194.7796966931797, &#45;28.898540626856743..&#45;28.898540626856743] -->
<g id="edge11" class="edge">
<title>[180.87587357245306..222.33750412007487, &#45;28.898540626856743..90.6950025226958]&#45;&gt;[194.7796966931797..194.7796966931797, &#45;28.898540626856743..&#45;28.898540626856743]</title>
<path fill="none" stroke="black" d="M1024.53,-230.5C1035.38,-230.5 1046.35,-230.5 1057.27,-230.5"/>
<polygon fill="black" stroke="black" points="1057.28,-234 1067.28,-230.5 1057.28,-227 1057.28,-234"/>
</g>
<!-- [180.87587357245306..222.33750412007487, 5.8912003427558375..90.6950025226958] -->
<g id="node12" class="node">
<title>[180.87587357245306..222.33750412007487, 5.8912003427558375..90.6950025226958]</title>
<polygon fill="none" stroke="black" points="1374,-186 1072,-186 1072,-133 1374,-133 1374,-186"/>
<text text-anchor="middle" x="1223" y="-170.8" font-family="Times,serif" font-size="14.00">borders: [[180.88, 222.34], [5.89, 90.7]]</text>
<text text-anchor="middle" x="1223" y="-155.8" font-family="Times,serif" font-size="14.00">sp: 182.98</text>
<text text-anchor="middle" x="1223" y="-140.8" font-family="Times,serif" font-size="14.00">dim: 0</text>
</g>
<!-- [180.87587357245306..222.33750412007487, &#45;28.898540626856743..90.6950025226958]&#45;&gt;[180.87587357245306..222.33750412007487, 5.8912003427558375..90.6950025226958] -->
<g id="edge12" class="edge">
<title>[180.87587357245306..222.33750412007487, &#45;28.898540626856743..90.6950025226958]&#45;&gt;[180.87587357245306..222.33750412007487, 5.8912003427558375..90.6950025226958]</title>
<path fill="none" stroke="black" d="M1003.14,-203.96C1028.75,-198.76 1055.72,-193.28 1081.64,-188.01"/>
<polygon fill="black" stroke="black" points="1082.42,-191.43 1091.52,-186.01 1081.02,-184.57 1082.42,-191.43"/>
</g>
<!-- [180.87587357245306..182.5645799607299, 57.26478330530642..90.6950025226958] -->
<g id="node13" class="node">
<title>[180.87587357245306..182.5645799607299, 57.26478330530642..90.6950025226958]</title>
<polygon fill="none" stroke="black" points="1730,-195 1419,-195 1419,-142 1730,-142 1730,-195"/>
<text text-anchor="middle" x="1574.5" y="-179.8" font-family="Times,serif" font-size="14.00">borders: [[180.88, 182.56], [57.26, 90.7]]</text>
<text text-anchor="middle" x="1574.5" y="-164.8" font-family="Times,serif" font-size="14.00">sp: 77.83</text>
<text text-anchor="middle" x="1574.5" y="-149.8" font-family="Times,serif" font-size="14.00">dim: 1</text>
</g>
<!-- [180.87587357245306..222.33750412007487, 5.8912003427558375..90.6950025226958]&#45;&gt;[180.87587357245306..182.5645799607299, 57.26478330530642..90.6950025226958] -->
<g id="edge13" class="edge">
<title>[180.87587357245306..222.33750412007487, 5.8912003427558375..90.6950025226958]&#45;&gt;[180.87587357245306..182.5645799607299, 57.26478330530642..90.6950025226958]</title>
<path fill="none" stroke="black" d="M1374.25,-163.37C1385.7,-163.66 1397.29,-163.96 1408.82,-164.26"/>
<polygon fill="black" stroke="black" points="1408.85,-167.76 1418.93,-164.52 1409.03,-160.76 1408.85,-167.76"/>
</g>
<!-- [188.36288796539623..222.33750412007487, 5.8912003427558375..89.2872081886785] -->
<g id="node16" class="node">
<title>[188.36288796539623..222.33750412007487, 5.8912003427558375..89.2872081886785]</title>
<polygon fill="none" stroke="black" points="1730,-124 1419,-124 1419,-71 1730,-71 1730,-124"/>
<text text-anchor="middle" x="1574.5" y="-108.8" font-family="Times,serif" font-size="14.00">borders: [[188.36, 222.34], [5.89, 89.29]]</text>
<text text-anchor="middle" x="1574.5" y="-93.8" font-family="Times,serif" font-size="14.00">sp: 54.04</text>
<text text-anchor="middle" x="1574.5" y="-78.8" font-family="Times,serif" font-size="14.00">dim: 1</text>
</g>
<!-- [180.87587357245306..222.33750412007487, 5.8912003427558375..90.6950025226958]&#45;&gt;[188.36288796539623..222.33750412007487, 5.8912003427558375..89.2872081886785] -->
<g id="edge14" class="edge">
<title>[180.87587357245306..222.33750412007487, 5.8912003427558375..90.6950025226958]&#45;&gt;[188.36288796539623..222.33750412007487, 5.8912003427558375..89.2872081886785]</title>
<path fill="none" stroke="black" d="M1373.49,-132.98C1386.78,-130.62 1400.28,-128.23 1413.66,-125.86"/>
<polygon fill="black" stroke="black" points="1414.63,-129.24 1423.86,-124.05 1413.4,-122.35 1414.63,-129.24"/>
</g>
<!-- [182.5645799607299..182.5645799607299, 57.26478330530642..57.26478330530642] -->
<g id="node14" class="node">
<title>[182.5645799607299..182.5645799607299, 57.26478330530642..57.26478330530642]</title>
<polygon fill="none" stroke="black" points="2086,-266 1766,-266 1766,-213 2086,-213 2086,-266"/>
<text text-anchor="middle" x="1926" y="-250.8" font-family="Times,serif" font-size="14.00">borders: [[182.56, 182.56], [57.26, 57.26]]</text>
<text text-anchor="middle" x="1926" y="-235.8" font-family="Times,serif" font-size="14.00">path_length: 5</text>
<text text-anchor="middle" x="1926" y="-220.8" font-family="Times,serif" font-size="14.00">depth: 5</text>
</g>
<!-- [180.87587357245306..182.5645799607299, 57.26478330530642..90.6950025226958]&#45;&gt;[182.5645799607299..182.5645799607299, 57.26478330530642..57.26478330530642] -->
<g id="edge15" class="edge">
<title>[180.87587357245306..182.5645799607299, 57.26478330530642..90.6950025226958]&#45;&gt;[182.5645799607299..182.5645799607299, 57.26478330530642..57.26478330530642]</title>
<path fill="none" stroke="black" d="M1706.14,-195.04C1731.75,-200.24 1758.72,-205.72 1784.64,-210.99"/>
<polygon fill="black" stroke="black" points="1784.02,-214.43 1794.52,-212.99 1785.42,-207.57 1784.02,-214.43"/>
</g>
<!-- [180.87587357245306..180.87587357245306, 90.6950025226958..90.6950025226958] -->
<g id="node15" class="node">
<title>[180.87587357245306..180.87587357245306, 90.6950025226958..90.6950025226958]</title>
<polygon fill="none" stroke="black" points="2077,-195 1775,-195 1775,-142 2077,-142 2077,-195"/>
<text text-anchor="middle" x="1926" y="-179.8" font-family="Times,serif" font-size="14.00">borders: [[180.88, 180.88], [90.7, 90.7]]</text>
<text text-anchor="middle" x="1926" y="-164.8" font-family="Times,serif" font-size="14.00">path_length: 5</text>
<text text-anchor="middle" x="1926" y="-149.8" font-family="Times,serif" font-size="14.00">depth: 5</text>
</g>
<!-- [180.87587357245306..182.5645799607299, 57.26478330530642..90.6950025226958]&#45;&gt;[180.87587357245306..180.87587357245306, 90.6950025226958..90.6950025226958] -->
<g id="edge16" class="edge">
<title>[180.87587357245306..182.5645799607299, 57.26478330530642..90.6950025226958]&#45;&gt;[180.87587357245306..180.87587357245306, 90.6950025226958..90.6950025226958]</title>
<path fill="none" stroke="black" d="M1730.07,-168.5C1741.59,-168.5 1753.22,-168.5 1764.77,-168.5"/>
<polygon fill="black" stroke="black" points="1764.9,-172 1774.9,-168.5 1764.9,-165 1764.9,-172"/>
</g>
<!-- [193.24189870138107..215.82780078640866, 5.8912003427558375..52.97011730989652] -->
<g id="node17" class="node">
<title>[193.24189870138107..215.82780078640866, 5.8912003427558375..52.97011730989652]</title>
<polygon fill="none" stroke="black" points="2081.5,-124 1770.5,-124 1770.5,-71 2081.5,-71 2081.5,-124"/>
<text text-anchor="middle" x="1926" y="-108.8" font-family="Times,serif" font-size="14.00">borders: [[193.24, 215.83], [5.89, 52.97]]</text>
<text text-anchor="middle" x="1926" y="-93.8" font-family="Times,serif" font-size="14.00">path_length: 9.74</text>
<text text-anchor="middle" x="1926" y="-78.8" font-family="Times,serif" font-size="14.00">depth: 5</text>
</g>
<!-- [188.36288796539623..222.33750412007487, 5.8912003427558375..89.2872081886785]&#45;&gt;[193.24189870138107..215.82780078640866, 5.8912003427558375..52.97011730989652] -->
<g id="edge17" class="edge">
<title>[188.36288796539623..222.33750412007487, 5.8912003427558375..89.2872081886785]&#45;&gt;[193.24189870138107..215.82780078640866, 5.8912003427558375..52.97011730989652]</title>
<path fill="none" stroke="black" d="M1730.07,-97.5C1740.07,-97.5 1750.17,-97.5 1760.22,-97.5"/>
<polygon fill="black" stroke="black" points="1760.25,-101 1770.25,-97.5 1760.25,-94 1760.25,-101"/>
</g>
<!-- [188.36288796539623..222.33750412007487, 66.94138211532982..89.2872081886785] -->
<g id="node18" class="node">
<title>[188.36288796539623..222.33750412007487, 66.94138211532982..89.2872081886785]</title>
<polygon fill="none" stroke="black" points="2086,-53 1766,-53 1766,0 2086,0 2086,-53"/>
<text text-anchor="middle" x="1926" y="-37.8" font-family="Times,serif" font-size="14.00">borders: [[188.36, 222.34], [66.94, 89.29]]</text>
<text text-anchor="middle" x="1926" y="-22.8" font-family="Times,serif" font-size="14.00">path_length: 8.93</text>
<text text-anchor="middle" x="1926" y="-7.8" font-family="Times,serif" font-size="14.00">depth: 5</text>
</g>
<!-- [188.36288796539623..222.33750412007487, 5.8912003427558375..89.2872081886785]&#45;&gt;[188.36288796539623..222.33750412007487, 66.94138211532982..89.2872081886785] -->
<g id="edge18" class="edge">
<title>[188.36288796539623..222.33750412007487, 5.8912003427558375..89.2872081886785]&#45;&gt;[188.36288796539623..222.33750412007487, 66.94138211532982..89.2872081886785]</title>
<path fill="none" stroke="black" d="M1706.14,-70.96C1731.75,-65.76 1758.72,-60.28 1784.64,-55.01"/>
<polygon fill="black" stroke="black" points="1785.42,-58.43 1794.52,-53.01 1784.02,-51.57 1785.42,-58.43"/>
</g>
</g>
</svg>
