<?xml version="1.0" encoding="UTF-8" standalone="no"?>
<!DOCTYPE svg PUBLIC "-//W3C//DTD SVG 1.1//EN"
 "http://www.w3.org/Graphics/SVG/1.1/DTD/svg11.dtd">
<!-- Generated by graphviz version 2.43.0 (0)
 -->
<!-- Title: G Pages: 1 -->
<svg width="1473pt" height="487pt"
 viewBox="0.00 0.00 1473.00 487.00" xmlns="http://www.w3.org/2000/svg" xmlns:xlink="http://www.w3.org/1999/xlink">
<g id="graph0" class="graph" transform="scale(1 1) rotate(0) translate(4 483)">
<title>G</title>
<polygon fill="white" stroke="transparent" points="-4,4 -4,-483 1469,-483 1469,4 -4,4"/>
<!-- [0.0..102.0, 0.0..102.0] -->
<g id="node1" class="node">
<title>[0.0..102.0, 0.0..102.0]</title>
<polygon fill="none" stroke="black" points="266,-230 0,-230 0,-177 266,-177 266,-230"/>
<text text-anchor="middle" x="133" y="-214.8" font-family="Times,serif" font-size="14.00">borders: [[0.0, 102.0], [0.0, 102.0]]</text>
<text text-anchor="middle" x="133" y="-199.8" font-family="Times,serif" font-size="14.00">sp: 32.26</text>
<text text-anchor="middle" x="133" y="-184.8" font-family="Times,serif" font-size="14.00">dim: 1</text>
</g>
<!-- [98.0..102.0, 0.0..3.0] -->
<g id="node2" class="node">
<title>[98.0..102.0, 0.0..3.0]</title>
<polygon fill="none" stroke="black" points="559,-266 302,-266 302,-213 559,-213 559,-266"/>
<text text-anchor="middle" x="430.5" y="-250.8" font-family="Times,serif" font-size="14.00">borders: [[98.0, 102.0], [0.0, 3.0]]</text>
<text text-anchor="middle" x="430.5" y="-235.8" font-family="Times,serif" font-size="14.00">sp: 100.69</text>
<text text-anchor="middle" x="430.5" y="-220.8" font-family="Times,serif" font-size="14.00">dim: 0</text>
</g>
<!-- [0.0..102.0, 0.0..102.0]&#45;&gt;[98.0..102.0, 0.0..3.0] -->
<g id="edge1" class="edge">
<title>[0.0..102.0, 0.0..102.0]&#45;&gt;[98.0..102.0, 0.0..3.0]</title>
<path fill="none" stroke="black" d="M266.19,-219.6C274.7,-220.64 283.27,-221.69 291.8,-222.72"/>
<polygon fill="black" stroke="black" points="291.44,-226.21 301.79,-223.94 292.28,-219.26 291.44,-226.21"/>
</g>
<!-- [0.0..3.0, 98.0..102.0] -->
<g id="node13" class="node">
<title>[0.0..3.0, 98.0..102.0]</title>
<polygon fill="none" stroke="black" points="559,-195 302,-195 302,-142 559,-142 559,-195"/>
<text text-anchor="middle" x="430.5" y="-179.8" font-family="Times,serif" font-size="14.00">borders: [[0.0, 3.0], [98.0, 102.0]]</text>
<text text-anchor="middle" x="430.5" y="-164.8" font-family="Times,serif" font-size="14.00">sp: 1.1</text>
<text text-anchor="middle" x="430.5" y="-149.8" font-family="Times,serif" font-size="14.00">dim: 0</text>
</g>
<!-- [0.0..102.0, 0.0..102.0]&#45;&gt;[0.0..3.0, 98.0..102.0] -->
<g id="edge2" class="edge">
<title>[0.0..102.0, 0.0..102.0]&#45;&gt;[0.0..3.0, 98.0..102.0]</title>
<path fill="none" stroke="black" d="M266.19,-187.84C274.7,-186.84 283.27,-185.82 291.8,-184.81"/>
<polygon fill="black" stroke="black" points="292.27,-188.28 301.79,-183.63 291.44,-181.33 292.27,-188.28"/>
</g>
<!-- [98.0..100.0, 0.0..3.0] -->
<g id="node3" class="node">
<title>[98.0..100.0, 0.0..3.0]</title>
<polygon fill="none" stroke="black" points="856.5,-337 599.5,-337 599.5,-284 856.5,-284 856.5,-337"/>
<text text-anchor="middle" x="728" y="-321.8" font-family="Times,serif" font-size="14.00">borders: [[98.0, 100.0], [0.0, 3.0]]</text>
<text text-anchor="middle" x="728" y="-306.8" font-family="Times,serif" font-size="14.00">sp: 99.53</text>
<text text-anchor="middle" x="728" y="-291.8" font-family="Times,serif" font-size="14.00">dim: 0</text>
</g>
<!-- [98.0..102.0, 0.0..3.0]&#45;&gt;[98.0..100.0, 0.0..3.0] -->
<g id="edge3" class="edge">
<title>[98.0..102.0, 0.0..3.0]&#45;&gt;[98.0..100.0, 0.0..3.0]</title>
<path fill="none" stroke="black" d="M541.95,-266.04C563.14,-271.13 585.41,-276.48 606.88,-281.64"/>
<polygon fill="black" stroke="black" points="606.14,-285.06 616.68,-283.99 607.77,-278.25 606.14,-285.06"/>
</g>
<!-- [102.0..102.0, 2.0..3.0] -->
<g id="node10" class="node">
<title>[102.0..102.0, 2.0..3.0]</title>
<polygon fill="none" stroke="black" points="861,-266 595,-266 595,-213 861,-213 861,-266"/>
<text text-anchor="middle" x="728" y="-250.8" font-family="Times,serif" font-size="14.00">borders: [[102.0, 102.0], [2.0, 3.0]]</text>
<text text-anchor="middle" x="728" y="-235.8" font-family="Times,serif" font-size="14.00">sp: 2.13</text>
<text text-anchor="middle" x="728" y="-220.8" font-family="Times,serif" font-size="14.00">dim: 1</text>
</g>
<!-- [98.0..102.0, 0.0..3.0]&#45;&gt;[102.0..102.0, 2.0..3.0] -->
<g id="edge4" class="edge">
<title>[98.0..102.0, 0.0..3.0]&#45;&gt;[102.0..102.0, 2.0..3.0]</title>
<path fill="none" stroke="black" d="M559.39,-239.5C567.71,-239.5 576.11,-239.5 584.49,-239.5"/>
<polygon fill="black" stroke="black" points="584.69,-243 594.69,-239.5 584.69,-236 584.69,-243"/>
</g>
<!-- [98.0..98.0, 2.0..3.0] -->
<g id="node4" class="node">
<title>[98.0..98.0, 2.0..3.0]</title>
<polygon fill="none" stroke="black" points="1154,-408 906,-408 906,-355 1154,-355 1154,-408"/>
<text text-anchor="middle" x="1030" y="-392.8" font-family="Times,serif" font-size="14.00">borders: [[98.0, 98.0], [2.0, 3.0]]</text>
<text text-anchor="middle" x="1030" y="-377.8" font-family="Times,serif" font-size="14.00">sp: 2.26</text>
<text text-anchor="middle" x="1030" y="-362.8" font-family="Times,serif" font-size="14.00">dim: 1</text>
</g>
<!-- [98.0..100.0, 0.0..3.0]&#45;&gt;[98.0..98.0, 2.0..3.0] -->
<g id="edge5" class="edge">
<title>[98.0..100.0, 0.0..3.0]&#45;&gt;[98.0..98.0, 2.0..3.0]</title>
<path fill="none" stroke="black" d="M841.14,-337.04C862.64,-342.13 885.25,-347.48 907.05,-352.64"/>
<polygon fill="black" stroke="black" points="906.46,-356.1 917,-354.99 908.08,-349.28 906.46,-356.1"/>
</g>
<!-- [100.0..100.0, 0.0..3.0] -->
<g id="node7" class="node">
<title>[100.0..100.0, 0.0..3.0]</title>
<polygon fill="none" stroke="black" points="1163,-337 897,-337 897,-284 1163,-284 1163,-337"/>
<text text-anchor="middle" x="1030" y="-321.8" font-family="Times,serif" font-size="14.00">borders: [[100.0, 100.0], [0.0, 3.0]]</text>
<text text-anchor="middle" x="1030" y="-306.8" font-family="Times,serif" font-size="14.00">sp: 0.01</text>
<text text-anchor="middle" x="1030" y="-291.8" font-family="Times,serif" font-size="14.00">dim: 1</text>
</g>
<!-- [98.0..100.0, 0.0..3.0]&#45;&gt;[100.0..100.0, 0.0..3.0] -->
<g id="edge6" class="edge">
<title>[98.0..100.0, 0.0..3.0]&#45;&gt;[100.0..100.0, 0.0..3.0]</title>
<path fill="none" stroke="black" d="M856.66,-310.5C866.49,-310.5 876.44,-310.5 886.35,-310.5"/>
<polygon fill="black" stroke="black" points="886.66,-314 896.66,-310.5 886.66,-307 886.66,-314"/>
</g>
<!-- [98.0..98.0, 2.0..2.0] -->
<g id="node5" class="node">
<title>[98.0..98.0, 2.0..2.0]</title>
<polygon fill="none" stroke="black" points="1456,-479 1208,-479 1208,-426 1456,-426 1456,-479"/>
<text text-anchor="middle" x="1332" y="-463.8" font-family="Times,serif" font-size="14.00">borders: [[98.0, 98.0], [2.0, 2.0]]</text>
<text text-anchor="middle" x="1332" y="-448.8" font-family="Times,serif" font-size="14.00">path_length: 4</text>
<text text-anchor="middle" x="1332" y="-433.8" font-family="Times,serif" font-size="14.00">depth: 4</text>
</g>
<!-- [98.0..98.0, 2.0..3.0]&#45;&gt;[98.0..98.0, 2.0..2.0] -->
<g id="edge7" class="edge">
<title>[98.0..98.0, 2.0..3.0]&#45;&gt;[98.0..98.0, 2.0..2.0]</title>
<path fill="none" stroke="black" d="M1143.14,-408.04C1164.64,-413.13 1187.25,-418.48 1209.05,-423.64"/>
<polygon fill="black" stroke="black" points="1208.46,-427.1 1219,-425.99 1210.08,-420.28 1208.46,-427.1"/>
</g>
<!-- [98.0..98.0, 3.0..3.0] -->
<g id="node6" class="node">
<title>[98.0..98.0, 3.0..3.0]</title>
<polygon fill="none" stroke="black" points="1456,-408 1208,-408 1208,-355 1456,-355 1456,-408"/>
<text text-anchor="middle" x="1332" y="-392.8" font-family="Times,serif" font-size="14.00">borders: [[98.0, 98.0], [3.0, 3.0]]</text>
<text text-anchor="middle" x="1332" y="-377.8" font-family="Times,serif" font-size="14.00">path_length: 4</text>
<text text-anchor="middle" x="1332" y="-362.8" font-family="Times,serif" font-size="14.00">depth: 4</text>
</g>
<!-- [98.0..98.0, 2.0..3.0]&#45;&gt;[98.0..98.0, 3.0..3.0] -->
<g id="edge8" class="edge">
<title>[98.0..98.0, 2.0..3.0]&#45;&gt;[98.0..98.0, 3.0..3.0]</title>
<path fill="none" stroke="black" d="M1154.32,-381.5C1168.5,-381.5 1183,-381.5 1197.3,-381.5"/>
<polygon fill="black" stroke="black" points="1197.67,-385 1207.67,-381.5 1197.67,-378 1197.67,-385"/>
</g>
<!-- [100.0..100.0, 0.0..0.0] -->
<g id="node8" class="node">
<title>[100.0..100.0, 0.0..0.0]</title>
<polygon fill="none" stroke="black" points="1465,-337 1199,-337 1199,-284 1465,-284 1465,-337"/>
<text text-anchor="middle" x="1332" y="-321.8" font-family="Times,serif" font-size="14.00">borders: [[100.0, 100.0], [0.0, 0.0]]</text>
<text text-anchor="middle" x="1332" y="-306.8" font-family="Times,serif" font-size="14.00">path_length: 4</text>
<text text-anchor="middle" x="1332" y="-291.8" font-family="Times,serif" font-size="14.00">depth: 4</text>
</g>
<!-- [100.0..100.0, 0.0..3.0]&#45;&gt;[100.0..100.0, 0.0..0.0] -->
<g id="edge9" class="edge">
<title>[100.0..100.0, 0.0..3.0]&#45;&gt;[100.0..100.0, 0.0..0.0]</title>
<path fill="none" stroke="black" d="M1163.02,-310.5C1171.4,-310.5 1179.86,-310.5 1188.29,-310.5"/>
<polygon fill="black" stroke="black" points="1188.54,-314 1198.54,-310.5 1188.54,-307 1188.54,-314"/>
</g>
<!-- [100.0..100.0, 3.0..3.0] -->
<g id="node9" class="node">
<title>[100.0..100.0, 3.0..3.0]</title>
<polygon fill="none" stroke="black" points="1465,-266 1199,-266 1199,-213 1465,-213 1465,-266"/>
<text text-anchor="middle" x="1332" y="-250.8" font-family="Times,serif" font-size="14.00">borders: [[100.0, 100.0], [3.0, 3.0]]</text>
<text text-anchor="middle" x="1332" y="-235.8" font-family="Times,serif" font-size="14.00">path_length: 4</text>
<text text-anchor="middle" x="1332" y="-220.8" font-family="Times,serif" font-size="14.00">depth: 4</text>
</g>
<!-- [100.0..100.0, 0.0..3.0]&#45;&gt;[100.0..100.0, 3.0..3.0] -->
<g id="edge10" class="edge">
<title>[100.0..100.0, 0.0..3.0]&#45;&gt;[100.0..100.0, 3.0..3.0]</title>
<path fill="none" stroke="black" d="M1143.14,-283.96C1164.64,-278.87 1187.25,-273.52 1209.05,-268.36"/>
<polygon fill="black" stroke="black" points="1210.08,-271.72 1219,-266.01 1208.46,-264.9 1210.08,-271.72"/>
</g>
<!-- [102.0..102.0, 2.0..2.0] -->
<g id="node11" class="node">
<title>[102.0..102.0, 2.0..2.0]</title>
<polygon fill="none" stroke="black" points="1163,-266 897,-266 897,-213 1163,-213 1163,-266"/>
<text text-anchor="middle" x="1030" y="-250.8" font-family="Times,serif" font-size="14.00">borders: [[102.0, 102.0], [2.0, 2.0]]</text>
<text text-anchor="middle" x="1030" y="-235.8" font-family="Times,serif" font-size="14.00">path_length: 3</text>
<text text-anchor="middle" x="1030" y="-220.8" font-family="Times,serif" font-size="14.00">depth: 3</text>
</g>
<!-- [102.0..102.0, 2.0..3.0]&#45;&gt;[102.0..102.0, 2.0..2.0] -->
<g id="edge11" class="edge">
<title>[102.0..102.0, 2.0..3.0]&#45;&gt;[102.0..102.0, 2.0..2.0]</title>
<path fill="none" stroke="black" d="M861.02,-239.5C869.4,-239.5 877.86,-239.5 886.29,-239.5"/>
<polygon fill="black" stroke="black" points="886.54,-243 896.54,-239.5 886.54,-236 886.54,-243"/>
</g>
<!-- [102.0..102.0, 3.0..3.0] -->
<g id="node12" class="node">
<title>[102.0..102.0, 3.0..3.0]</title>
<polygon fill="none" stroke="black" points="1163,-195 897,-195 897,-142 1163,-142 1163,-195"/>
<text text-anchor="middle" x="1030" y="-179.8" font-family="Times,serif" font-size="14.00">borders: [[102.0, 102.0], [3.0, 3.0]]</text>
<text text-anchor="middle" x="1030" y="-164.8" font-family="Times,serif" font-size="14.00">path_length: 3</text>
<text text-anchor="middle" x="1030" y="-149.8" font-family="Times,serif" font-size="14.00">depth: 3</text>
</g>
<!-- [102.0..102.0, 2.0..3.0]&#45;&gt;[102.0..102.0, 3.0..3.0] -->
<g id="edge12" class="edge">
<title>[102.0..102.0, 2.0..3.0]&#45;&gt;[102.0..102.0, 3.0..3.0]</title>
<path fill="none" stroke="black" d="M841.14,-212.96C862.64,-207.87 885.25,-202.52 907.05,-197.36"/>
<polygon fill="black" stroke="black" points="908.08,-200.72 917,-195.01 906.46,-193.9 908.08,-200.72"/>
</g>
<!-- [0.0..0.0, 100.0..100.0] -->
<g id="node14" class="node">
<title>[0.0..0.0, 100.0..100.0]</title>
<polygon fill="none" stroke="black" points="861,-195 595,-195 595,-142 861,-142 861,-195"/>
<text text-anchor="middle" x="728" y="-179.8" font-family="Times,serif" font-size="14.00">borders: [[0.0, 0.0], [100.0, 100.0]]</text>
<text text-anchor="middle" x="728" y="-164.8" font-family="Times,serif" font-size="14.00">path_length: 2</text>
<text text-anchor="middle" x="728" y="-149.8" font-family="Times,serif" font-size="14.00">depth: 2</text>
</g>
<!-- [0.0..3.0, 98.0..102.0]&#45;&gt;[0.0..0.0, 100.0..100.0] -->
<g id="edge13" class="edge">
<title>[0.0..3.0, 98.0..102.0]&#45;&gt;[0.0..0.0, 100.0..100.0]</title>
<path fill="none" stroke="black" d="M559.39,-168.5C567.71,-168.5 576.11,-168.5 584.49,-168.5"/>
<polygon fill="black" stroke="black" points="584.69,-172 594.69,-168.5 584.69,-165 584.69,-172"/>
</g>
<!-- [2.0..3.0, 98.0..102.0] -->
<g id="node15" class="node">
<title>[2.0..3.0, 98.0..102.0]</title>
<polygon fill="none" stroke="black" points="856.5,-124 599.5,-124 599.5,-71 856.5,-71 856.5,-124"/>
<text text-anchor="middle" x="728" y="-108.8" font-family="Times,serif" font-size="14.00">borders: [[2.0, 3.0], [98.0, 102.0]]</text>
<text text-anchor="middle" x="728" y="-93.8" font-family="Times,serif" font-size="14.00">sp: 101.78</text>
<text text-anchor="middle" x="728" y="-78.8" font-family="Times,serif" font-size="14.00">dim: 1</text>
</g>
<!-- [0.0..3.0, 98.0..102.0]&#45;&gt;[2.0..3.0, 98.0..102.0] -->
<g id="edge14" class="edge">
<title>[0.0..3.0, 98.0..102.0]&#45;&gt;[2.0..3.0, 98.0..102.0]</title>
<path fill="none" stroke="black" d="M541.95,-141.96C563.14,-136.87 585.41,-131.52 606.88,-126.36"/>
<polygon fill="black" stroke="black" points="607.77,-129.75 616.68,-124.01 606.14,-122.94 607.77,-129.75"/>
</g>
<!-- [2.0..3.0, 98.0..98.0] -->
<g id="node16" class="node">
<title>[2.0..3.0, 98.0..98.0]</title>
<polygon fill="none" stroke="black" points="1154,-124 906,-124 906,-71 1154,-71 1154,-124"/>
<text text-anchor="middle" x="1030" y="-108.8" font-family="Times,serif" font-size="14.00">borders: [[2.0, 3.0], [98.0, 98.0]]</text>
<text text-anchor="middle" x="1030" y="-93.8" font-family="Times,serif" font-size="14.00">sp: 2.17</text>
<text text-anchor="middle" x="1030" y="-78.8" font-family="Times,serif" font-size="14.00">dim: 0</text>
</g>
<!-- [2.0..3.0, 98.0..102.0]&#45;&gt;[2.0..3.0, 98.0..98.0] -->
<g id="edge15" class="edge">
<title>[2.0..3.0, 98.0..102.0]&#45;&gt;[2.0..3.0, 98.0..98.0]</title>
<path fill="none" stroke="black" d="M856.66,-97.5C869.5,-97.5 882.56,-97.5 895.45,-97.5"/>
<polygon fill="black" stroke="black" points="895.75,-101 905.75,-97.5 895.75,-94 895.75,-101"/>
</g>
<!-- [3.0..3.0, 102.0..102.0] -->
<g id="node19" class="node">
<title>[3.0..3.0, 102.0..102.0]</title>
<polygon fill="none" stroke="black" points="1163,-53 897,-53 897,0 1163,0 1163,-53"/>
<text text-anchor="middle" x="1030" y="-37.8" font-family="Times,serif" font-size="14.00">borders: [[3.0, 3.0], [102.0, 102.0]]</text>
<text text-anchor="middle" x="1030" y="-22.8" font-family="Times,serif" font-size="14.00">path_length: 3</text>
<text text-anchor="middle" x="1030" y="-7.8" font-family="Times,serif" font-size="14.00">depth: 3</text>
</g>
<!-- [2.0..3.0, 98.0..102.0]&#45;&gt;[3.0..3.0, 102.0..102.0] -->
<g id="edge16" class="edge">
<title>[2.0..3.0, 98.0..102.0]&#45;&gt;[3.0..3.0, 102.0..102.0]</title>
<path fill="none" stroke="black" d="M841.14,-70.96C862.64,-65.87 885.25,-60.52 907.05,-55.36"/>
<polygon fill="black" stroke="black" points="908.08,-58.72 917,-53.01 906.46,-51.9 908.08,-58.72"/>
</g>
<!-- [2.0..2.0, 98.0..98.0] -->
<g id="node17" class="node">
<title>[2.0..2.0, 98.0..98.0]</title>
<polygon fill="none" stroke="black" points="1456,-159 1208,-159 1208,-106 1456,-106 1456,-159"/>
<text text-anchor="middle" x="1332" y="-143.8" font-family="Times,serif" font-size="14.00">borders: [[2.0, 2.0], [98.0, 98.0]]</text>
<text text-anchor="middle" x="1332" y="-128.8" font-family="Times,serif" font-size="14.00">path_length: 4</text>
<text text-anchor="middle" x="1332" y="-113.8" font-family="Times,serif" font-size="14.00">depth: 4</text>
</g>
<!-- [2.0..3.0, 98.0..98.0]&#45;&gt;[2.0..2.0, 98.0..98.0] -->
<g id="edge17" class="edge">
<title>[2.0..3.0, 98.0..98.0]&#45;&gt;[2.0..2.0, 98.0..98.0]</title>
<path fill="none" stroke="black" d="M1154.32,-111.89C1168.63,-113.56 1183.28,-115.27 1197.72,-116.95"/>
<polygon fill="black" stroke="black" points="1197.34,-120.43 1207.67,-118.11 1198.15,-113.48 1197.34,-120.43"/>
</g>
<!-- [3.0..3.0, 98.0..98.0] -->
<g id="node18" class="node">
<title>[3.0..3.0, 98.0..98.0]</title>
<polygon fill="none" stroke="black" points="1456,-88 1208,-88 1208,-35 1456,-35 1456,-88"/>
<text text-anchor="middle" x="1332" y="-72.8" font-family="Times,serif" font-size="14.00">borders: [[3.0, 3.0], [98.0, 98.0]]</text>
<text text-anchor="middle" x="1332" y="-57.8" font-family="Times,serif" font-size="14.00">path_length: 4</text>
<text text-anchor="middle" x="1332" y="-42.8" font-family="Times,serif" font-size="14.00">depth: 4</text>
</g>
<!-- [2.0..3.0, 98.0..98.0]&#45;&gt;[3.0..3.0, 98.0..98.0] -->
<g id="edge18" class="edge">
<title>[2.0..3.0, 98.0..98.0]&#45;&gt;[3.0..3.0, 98.0..98.0]</title>
<path fill="none" stroke="black" d="M1154.32,-82.7C1168.63,-80.98 1183.28,-79.23 1197.72,-77.49"/>
<polygon fill="black" stroke="black" points="1198.16,-80.97 1207.67,-76.3 1197.33,-74.02 1198.16,-80.97"/>
</g>
</g>
</svg>
