<?xml version="1.0" encoding="UTF-8" standalone="no"?>
<!DOCTYPE svg PUBLIC "-//W3C//DTD SVG 1.1//EN"
 "http://www.w3.org/Graphics/SVG/1.1/DTD/svg11.dtd">
<!-- Generated by graphviz version 2.43.0 (0)
 -->
<!-- Title: G Pages: 1 -->
<svg width="2454pt" height="753pt"
 viewBox="0.00 0.00 2454.00 753.00" xmlns="http://www.w3.org/2000/svg" xmlns:xlink="http://www.w3.org/1999/xlink">
<g id="graph0" class="graph" transform="scale(1 1) rotate(0) translate(4 749)">
<title>G</title>
<polygon fill="white" stroke="transparent" points="-4,4 -4,-749 2450,-749 2450,4 -4,4"/>
<!-- [153.37791018802298..238.6203925603514, 25.97460949817946..89.23683332362765] -->
<g id="node1" class="node">
<title>[153.37791018802298..238.6203925603514, 25.97460949817946..89.23683332362765]</title>
<polygon fill="none" stroke="black" points="493,-274 173,-274 173,-221 493,-221 493,-274"/>
<text text-anchor="middle" x="333" y="-258.8" font-family="Times,serif" font-size="14.00">borders: [[153.38, 238.62], [25.97, 89.24]]</text>
<text text-anchor="middle" x="333" y="-243.8" font-family="Times,serif" font-size="14.00">sp: 227.74</text>
<text text-anchor="middle" x="333" y="-228.8" font-family="Times,serif" font-size="14.00">dim: 0</text>
</g>
<!-- [153.37791018802298..212.74029327283873, 25.97460949817946..89.23683332362765] -->
<g id="node2" class="node">
<title>[153.37791018802298..212.74029327283873, 25.97460949817946..89.23683332362765]</title>
<polygon fill="none" stroke="black" points="1022,-373 702,-373 702,-320 1022,-320 1022,-373"/>
<text text-anchor="middle" x="862" y="-357.8" font-family="Times,serif" font-size="14.00">borders: [[153.38, 212.74], [25.97, 89.24]]</text>
<text text-anchor="middle" x="862" y="-342.8" font-family="Times,serif" font-size="14.00">sp: 41.48</text>
<text text-anchor="middle" x="862" y="-327.8" font-family="Times,serif" font-size="14.00">dim: 1</text>
</g>
<!-- [160.9466823455541..212.74029327283873, 25.97460949817946..40.00795674966827] -->
<g id="node3" class="node">
<title>[160.9466823455541..212.74029327283873, 25.97460949817946..40.00795674966827]</title>
<polygon fill="none" stroke="black" points="1378,-515 1058,-515 1058,-462 1378,-462 1378,-515"/>
<text text-anchor="middle" x="1218" y="-499.8" font-family="Times,serif" font-size="14.00">borders: [[160.95, 212.74], [25.97, 40.01]]</text>
<text text-anchor="middle" x="1218" y="-484.8" font-family="Times,serif" font-size="14.00">sp: 33.85</text>
<text text-anchor="middle" x="1218" y="-469.8" font-family="Times,serif" font-size="14.00">dim: 1</text>
</g>
<!-- [153.37791018802298..212.74029327283873, 25.97460949817946..89.23683332362765]&#45;&gt;[160.9466823455541..212.74029327283873, 25.97460949817946..40.00795674966827] -->
<g id="edge3" class="edge">
<title>[153.37791018802298..212.74029327283873, 25.97460949817946..89.23683332362765]&#45;&gt;[160.9466823455541..212.74029327283873, 25.97460949817946..40.00795674966827]</title>
<path fill="none" stroke="black" d="M929.17,-373.04C989.41,-397.21 1078.32,-432.87 1141.36,-458.16"/>
<polygon fill="black" stroke="black" points="1140.27,-461.49 1150.86,-461.97 1142.88,-455 1140.27,-461.49"/>
</g>
<!-- [153.37791018802298..211.25710704323578, 52.00468703958586..89.23683332362765] -->
<g id="node14" class="node">
<title>[153.37791018802298..211.25710704323578, 52.00468703958586..89.23683332362765]</title>
<polygon fill="none" stroke="black" points="1373.5,-373 1062.5,-373 1062.5,-320 1373.5,-320 1373.5,-373"/>
<text text-anchor="middle" x="1218" y="-357.8" font-family="Times,serif" font-size="14.00">borders: [[153.38, 211.26], [52.0, 89.24]]</text>
<text text-anchor="middle" x="1218" y="-342.8" font-family="Times,serif" font-size="14.00">sp: 200.7</text>
<text text-anchor="middle" x="1218" y="-327.8" font-family="Times,serif" font-size="14.00">dim: 0</text>
</g>
<!-- [153.37791018802298..212.74029327283873, 25.97460949817946..89.23683332362765]&#45;&gt;[153.37791018802298..211.25710704323578, 52.00468703958586..89.23683332362765] -->
<g id="edge4" class="edge">
<title>[153.37791018802298..212.74029327283873, 25.97460949817946..89.23683332362765]&#45;&gt;[153.37791018802298..211.25710704323578, 52.00468703958586..89.23683332362765]</title>
<path fill="none" stroke="black" d="M1022.14,-346.5C1032.19,-346.5 1042.33,-346.5 1052.4,-346.5"/>
<polygon fill="black" stroke="black" points="1052.46,-350 1062.46,-346.5 1052.46,-343 1052.46,-350"/>
</g>
<!-- [160.9466823455541..202.97128184966056, 25.97460949817946..31.592933301727044] -->
<g id="node4" class="node">
<title>[160.9466823455541..202.97128184966056, 25.97460949817946..31.592933301727044]</title>
<polygon fill="none" stroke="black" points="1734,-621 1414,-621 1414,-568 1734,-568 1734,-621"/>
<text text-anchor="middle" x="1574" y="-605.8" font-family="Times,serif" font-size="14.00">borders: [[160.95, 202.97], [25.97, 31.59]]</text>
<text text-anchor="middle" x="1574" y="-590.8" font-family="Times,serif" font-size="14.00">sp: 182.3</text>
<text text-anchor="middle" x="1574" y="-575.8" font-family="Times,serif" font-size="14.00">dim: 0</text>
</g>
<!-- [160.9466823455541..212.74029327283873, 25.97460949817946..40.00795674966827]&#45;&gt;[160.9466823455541..202.97128184966056, 25.97460949817946..31.592933301727044] -->
<g id="edge5" class="edge">
<title>[160.9466823455541..212.74029327283873, 25.97460949817946..40.00795674966827]&#45;&gt;[160.9466823455541..202.97128184966056, 25.97460949817946..31.592933301727044]</title>
<path fill="none" stroke="black" d="M1307.87,-515.11C1358.68,-530.32 1422.49,-549.43 1474.77,-565.09"/>
<polygon fill="black" stroke="black" points="1473.81,-568.45 1484.4,-567.97 1475.82,-561.75 1473.81,-568.45"/>
</g>
<!-- [177.6228962422697..212.74029327283873, 35.10457507433796..40.00795674966827] -->
<g id="node9" class="node">
<title>[177.6228962422697..212.74029327283873, 35.10457507433796..40.00795674966827]</title>
<polygon fill="none" stroke="black" points="1729.5,-515 1418.5,-515 1418.5,-462 1729.5,-462 1729.5,-515"/>
<text text-anchor="middle" x="1574" y="-499.8" font-family="Times,serif" font-size="14.00">borders: [[177.62, 212.74], [35.1, 40.01]]</text>
<text text-anchor="middle" x="1574" y="-484.8" font-family="Times,serif" font-size="14.00">sp: 39.58</text>
<text text-anchor="middle" x="1574" y="-469.8" font-family="Times,serif" font-size="14.00">dim: 1</text>
</g>
<!-- [160.9466823455541..212.74029327283873, 25.97460949817946..40.00795674966827]&#45;&gt;[177.6228962422697..212.74029327283873, 35.10457507433796..40.00795674966827] -->
<g id="edge6" class="edge">
<title>[160.9466823455541..212.74029327283873, 25.97460949817946..40.00795674966827]&#45;&gt;[177.6228962422697..212.74029327283873, 35.10457507433796..40.00795674966827]</title>
<path fill="none" stroke="black" d="M1378.14,-488.5C1388.19,-488.5 1398.33,-488.5 1408.4,-488.5"/>
<polygon fill="black" stroke="black" points="1408.46,-492 1418.46,-488.5 1408.46,-485 1408.46,-492"/>
</g>
<!-- [160.9466823455541..165.95816638172403, 29.529631219079533..31.592933301727044] -->
<g id="node5" class="node">
<title>[160.9466823455541..165.95816638172403, 29.529631219079533..31.592933301727044]</title>
<polygon fill="none" stroke="black" points="2090,-692 1770,-692 1770,-639 2090,-639 2090,-692"/>
<text text-anchor="middle" x="1930" y="-676.8" font-family="Times,serif" font-size="14.00">borders: [[160.95, 165.96], [29.53, 31.59]]</text>
<text text-anchor="middle" x="1930" y="-661.8" font-family="Times,serif" font-size="14.00">sp: 29.98</text>
<text text-anchor="middle" x="1930" y="-646.8" font-family="Times,serif" font-size="14.00">dim: 1</text>
</g>
<!-- [160.9466823455541..202.97128184966056, 25.97460949817946..31.592933301727044]&#45;&gt;[160.9466823455541..165.95816638172403, 29.529631219079533..31.592933301727044] -->
<g id="edge7" class="edge">
<title>[160.9466823455541..202.97128184966056, 25.97460949817946..31.592933301727044]&#45;&gt;[160.9466823455541..165.95816638172403, 29.529631219079533..31.592933301727044]</title>
<path fill="none" stroke="black" d="M1707.32,-621.04C1733.27,-626.24 1760.58,-631.72 1786.84,-636.99"/>
<polygon fill="black" stroke="black" points="1786.35,-640.46 1796.84,-638.99 1787.72,-633.6 1786.35,-640.46"/>
</g>
<!-- [202.97128184966056..202.97128184966056, 25.97460949817946..25.97460949817946] -->
<g id="node8" class="node">
<title>[202.97128184966056..202.97128184966056, 25.97460949817946..25.97460949817946]</title>
<polygon fill="none" stroke="black" points="2090,-621 1770,-621 1770,-568 2090,-568 2090,-621"/>
<text text-anchor="middle" x="1930" y="-605.8" font-family="Times,serif" font-size="14.00">borders: [[202.97, 202.97], [25.97, 25.97]]</text>
<text text-anchor="middle" x="1930" y="-590.8" font-family="Times,serif" font-size="14.00">path_length: 5</text>
<text text-anchor="middle" x="1930" y="-575.8" font-family="Times,serif" font-size="14.00">depth: 4</text>
</g>
<!-- [160.9466823455541..202.97128184966056, 25.97460949817946..31.592933301727044]&#45;&gt;[202.97128184966056..202.97128184966056, 25.97460949817946..25.97460949817946] -->
<g id="edge8" class="edge">
<title>[160.9466823455541..202.97128184966056, 25.97460949817946..31.592933301727044]&#45;&gt;[202.97128184966056..202.97128184966056, 25.97460949817946..25.97460949817946]</title>
<path fill="none" stroke="black" d="M1734.14,-594.5C1742.65,-594.5 1751.22,-594.5 1759.77,-594.5"/>
<polygon fill="black" stroke="black" points="1759.78,-598 1769.78,-594.5 1759.78,-591 1759.78,-598"/>
</g>
<!-- [160.9466823455541..160.9466823455541, 29.529631219079533..29.529631219079533] -->
<g id="node6" class="node">
<title>[160.9466823455541..160.9466823455541, 29.529631219079533..29.529631219079533]</title>
<polygon fill="none" stroke="black" points="2446,-745 2126,-745 2126,-692 2446,-692 2446,-745"/>
<text text-anchor="middle" x="2286" y="-729.8" font-family="Times,serif" font-size="14.00">borders: [[160.95, 160.95], [29.53, 29.53]]</text>
<text text-anchor="middle" x="2286" y="-714.8" font-family="Times,serif" font-size="14.00">path_length: 6</text>
<text text-anchor="middle" x="2286" y="-699.8" font-family="Times,serif" font-size="14.00">depth: 5</text>
</g>
<!-- [160.9466823455541..165.95816638172403, 29.529631219079533..31.592933301727044]&#45;&gt;[160.9466823455541..160.9466823455541, 29.529631219079533..29.529631219079533] -->
<g id="edge9" class="edge">
<title>[160.9466823455541..165.95816638172403, 29.529631219079533..31.592933301727044]&#45;&gt;[160.9466823455541..160.9466823455541, 29.529631219079533..29.529631219079533]</title>
<path fill="none" stroke="black" d="M2090.14,-689.33C2098.65,-690.6 2107.22,-691.88 2115.77,-693.16"/>
<polygon fill="black" stroke="black" points="2115.38,-696.64 2125.78,-694.66 2116.41,-689.72 2115.38,-696.64"/>
</g>
<!-- [165.95816638172403..165.95816638172403, 31.592933301727044..31.592933301727044] -->
<g id="node7" class="node">
<title>[165.95816638172403..165.95816638172403, 31.592933301727044..31.592933301727044]</title>
<polygon fill="none" stroke="black" points="2446,-674 2126,-674 2126,-621 2446,-621 2446,-674"/>
<text text-anchor="middle" x="2286" y="-658.8" font-family="Times,serif" font-size="14.00">borders: [[165.96, 165.96], [31.59, 31.59]]</text>
<text text-anchor="middle" x="2286" y="-643.8" font-family="Times,serif" font-size="14.00">path_length: 6</text>
<text text-anchor="middle" x="2286" y="-628.8" font-family="Times,serif" font-size="14.00">depth: 5</text>
</g>
<!-- [160.9466823455541..165.95816638172403, 29.529631219079533..31.592933301727044]&#45;&gt;[165.95816638172403..165.95816638172403, 31.592933301727044..31.592933301727044] -->
<g id="edge10" class="edge">
<title>[160.9466823455541..165.95816638172403, 29.529631219079533..31.592933301727044]&#45;&gt;[165.95816638172403..165.95816638172403, 31.592933301727044..31.592933301727044]</title>
<path fill="none" stroke="black" d="M2090.14,-657.41C2098.65,-656.98 2107.22,-656.54 2115.77,-656.11"/>
<polygon fill="black" stroke="black" points="2115.97,-659.6 2125.78,-655.6 2115.62,-652.61 2115.97,-659.6"/>
</g>
<!-- [177.6228962422697..212.74029327283873, 35.10457507433796..37.15308328519245] -->
<g id="node10" class="node">
<title>[177.6228962422697..212.74029327283873, 35.10457507433796..37.15308328519245]</title>
<polygon fill="none" stroke="black" points="2085.5,-550 1774.5,-550 1774.5,-497 2085.5,-497 2085.5,-550"/>
<text text-anchor="middle" x="1930" y="-534.8" font-family="Times,serif" font-size="14.00">borders: [[177.62, 212.74], [35.1, 37.15]]</text>
<text text-anchor="middle" x="1930" y="-519.8" font-family="Times,serif" font-size="14.00">sp: 179.52</text>
<text text-anchor="middle" x="1930" y="-504.8" font-family="Times,serif" font-size="14.00">dim: 0</text>
</g>
<!-- [177.6228962422697..212.74029327283873, 35.10457507433796..40.00795674966827]&#45;&gt;[177.6228962422697..212.74029327283873, 35.10457507433796..37.15308328519245] -->
<g id="edge11" class="edge">
<title>[177.6228962422697..212.74029327283873, 35.10457507433796..40.00795674966827]&#45;&gt;[177.6228962422697..212.74029327283873, 35.10457507433796..37.15308328519245]</title>
<path fill="none" stroke="black" d="M1729.75,-503.8C1741.19,-504.93 1752.76,-506.08 1764.26,-507.21"/>
<polygon fill="black" stroke="black" points="1764.04,-510.71 1774.34,-508.21 1764.73,-503.74 1764.04,-510.71"/>
</g>
<!-- [204.36592648652447..204.36592648652447, 40.00795674966827..40.00795674966827] -->
<g id="node13" class="node">
<title>[204.36592648652447..204.36592648652447, 40.00795674966827..40.00795674966827]</title>
<polygon fill="none" stroke="black" points="2090,-479 1770,-479 1770,-426 2090,-426 2090,-479"/>
<text text-anchor="middle" x="1930" y="-463.8" font-family="Times,serif" font-size="14.00">borders: [[204.37, 204.37], [40.01, 40.01]]</text>
<text text-anchor="middle" x="1930" y="-448.8" font-family="Times,serif" font-size="14.00">path_length: 5</text>
<text text-anchor="middle" x="1930" y="-433.8" font-family="Times,serif" font-size="14.00">depth: 4</text>
</g>
<!-- [177.6228962422697..212.74029327283873, 35.10457507433796..40.00795674966827]&#45;&gt;[204.36592648652447..204.36592648652447, 40.00795674966827..40.00795674966827] -->
<g id="edge12" class="edge">
<title>[177.6228962422697..212.74029327283873, 35.10457507433796..40.00795674966827]&#45;&gt;[204.36592648652447..204.36592648652447, 40.00795674966827..40.00795674966827]</title>
<path fill="none" stroke="black" d="M1729.75,-472.76C1739.73,-471.75 1749.8,-470.72 1759.84,-469.7"/>
<polygon fill="black" stroke="black" points="1760.27,-473.18 1769.87,-468.68 1759.56,-466.21 1760.27,-473.18"/>
</g>
<!-- [177.6228962422697..177.6228962422697, 37.15308328519245..37.15308328519245] -->
<g id="node11" class="node">
<title>[177.6228962422697..177.6228962422697, 37.15308328519245..37.15308328519245]</title>
<polygon fill="none" stroke="black" points="2446,-568 2126,-568 2126,-515 2446,-515 2446,-568"/>
<text text-anchor="middle" x="2286" y="-552.8" font-family="Times,serif" font-size="14.00">borders: [[177.62, 177.62], [37.15, 37.15]]</text>
<text text-anchor="middle" x="2286" y="-537.8" font-family="Times,serif" font-size="14.00">path_length: 6</text>
<text text-anchor="middle" x="2286" y="-522.8" font-family="Times,serif" font-size="14.00">depth: 5</text>
</g>
<!-- [177.6228962422697..212.74029327283873, 35.10457507433796..37.15308328519245]&#45;&gt;[177.6228962422697..177.6228962422697, 37.15308328519245..37.15308328519245] -->
<g id="edge13" class="edge">
<title>[177.6228962422697..212.74029327283873, 35.10457507433796..37.15308328519245]&#45;&gt;[177.6228962422697..177.6228962422697, 37.15308328519245..37.15308328519245]</title>
<path fill="none" stroke="black" d="M2085.75,-531.37C2095.73,-531.88 2105.8,-532.39 2115.84,-532.9"/>
<polygon fill="black" stroke="black" points="2115.7,-536.4 2125.87,-533.41 2116.06,-529.41 2115.7,-536.4"/>
</g>
<!-- [212.74029327283873..212.74029327283873, 35.10457507433796..35.10457507433796] -->
<g id="node12" class="node">
<title>[212.74029327283873..212.74029327283873, 35.10457507433796..35.10457507433796]</title>
<polygon fill="none" stroke="black" points="2437,-497 2135,-497 2135,-444 2437,-444 2437,-497"/>
<text text-anchor="middle" x="2286" y="-481.8" font-family="Times,serif" font-size="14.00">borders: [[212.74, 212.74], [35.1, 35.1]]</text>
<text text-anchor="middle" x="2286" y="-466.8" font-family="Times,serif" font-size="14.00">path_length: 6</text>
<text text-anchor="middle" x="2286" y="-451.8" font-family="Times,serif" font-size="14.00">depth: 5</text>
</g>
<!-- [177.6228962422697..212.74029327283873, 35.10457507433796..37.15308328519245]&#45;&gt;[212.74029327283873..212.74029327283873, 35.10457507433796..35.10457507433796] -->
<g id="edge14" class="edge">
<title>[177.6228962422697..212.74029327283873, 35.10457507433796..37.15308328519245]&#45;&gt;[212.74029327283873..212.74029327283873, 35.10457507433796..35.10457507433796]</title>
<path fill="none" stroke="black" d="M2085.75,-500.33C2098.73,-498.39 2111.86,-496.42 2124.87,-494.47"/>
<polygon fill="black" stroke="black" points="2125.42,-497.93 2134.79,-492.99 2124.39,-491.01 2125.42,-497.93"/>
</g>
<!-- [153.37791018802298..188.36288796539623, 52.00468703958586..89.23683332362765] -->
<g id="node15" class="node">
<title>[153.37791018802298..188.36288796539623, 52.00468703958586..89.23683332362765]</title>
<polygon fill="none" stroke="black" points="1729.5,-373 1418.5,-373 1418.5,-320 1729.5,-320 1729.5,-373"/>
<text text-anchor="middle" x="1574" y="-357.8" font-family="Times,serif" font-size="14.00">borders: [[153.38, 188.36], [52.0, 89.24]]</text>
<text text-anchor="middle" x="1574" y="-342.8" font-family="Times,serif" font-size="14.00">sp: 58.56</text>
<text text-anchor="middle" x="1574" y="-327.8" font-family="Times,serif" font-size="14.00">dim: 1</text>
</g>
<!-- [153.37791018802298..211.25710704323578, 52.00468703958586..89.23683332362765]&#45;&gt;[153.37791018802298..188.36288796539623, 52.00468703958586..89.23683332362765] -->
<g id="edge15" class="edge">
<title>[153.37791018802298..211.25710704323578, 52.00468703958586..89.23683332362765]&#45;&gt;[153.37791018802298..188.36288796539623, 52.00468703958586..89.23683332362765]</title>
<path fill="none" stroke="black" d="M1373.75,-346.5C1385.19,-346.5 1396.76,-346.5 1408.26,-346.5"/>
<polygon fill="black" stroke="black" points="1408.34,-350 1418.34,-346.5 1408.34,-343 1408.34,-350"/>
</g>
<!-- [201.56225875097834..211.25710704323578, 52.82331670884787..79.14239397485841] -->
<g id="node20" class="node">
<title>[201.56225875097834..211.25710704323578, 52.82331670884787..79.14239397485841]</title>
<polygon fill="none" stroke="black" points="1734,-230 1414,-230 1414,-177 1734,-177 1734,-230"/>
<text text-anchor="middle" x="1574" y="-214.8" font-family="Times,serif" font-size="14.00">borders: [[201.56, 211.26], [52.82, 79.14]]</text>
<text text-anchor="middle" x="1574" y="-199.8" font-family="Times,serif" font-size="14.00">sp: 208.97</text>
<text text-anchor="middle" x="1574" y="-184.8" font-family="Times,serif" font-size="14.00">dim: 0</text>
</g>
<!-- [153.37791018802298..211.25710704323578, 52.00468703958586..89.23683332362765]&#45;&gt;[201.56225875097834..211.25710704323578, 52.82331670884787..79.14239397485841] -->
<g id="edge16" class="edge">
<title>[153.37791018802298..211.25710704323578, 52.00468703958586..89.23683332362765]&#45;&gt;[201.56225875097834..211.25710704323578, 52.82331670884787..79.14239397485841]</title>
<path fill="none" stroke="black" d="M1353,-319.96C1361.54,-317.36 1369.94,-314.55 1378,-311.5 1430.45,-291.68 1485.99,-259.7 1524.32,-235.68"/>
<polygon fill="black" stroke="black" points="1526.62,-238.37 1533.2,-230.06 1522.88,-232.45 1526.62,-238.37"/>
</g>
<!-- [178.75720904480573..178.75720904480573, 52.00468703958586..52.00468703958586] -->
<g id="node16" class="node">
<title>[178.75720904480573..178.75720904480573, 52.00468703958586..52.00468703958586]</title>
<polygon fill="none" stroke="black" points="2081,-408 1779,-408 1779,-355 2081,-355 2081,-408"/>
<text text-anchor="middle" x="1930" y="-392.8" font-family="Times,serif" font-size="14.00">borders: [[178.76, 178.76], [52.0, 52.0]]</text>
<text text-anchor="middle" x="1930" y="-377.8" font-family="Times,serif" font-size="14.00">path_length: 5</text>
<text text-anchor="middle" x="1930" y="-362.8" font-family="Times,serif" font-size="14.00">depth: 4</text>
</g>
<!-- [153.37791018802298..188.36288796539623, 52.00468703958586..89.23683332362765]&#45;&gt;[178.75720904480573..178.75720904480573, 52.00468703958586..52.00468703958586] -->
<g id="edge17" class="edge">
<title>[153.37791018802298..188.36288796539623, 52.00468703958586..89.23683332362765]&#45;&gt;[178.75720904480573..178.75720904480573, 52.00468703958586..52.00468703958586]</title>
<path fill="none" stroke="black" d="M1729.75,-361.8C1742.6,-363.07 1755.6,-364.36 1768.49,-365.63"/>
<polygon fill="black" stroke="black" points="1768.5,-369.15 1778.79,-366.65 1769.19,-362.18 1768.5,-369.15"/>
</g>
<!-- [153.37791018802298..188.36288796539623, 61.68981864567371..89.23683332362765] -->
<g id="node17" class="node">
<title>[153.37791018802298..188.36288796539623, 61.68981864567371..89.23683332362765]</title>
<polygon fill="none" stroke="black" points="2090,-337 1770,-337 1770,-284 2090,-284 2090,-337"/>
<text text-anchor="middle" x="1930" y="-321.8" font-family="Times,serif" font-size="14.00">borders: [[153.38, 188.36], [61.69, 89.24]]</text>
<text text-anchor="middle" x="1930" y="-306.8" font-family="Times,serif" font-size="14.00">sp: 80.01</text>
<text text-anchor="middle" x="1930" y="-291.8" font-family="Times,serif" font-size="14.00">dim: 1</text>
</g>
<!-- [153.37791018802298..188.36288796539623, 52.00468703958586..89.23683332362765]&#45;&gt;[153.37791018802298..188.36288796539623, 61.68981864567371..89.23683332362765] -->
<g id="edge18" class="edge">
<title>[153.37791018802298..188.36288796539623, 52.00468703958586..89.23683332362765]&#45;&gt;[153.37791018802298..188.36288796539623, 61.68981864567371..89.23683332362765]</title>
<path fill="none" stroke="black" d="M1729.75,-330.76C1739.73,-329.75 1749.8,-328.72 1759.84,-327.7"/>
<polygon fill="black" stroke="black" points="1760.27,-331.18 1769.87,-326.68 1759.56,-324.21 1760.27,-331.18"/>
</g>
<!-- [178.11612471508732..181.41498212709297, 61.68981864567371..79.05076300170794] -->
<g id="node18" class="node">
<title>[178.11612471508732..181.41498212709297, 61.68981864567371..79.05076300170794]</title>
<polygon fill="none" stroke="black" points="2446,-408 2126,-408 2126,-355 2446,-355 2446,-408"/>
<text text-anchor="middle" x="2286" y="-392.8" font-family="Times,serif" font-size="14.00">borders: [[178.12, 181.41], [61.69, 79.05]]</text>
<text text-anchor="middle" x="2286" y="-377.8" font-family="Times,serif" font-size="14.00">path_length: 7</text>
<text text-anchor="middle" x="2286" y="-362.8" font-family="Times,serif" font-size="14.00">depth: 5</text>
</g>
<!-- [153.37791018802298..188.36288796539623, 61.68981864567371..89.23683332362765]&#45;&gt;[178.11612471508732..181.41498212709297, 61.68981864567371..79.05076300170794] -->
<g id="edge19" class="edge">
<title>[153.37791018802298..188.36288796539623, 61.68981864567371..89.23683332362765]&#45;&gt;[178.11612471508732..181.41498212709297, 61.68981864567371..79.05076300170794]</title>
<path fill="none" stroke="black" d="M2063.32,-337.04C2089.27,-342.24 2116.58,-347.72 2142.84,-352.99"/>
<polygon fill="black" stroke="black" points="2142.35,-356.46 2152.84,-354.99 2143.72,-349.6 2142.35,-356.46"/>
</g>
<!-- [153.37791018802298..188.36288796539623, 84.44059250249467..89.23683332362765] -->
<g id="node19" class="node">
<title>[153.37791018802298..188.36288796539623, 84.44059250249467..89.23683332362765]</title>
<polygon fill="none" stroke="black" points="2446,-337 2126,-337 2126,-284 2446,-284 2446,-337"/>
<text text-anchor="middle" x="2286" y="-321.8" font-family="Times,serif" font-size="14.00">borders: [[153.38, 188.36], [84.44, 89.24]]</text>
<text text-anchor="middle" x="2286" y="-306.8" font-family="Times,serif" font-size="14.00">path_length: 7.54</text>
<text text-anchor="middle" x="2286" y="-291.8" font-family="Times,serif" font-size="14.00">depth: 5</text>
</g>
<!-- [153.37791018802298..188.36288796539623, 61.68981864567371..89.23683332362765]&#45;&gt;[153.37791018802298..188.36288796539623, 84.44059250249467..89.23683332362765] -->
<g id="edge20" class="edge">
<title>[153.37791018802298..188.36288796539623, 61.68981864567371..89.23683332362765]&#45;&gt;[153.37791018802298..188.36288796539623, 84.44059250249467..89.23683332362765]</title>
<path fill="none" stroke="black" d="M2090.14,-310.5C2098.65,-310.5 2107.22,-310.5 2115.77,-310.5"/>
<polygon fill="black" stroke="black" points="2115.78,-314 2125.78,-310.5 2115.78,-307 2115.78,-314"/>
</g>
<!-- [201.56225875097834..206.05742272196443, 52.82331670884787..70.74627711924927] -->
<g id="node21" class="node">
<title>[201.56225875097834..206.05742272196443, 52.82331670884787..70.74627711924927]</title>
<polygon fill="none" stroke="black" points="2090,-230 1770,-230 1770,-177 2090,-177 2090,-230"/>
<text text-anchor="middle" x="1930" y="-214.8" font-family="Times,serif" font-size="14.00">borders: [[201.56, 206.06], [52.82, 70.75]]</text>
<text text-anchor="middle" x="1930" y="-199.8" font-family="Times,serif" font-size="14.00">sp: 205.42</text>
<text text-anchor="middle" x="1930" y="-184.8" font-family="Times,serif" font-size="14.00">dim: 0</text>
</g>
<!-- [201.56225875097834..211.25710704323578, 52.82331670884787..79.14239397485841]&#45;&gt;[201.56225875097834..206.05742272196443, 52.82331670884787..70.74627711924927] -->
<g id="edge21" class="edge">
<title>[201.56225875097834..211.25710704323578, 52.82331670884787..79.14239397485841]&#45;&gt;[201.56225875097834..206.05742272196443, 52.82331670884787..70.74627711924927]</title>
<path fill="none" stroke="black" d="M1734.14,-203.5C1742.65,-203.5 1751.22,-203.5 1759.77,-203.5"/>
<polygon fill="black" stroke="black" points="1759.78,-207 1769.78,-203.5 1759.78,-200 1759.78,-207"/>
</g>
<!-- [210.95880210750647..211.25710704323578, 58.48702652312886..79.14239397485841] -->
<g id="node24" class="node">
<title>[210.95880210750647..211.25710704323578, 58.48702652312886..79.14239397485841]</title>
<polygon fill="none" stroke="black" points="2090,-124 1770,-124 1770,-71 2090,-71 2090,-124"/>
<text text-anchor="middle" x="1930" y="-108.8" font-family="Times,serif" font-size="14.00">borders: [[210.96, 211.26], [58.49, 79.14]]</text>
<text text-anchor="middle" x="1930" y="-93.8" font-family="Times,serif" font-size="14.00">sp: 211.19</text>
<text text-anchor="middle" x="1930" y="-78.8" font-family="Times,serif" font-size="14.00">dim: 0</text>
</g>
<!-- [201.56225875097834..211.25710704323578, 52.82331670884787..79.14239397485841]&#45;&gt;[210.95880210750647..211.25710704323578, 58.48702652312886..79.14239397485841] -->
<g id="edge22" class="edge">
<title>[201.56225875097834..211.25710704323578, 52.82331670884787..79.14239397485841]&#45;&gt;[210.95880210750647..211.25710704323578, 58.48702652312886..79.14239397485841]</title>
<path fill="none" stroke="black" d="M1663.87,-176.89C1714.68,-161.68 1778.49,-142.57 1830.77,-126.91"/>
<polygon fill="black" stroke="black" points="1831.82,-130.25 1840.4,-124.03 1829.81,-123.55 1831.82,-130.25"/>
</g>
<!-- [201.56225875097834..203.68346698609744, 52.82331670884787..59.40578664145079] -->
<g id="node22" class="node">
<title>[201.56225875097834..203.68346698609744, 52.82331670884787..59.40578664145079]</title>
<polygon fill="none" stroke="black" points="2446,-266 2126,-266 2126,-213 2446,-213 2446,-266"/>
<text text-anchor="middle" x="2286" y="-250.8" font-family="Times,serif" font-size="14.00">borders: [[201.56, 203.68], [52.82, 59.41]]</text>
<text text-anchor="middle" x="2286" y="-235.8" font-family="Times,serif" font-size="14.00">path_length: 7</text>
<text text-anchor="middle" x="2286" y="-220.8" font-family="Times,serif" font-size="14.00">depth: 5</text>
</g>
<!-- [201.56225875097834..206.05742272196443, 52.82331670884787..70.74627711924927]&#45;&gt;[201.56225875097834..203.68346698609744, 52.82331670884787..59.40578664145079] -->
<g id="edge23" class="edge">
<title>[201.56225875097834..206.05742272196443, 52.82331670884787..70.74627711924927]&#45;&gt;[201.56225875097834..203.68346698609744, 52.82331670884787..59.40578664145079]</title>
<path fill="none" stroke="black" d="M2090.14,-219.68C2098.65,-220.55 2107.22,-221.42 2115.77,-222.29"/>
<polygon fill="black" stroke="black" points="2115.48,-225.78 2125.78,-223.31 2116.19,-218.81 2115.48,-225.78"/>
</g>
<!-- [205.61313499038556..206.05742272196443, 66.21562144123021..70.74627711924927] -->
<g id="node23" class="node">
<title>[205.61313499038556..206.05742272196443, 66.21562144123021..70.74627711924927]</title>
<polygon fill="none" stroke="black" points="2446,-195 2126,-195 2126,-142 2446,-142 2446,-195"/>
<text text-anchor="middle" x="2286" y="-179.8" font-family="Times,serif" font-size="14.00">borders: [[205.61, 206.06], [66.22, 70.75]]</text>
<text text-anchor="middle" x="2286" y="-164.8" font-family="Times,serif" font-size="14.00">path_length: 7</text>
<text text-anchor="middle" x="2286" y="-149.8" font-family="Times,serif" font-size="14.00">depth: 5</text>
</g>
<!-- [201.56225875097834..206.05742272196443, 52.82331670884787..70.74627711924927]&#45;&gt;[205.61313499038556..206.05742272196443, 66.21562144123021..70.74627711924927] -->
<g id="edge24" class="edge">
<title>[201.56225875097834..206.05742272196443, 52.82331670884787..70.74627711924927]&#45;&gt;[205.61313499038556..206.05742272196443, 66.21562144123021..70.74627711924927]</title>
<path fill="none" stroke="black" d="M2090.14,-187.77C2098.65,-186.92 2107.22,-186.08 2115.77,-185.23"/>
<polygon fill="black" stroke="black" points="2116.18,-188.71 2125.78,-184.24 2115.49,-181.74 2116.18,-188.71"/>
</g>
<!-- [210.95880210750647..210.95880210750647, 79.14239397485841..79.14239397485841] -->
<g id="node25" class="node">
<title>[210.95880210750647..210.95880210750647, 79.14239397485841..79.14239397485841]</title>
<polygon fill="none" stroke="black" points="2446,-124 2126,-124 2126,-71 2446,-71 2446,-124"/>
<text text-anchor="middle" x="2286" y="-108.8" font-family="Times,serif" font-size="14.00">borders: [[210.96, 210.96], [79.14, 79.14]]</text>
<text text-anchor="middle" x="2286" y="-93.8" font-family="Times,serif" font-size="14.00">path_length: 6</text>
<text text-anchor="middle" x="2286" y="-78.8" font-family="Times,serif" font-size="14.00">depth: 5</text>
</g>
<!-- [210.95880210750647..211.25710704323578, 58.48702652312886..79.14239397485841]&#45;&gt;[210.95880210750647..210.95880210750647, 79.14239397485841..79.14239397485841] -->
<g id="edge25" class="edge">
<title>[210.95880210750647..211.25710704323578, 58.48702652312886..79.14239397485841]&#45;&gt;[210.95880210750647..210.95880210750647, 79.14239397485841..79.14239397485841]</title>
<path fill="none" stroke="black" d="M2090.14,-97.5C2098.65,-97.5 2107.22,-97.5 2115.77,-97.5"/>
<polygon fill="black" stroke="black" points="2115.78,-101 2125.78,-97.5 2115.78,-94 2115.78,-101"/>
</g>
<!-- [211.25710704323578..211.25710704323578, 58.48702652312886..58.48702652312886] -->
<g id="node26" class="node">
<title>[211.25710704323578..211.25710704323578, 58.48702652312886..58.48702652312886]</title>
<polygon fill="none" stroke="black" points="2446,-53 2126,-53 2126,0 2446,0 2446,-53"/>
<text text-anchor="middle" x="2286" y="-37.8" font-family="Times,serif" font-size="14.00">borders: [[211.26, 211.26], [58.49, 58.49]]</text>
<text text-anchor="middle" x="2286" y="-22.8" font-family="Times,serif" font-size="14.00">path_length: 6</text>
<text text-anchor="middle" x="2286" y="-7.8" font-family="Times,serif" font-size="14.00">depth: 5</text>
</g>
<!-- [210.95880210750647..211.25710704323578, 58.48702652312886..79.14239397485841]&#45;&gt;[211.25710704323578..211.25710704323578, 58.48702652312886..58.48702652312886] -->
<g id="edge26" class="edge">
<title>[210.95880210750647..211.25710704323578, 58.48702652312886..79.14239397485841]&#45;&gt;[211.25710704323578..211.25710704323578, 58.48702652312886..58.48702652312886]</title>
<path fill="none" stroke="black" d="M2063.32,-70.96C2089.27,-65.76 2116.58,-60.28 2142.84,-55.01"/>
<polygon fill="black" stroke="black" points="2143.72,-58.4 2152.84,-53.01 2142.35,-51.54 2143.72,-58.4"/>
</g>
<!-- [237.66395406846053..238.6203925603514, 54.23894516897036..70.65713890254233] -->
<g id="node27" class="node">
<title>[237.66395406846053..238.6203925603514, 54.23894516897036..70.65713890254233]</title>
<polygon fill="none" stroke="black" points="1022,-302 702,-302 702,-249 1022,-249 1022,-302"/>
<text text-anchor="middle" x="862" y="-286.8" font-family="Times,serif" font-size="14.00">borders: [[237.66, 238.62], [54.24, 70.66]]</text>
<text text-anchor="middle" x="862" y="-271.8" font-family="Times,serif" font-size="14.00">sp: 238.52</text>
<text text-anchor="middle" x="862" y="-256.8" font-family="Times,serif" font-size="14.00">dim: 0</text>
</g>
<!-- [237.66395406846053..237.66395406846053, 70.65713890254233..70.65713890254233] -->
<g id="node28" class="node">
<title>[237.66395406846053..237.66395406846053, 70.65713890254233..70.65713890254233]</title>
<polygon fill="none" stroke="black" points="1378,-302 1058,-302 1058,-249 1378,-249 1378,-302"/>
<text text-anchor="middle" x="1218" y="-286.8" font-family="Times,serif" font-size="14.00">borders: [[237.66, 237.66], [70.66, 70.66]]</text>
<text text-anchor="middle" x="1218" y="-271.8" font-family="Times,serif" font-size="14.00">path_length: 3</text>
<text text-anchor="middle" x="1218" y="-256.8" font-family="Times,serif" font-size="14.00">depth: 2</text>
</g>
<!-- [237.66395406846053..238.6203925603514, 54.23894516897036..70.65713890254233]&#45;&gt;[237.66395406846053..237.66395406846053, 70.65713890254233..70.65713890254233] -->
<g id="edge27" class="edge">
<title>[237.66395406846053..238.6203925603514, 54.23894516897036..70.65713890254233]&#45;&gt;[237.66395406846053..237.66395406846053, 70.65713890254233..70.65713890254233]</title>
<path fill="none" stroke="black" d="M1022.14,-275.5C1030.65,-275.5 1039.22,-275.5 1047.77,-275.5"/>
<polygon fill="black" stroke="black" points="1047.78,-279 1057.78,-275.5 1047.78,-272 1047.78,-279"/>
</g>
<!-- [238.6203925603514..238.6203925603514, 54.23894516897036..54.23894516897036] -->
<g id="node29" class="node">
<title>[238.6203925603514..238.6203925603514, 54.23894516897036..54.23894516897036]</title>
<polygon fill="none" stroke="black" points="1378,-231 1058,-231 1058,-178 1378,-178 1378,-231"/>
<text text-anchor="middle" x="1218" y="-215.8" font-family="Times,serif" font-size="14.00">borders: [[238.62, 238.62], [54.24, 54.24]]</text>
<text text-anchor="middle" x="1218" y="-200.8" font-family="Times,serif" font-size="14.00">path_length: 3</text>
<text text-anchor="middle" x="1218" y="-185.8" font-family="Times,serif" font-size="14.00">depth: 2</text>
</g>
<!-- [237.66395406846053..238.6203925603514, 54.23894516897036..70.65713890254233]&#45;&gt;[238.6203925603514..238.6203925603514, 54.23894516897036..54.23894516897036] -->
<g id="edge28" class="edge">
<title>[237.66395406846053..238.6203925603514, 54.23894516897036..70.65713890254233]&#45;&gt;[238.6203925603514..238.6203925603514, 54.23894516897036..54.23894516897036]</title>
<path fill="none" stroke="black" d="M995.32,-248.96C1021.27,-243.76 1048.58,-238.28 1074.84,-233.01"/>
<polygon fill="black" stroke="black" points="1075.72,-236.4 1084.84,-231.01 1074.35,-229.54 1075.72,-236.4"/>
</g>
<!-- [153.37791018802298..238.6203925603514, 6.953847930927282..102.05007088502941] -->
<g id="node30" class="node">
<title>[153.37791018802298..238.6203925603514, 6.953847930927282..102.05007088502941]</title>
<polygon fill="none" stroke="black" points="666,-328.5 0,-328.5 0,-292.5 666,-292.5 666,-328.5"/>
<text text-anchor="middle" x="333" y="-306.8" font-family="Times,serif" font-size="14.00">[153.37791018802298..238.6203925603514, 6.953847930927282..102.05007088502941]</text>
</g>
<!-- [153.37791018802298..238.6203925603514, 6.953847930927282..102.05007088502941]&#45;&gt;[153.37791018802298..212.74029327283873, 25.97460949817946..89.23683332362765] -->
<g id="edge1" class="edge">
<title>[153.37791018802298..238.6203925603514, 6.953847930927282..102.05007088502941]&#45;&gt;[153.37791018802298..212.74029327283873, 25.97460949817946..89.23683332362765]</title>
<path fill="none" stroke="black" d="M597.89,-328.53C629.76,-330.7 661.62,-332.88 691.62,-334.93"/>
<polygon fill="black" stroke="black" points="691.5,-338.43 701.71,-335.62 691.98,-331.45 691.5,-338.43"/>
</g>
<!-- [153.37791018802298..238.6203925603514, 6.953847930927282..102.05007088502941]&#45;&gt;[237.66395406846053..238.6203925603514, 54.23894516897036..70.65713890254233] -->
<g id="edge2" class="edge">
<title>[153.37791018802298..238.6203925603514, 6.953847930927282..102.05007088502941]&#45;&gt;[237.66395406846053..238.6203925603514, 54.23894516897036..70.65713890254233]</title>
<path fill="none" stroke="black" d="M605.22,-292.49C634.64,-290.53 663.94,-288.59 691.64,-286.75"/>
<polygon fill="black" stroke="black" points="692.02,-290.23 701.77,-286.08 691.56,-283.25 692.02,-290.23"/>
</g>
</g>
</svg>
