<?xml version="1.0" encoding="UTF-8" standalone="no"?>
<!DOCTYPE svg PUBLIC "-//W3C//DTD SVG 1.1//EN"
 "http://www.w3.org/Graphics/SVG/1.1/DTD/svg11.dtd">
<!-- Generated by graphviz version 2.43.0 (0)
 -->
<!-- Title: G Pages: 1 -->
<svg width="998pt" height="438pt"
 viewBox="0.00 0.00 998.00 438.00" xmlns="http://www.w3.org/2000/svg" xmlns:xlink="http://www.w3.org/1999/xlink">
<g id="graph0" class="graph" transform="scale(1 1) rotate(0) translate(4 434)">
<title>G</title>
<polygon fill="white" stroke="transparent" points="-4,4 -4,-434 994,-434 994,4 -4,4"/>
<!-- [160.95, 238.62]\n[6.95, 85.7] -->
<g id="node1" class="node">
<title>[160.95, 238.62]\n[6.95, 85.7]</title>
<polygon fill="none" stroke="black" points="135,-150 0,-150 0,-112 135,-112 135,-150"/>
<text text-anchor="middle" x="67.5" y="-134.8" font-family="Times,serif" font-size="14.00">[160.95, 238.62]</text>
<text text-anchor="middle" x="67.5" y="-119.8" font-family="Times,serif" font-size="14.00">[6.95, 85.7]</text>
</g>
<!-- [160.95, 215.83]\n[6.95, 85.7] -->
<g id="node2" class="node">
<title>[160.95, 215.83]\n[6.95, 85.7]</title>
<polygon fill="none" stroke="black" points="306,-178 171,-178 171,-140 306,-140 306,-178"/>
<text text-anchor="middle" x="238.5" y="-162.8" font-family="Times,serif" font-size="14.00">[160.95, 215.83]</text>
<text text-anchor="middle" x="238.5" y="-147.8" font-family="Times,serif" font-size="14.00">[6.95, 85.7]</text>
</g>
<!-- [160.95, 238.62]\n[6.95, 85.7]&#45;&gt;[160.95, 215.83]\n[6.95, 85.7] -->
<g id="edge1" class="edge">
<title>[160.95, 238.62]\n[6.95, 85.7]&#45;&gt;[160.95, 215.83]\n[6.95, 85.7]</title>
<path fill="none" stroke="black" d="M135.29,-142.07C143.72,-143.46 152.38,-144.9 160.94,-146.32"/>
<polygon fill="black" stroke="black" points="160.48,-149.79 170.92,-147.97 161.62,-142.88 160.48,-149.79"/>
</g>
<!-- [237.66, 238.62]\n[54.24, 70.66] -->
<g id="node3" class="node">
<title>[237.66, 238.62]\n[54.24, 70.66]</title>
<polygon fill="none" stroke="black" points="306,-122 171,-122 171,-84 306,-84 306,-122"/>
<text text-anchor="middle" x="238.5" y="-106.8" font-family="Times,serif" font-size="14.00">[237.66, 238.62]</text>
<text text-anchor="middle" x="238.5" y="-91.8" font-family="Times,serif" font-size="14.00">[54.24, 70.66]</text>
</g>
<!-- [160.95, 238.62]\n[6.95, 85.7]&#45;&gt;[237.66, 238.62]\n[54.24, 70.66] -->
<g id="edge2" class="edge">
<title>[160.95, 238.62]\n[6.95, 85.7]&#45;&gt;[237.66, 238.62]\n[54.24, 70.66]</title>
<path fill="none" stroke="black" d="M135.29,-119.93C143.72,-118.54 152.38,-117.1 160.94,-115.68"/>
<polygon fill="black" stroke="black" points="161.62,-119.12 170.92,-114.03 160.48,-112.21 161.62,-119.12"/>
</g>
<!-- [160.95, 215.83]\n[6.95, 40.01] -->
<g id="node4" class="node">
<title>[160.95, 215.83]\n[6.95, 40.01]</title>
<polygon fill="none" stroke="black" points="477,-290 342,-290 342,-252 477,-252 477,-290"/>
<text text-anchor="middle" x="409.5" y="-274.8" font-family="Times,serif" font-size="14.00">[160.95, 215.83]</text>
<text text-anchor="middle" x="409.5" y="-259.8" font-family="Times,serif" font-size="14.00">[6.95, 40.01]</text>
</g>
<!-- [160.95, 215.83]\n[6.95, 85.7]&#45;&gt;[160.95, 215.83]\n[6.95, 40.01] -->
<g id="edge3" class="edge">
<title>[160.95, 215.83]\n[6.95, 85.7]&#45;&gt;[160.95, 215.83]\n[6.95, 40.01]</title>
<path fill="none" stroke="black" d="M268.55,-178.25C297.02,-197.12 340.52,-225.95 371.46,-246.45"/>
<polygon fill="black" stroke="black" points="369.56,-249.39 379.83,-252 373.42,-243.56 369.56,-249.39"/>
</g>
<!-- [170.06, 213.91]\n[52.0, 85.7] -->
<g id="node5" class="node">
<title>[170.06, 213.91]\n[52.0, 85.7]</title>
<polygon fill="none" stroke="black" points="477,-178 342,-178 342,-140 477,-140 477,-178"/>
<text text-anchor="middle" x="409.5" y="-162.8" font-family="Times,serif" font-size="14.00">[170.06, 213.91]</text>
<text text-anchor="middle" x="409.5" y="-147.8" font-family="Times,serif" font-size="14.00">[52.0, 85.7]</text>
</g>
<!-- [160.95, 215.83]\n[6.95, 85.7]&#45;&gt;[170.06, 213.91]\n[52.0, 85.7] -->
<g id="edge4" class="edge">
<title>[160.95, 215.83]\n[6.95, 85.7]&#45;&gt;[170.06, 213.91]\n[52.0, 85.7]</title>
<path fill="none" stroke="black" d="M306.29,-159C314.62,-159 323.19,-159 331.66,-159"/>
<polygon fill="black" stroke="black" points="331.92,-162.5 341.92,-159 331.92,-155.5 331.92,-162.5"/>
</g>
<!-- [238.62, 238.62]\n[54.24, 54.24] -->
<g id="node24" class="node">
<title>[238.62, 238.62]\n[54.24, 54.24]</title>
<polygon fill="none" stroke="black" points="477,-122 342,-122 342,-84 477,-84 477,-122"/>
<text text-anchor="middle" x="409.5" y="-106.8" font-family="Times,serif" font-size="14.00">[238.62, 238.62]</text>
<text text-anchor="middle" x="409.5" y="-91.8" font-family="Times,serif" font-size="14.00">[54.24, 54.24]</text>
</g>
<!-- [237.66, 238.62]\n[54.24, 70.66]&#45;&gt;[238.62, 238.62]\n[54.24, 54.24] -->
<g id="edge23" class="edge">
<title>[237.66, 238.62]\n[54.24, 70.66]&#45;&gt;[238.62, 238.62]\n[54.24, 54.24]</title>
<path fill="none" stroke="black" d="M306.29,-103C314.62,-103 323.19,-103 331.66,-103"/>
<polygon fill="black" stroke="black" points="331.92,-106.5 341.92,-103 331.92,-99.5 331.92,-106.5"/>
</g>
<!-- [237.66, 237.66]\n[70.66, 70.66] -->
<g id="node25" class="node">
<title>[237.66, 237.66]\n[70.66, 70.66]</title>
<polygon fill="none" stroke="black" points="477,-66 342,-66 342,-28 477,-28 477,-66"/>
<text text-anchor="middle" x="409.5" y="-50.8" font-family="Times,serif" font-size="14.00">[237.66, 237.66]</text>
<text text-anchor="middle" x="409.5" y="-35.8" font-family="Times,serif" font-size="14.00">[70.66, 70.66]</text>
</g>
<!-- [237.66, 238.62]\n[54.24, 70.66]&#45;&gt;[237.66, 237.66]\n[70.66, 70.66] -->
<g id="edge24" class="edge">
<title>[237.66, 238.62]\n[54.24, 70.66]&#45;&gt;[237.66, 237.66]\n[70.66, 70.66]</title>
<path fill="none" stroke="black" d="M297.19,-83.88C311.46,-79.15 326.88,-74.05 341.55,-69.18"/>
<polygon fill="black" stroke="black" points="342.68,-72.5 351.07,-66.03 340.48,-65.85 342.68,-72.5"/>
</g>
<!-- [160.95, 177.62]\n[29.53, 37.15] -->
<g id="node6" class="node">
<title>[160.95, 177.62]\n[29.53, 37.15]</title>
<polygon fill="none" stroke="black" points="648,-374 513,-374 513,-336 648,-336 648,-374"/>
<text text-anchor="middle" x="580.5" y="-358.8" font-family="Times,serif" font-size="14.00">[160.95, 177.62]</text>
<text text-anchor="middle" x="580.5" y="-343.8" font-family="Times,serif" font-size="14.00">[29.53, 37.15]</text>
</g>
<!-- [160.95, 215.83]\n[6.95, 40.01]&#45;&gt;[160.95, 177.62]\n[29.53, 37.15] -->
<g id="edge5" class="edge">
<title>[160.95, 215.83]\n[6.95, 40.01]&#45;&gt;[160.95, 177.62]\n[29.53, 37.15]</title>
<path fill="none" stroke="black" d="M448.85,-290.06C473.5,-302.31 505.72,-318.33 531.99,-331.38"/>
<polygon fill="black" stroke="black" points="530.5,-334.55 541.01,-335.87 533.61,-328.28 530.5,-334.55"/>
</g>
<!-- [202.97, 215.83]\n[6.95, 40.01] -->
<g id="node7" class="node">
<title>[202.97, 215.83]\n[6.95, 40.01]</title>
<polygon fill="none" stroke="black" points="648,-290 513,-290 513,-252 648,-252 648,-290"/>
<text text-anchor="middle" x="580.5" y="-274.8" font-family="Times,serif" font-size="14.00">[202.97, 215.83]</text>
<text text-anchor="middle" x="580.5" y="-259.8" font-family="Times,serif" font-size="14.00">[6.95, 40.01]</text>
</g>
<!-- [160.95, 215.83]\n[6.95, 40.01]&#45;&gt;[202.97, 215.83]\n[6.95, 40.01] -->
<g id="edge6" class="edge">
<title>[160.95, 215.83]\n[6.95, 40.01]&#45;&gt;[202.97, 215.83]\n[6.95, 40.01]</title>
<path fill="none" stroke="black" d="M477.29,-271C485.62,-271 494.19,-271 502.66,-271"/>
<polygon fill="black" stroke="black" points="502.92,-274.5 512.92,-271 502.92,-267.5 502.92,-274.5"/>
</g>
<!-- [170.06, 181.41]\n[52.0, 85.7] -->
<g id="node14" class="node">
<title>[170.06, 181.41]\n[52.0, 85.7]</title>
<polygon fill="none" stroke="black" points="648,-178 513,-178 513,-140 648,-140 648,-178"/>
<text text-anchor="middle" x="580.5" y="-162.8" font-family="Times,serif" font-size="14.00">[170.06, 181.41]</text>
<text text-anchor="middle" x="580.5" y="-147.8" font-family="Times,serif" font-size="14.00">[52.0, 85.7]</text>
</g>
<!-- [170.06, 213.91]\n[52.0, 85.7]&#45;&gt;[170.06, 181.41]\n[52.0, 85.7] -->
<g id="edge13" class="edge">
<title>[170.06, 213.91]\n[52.0, 85.7]&#45;&gt;[170.06, 181.41]\n[52.0, 85.7]</title>
<path fill="none" stroke="black" d="M477.29,-159C485.62,-159 494.19,-159 502.66,-159"/>
<polygon fill="black" stroke="black" points="502.92,-162.5 512.92,-159 502.92,-155.5 502.92,-162.5"/>
</g>
<!-- [201.56, 213.91]\n[52.82, 80.45] -->
<g id="node15" class="node">
<title>[201.56, 213.91]\n[52.82, 80.45]</title>
<polygon fill="none" stroke="black" points="648,-94 513,-94 513,-56 648,-56 648,-94"/>
<text text-anchor="middle" x="580.5" y="-78.8" font-family="Times,serif" font-size="14.00">[201.56, 213.91]</text>
<text text-anchor="middle" x="580.5" y="-63.8" font-family="Times,serif" font-size="14.00">[52.82, 80.45]</text>
</g>
<!-- [170.06, 213.91]\n[52.0, 85.7]&#45;&gt;[201.56, 213.91]\n[52.82, 80.45] -->
<g id="edge14" class="edge">
<title>[170.06, 213.91]\n[52.0, 85.7]&#45;&gt;[201.56, 213.91]\n[52.82, 80.45]</title>
<path fill="none" stroke="black" d="M457.63,-139.86C464.19,-136.99 470.79,-133.99 477,-131 497.41,-121.16 519.52,-109.24 537.97,-98.94"/>
<polygon fill="black" stroke="black" points="539.71,-101.98 546.71,-94.02 536.28,-95.87 539.71,-101.98"/>
</g>
<!-- [160.95, 160.95]\n[29.53, 29.53] -->
<g id="node8" class="node">
<title>[160.95, 160.95]\n[29.53, 29.53]</title>
<polygon fill="none" stroke="black" points="819,-430 684,-430 684,-392 819,-392 819,-430"/>
<text text-anchor="middle" x="751.5" y="-414.8" font-family="Times,serif" font-size="14.00">[160.95, 160.95]</text>
<text text-anchor="middle" x="751.5" y="-399.8" font-family="Times,serif" font-size="14.00">[29.53, 29.53]</text>
</g>
<!-- [160.95, 177.62]\n[29.53, 37.15]&#45;&gt;[160.95, 160.95]\n[29.53, 29.53] -->
<g id="edge7" class="edge">
<title>[160.95, 177.62]\n[29.53, 37.15]&#45;&gt;[160.95, 160.95]\n[29.53, 29.53]</title>
<path fill="none" stroke="black" d="M639.19,-374.12C653.46,-378.85 668.88,-383.95 683.55,-388.82"/>
<polygon fill="black" stroke="black" points="682.48,-392.15 693.07,-391.97 684.68,-385.5 682.48,-392.15"/>
</g>
<!-- [177.62, 177.62]\n[37.15, 37.15] -->
<g id="node9" class="node">
<title>[177.62, 177.62]\n[37.15, 37.15]</title>
<polygon fill="none" stroke="black" points="819,-374 684,-374 684,-336 819,-336 819,-374"/>
<text text-anchor="middle" x="751.5" y="-358.8" font-family="Times,serif" font-size="14.00">[177.62, 177.62]</text>
<text text-anchor="middle" x="751.5" y="-343.8" font-family="Times,serif" font-size="14.00">[37.15, 37.15]</text>
</g>
<!-- [160.95, 177.62]\n[29.53, 37.15]&#45;&gt;[177.62, 177.62]\n[37.15, 37.15] -->
<g id="edge8" class="edge">
<title>[160.95, 177.62]\n[29.53, 37.15]&#45;&gt;[177.62, 177.62]\n[37.15, 37.15]</title>
<path fill="none" stroke="black" d="M648.29,-355C656.62,-355 665.19,-355 673.66,-355"/>
<polygon fill="black" stroke="black" points="673.92,-358.5 683.92,-355 673.92,-351.5 673.92,-358.5"/>
</g>
<!-- [202.97, 212.74]\n[25.97, 40.01] -->
<g id="node10" class="node">
<title>[202.97, 212.74]\n[25.97, 40.01]</title>
<polygon fill="none" stroke="black" points="819,-318 684,-318 684,-280 819,-280 819,-318"/>
<text text-anchor="middle" x="751.5" y="-302.8" font-family="Times,serif" font-size="14.00">[202.97, 212.74]</text>
<text text-anchor="middle" x="751.5" y="-287.8" font-family="Times,serif" font-size="14.00">[25.97, 40.01]</text>
</g>
<!-- [202.97, 215.83]\n[6.95, 40.01]&#45;&gt;[202.97, 212.74]\n[25.97, 40.01] -->
<g id="edge9" class="edge">
<title>[202.97, 215.83]\n[6.95, 40.01]&#45;&gt;[202.97, 212.74]\n[25.97, 40.01]</title>
<path fill="none" stroke="black" d="M648.29,-282.07C656.72,-283.46 665.38,-284.9 673.94,-286.32"/>
<polygon fill="black" stroke="black" points="673.48,-289.79 683.92,-287.97 674.62,-282.88 673.48,-289.79"/>
</g>
<!-- [215.83, 215.83]\n[6.95, 6.95] -->
<g id="node11" class="node">
<title>[215.83, 215.83]\n[6.95, 6.95]</title>
<polygon fill="none" stroke="black" points="819,-262 684,-262 684,-224 819,-224 819,-262"/>
<text text-anchor="middle" x="751.5" y="-246.8" font-family="Times,serif" font-size="14.00">[215.83, 215.83]</text>
<text text-anchor="middle" x="751.5" y="-231.8" font-family="Times,serif" font-size="14.00">[6.95, 6.95]</text>
</g>
<!-- [202.97, 215.83]\n[6.95, 40.01]&#45;&gt;[215.83, 215.83]\n[6.95, 6.95] -->
<g id="edge10" class="edge">
<title>[202.97, 215.83]\n[6.95, 40.01]&#45;&gt;[215.83, 215.83]\n[6.95, 6.95]</title>
<path fill="none" stroke="black" d="M648.29,-259.93C656.72,-258.54 665.38,-257.1 673.94,-255.68"/>
<polygon fill="black" stroke="black" points="674.62,-259.12 683.92,-254.03 673.48,-252.21 674.62,-259.12"/>
</g>
<!-- [202.97, 212.74]\n[25.97, 35.1] -->
<g id="node12" class="node">
<title>[202.97, 212.74]\n[25.97, 35.1]</title>
<polygon fill="none" stroke="black" points="990,-346 855,-346 855,-308 990,-308 990,-346"/>
<text text-anchor="middle" x="922.5" y="-330.8" font-family="Times,serif" font-size="14.00">[202.97, 212.74]</text>
<text text-anchor="middle" x="922.5" y="-315.8" font-family="Times,serif" font-size="14.00">[25.97, 35.1]</text>
</g>
<!-- [202.97, 212.74]\n[25.97, 40.01]&#45;&gt;[202.97, 212.74]\n[25.97, 35.1] -->
<g id="edge11" class="edge">
<title>[202.97, 212.74]\n[25.97, 40.01]&#45;&gt;[202.97, 212.74]\n[25.97, 35.1]</title>
<path fill="none" stroke="black" d="M819.29,-310.07C827.72,-311.46 836.38,-312.9 844.94,-314.32"/>
<polygon fill="black" stroke="black" points="844.48,-317.79 854.92,-315.97 845.62,-310.88 844.48,-317.79"/>
</g>
<!-- [204.37, 204.37]\n[40.01, 40.01] -->
<g id="node13" class="node">
<title>[204.37, 204.37]\n[40.01, 40.01]</title>
<polygon fill="none" stroke="black" points="990,-290 855,-290 855,-252 990,-252 990,-290"/>
<text text-anchor="middle" x="922.5" y="-274.8" font-family="Times,serif" font-size="14.00">[204.37, 204.37]</text>
<text text-anchor="middle" x="922.5" y="-259.8" font-family="Times,serif" font-size="14.00">[40.01, 40.01]</text>
</g>
<!-- [202.97, 212.74]\n[25.97, 40.01]&#45;&gt;[204.37, 204.37]\n[40.01, 40.01] -->
<g id="edge12" class="edge">
<title>[202.97, 212.74]\n[25.97, 40.01]&#45;&gt;[204.37, 204.37]\n[40.01, 40.01]</title>
<path fill="none" stroke="black" d="M819.29,-287.93C827.72,-286.54 836.38,-285.1 844.94,-283.68"/>
<polygon fill="black" stroke="black" points="845.62,-287.12 854.92,-282.03 844.48,-280.21 845.62,-287.12"/>
</g>
<!-- [170.06, 178.76]\n[52.0, 85.7] -->
<g id="node16" class="node">
<title>[170.06, 178.76]\n[52.0, 85.7]</title>
<polygon fill="none" stroke="black" points="819,-206 684,-206 684,-168 819,-168 819,-206"/>
<text text-anchor="middle" x="751.5" y="-190.8" font-family="Times,serif" font-size="14.00">[170.06, 178.76]</text>
<text text-anchor="middle" x="751.5" y="-175.8" font-family="Times,serif" font-size="14.00">[52.0, 85.7]</text>
</g>
<!-- [170.06, 181.41]\n[52.0, 85.7]&#45;&gt;[170.06, 178.76]\n[52.0, 85.7] -->
<g id="edge15" class="edge">
<title>[170.06, 181.41]\n[52.0, 85.7]&#45;&gt;[170.06, 178.76]\n[52.0, 85.7]</title>
<path fill="none" stroke="black" d="M648.29,-170.07C656.72,-171.46 665.38,-172.9 673.94,-174.32"/>
<polygon fill="black" stroke="black" points="673.48,-177.79 683.92,-175.97 674.62,-170.88 673.48,-177.79"/>
</g>
<!-- [181.41, 181.41]\n[61.69, 61.69] -->
<g id="node17" class="node">
<title>[181.41, 181.41]\n[61.69, 61.69]</title>
<polygon fill="none" stroke="black" points="819,-150 684,-150 684,-112 819,-112 819,-150"/>
<text text-anchor="middle" x="751.5" y="-134.8" font-family="Times,serif" font-size="14.00">[181.41, 181.41]</text>
<text text-anchor="middle" x="751.5" y="-119.8" font-family="Times,serif" font-size="14.00">[61.69, 61.69]</text>
</g>
<!-- [170.06, 181.41]\n[52.0, 85.7]&#45;&gt;[181.41, 181.41]\n[61.69, 61.69] -->
<g id="edge16" class="edge">
<title>[170.06, 181.41]\n[52.0, 85.7]&#45;&gt;[181.41, 181.41]\n[61.69, 61.69]</title>
<path fill="none" stroke="black" d="M648.29,-147.93C656.72,-146.54 665.38,-145.1 673.94,-143.68"/>
<polygon fill="black" stroke="black" points="674.62,-147.12 683.92,-142.03 673.48,-140.21 674.62,-147.12"/>
</g>
<!-- [201.56, 213.91]\n[52.82, 79.14] -->
<g id="node20" class="node">
<title>[201.56, 213.91]\n[52.82, 79.14]</title>
<polygon fill="none" stroke="black" points="819,-94 684,-94 684,-56 819,-56 819,-94"/>
<text text-anchor="middle" x="751.5" y="-78.8" font-family="Times,serif" font-size="14.00">[201.56, 213.91]</text>
<text text-anchor="middle" x="751.5" y="-63.8" font-family="Times,serif" font-size="14.00">[52.82, 79.14]</text>
</g>
<!-- [201.56, 213.91]\n[52.82, 80.45]&#45;&gt;[201.56, 213.91]\n[52.82, 79.14] -->
<g id="edge19" class="edge">
<title>[201.56, 213.91]\n[52.82, 80.45]&#45;&gt;[201.56, 213.91]\n[52.82, 79.14]</title>
<path fill="none" stroke="black" d="M648.29,-75C656.62,-75 665.19,-75 673.66,-75"/>
<polygon fill="black" stroke="black" points="673.92,-78.5 683.92,-75 673.92,-71.5 673.92,-78.5"/>
</g>
<!-- [204.38, 204.38]\n[80.45, 80.45] -->
<g id="node21" class="node">
<title>[204.38, 204.38]\n[80.45, 80.45]</title>
<polygon fill="none" stroke="black" points="819,-38 684,-38 684,0 819,0 819,-38"/>
<text text-anchor="middle" x="751.5" y="-22.8" font-family="Times,serif" font-size="14.00">[204.38, 204.38]</text>
<text text-anchor="middle" x="751.5" y="-7.8" font-family="Times,serif" font-size="14.00">[80.45, 80.45]</text>
</g>
<!-- [201.56, 213.91]\n[52.82, 80.45]&#45;&gt;[204.38, 204.38]\n[80.45, 80.45] -->
<g id="edge20" class="edge">
<title>[201.56, 213.91]\n[52.82, 80.45]&#45;&gt;[204.38, 204.38]\n[80.45, 80.45]</title>
<path fill="none" stroke="black" d="M639.19,-55.88C653.46,-51.15 668.88,-46.05 683.55,-41.18"/>
<polygon fill="black" stroke="black" points="684.68,-44.5 693.07,-38.03 682.48,-37.85 684.68,-44.5"/>
</g>
<!-- [170.06, 170.06]\n[58.38, 58.38] -->
<g id="node18" class="node">
<title>[170.06, 170.06]\n[58.38, 58.38]</title>
<polygon fill="none" stroke="black" points="990,-206 855,-206 855,-168 990,-168 990,-206"/>
<text text-anchor="middle" x="922.5" y="-190.8" font-family="Times,serif" font-size="14.00">[170.06, 170.06]</text>
<text text-anchor="middle" x="922.5" y="-175.8" font-family="Times,serif" font-size="14.00">[58.38, 58.38]</text>
</g>
<!-- [170.06, 178.76]\n[52.0, 85.7]&#45;&gt;[170.06, 170.06]\n[58.38, 58.38] -->
<g id="edge17" class="edge">
<title>[170.06, 178.76]\n[52.0, 85.7]&#45;&gt;[170.06, 170.06]\n[58.38, 58.38]</title>
<path fill="none" stroke="black" d="M819.29,-187C827.62,-187 836.19,-187 844.66,-187"/>
<polygon fill="black" stroke="black" points="844.92,-190.5 854.92,-187 844.92,-183.5 844.92,-190.5"/>
</g>
<!-- [174.85, 178.76]\n[52.0, 85.7] -->
<g id="node19" class="node">
<title>[174.85, 178.76]\n[52.0, 85.7]</title>
<polygon fill="none" stroke="black" points="990,-150 855,-150 855,-112 990,-112 990,-150"/>
<text text-anchor="middle" x="922.5" y="-134.8" font-family="Times,serif" font-size="14.00">[174.85, 178.76]</text>
<text text-anchor="middle" x="922.5" y="-119.8" font-family="Times,serif" font-size="14.00">[52.0, 85.7]</text>
</g>
<!-- [170.06, 178.76]\n[52.0, 85.7]&#45;&gt;[174.85, 178.76]\n[52.0, 85.7] -->
<g id="edge18" class="edge">
<title>[170.06, 178.76]\n[52.0, 85.7]&#45;&gt;[174.85, 178.76]\n[52.0, 85.7]</title>
<path fill="none" stroke="black" d="M810.19,-167.88C824.46,-163.15 839.88,-158.05 854.55,-153.18"/>
<polygon fill="black" stroke="black" points="855.68,-156.5 864.07,-150.03 853.48,-149.85 855.68,-156.5"/>
</g>
<!-- [201.56, 201.56]\n[52.82, 52.82] -->
<g id="node22" class="node">
<title>[201.56, 201.56]\n[52.82, 52.82]</title>
<polygon fill="none" stroke="black" points="990,-94 855,-94 855,-56 990,-56 990,-94"/>
<text text-anchor="middle" x="922.5" y="-78.8" font-family="Times,serif" font-size="14.00">[201.56, 201.56]</text>
<text text-anchor="middle" x="922.5" y="-63.8" font-family="Times,serif" font-size="14.00">[52.82, 52.82]</text>
</g>
<!-- [201.56, 213.91]\n[52.82, 79.14]&#45;&gt;[201.56, 201.56]\n[52.82, 52.82] -->
<g id="edge21" class="edge">
<title>[201.56, 213.91]\n[52.82, 79.14]&#45;&gt;[201.56, 201.56]\n[52.82, 52.82]</title>
<path fill="none" stroke="black" d="M819.29,-75C827.62,-75 836.19,-75 844.66,-75"/>
<polygon fill="black" stroke="black" points="844.92,-78.5 854.92,-75 844.92,-71.5 844.92,-78.5"/>
</g>
<!-- [203.68, 213.91]\n[58.49, 79.14] -->
<g id="node23" class="node">
<title>[203.68, 213.91]\n[58.49, 79.14]</title>
<polygon fill="none" stroke="black" points="990,-38 855,-38 855,0 990,0 990,-38"/>
<text text-anchor="middle" x="922.5" y="-22.8" font-family="Times,serif" font-size="14.00">[203.68, 213.91]</text>
<text text-anchor="middle" x="922.5" y="-7.8" font-family="Times,serif" font-size="14.00">[58.49, 79.14]</text>
</g>
<!-- [201.56, 213.91]\n[52.82, 79.14]&#45;&gt;[203.68, 213.91]\n[58.49, 79.14] -->
<g id="edge22" class="edge">
<title>[201.56, 213.91]\n[52.82, 79.14]&#45;&gt;[203.68, 213.91]\n[58.49, 79.14]</title>
<path fill="none" stroke="black" d="M810.19,-55.88C824.46,-51.15 839.88,-46.05 854.55,-41.18"/>
<polygon fill="black" stroke="black" points="855.68,-44.5 864.07,-38.03 853.48,-37.85 855.68,-44.5"/>
</g>
</g>
</svg>
