<?xml version="1.0" encoding="UTF-8" standalone="no"?>
<!DOCTYPE svg PUBLIC "-//W3C//DTD SVG 1.1//EN"
 "http://www.w3.org/Graphics/SVG/1.1/DTD/svg11.dtd">
<!-- Generated by graphviz version 2.43.0 (0)
 -->
<!-- Title: G Pages: 1 -->
<svg width="998pt" height="578pt"
 viewBox="0.00 0.00 998.00 578.00" xmlns="http://www.w3.org/2000/svg" xmlns:xlink="http://www.w3.org/1999/xlink">
<g id="graph0" class="graph" transform="scale(1 1) rotate(0) translate(4 574)">
<title>G</title>
<polygon fill="white" stroke="transparent" points="-4,4 -4,-574 994,-574 994,4 -4,4"/>
<!-- [160.95, 238.62]\n[6.95, 85.7] -->
<g id="node1" class="node">
<title>[160.95, 238.62]\n[6.95, 85.7]</title>
<polygon fill="none" stroke="black" points="135,-430 0,-430 0,-392 135,-392 135,-430"/>
<text text-anchor="middle" x="67.5" y="-414.8" font-family="Times,serif" font-size="14.00">[160.95, 238.62]</text>
<text text-anchor="middle" x="67.5" y="-399.8" font-family="Times,serif" font-size="14.00">[6.95, 85.7]</text>
</g>
<!-- [160.95, 215.83]\n[6.95, 40.01] -->
<g id="node2" class="node">
<title>[160.95, 215.83]\n[6.95, 40.01]</title>
<polygon fill="none" stroke="black" points="306,-486 171,-486 171,-448 306,-448 306,-486"/>
<text text-anchor="middle" x="238.5" y="-470.8" font-family="Times,serif" font-size="14.00">[160.95, 215.83]</text>
<text text-anchor="middle" x="238.5" y="-455.8" font-family="Times,serif" font-size="14.00">[6.95, 40.01]</text>
</g>
<!-- [160.95, 238.62]\n[6.95, 85.7]&#45;&gt;[160.95, 215.83]\n[6.95, 40.01] -->
<g id="edge1" class="edge">
<title>[160.95, 238.62]\n[6.95, 85.7]&#45;&gt;[160.95, 215.83]\n[6.95, 40.01]</title>
<path fill="none" stroke="black" d="M126.19,-430.12C140.46,-434.85 155.88,-439.95 170.55,-444.82"/>
<polygon fill="black" stroke="black" points="169.48,-448.15 180.07,-447.97 171.68,-441.5 169.48,-448.15"/>
</g>
<!-- [170.06, 238.62]\n[52.0, 85.7] -->
<g id="node3" class="node">
<title>[170.06, 238.62]\n[52.0, 85.7]</title>
<polygon fill="none" stroke="black" points="306,-346 171,-346 171,-308 306,-308 306,-346"/>
<text text-anchor="middle" x="238.5" y="-330.8" font-family="Times,serif" font-size="14.00">[170.06, 238.62]</text>
<text text-anchor="middle" x="238.5" y="-315.8" font-family="Times,serif" font-size="14.00">[52.0, 85.7]</text>
</g>
<!-- [160.95, 238.62]\n[6.95, 85.7]&#45;&gt;[170.06, 238.62]\n[52.0, 85.7] -->
<g id="edge2" class="edge">
<title>[160.95, 238.62]\n[6.95, 85.7]&#45;&gt;[170.06, 238.62]\n[52.0, 85.7]</title>
<path fill="none" stroke="black" d="M106.85,-391.94C131.5,-379.69 163.72,-363.67 189.99,-350.62"/>
<polygon fill="black" stroke="black" points="191.61,-353.72 199.01,-346.13 188.5,-347.45 191.61,-353.72"/>
</g>
<!-- [160.95, 160.95]\n[29.53, 29.53] -->
<g id="node4" class="node">
<title>[160.95, 160.95]\n[29.53, 29.53]</title>
<polygon fill="none" stroke="black" points="477,-542 342,-542 342,-504 477,-504 477,-542"/>
<text text-anchor="middle" x="409.5" y="-526.8" font-family="Times,serif" font-size="14.00">[160.95, 160.95]</text>
<text text-anchor="middle" x="409.5" y="-511.8" font-family="Times,serif" font-size="14.00">[29.53, 29.53]</text>
</g>
<!-- [160.95, 215.83]\n[6.95, 40.01]&#45;&gt;[160.95, 160.95]\n[29.53, 29.53] -->
<g id="edge3" class="edge">
<title>[160.95, 215.83]\n[6.95, 40.01]&#45;&gt;[160.95, 160.95]\n[29.53, 29.53]</title>
<path fill="none" stroke="black" d="M297.19,-486.12C311.46,-490.85 326.88,-495.95 341.55,-500.82"/>
<polygon fill="black" stroke="black" points="340.48,-504.15 351.07,-503.97 342.68,-497.5 340.48,-504.15"/>
</g>
<!-- [177.62, 215.83]\n[6.95, 40.01] -->
<g id="node5" class="node">
<title>[177.62, 215.83]\n[6.95, 40.01]</title>
<polygon fill="none" stroke="black" points="477,-486 342,-486 342,-448 477,-448 477,-486"/>
<text text-anchor="middle" x="409.5" y="-470.8" font-family="Times,serif" font-size="14.00">[177.62, 215.83]</text>
<text text-anchor="middle" x="409.5" y="-455.8" font-family="Times,serif" font-size="14.00">[6.95, 40.01]</text>
</g>
<!-- [160.95, 215.83]\n[6.95, 40.01]&#45;&gt;[177.62, 215.83]\n[6.95, 40.01] -->
<g id="edge4" class="edge">
<title>[160.95, 215.83]\n[6.95, 40.01]&#45;&gt;[177.62, 215.83]\n[6.95, 40.01]</title>
<path fill="none" stroke="black" d="M306.29,-467C314.62,-467 323.19,-467 331.66,-467"/>
<polygon fill="black" stroke="black" points="331.92,-470.5 341.92,-467 331.92,-463.5 331.92,-470.5"/>
</g>
<!-- [170.06, 205.61]\n[52.0, 85.7] -->
<g id="node12" class="node">
<title>[170.06, 205.61]\n[52.0, 85.7]</title>
<polygon fill="none" stroke="black" points="477,-346 342,-346 342,-308 477,-308 477,-346"/>
<text text-anchor="middle" x="409.5" y="-330.8" font-family="Times,serif" font-size="14.00">[170.06, 205.61]</text>
<text text-anchor="middle" x="409.5" y="-315.8" font-family="Times,serif" font-size="14.00">[52.0, 85.7]</text>
</g>
<!-- [170.06, 238.62]\n[52.0, 85.7]&#45;&gt;[170.06, 205.61]\n[52.0, 85.7] -->
<g id="edge11" class="edge">
<title>[170.06, 238.62]\n[52.0, 85.7]&#45;&gt;[170.06, 205.61]\n[52.0, 85.7]</title>
<path fill="none" stroke="black" d="M306.29,-327C314.62,-327 323.19,-327 331.66,-327"/>
<polygon fill="black" stroke="black" points="331.92,-330.5 341.92,-327 331.92,-323.5 331.92,-330.5"/>
</g>
<!-- [210.96, 238.62]\n[54.24, 79.14] -->
<g id="node13" class="node">
<title>[210.96, 238.62]\n[54.24, 79.14]</title>
<polygon fill="none" stroke="black" points="477,-178 342,-178 342,-140 477,-140 477,-178"/>
<text text-anchor="middle" x="409.5" y="-162.8" font-family="Times,serif" font-size="14.00">[210.96, 238.62]</text>
<text text-anchor="middle" x="409.5" y="-147.8" font-family="Times,serif" font-size="14.00">[54.24, 79.14]</text>
</g>
<!-- [170.06, 238.62]\n[52.0, 85.7]&#45;&gt;[210.96, 238.62]\n[54.24, 79.14] -->
<g id="edge12" class="edge">
<title>[170.06, 238.62]\n[52.0, 85.7]&#45;&gt;[210.96, 238.62]\n[54.24, 79.14]</title>
<path fill="none" stroke="black" d="M258.89,-307.73C289.19,-277.6 347.86,-219.28 382.03,-185.31"/>
<polygon fill="black" stroke="black" points="384.72,-187.58 389.34,-178.05 379.78,-182.61 384.72,-187.58"/>
</g>
<!-- [177.62, 177.62]\n[37.15, 37.15] -->
<g id="node6" class="node">
<title>[177.62, 177.62]\n[37.15, 37.15]</title>
<polygon fill="none" stroke="black" points="648,-542 513,-542 513,-504 648,-504 648,-542"/>
<text text-anchor="middle" x="580.5" y="-526.8" font-family="Times,serif" font-size="14.00">[177.62, 177.62]</text>
<text text-anchor="middle" x="580.5" y="-511.8" font-family="Times,serif" font-size="14.00">[37.15, 37.15]</text>
</g>
<!-- [177.62, 215.83]\n[6.95, 40.01]&#45;&gt;[177.62, 177.62]\n[37.15, 37.15] -->
<g id="edge5" class="edge">
<title>[177.62, 215.83]\n[6.95, 40.01]&#45;&gt;[177.62, 177.62]\n[37.15, 37.15]</title>
<path fill="none" stroke="black" d="M468.19,-486.12C482.46,-490.85 497.88,-495.95 512.55,-500.82"/>
<polygon fill="black" stroke="black" points="511.48,-504.15 522.07,-503.97 513.68,-497.5 511.48,-504.15"/>
</g>
<!-- [202.97, 215.83]\n[6.95, 40.01] -->
<g id="node7" class="node">
<title>[202.97, 215.83]\n[6.95, 40.01]</title>
<polygon fill="none" stroke="black" points="648,-486 513,-486 513,-448 648,-448 648,-486"/>
<text text-anchor="middle" x="580.5" y="-470.8" font-family="Times,serif" font-size="14.00">[202.97, 215.83]</text>
<text text-anchor="middle" x="580.5" y="-455.8" font-family="Times,serif" font-size="14.00">[6.95, 40.01]</text>
</g>
<!-- [177.62, 215.83]\n[6.95, 40.01]&#45;&gt;[202.97, 215.83]\n[6.95, 40.01] -->
<g id="edge6" class="edge">
<title>[177.62, 215.83]\n[6.95, 40.01]&#45;&gt;[202.97, 215.83]\n[6.95, 40.01]</title>
<path fill="none" stroke="black" d="M477.29,-467C485.62,-467 494.19,-467 502.66,-467"/>
<polygon fill="black" stroke="black" points="502.92,-470.5 512.92,-467 502.92,-463.5 502.92,-470.5"/>
</g>
<!-- [202.97, 212.74]\n[25.97, 40.01] -->
<g id="node8" class="node">
<title>[202.97, 212.74]\n[25.97, 40.01]</title>
<polygon fill="none" stroke="black" points="819,-542 684,-542 684,-504 819,-504 819,-542"/>
<text text-anchor="middle" x="751.5" y="-526.8" font-family="Times,serif" font-size="14.00">[202.97, 212.74]</text>
<text text-anchor="middle" x="751.5" y="-511.8" font-family="Times,serif" font-size="14.00">[25.97, 40.01]</text>
</g>
<!-- [202.97, 215.83]\n[6.95, 40.01]&#45;&gt;[202.97, 212.74]\n[25.97, 40.01] -->
<g id="edge7" class="edge">
<title>[202.97, 215.83]\n[6.95, 40.01]&#45;&gt;[202.97, 212.74]\n[25.97, 40.01]</title>
<path fill="none" stroke="black" d="M639.19,-486.12C653.46,-490.85 668.88,-495.95 683.55,-500.82"/>
<polygon fill="black" stroke="black" points="682.48,-504.15 693.07,-503.97 684.68,-497.5 682.48,-504.15"/>
</g>
<!-- [215.83, 215.83]\n[6.95, 6.95] -->
<g id="node9" class="node">
<title>[215.83, 215.83]\n[6.95, 6.95]</title>
<polygon fill="none" stroke="black" points="819,-486 684,-486 684,-448 819,-448 819,-486"/>
<text text-anchor="middle" x="751.5" y="-470.8" font-family="Times,serif" font-size="14.00">[215.83, 215.83]</text>
<text text-anchor="middle" x="751.5" y="-455.8" font-family="Times,serif" font-size="14.00">[6.95, 6.95]</text>
</g>
<!-- [202.97, 215.83]\n[6.95, 40.01]&#45;&gt;[215.83, 215.83]\n[6.95, 6.95] -->
<g id="edge8" class="edge">
<title>[202.97, 215.83]\n[6.95, 40.01]&#45;&gt;[215.83, 215.83]\n[6.95, 6.95]</title>
<path fill="none" stroke="black" d="M648.29,-467C656.62,-467 665.19,-467 673.66,-467"/>
<polygon fill="black" stroke="black" points="673.92,-470.5 683.92,-467 673.92,-463.5 673.92,-470.5"/>
</g>
<!-- [202.97, 202.97]\n[25.97, 25.97] -->
<g id="node10" class="node">
<title>[202.97, 202.97]\n[25.97, 25.97]</title>
<polygon fill="none" stroke="black" points="990,-570 855,-570 855,-532 990,-532 990,-570"/>
<text text-anchor="middle" x="922.5" y="-554.8" font-family="Times,serif" font-size="14.00">[202.97, 202.97]</text>
<text text-anchor="middle" x="922.5" y="-539.8" font-family="Times,serif" font-size="14.00">[25.97, 25.97]</text>
</g>
<!-- [202.97, 212.74]\n[25.97, 40.01]&#45;&gt;[202.97, 202.97]\n[25.97, 25.97] -->
<g id="edge9" class="edge">
<title>[202.97, 212.74]\n[25.97, 40.01]&#45;&gt;[202.97, 202.97]\n[25.97, 25.97]</title>
<path fill="none" stroke="black" d="M819.29,-534.07C827.72,-535.46 836.38,-536.9 844.94,-538.32"/>
<polygon fill="black" stroke="black" points="844.48,-541.79 854.92,-539.97 845.62,-534.88 844.48,-541.79"/>
</g>
<!-- [204.37, 212.74]\n[35.1, 40.01] -->
<g id="node11" class="node">
<title>[204.37, 212.74]\n[35.1, 40.01]</title>
<polygon fill="none" stroke="black" points="990,-514 855,-514 855,-476 990,-476 990,-514"/>
<text text-anchor="middle" x="922.5" y="-498.8" font-family="Times,serif" font-size="14.00">[204.37, 212.74]</text>
<text text-anchor="middle" x="922.5" y="-483.8" font-family="Times,serif" font-size="14.00">[35.1, 40.01]</text>
</g>
<!-- [202.97, 212.74]\n[25.97, 40.01]&#45;&gt;[204.37, 212.74]\n[35.1, 40.01] -->
<g id="edge10" class="edge">
<title>[202.97, 212.74]\n[25.97, 40.01]&#45;&gt;[204.37, 212.74]\n[35.1, 40.01]</title>
<path fill="none" stroke="black" d="M819.29,-511.93C827.72,-510.54 836.38,-509.1 844.94,-507.68"/>
<polygon fill="black" stroke="black" points="845.62,-511.12 854.92,-506.03 844.48,-504.21 845.62,-511.12"/>
</g>
<!-- [170.06, 205.61]\n[52.0, 70.75] -->
<g id="node14" class="node">
<title>[170.06, 205.61]\n[52.0, 70.75]</title>
<polygon fill="none" stroke="black" points="648,-374 513,-374 513,-336 648,-336 648,-374"/>
<text text-anchor="middle" x="580.5" y="-358.8" font-family="Times,serif" font-size="14.00">[170.06, 205.61]</text>
<text text-anchor="middle" x="580.5" y="-343.8" font-family="Times,serif" font-size="14.00">[52.0, 70.75]</text>
</g>
<!-- [170.06, 205.61]\n[52.0, 85.7]&#45;&gt;[170.06, 205.61]\n[52.0, 70.75] -->
<g id="edge13" class="edge">
<title>[170.06, 205.61]\n[52.0, 85.7]&#45;&gt;[170.06, 205.61]\n[52.0, 70.75]</title>
<path fill="none" stroke="black" d="M477.29,-338.07C485.72,-339.46 494.38,-340.9 502.94,-342.32"/>
<polygon fill="black" stroke="black" points="502.48,-345.79 512.92,-343.97 503.62,-338.88 502.48,-345.79"/>
</g>
<!-- [174.85, 204.38]\n[79.05, 85.7] -->
<g id="node15" class="node">
<title>[174.85, 204.38]\n[79.05, 85.7]</title>
<polygon fill="none" stroke="black" points="648,-318 513,-318 513,-280 648,-280 648,-318"/>
<text text-anchor="middle" x="580.5" y="-302.8" font-family="Times,serif" font-size="14.00">[174.85, 204.38]</text>
<text text-anchor="middle" x="580.5" y="-287.8" font-family="Times,serif" font-size="14.00">[79.05, 85.7]</text>
</g>
<!-- [170.06, 205.61]\n[52.0, 85.7]&#45;&gt;[174.85, 204.38]\n[79.05, 85.7] -->
<g id="edge14" class="edge">
<title>[170.06, 205.61]\n[52.0, 85.7]&#45;&gt;[174.85, 204.38]\n[79.05, 85.7]</title>
<path fill="none" stroke="black" d="M477.29,-315.93C485.72,-314.54 494.38,-313.1 502.94,-311.68"/>
<polygon fill="black" stroke="black" points="503.62,-315.12 512.92,-310.03 502.48,-308.21 503.62,-315.12"/>
</g>
<!-- [211.26, 238.62]\n[54.24, 70.66] -->
<g id="node24" class="node">
<title>[211.26, 238.62]\n[54.24, 70.66]</title>
<polygon fill="none" stroke="black" points="648,-178 513,-178 513,-140 648,-140 648,-178"/>
<text text-anchor="middle" x="580.5" y="-162.8" font-family="Times,serif" font-size="14.00">[211.26, 238.62]</text>
<text text-anchor="middle" x="580.5" y="-147.8" font-family="Times,serif" font-size="14.00">[54.24, 70.66]</text>
</g>
<!-- [210.96, 238.62]\n[54.24, 79.14]&#45;&gt;[211.26, 238.62]\n[54.24, 70.66] -->
<g id="edge23" class="edge">
<title>[210.96, 238.62]\n[54.24, 79.14]&#45;&gt;[211.26, 238.62]\n[54.24, 70.66]</title>
<path fill="none" stroke="black" d="M477.29,-159C485.62,-159 494.19,-159 502.66,-159"/>
<polygon fill="black" stroke="black" points="502.92,-162.5 512.92,-159 502.92,-155.5 502.92,-162.5"/>
</g>
<!-- [210.96, 210.96]\n[79.14, 79.14] -->
<g id="node25" class="node">
<title>[210.96, 210.96]\n[79.14, 79.14]</title>
<polygon fill="none" stroke="black" points="648,-122 513,-122 513,-84 648,-84 648,-122"/>
<text text-anchor="middle" x="580.5" y="-106.8" font-family="Times,serif" font-size="14.00">[210.96, 210.96]</text>
<text text-anchor="middle" x="580.5" y="-91.8" font-family="Times,serif" font-size="14.00">[79.14, 79.14]</text>
</g>
<!-- [210.96, 238.62]\n[54.24, 79.14]&#45;&gt;[210.96, 210.96]\n[79.14, 79.14] -->
<g id="edge24" class="edge">
<title>[210.96, 238.62]\n[54.24, 79.14]&#45;&gt;[210.96, 210.96]\n[79.14, 79.14]</title>
<path fill="none" stroke="black" d="M468.19,-139.88C482.46,-135.15 497.88,-130.05 512.55,-125.18"/>
<polygon fill="black" stroke="black" points="513.68,-128.5 522.07,-122.03 511.48,-121.85 513.68,-128.5"/>
</g>
<!-- [170.06, 170.06]\n[58.38, 58.38] -->
<g id="node16" class="node">
<title>[170.06, 170.06]\n[58.38, 58.38]</title>
<polygon fill="none" stroke="black" points="819,-430 684,-430 684,-392 819,-392 819,-430"/>
<text text-anchor="middle" x="751.5" y="-414.8" font-family="Times,serif" font-size="14.00">[170.06, 170.06]</text>
<text text-anchor="middle" x="751.5" y="-399.8" font-family="Times,serif" font-size="14.00">[58.38, 58.38]</text>
</g>
<!-- [170.06, 205.61]\n[52.0, 70.75]&#45;&gt;[170.06, 170.06]\n[58.38, 58.38] -->
<g id="edge15" class="edge">
<title>[170.06, 205.61]\n[52.0, 70.75]&#45;&gt;[170.06, 170.06]\n[58.38, 58.38]</title>
<path fill="none" stroke="black" d="M639.19,-374.12C653.46,-378.85 668.88,-383.95 683.55,-388.82"/>
<polygon fill="black" stroke="black" points="682.48,-392.15 693.07,-391.97 684.68,-385.5 682.48,-392.15"/>
</g>
<!-- [178.76, 205.61]\n[52.0, 70.75] -->
<g id="node17" class="node">
<title>[178.76, 205.61]\n[52.0, 70.75]</title>
<polygon fill="none" stroke="black" points="819,-374 684,-374 684,-336 819,-336 819,-374"/>
<text text-anchor="middle" x="751.5" y="-358.8" font-family="Times,serif" font-size="14.00">[178.76, 205.61]</text>
<text text-anchor="middle" x="751.5" y="-343.8" font-family="Times,serif" font-size="14.00">[52.0, 70.75]</text>
</g>
<!-- [170.06, 205.61]\n[52.0, 70.75]&#45;&gt;[178.76, 205.61]\n[52.0, 70.75] -->
<g id="edge16" class="edge">
<title>[170.06, 205.61]\n[52.0, 70.75]&#45;&gt;[178.76, 205.61]\n[52.0, 70.75]</title>
<path fill="none" stroke="black" d="M648.29,-355C656.62,-355 665.19,-355 673.66,-355"/>
<polygon fill="black" stroke="black" points="673.92,-358.5 683.92,-355 673.92,-351.5 673.92,-358.5"/>
</g>
<!-- [178.12, 178.12]\n[79.05, 79.05] -->
<g id="node20" class="node">
<title>[178.12, 178.12]\n[79.05, 79.05]</title>
<polygon fill="none" stroke="black" points="819,-318 684,-318 684,-280 819,-280 819,-318"/>
<text text-anchor="middle" x="751.5" y="-302.8" font-family="Times,serif" font-size="14.00">[178.12, 178.12]</text>
<text text-anchor="middle" x="751.5" y="-287.8" font-family="Times,serif" font-size="14.00">[79.05, 79.05]</text>
</g>
<!-- [174.85, 204.38]\n[79.05, 85.7]&#45;&gt;[178.12, 178.12]\n[79.05, 79.05] -->
<g id="edge19" class="edge">
<title>[174.85, 204.38]\n[79.05, 85.7]&#45;&gt;[178.12, 178.12]\n[79.05, 79.05]</title>
<path fill="none" stroke="black" d="M648.29,-299C656.62,-299 665.19,-299 673.66,-299"/>
<polygon fill="black" stroke="black" points="673.92,-302.5 683.92,-299 673.92,-295.5 673.92,-302.5"/>
</g>
<!-- [174.85, 204.38]\n[80.45, 85.7] -->
<g id="node21" class="node">
<title>[174.85, 204.38]\n[80.45, 85.7]</title>
<polygon fill="none" stroke="black" points="819,-262 684,-262 684,-224 819,-224 819,-262"/>
<text text-anchor="middle" x="751.5" y="-246.8" font-family="Times,serif" font-size="14.00">[174.85, 204.38]</text>
<text text-anchor="middle" x="751.5" y="-231.8" font-family="Times,serif" font-size="14.00">[80.45, 85.7]</text>
</g>
<!-- [174.85, 204.38]\n[79.05, 85.7]&#45;&gt;[174.85, 204.38]\n[80.45, 85.7] -->
<g id="edge20" class="edge">
<title>[174.85, 204.38]\n[79.05, 85.7]&#45;&gt;[174.85, 204.38]\n[80.45, 85.7]</title>
<path fill="none" stroke="black" d="M639.19,-279.88C653.46,-275.15 668.88,-270.05 683.55,-265.18"/>
<polygon fill="black" stroke="black" points="684.68,-268.5 693.07,-262.03 682.48,-261.85 684.68,-268.5"/>
</g>
<!-- [178.76, 201.56]\n[52.0, 52.82] -->
<g id="node18" class="node">
<title>[178.76, 201.56]\n[52.0, 52.82]</title>
<polygon fill="none" stroke="black" points="990,-430 855,-430 855,-392 990,-392 990,-430"/>
<text text-anchor="middle" x="922.5" y="-414.8" font-family="Times,serif" font-size="14.00">[178.76, 201.56]</text>
<text text-anchor="middle" x="922.5" y="-399.8" font-family="Times,serif" font-size="14.00">[52.0, 52.82]</text>
</g>
<!-- [178.76, 205.61]\n[52.0, 70.75]&#45;&gt;[178.76, 201.56]\n[52.0, 52.82] -->
<g id="edge17" class="edge">
<title>[178.76, 205.61]\n[52.0, 70.75]&#45;&gt;[178.76, 201.56]\n[52.0, 52.82]</title>
<path fill="none" stroke="black" d="M810.19,-374.12C824.46,-378.85 839.88,-383.95 854.55,-388.82"/>
<polygon fill="black" stroke="black" points="853.48,-392.15 864.07,-391.97 855.68,-385.5 853.48,-392.15"/>
</g>
<!-- [181.41, 205.61]\n[59.41, 70.75] -->
<g id="node19" class="node">
<title>[181.41, 205.61]\n[59.41, 70.75]</title>
<polygon fill="none" stroke="black" points="990,-374 855,-374 855,-336 990,-336 990,-374"/>
<text text-anchor="middle" x="922.5" y="-358.8" font-family="Times,serif" font-size="14.00">[181.41, 205.61]</text>
<text text-anchor="middle" x="922.5" y="-343.8" font-family="Times,serif" font-size="14.00">[59.41, 70.75]</text>
</g>
<!-- [178.76, 205.61]\n[52.0, 70.75]&#45;&gt;[181.41, 205.61]\n[59.41, 70.75] -->
<g id="edge18" class="edge">
<title>[178.76, 205.61]\n[52.0, 70.75]&#45;&gt;[181.41, 205.61]\n[59.41, 70.75]</title>
<path fill="none" stroke="black" d="M819.29,-355C827.62,-355 836.19,-355 844.66,-355"/>
<polygon fill="black" stroke="black" points="844.92,-358.5 854.92,-355 844.92,-351.5 844.92,-358.5"/>
</g>
<!-- [204.38, 204.38]\n[80.45, 80.45] -->
<g id="node22" class="node">
<title>[204.38, 204.38]\n[80.45, 80.45]</title>
<polygon fill="none" stroke="black" points="990,-318 855,-318 855,-280 990,-280 990,-318"/>
<text text-anchor="middle" x="922.5" y="-302.8" font-family="Times,serif" font-size="14.00">[204.38, 204.38]</text>
<text text-anchor="middle" x="922.5" y="-287.8" font-family="Times,serif" font-size="14.00">[80.45, 80.45]</text>
</g>
<!-- [174.85, 204.38]\n[80.45, 85.7]&#45;&gt;[204.38, 204.38]\n[80.45, 80.45] -->
<g id="edge21" class="edge">
<title>[174.85, 204.38]\n[80.45, 85.7]&#45;&gt;[204.38, 204.38]\n[80.45, 80.45]</title>
<path fill="none" stroke="black" d="M810.19,-262.12C824.46,-266.85 839.88,-271.95 854.55,-276.82"/>
<polygon fill="black" stroke="black" points="853.48,-280.15 864.07,-279.97 855.68,-273.5 853.48,-280.15"/>
</g>
<!-- [174.85, 174.85]\n[85.7, 85.7] -->
<g id="node23" class="node">
<title>[174.85, 174.85]\n[85.7, 85.7]</title>
<polygon fill="none" stroke="black" points="990,-262 855,-262 855,-224 990,-224 990,-262"/>
<text text-anchor="middle" x="922.5" y="-246.8" font-family="Times,serif" font-size="14.00">[174.85, 174.85]</text>
<text text-anchor="middle" x="922.5" y="-231.8" font-family="Times,serif" font-size="14.00">[85.7, 85.7]</text>
</g>
<!-- [174.85, 204.38]\n[80.45, 85.7]&#45;&gt;[174.85, 174.85]\n[85.7, 85.7] -->
<g id="edge22" class="edge">
<title>[174.85, 204.38]\n[80.45, 85.7]&#45;&gt;[174.85, 174.85]\n[85.7, 85.7]</title>
<path fill="none" stroke="black" d="M819.29,-243C827.62,-243 836.19,-243 844.66,-243"/>
<polygon fill="black" stroke="black" points="844.92,-246.5 854.92,-243 844.92,-239.5 844.92,-246.5"/>
</g>
<!-- [211.26, 238.62]\n[54.24, 58.49] -->
<g id="node26" class="node">
<title>[211.26, 238.62]\n[54.24, 58.49]</title>
<polygon fill="none" stroke="black" points="819,-178 684,-178 684,-140 819,-140 819,-178"/>
<text text-anchor="middle" x="751.5" y="-162.8" font-family="Times,serif" font-size="14.00">[211.26, 238.62]</text>
<text text-anchor="middle" x="751.5" y="-147.8" font-family="Times,serif" font-size="14.00">[54.24, 58.49]</text>
</g>
<!-- [211.26, 238.62]\n[54.24, 70.66]&#45;&gt;[211.26, 238.62]\n[54.24, 58.49] -->
<g id="edge25" class="edge">
<title>[211.26, 238.62]\n[54.24, 70.66]&#45;&gt;[211.26, 238.62]\n[54.24, 58.49]</title>
<path fill="none" stroke="black" d="M648.29,-159C656.62,-159 665.19,-159 673.66,-159"/>
<polygon fill="black" stroke="black" points="673.92,-162.5 683.92,-159 673.92,-155.5 673.92,-162.5"/>
</g>
<!-- [213.91, 237.66]\n[70.29, 70.66] -->
<g id="node27" class="node">
<title>[213.91, 237.66]\n[70.29, 70.66]</title>
<polygon fill="none" stroke="black" points="819,-94 684,-94 684,-56 819,-56 819,-94"/>
<text text-anchor="middle" x="751.5" y="-78.8" font-family="Times,serif" font-size="14.00">[213.91, 237.66]</text>
<text text-anchor="middle" x="751.5" y="-63.8" font-family="Times,serif" font-size="14.00">[70.29, 70.66]</text>
</g>
<!-- [211.26, 238.62]\n[54.24, 70.66]&#45;&gt;[213.91, 237.66]\n[70.29, 70.66] -->
<g id="edge26" class="edge">
<title>[211.26, 238.62]\n[54.24, 70.66]&#45;&gt;[213.91, 237.66]\n[70.29, 70.66]</title>
<path fill="none" stroke="black" d="M628.63,-139.86C635.19,-136.99 641.79,-133.99 648,-131 668.41,-121.16 690.52,-109.24 708.97,-98.94"/>
<polygon fill="black" stroke="black" points="710.71,-101.98 717.71,-94.02 707.28,-95.87 710.71,-101.98"/>
</g>
<!-- [238.62, 238.62]\n[54.24, 54.24] -->
<g id="node28" class="node">
<title>[238.62, 238.62]\n[54.24, 54.24]</title>
<polygon fill="none" stroke="black" points="990,-206 855,-206 855,-168 990,-168 990,-206"/>
<text text-anchor="middle" x="922.5" y="-190.8" font-family="Times,serif" font-size="14.00">[238.62, 238.62]</text>
<text text-anchor="middle" x="922.5" y="-175.8" font-family="Times,serif" font-size="14.00">[54.24, 54.24]</text>
</g>
<!-- [211.26, 238.62]\n[54.24, 58.49]&#45;&gt;[238.62, 238.62]\n[54.24, 54.24] -->
<g id="edge27" class="edge">
<title>[211.26, 238.62]\n[54.24, 58.49]&#45;&gt;[238.62, 238.62]\n[54.24, 54.24]</title>
<path fill="none" stroke="black" d="M819.29,-170.07C827.72,-171.46 836.38,-172.9 844.94,-174.32"/>
<polygon fill="black" stroke="black" points="844.48,-177.79 854.92,-175.97 845.62,-170.88 844.48,-177.79"/>
</g>
<!-- [211.26, 211.26]\n[58.49, 58.49] -->
<g id="node29" class="node">
<title>[211.26, 211.26]\n[58.49, 58.49]</title>
<polygon fill="none" stroke="black" points="990,-150 855,-150 855,-112 990,-112 990,-150"/>
<text text-anchor="middle" x="922.5" y="-134.8" font-family="Times,serif" font-size="14.00">[211.26, 211.26]</text>
<text text-anchor="middle" x="922.5" y="-119.8" font-family="Times,serif" font-size="14.00">[58.49, 58.49]</text>
</g>
<!-- [211.26, 238.62]\n[54.24, 58.49]&#45;&gt;[211.26, 211.26]\n[58.49, 58.49] -->
<g id="edge28" class="edge">
<title>[211.26, 238.62]\n[54.24, 58.49]&#45;&gt;[211.26, 211.26]\n[58.49, 58.49]</title>
<path fill="none" stroke="black" d="M819.29,-147.93C827.72,-146.54 836.38,-145.1 844.94,-143.68"/>
<polygon fill="black" stroke="black" points="845.62,-147.12 854.92,-142.03 844.48,-140.21 845.62,-147.12"/>
</g>
<!-- [213.91, 213.91]\n[70.29, 70.29] -->
<g id="node30" class="node">
<title>[213.91, 213.91]\n[70.29, 70.29]</title>
<polygon fill="none" stroke="black" points="990,-94 855,-94 855,-56 990,-56 990,-94"/>
<text text-anchor="middle" x="922.5" y="-78.8" font-family="Times,serif" font-size="14.00">[213.91, 213.91]</text>
<text text-anchor="middle" x="922.5" y="-63.8" font-family="Times,serif" font-size="14.00">[70.29, 70.29]</text>
</g>
<!-- [213.91, 237.66]\n[70.29, 70.66]&#45;&gt;[213.91, 213.91]\n[70.29, 70.29] -->
<g id="edge29" class="edge">
<title>[213.91, 237.66]\n[70.29, 70.66]&#45;&gt;[213.91, 213.91]\n[70.29, 70.29]</title>
<path fill="none" stroke="black" d="M819.29,-75C827.62,-75 836.19,-75 844.66,-75"/>
<polygon fill="black" stroke="black" points="844.92,-78.5 854.92,-75 844.92,-71.5 844.92,-78.5"/>
</g>
<!-- [237.66, 237.66]\n[70.66, 70.66] -->
<g id="node31" class="node">
<title>[237.66, 237.66]\n[70.66, 70.66]</title>
<polygon fill="none" stroke="black" points="990,-38 855,-38 855,0 990,0 990,-38"/>
<text text-anchor="middle" x="922.5" y="-22.8" font-family="Times,serif" font-size="14.00">[237.66, 237.66]</text>
<text text-anchor="middle" x="922.5" y="-7.8" font-family="Times,serif" font-size="14.00">[70.66, 70.66]</text>
</g>
<!-- [213.91, 237.66]\n[70.29, 70.66]&#45;&gt;[237.66, 237.66]\n[70.66, 70.66] -->
<g id="edge30" class="edge">
<title>[213.91, 237.66]\n[70.29, 70.66]&#45;&gt;[237.66, 237.66]\n[70.66, 70.66]</title>
<path fill="none" stroke="black" d="M810.19,-55.88C824.46,-51.15 839.88,-46.05 854.55,-41.18"/>
<polygon fill="black" stroke="black" points="855.68,-44.5 864.07,-38.03 853.48,-37.85 855.68,-44.5"/>
</g>
</g>
</svg>
