<?xml version="1.0" encoding="UTF-8" standalone="no"?>
<!DOCTYPE svg PUBLIC "-//W3C//DTD SVG 1.1//EN"
 "http://www.w3.org/Graphics/SVG/1.1/DTD/svg11.dtd">
<!-- Generated by graphviz version 12.0.0 (0)
 -->
<!-- Title: G Pages: 1 -->
<svg width="1506pt" height="507pt"
 viewBox="0.00 0.00 1505.75 506.75" xmlns="http://www.w3.org/2000/svg" xmlns:xlink="http://www.w3.org/1999/xlink">
<g id="graph0" class="graph" transform="scale(1 1) rotate(0) translate(4 502.75)">
<title>G</title>
<polygon fill="white" stroke="none" points="-4,4 -4,-502.75 1501.75,-502.75 1501.75,4 -4,4"/>
<!-- [15.0..105.0, 10.0..100.0] -->
<g id="node1" class="node">
<title>[15.0..105.0, 10.0..100.0]</title>
<polygon fill="none" stroke="black" points="223,-222.75 0,-222.75 0,-172 223,-172 223,-222.75"/>
<text text-anchor="middle" x="111.5" y="-205.45" font-family="Times,serif" font-size="14.00">borders: [[15.0, 105.0], [10.0, 100.0]]</text>
<text text-anchor="middle" x="111.5" y="-191.2" font-family="Times,serif" font-size="14.00">sp: 72.63</text>
<text text-anchor="middle" x="111.5" y="-176.95" font-family="Times,serif" font-size="14.00">dim: 1</text>
</g>
<!-- [90.0..105.0, 10.0..30.0] -->
<g id="node2" class="node">
<title>[90.0..105.0, 10.0..30.0]</title>
<polygon fill="none" stroke="black" points="475.25,-257.75 259,-257.75 259,-207 475.25,-207 475.25,-257.75"/>
<text text-anchor="middle" x="367.12" y="-240.45" font-family="Times,serif" font-size="14.00">borders: [[90.0, 105.0], [10.0, 30.0]]</text>
<text text-anchor="middle" x="367.12" y="-226.2" font-family="Times,serif" font-size="14.00">sp: 103.08</text>
<text text-anchor="middle" x="367.12" y="-211.95" font-family="Times,serif" font-size="14.00">dim: 0</text>
</g>
<!-- [15.0..105.0, 10.0..100.0]&#45;&gt;[90.0..105.0, 10.0..30.0] -->
<g id="edge1" class="edge">
<title>[15.0..105.0, 10.0..100.0]&#45;&gt;[90.0..105.0, 10.0..30.0]</title>
<path fill="none" stroke="black" d="M223.37,-212.68C231.35,-213.78 239.41,-214.89 247.42,-215.99"/>
<polygon fill="black" stroke="black" points="246.82,-219.44 257.21,-217.34 247.78,-212.51 246.82,-219.44"/>
</g>
<!-- [15.0..35.0, 85.0..100.0] -->
<g id="node13" class="node">
<title>[15.0..35.0, 85.0..100.0]</title>
<polygon fill="none" stroke="black" points="475.25,-188.75 259,-188.75 259,-138 475.25,-138 475.25,-188.75"/>
<text text-anchor="middle" x="367.12" y="-171.45" font-family="Times,serif" font-size="14.00">borders: [[15.0, 35.0], [85.0, 100.0]]</text>
<text text-anchor="middle" x="367.12" y="-157.2" font-family="Times,serif" font-size="14.00">sp: 20.32</text>
<text text-anchor="middle" x="367.12" y="-142.95" font-family="Times,serif" font-size="14.00">dim: 0</text>
</g>
<!-- [15.0..105.0, 10.0..100.0]&#45;&gt;[15.0..35.0, 85.0..100.0] -->
<g id="edge2" class="edge">
<title>[15.0..105.0, 10.0..100.0]&#45;&gt;[15.0..35.0, 85.0..100.0]</title>
<path fill="none" stroke="black" d="M223.37,-182.51C231.35,-181.44 239.41,-180.36 247.42,-179.29"/>
<polygon fill="black" stroke="black" points="247.76,-182.77 257.21,-177.98 246.83,-175.84 247.76,-182.77"/>
</g>
<!-- [90.0..95.0, 10.0..30.0] -->
<g id="node3" class="node">
<title>[90.0..95.0, 10.0..30.0]</title>
<polygon fill="none" stroke="black" points="727.5,-326.75 518,-326.75 518,-276 727.5,-276 727.5,-326.75"/>
<text text-anchor="middle" x="622.75" y="-309.45" font-family="Times,serif" font-size="14.00">borders: [[90.0, 95.0], [10.0, 30.0]]</text>
<text text-anchor="middle" x="622.75" y="-295.2" font-family="Times,serif" font-size="14.00">sp: 93.9</text>
<text text-anchor="middle" x="622.75" y="-280.95" font-family="Times,serif" font-size="14.00">dim: 0</text>
</g>
<!-- [90.0..105.0, 10.0..30.0]&#45;&gt;[90.0..95.0, 10.0..30.0] -->
<g id="edge3" class="edge">
<title>[90.0..105.0, 10.0..30.0]&#45;&gt;[90.0..95.0, 10.0..30.0]</title>
<path fill="none" stroke="black" d="M462.93,-258.17C480.17,-262.86 498.26,-267.78 515.8,-272.55"/>
<polygon fill="black" stroke="black" points="514.61,-275.85 525.18,-275.1 516.45,-269.1 514.61,-275.85"/>
</g>
<!-- [105.0..105.0, 20.0..20.0] -->
<g id="node12" class="node">
<title>[105.0..105.0, 20.0..20.0]</title>
<polygon fill="none" stroke="black" points="734.25,-257.75 511.25,-257.75 511.25,-207 734.25,-207 734.25,-257.75"/>
<text text-anchor="middle" x="622.75" y="-240.45" font-family="Times,serif" font-size="14.00">borders: [[105.0, 105.0], [20.0, 20.0]]</text>
<text text-anchor="middle" x="622.75" y="-226.2" font-family="Times,serif" font-size="14.00">path_length: 2</text>
<text text-anchor="middle" x="622.75" y="-211.95" font-family="Times,serif" font-size="14.00">depth: 2</text>
</g>
<!-- [90.0..105.0, 10.0..30.0]&#45;&gt;[105.0..105.0, 20.0..20.0] -->
<g id="edge4" class="edge">
<title>[90.0..105.0, 10.0..30.0]&#45;&gt;[105.0..105.0, 20.0..20.0]</title>
<path fill="none" stroke="black" d="M475.68,-232.38C483.49,-232.38 491.39,-232.38 499.26,-232.38"/>
<polygon fill="black" stroke="black" points="499.26,-235.88 509.26,-232.38 499.26,-228.88 499.26,-235.88"/>
</g>
<!-- [90.0..90.0, 10.0..30.0] -->
<g id="node4" class="node">
<title>[90.0..90.0, 10.0..30.0]</title>
<polygon fill="none" stroke="black" points="983.12,-395.75 773.62,-395.75 773.62,-345 983.12,-345 983.12,-395.75"/>
<text text-anchor="middle" x="878.38" y="-378.45" font-family="Times,serif" font-size="14.00">borders: [[90.0, 90.0], [10.0, 30.0]]</text>
<text text-anchor="middle" x="878.38" y="-364.2" font-family="Times,serif" font-size="14.00">sp: 27.64</text>
<text text-anchor="middle" x="878.38" y="-349.95" font-family="Times,serif" font-size="14.00">dim: 1</text>
</g>
<!-- [90.0..95.0, 10.0..30.0]&#45;&gt;[90.0..90.0, 10.0..30.0] -->
<g id="edge5" class="edge">
<title>[90.0..95.0, 10.0..30.0]&#45;&gt;[90.0..90.0, 10.0..30.0]</title>
<path fill="none" stroke="black" d="M718.55,-327.17C735.8,-331.86 753.89,-336.78 771.43,-341.55"/>
<polygon fill="black" stroke="black" points="770.24,-344.85 780.81,-344.1 772.08,-338.1 770.24,-344.85"/>
</g>
<!-- [95.0..95.0, 15.0..25.0] -->
<g id="node9" class="node">
<title>[95.0..95.0, 15.0..25.0]</title>
<polygon fill="none" stroke="black" points="983.12,-326.75 773.62,-326.75 773.62,-276 983.12,-276 983.12,-326.75"/>
<text text-anchor="middle" x="878.38" y="-309.45" font-family="Times,serif" font-size="14.00">borders: [[95.0, 95.0], [15.0, 25.0]]</text>
<text text-anchor="middle" x="878.38" y="-295.2" font-family="Times,serif" font-size="14.00">sp: 15.78</text>
<text text-anchor="middle" x="878.38" y="-280.95" font-family="Times,serif" font-size="14.00">dim: 1</text>
</g>
<!-- [90.0..95.0, 10.0..30.0]&#45;&gt;[95.0..95.0, 15.0..25.0] -->
<g id="edge6" class="edge">
<title>[90.0..95.0, 10.0..30.0]&#45;&gt;[95.0..95.0, 15.0..25.0]</title>
<path fill="none" stroke="black" d="M727.64,-301.38C738.93,-301.38 750.46,-301.38 761.88,-301.38"/>
<polygon fill="black" stroke="black" points="761.72,-304.88 771.72,-301.38 761.72,-297.88 761.72,-304.88"/>
</g>
<!-- [90.0..90.0, 10.0..20.0] -->
<g id="node5" class="node">
<title>[90.0..90.0, 10.0..20.0]</title>
<polygon fill="none" stroke="black" points="1235.38,-464.75 1025.88,-464.75 1025.88,-414 1235.38,-414 1235.38,-464.75"/>
<text text-anchor="middle" x="1130.62" y="-447.45" font-family="Times,serif" font-size="14.00">borders: [[90.0, 90.0], [10.0, 20.0]]</text>
<text text-anchor="middle" x="1130.62" y="-433.2" font-family="Times,serif" font-size="14.00">sp: 11.08</text>
<text text-anchor="middle" x="1130.62" y="-418.95" font-family="Times,serif" font-size="14.00">dim: 1</text>
</g>
<!-- [90.0..90.0, 10.0..30.0]&#45;&gt;[90.0..90.0, 10.0..20.0] -->
<g id="edge7" class="edge">
<title>[90.0..90.0, 10.0..30.0]&#45;&gt;[90.0..90.0, 10.0..20.0]</title>
<path fill="none" stroke="black" d="M972.91,-396.17C989.93,-400.86 1007.78,-405.78 1025.09,-410.55"/>
<polygon fill="black" stroke="black" points="1023.75,-413.81 1034.32,-413.1 1025.61,-407.07 1023.75,-413.81"/>
</g>
<!-- [90.0..90.0, 30.0..30.0] -->
<g id="node8" class="node">
<title>[90.0..90.0, 30.0..30.0]</title>
<polygon fill="none" stroke="black" points="1235.38,-395.75 1025.88,-395.75 1025.88,-345 1235.38,-345 1235.38,-395.75"/>
<text text-anchor="middle" x="1130.62" y="-378.45" font-family="Times,serif" font-size="14.00">borders: [[90.0, 90.0], [30.0, 30.0]]</text>
<text text-anchor="middle" x="1130.62" y="-364.2" font-family="Times,serif" font-size="14.00">path_length: 4</text>
<text text-anchor="middle" x="1130.62" y="-349.95" font-family="Times,serif" font-size="14.00">depth: 4</text>
</g>
<!-- [90.0..90.0, 10.0..30.0]&#45;&gt;[90.0..90.0, 30.0..30.0] -->
<g id="edge8" class="edge">
<title>[90.0..90.0, 10.0..30.0]&#45;&gt;[90.0..90.0, 30.0..30.0]</title>
<path fill="none" stroke="black" d="M983.33,-370.38C993.59,-370.38 1004.04,-370.38 1014.4,-370.38"/>
<polygon fill="black" stroke="black" points="1014.08,-373.88 1024.08,-370.38 1014.08,-366.88 1014.08,-373.88"/>
</g>
<!-- [90.0..90.0, 10.0..10.0] -->
<g id="node6" class="node">
<title>[90.0..90.0, 10.0..10.0]</title>
<polygon fill="none" stroke="black" points="1491,-498.75 1281.5,-498.75 1281.5,-448 1491,-448 1491,-498.75"/>
<text text-anchor="middle" x="1386.25" y="-481.45" font-family="Times,serif" font-size="14.00">borders: [[90.0, 90.0], [10.0, 10.0]]</text>
<text text-anchor="middle" x="1386.25" y="-467.2" font-family="Times,serif" font-size="14.00">path_length: 5</text>
<text text-anchor="middle" x="1386.25" y="-452.95" font-family="Times,serif" font-size="14.00">depth: 5</text>
</g>
<!-- [90.0..90.0, 10.0..20.0]&#45;&gt;[90.0..90.0, 10.0..10.0] -->
<g id="edge9" class="edge">
<title>[90.0..90.0, 10.0..20.0]&#45;&gt;[90.0..90.0, 10.0..10.0]</title>
<path fill="none" stroke="black" d="M1235.52,-453.3C1246.8,-454.82 1258.34,-456.36 1269.75,-457.89"/>
<polygon fill="black" stroke="black" points="1269.23,-461.35 1279.61,-459.21 1270.16,-454.42 1269.23,-461.35"/>
</g>
<!-- [90.0..90.0, 20.0..20.0] -->
<g id="node7" class="node">
<title>[90.0..90.0, 20.0..20.0]</title>
<polygon fill="none" stroke="black" points="1491,-429.75 1281.5,-429.75 1281.5,-379 1491,-379 1491,-429.75"/>
<text text-anchor="middle" x="1386.25" y="-412.45" font-family="Times,serif" font-size="14.00">borders: [[90.0, 90.0], [20.0, 20.0]]</text>
<text text-anchor="middle" x="1386.25" y="-398.2" font-family="Times,serif" font-size="14.00">path_length: 5</text>
<text text-anchor="middle" x="1386.25" y="-383.95" font-family="Times,serif" font-size="14.00">depth: 5</text>
</g>
<!-- [90.0..90.0, 10.0..20.0]&#45;&gt;[90.0..90.0, 20.0..20.0] -->
<g id="edge10" class="edge">
<title>[90.0..90.0, 10.0..20.0]&#45;&gt;[90.0..90.0, 20.0..20.0]</title>
<path fill="none" stroke="black" d="M1235.52,-425.04C1246.8,-423.48 1258.34,-421.89 1269.75,-420.31"/>
<polygon fill="black" stroke="black" points="1270.18,-423.79 1279.61,-418.95 1269.23,-416.85 1270.18,-423.79"/>
</g>
<!-- [95.0..95.0, 15.0..15.0] -->
<g id="node10" class="node">
<title>[95.0..95.0, 15.0..15.0]</title>
<polygon fill="none" stroke="black" points="1235.38,-326.75 1025.88,-326.75 1025.88,-276 1235.38,-276 1235.38,-326.75"/>
<text text-anchor="middle" x="1130.62" y="-309.45" font-family="Times,serif" font-size="14.00">borders: [[95.0, 95.0], [15.0, 15.0]]</text>
<text text-anchor="middle" x="1130.62" y="-295.2" font-family="Times,serif" font-size="14.00">path_length: 4</text>
<text text-anchor="middle" x="1130.62" y="-280.95" font-family="Times,serif" font-size="14.00">depth: 4</text>
</g>
<!-- [95.0..95.0, 15.0..25.0]&#45;&gt;[95.0..95.0, 15.0..15.0] -->
<g id="edge11" class="edge">
<title>[95.0..95.0, 15.0..25.0]&#45;&gt;[95.0..95.0, 15.0..15.0]</title>
<path fill="none" stroke="black" d="M983.33,-301.38C993.59,-301.38 1004.04,-301.38 1014.4,-301.38"/>
<polygon fill="black" stroke="black" points="1014.08,-304.88 1024.08,-301.38 1014.08,-297.88 1014.08,-304.88"/>
</g>
<!-- [95.0..95.0, 25.0..25.0] -->
<g id="node11" class="node">
<title>[95.0..95.0, 25.0..25.0]</title>
<polygon fill="none" stroke="black" points="1235.38,-257.75 1025.88,-257.75 1025.88,-207 1235.38,-207 1235.38,-257.75"/>
<text text-anchor="middle" x="1130.62" y="-240.45" font-family="Times,serif" font-size="14.00">borders: [[95.0, 95.0], [25.0, 25.0]]</text>
<text text-anchor="middle" x="1130.62" y="-226.2" font-family="Times,serif" font-size="14.00">path_length: 4</text>
<text text-anchor="middle" x="1130.62" y="-211.95" font-family="Times,serif" font-size="14.00">depth: 4</text>
</g>
<!-- [95.0..95.0, 15.0..25.0]&#45;&gt;[95.0..95.0, 25.0..25.0] -->
<g id="edge12" class="edge">
<title>[95.0..95.0, 15.0..25.0]&#45;&gt;[95.0..95.0, 25.0..25.0]</title>
<path fill="none" stroke="black" d="M972.91,-275.58C989.93,-270.89 1007.78,-265.97 1025.09,-261.2"/>
<polygon fill="black" stroke="black" points="1025.61,-264.68 1034.32,-258.65 1023.75,-257.94 1025.61,-264.68"/>
</g>
<!-- [15.0..20.0, 85.0..90.0] -->
<g id="node14" class="node">
<title>[15.0..20.0, 85.0..90.0]</title>
<polygon fill="none" stroke="black" points="727.5,-188.75 518,-188.75 518,-138 727.5,-138 727.5,-188.75"/>
<text text-anchor="middle" x="622.75" y="-171.45" font-family="Times,serif" font-size="14.00">borders: [[15.0, 20.0], [85.0, 90.0]]</text>
<text text-anchor="middle" x="622.75" y="-157.2" font-family="Times,serif" font-size="14.00">sp: 19.82</text>
<text text-anchor="middle" x="622.75" y="-142.95" font-family="Times,serif" font-size="14.00">dim: 0</text>
</g>
<!-- [15.0..35.0, 85.0..100.0]&#45;&gt;[15.0..20.0, 85.0..90.0] -->
<g id="edge13" class="edge">
<title>[15.0..35.0, 85.0..100.0]&#45;&gt;[15.0..20.0, 85.0..90.0]</title>
<path fill="none" stroke="black" d="M475.68,-163.38C485.79,-163.38 496.06,-163.38 506.23,-163.38"/>
<polygon fill="black" stroke="black" points="506.15,-166.88 516.15,-163.38 506.15,-159.88 506.15,-166.88"/>
</g>
<!-- [25.0..35.0, 85.0..100.0] -->
<g id="node17" class="node">
<title>[25.0..35.0, 85.0..100.0]</title>
<polygon fill="none" stroke="black" points="730.88,-119.75 514.62,-119.75 514.62,-69 730.88,-69 730.88,-119.75"/>
<text text-anchor="middle" x="622.75" y="-102.45" font-family="Times,serif" font-size="14.00">borders: [[25.0, 35.0], [85.0, 100.0]]</text>
<text text-anchor="middle" x="622.75" y="-88.2" font-family="Times,serif" font-size="14.00">sp: 30.17</text>
<text text-anchor="middle" x="622.75" y="-73.95" font-family="Times,serif" font-size="14.00">dim: 0</text>
</g>
<!-- [15.0..35.0, 85.0..100.0]&#45;&gt;[25.0..35.0, 85.0..100.0] -->
<g id="edge14" class="edge">
<title>[15.0..35.0, 85.0..100.0]&#45;&gt;[25.0..35.0, 85.0..100.0]</title>
<path fill="none" stroke="black" d="M462.93,-137.58C480.17,-132.89 498.26,-127.97 515.8,-123.2"/>
<polygon fill="black" stroke="black" points="516.45,-126.65 525.18,-120.65 514.61,-119.9 516.45,-126.65"/>
</g>
<!-- [15.0..15.0, 85.0..85.0] -->
<g id="node15" class="node">
<title>[15.0..15.0, 85.0..85.0]</title>
<polygon fill="none" stroke="black" points="983.12,-257.75 773.62,-257.75 773.62,-207 983.12,-207 983.12,-257.75"/>
<text text-anchor="middle" x="878.38" y="-240.45" font-family="Times,serif" font-size="14.00">borders: [[15.0, 15.0], [85.0, 85.0]]</text>
<text text-anchor="middle" x="878.38" y="-226.2" font-family="Times,serif" font-size="14.00">path_length: 3</text>
<text text-anchor="middle" x="878.38" y="-211.95" font-family="Times,serif" font-size="14.00">depth: 3</text>
</g>
<!-- [15.0..20.0, 85.0..90.0]&#45;&gt;[15.0..15.0, 85.0..85.0] -->
<g id="edge15" class="edge">
<title>[15.0..20.0, 85.0..90.0]&#45;&gt;[15.0..15.0, 85.0..85.0]</title>
<path fill="none" stroke="black" d="M718.55,-189.17C735.8,-193.86 753.89,-198.78 771.43,-203.55"/>
<polygon fill="black" stroke="black" points="770.24,-206.85 780.81,-206.1 772.08,-200.1 770.24,-206.85"/>
</g>
<!-- [20.0..20.0, 90.0..90.0] -->
<g id="node16" class="node">
<title>[20.0..20.0, 90.0..90.0]</title>
<polygon fill="none" stroke="black" points="983.12,-188.75 773.62,-188.75 773.62,-138 983.12,-138 983.12,-188.75"/>
<text text-anchor="middle" x="878.38" y="-171.45" font-family="Times,serif" font-size="14.00">borders: [[20.0, 20.0], [90.0, 90.0]]</text>
<text text-anchor="middle" x="878.38" y="-157.2" font-family="Times,serif" font-size="14.00">path_length: 3</text>
<text text-anchor="middle" x="878.38" y="-142.95" font-family="Times,serif" font-size="14.00">depth: 3</text>
</g>
<!-- [15.0..20.0, 85.0..90.0]&#45;&gt;[20.0..20.0, 90.0..90.0] -->
<g id="edge16" class="edge">
<title>[15.0..20.0, 85.0..90.0]&#45;&gt;[20.0..20.0, 90.0..90.0]</title>
<path fill="none" stroke="black" d="M727.64,-163.38C738.93,-163.38 750.46,-163.38 761.88,-163.38"/>
<polygon fill="black" stroke="black" points="761.72,-166.88 771.72,-163.38 761.72,-159.88 761.72,-166.88"/>
</g>
<!-- [25.0..30.0, 85.0..100.0] -->
<g id="node18" class="node">
<title>[25.0..30.0, 85.0..100.0]</title>
<polygon fill="none" stroke="black" points="986.5,-119.75 770.25,-119.75 770.25,-69 986.5,-69 986.5,-119.75"/>
<text text-anchor="middle" x="878.38" y="-102.45" font-family="Times,serif" font-size="14.00">borders: [[25.0, 30.0], [85.0, 100.0]]</text>
<text text-anchor="middle" x="878.38" y="-88.2" font-family="Times,serif" font-size="14.00">sp: 28.93</text>
<text text-anchor="middle" x="878.38" y="-73.95" font-family="Times,serif" font-size="14.00">dim: 0</text>
</g>
<!-- [25.0..35.0, 85.0..100.0]&#45;&gt;[25.0..30.0, 85.0..100.0] -->
<g id="edge17" class="edge">
<title>[25.0..35.0, 85.0..100.0]&#45;&gt;[25.0..30.0, 85.0..100.0]</title>
<path fill="none" stroke="black" d="M731.31,-94.38C740.33,-94.38 749.48,-94.38 758.58,-94.38"/>
<polygon fill="black" stroke="black" points="758.54,-97.88 768.54,-94.38 758.54,-90.88 758.54,-97.88"/>
</g>
<!-- [35.0..35.0, 85.0..85.0] -->
<g id="node23" class="node">
<title>[35.0..35.0, 85.0..85.0]</title>
<polygon fill="none" stroke="black" points="983.12,-50.75 773.62,-50.75 773.62,0 983.12,0 983.12,-50.75"/>
<text text-anchor="middle" x="878.38" y="-33.45" font-family="Times,serif" font-size="14.00">borders: [[35.0, 35.0], [85.0, 85.0]]</text>
<text text-anchor="middle" x="878.38" y="-19.2" font-family="Times,serif" font-size="14.00">path_length: 3</text>
<text text-anchor="middle" x="878.38" y="-4.95" font-family="Times,serif" font-size="14.00">depth: 3</text>
</g>
<!-- [25.0..35.0, 85.0..100.0]&#45;&gt;[35.0..35.0, 85.0..85.0] -->
<g id="edge18" class="edge">
<title>[25.0..35.0, 85.0..100.0]&#45;&gt;[35.0..35.0, 85.0..85.0]</title>
<path fill="none" stroke="black" d="M718.55,-68.58C735.8,-63.89 753.89,-58.97 771.43,-54.2"/>
<polygon fill="black" stroke="black" points="772.08,-57.65 780.81,-51.65 770.24,-50.9 772.08,-57.65"/>
</g>
<!-- [25.0..25.0, 85.0..100.0] -->
<g id="node19" class="node">
<title>[25.0..25.0, 85.0..100.0]</title>
<polygon fill="none" stroke="black" points="1238.75,-154.75 1022.5,-154.75 1022.5,-104 1238.75,-104 1238.75,-154.75"/>
<text text-anchor="middle" x="1130.62" y="-137.45" font-family="Times,serif" font-size="14.00">borders: [[25.0, 25.0], [85.0, 100.0]]</text>
<text text-anchor="middle" x="1130.62" y="-123.2" font-family="Times,serif" font-size="14.00">sp: 95.0</text>
<text text-anchor="middle" x="1130.62" y="-108.95" font-family="Times,serif" font-size="14.00">dim: 1</text>
</g>
<!-- [25.0..30.0, 85.0..100.0]&#45;&gt;[25.0..25.0, 85.0..100.0] -->
<g id="edge19" class="edge">
<title>[25.0..30.0, 85.0..100.0]&#45;&gt;[25.0..25.0, 85.0..100.0]</title>
<path fill="none" stroke="black" d="M986.96,-109.42C994.88,-110.53 1002.9,-111.65 1010.88,-112.77"/>
<polygon fill="black" stroke="black" points="1010.25,-116.21 1020.64,-114.13 1011.22,-109.28 1010.25,-116.21"/>
</g>
<!-- [30.0..30.0, 90.0..90.0] -->
<g id="node22" class="node">
<title>[30.0..30.0, 90.0..90.0]</title>
<polygon fill="none" stroke="black" points="1235.38,-85.75 1025.88,-85.75 1025.88,-35 1235.38,-35 1235.38,-85.75"/>
<text text-anchor="middle" x="1130.62" y="-68.45" font-family="Times,serif" font-size="14.00">borders: [[30.0, 30.0], [90.0, 90.0]]</text>
<text text-anchor="middle" x="1130.62" y="-54.2" font-family="Times,serif" font-size="14.00">path_length: 4</text>
<text text-anchor="middle" x="1130.62" y="-39.95" font-family="Times,serif" font-size="14.00">depth: 4</text>
</g>
<!-- [25.0..30.0, 85.0..100.0]&#45;&gt;[30.0..30.0, 90.0..90.0] -->
<g id="edge20" class="edge">
<title>[25.0..30.0, 85.0..100.0]&#45;&gt;[30.0..30.0, 90.0..90.0]</title>
<path fill="none" stroke="black" d="M986.96,-79.76C996.09,-78.52 1005.35,-77.26 1014.54,-76.01"/>
<polygon fill="black" stroke="black" points="1014.77,-79.51 1024.2,-74.7 1013.82,-72.58 1014.77,-79.51"/>
</g>
<!-- [25.0..25.0, 85.0..85.0] -->
<g id="node20" class="node">
<title>[25.0..25.0, 85.0..85.0]</title>
<polygon fill="none" stroke="black" points="1491,-188.75 1281.5,-188.75 1281.5,-138 1491,-138 1491,-188.75"/>
<text text-anchor="middle" x="1386.25" y="-171.45" font-family="Times,serif" font-size="14.00">borders: [[25.0, 25.0], [85.0, 85.0]]</text>
<text text-anchor="middle" x="1386.25" y="-157.2" font-family="Times,serif" font-size="14.00">path_length: 5</text>
<text text-anchor="middle" x="1386.25" y="-142.95" font-family="Times,serif" font-size="14.00">depth: 5</text>
</g>
<!-- [25.0..25.0, 85.0..100.0]&#45;&gt;[25.0..25.0, 85.0..85.0] -->
<g id="edge21" class="edge">
<title>[25.0..25.0, 85.0..100.0]&#45;&gt;[25.0..25.0, 85.0..85.0]</title>
<path fill="none" stroke="black" d="M1239.18,-143.79C1249.4,-145.16 1259.78,-146.55 1270.06,-147.93"/>
<polygon fill="black" stroke="black" points="1269.29,-151.36 1279.66,-149.22 1270.22,-144.42 1269.29,-151.36"/>
</g>
<!-- [25.0..25.0, 100.0..100.0] -->
<g id="node21" class="node">
<title>[25.0..25.0, 100.0..100.0]</title>
<polygon fill="none" stroke="black" points="1497.75,-119.75 1274.75,-119.75 1274.75,-69 1497.75,-69 1497.75,-119.75"/>
<text text-anchor="middle" x="1386.25" y="-102.45" font-family="Times,serif" font-size="14.00">borders: [[25.0, 25.0], [100.0, 100.0]]</text>
<text text-anchor="middle" x="1386.25" y="-88.2" font-family="Times,serif" font-size="14.00">path_length: 5</text>
<text text-anchor="middle" x="1386.25" y="-73.95" font-family="Times,serif" font-size="14.00">depth: 5</text>
</g>
<!-- [25.0..25.0, 85.0..100.0]&#45;&gt;[25.0..25.0, 100.0..100.0] -->
<g id="edge22" class="edge">
<title>[25.0..25.0, 85.0..100.0]&#45;&gt;[25.0..25.0, 100.0..100.0]</title>
<path fill="none" stroke="black" d="M1239.18,-114.53C1247.08,-113.44 1255.07,-112.34 1263.04,-111.24"/>
<polygon fill="black" stroke="black" points="1263.35,-114.73 1272.78,-109.9 1262.39,-107.8 1263.35,-114.73"/>
</g>
</g>
</svg>
