<?xml version="1.0" encoding="UTF-8" standalone="no"?>
<!DOCTYPE svg PUBLIC "-//W3C//DTD SVG 1.1//EN"
 "http://www.w3.org/Graphics/SVG/1.1/DTD/svg11.dtd">
<!-- Generated by graphviz version 2.43.0 (0)
 -->
<!-- Title: G Pages: 1 -->
<svg width="1028pt" height="605pt"
 viewBox="0.00 0.00 1028.00 605.00" xmlns="http://www.w3.org/2000/svg" xmlns:xlink="http://www.w3.org/1999/xlink">
<g id="graph0" class="graph" transform="scale(1 1) rotate(0) translate(4 601)">
<title>G</title>
<polygon fill="white" stroke="transparent" points="-4,4 -4,-601 1024,-601 1024,4 -4,4"/>
<!-- [160.95, 238.62]\n[6.95, 85.7] -->
<g id="node1" class="node">
<title>[160.95, 238.62]\n[6.95, 85.7]</title>
<polygon fill="none" stroke="black" points="135,-363.5 0,-363.5 0,-295.5 135,-295.5 135,-363.5"/>
<text text-anchor="middle" x="67.5" y="-348.3" font-family="Times,serif" font-size="14.00">[160.95, 238.62]</text>
<text text-anchor="middle" x="67.5" y="-333.3" font-family="Times,serif" font-size="14.00">[6.95, 85.7]</text>
<text text-anchor="middle" x="67.5" y="-318.3" font-family="Times,serif" font-size="14.00">sp: 169.38</text>
<text text-anchor="middle" x="67.5" y="-303.3" font-family="Times,serif" font-size="14.00">dim: 0</text>
</g>
<!-- [160.95, 160.95]\n[29.53, 29.53] -->
<g id="node2" class="node">
<title>[160.95, 160.95]\n[29.53, 29.53]</title>
<polygon fill="none" stroke="black" points="313,-396 171,-396 171,-343 313,-343 313,-396"/>
<text text-anchor="middle" x="242" y="-380.8" font-family="Times,serif" font-size="14.00">[160.95, 160.95]</text>
<text text-anchor="middle" x="242" y="-365.8" font-family="Times,serif" font-size="14.00">[29.53, 29.53]</text>
<text text-anchor="middle" x="242" y="-350.8" font-family="Times,serif" font-size="14.00">path_length: 8.04</text>
</g>
<!-- [160.95, 238.62]\n[6.95, 85.7]&#45;&gt;[160.95, 160.95]\n[29.53, 29.53] -->
<g id="edge1" class="edge">
<title>[160.95, 238.62]\n[6.95, 85.7]&#45;&gt;[160.95, 160.95]\n[29.53, 29.53]</title>
<path fill="none" stroke="black" d="M135.19,-344.97C143.57,-346.91 152.22,-348.91 160.78,-350.9"/>
<polygon fill="black" stroke="black" points="160.24,-354.37 170.77,-353.22 161.82,-347.55 160.24,-354.37"/>
</g>
<!-- [170.06, 238.62]\n[6.95, 85.7] -->
<g id="node3" class="node">
<title>[170.06, 238.62]\n[6.95, 85.7]</title>
<polygon fill="none" stroke="black" points="309.5,-324.5 174.5,-324.5 174.5,-256.5 309.5,-256.5 309.5,-324.5"/>
<text text-anchor="middle" x="242" y="-309.3" font-family="Times,serif" font-size="14.00">[170.06, 238.62]</text>
<text text-anchor="middle" x="242" y="-294.3" font-family="Times,serif" font-size="14.00">[6.95, 85.7]</text>
<text text-anchor="middle" x="242" y="-279.3" font-family="Times,serif" font-size="14.00">sp: 212.47</text>
<text text-anchor="middle" x="242" y="-264.3" font-family="Times,serif" font-size="14.00">dim: 0</text>
</g>
<!-- [160.95, 238.62]\n[6.95, 85.7]&#45;&gt;[170.06, 238.62]\n[6.95, 85.7] -->
<g id="edge2" class="edge">
<title>[160.95, 238.62]\n[6.95, 85.7]&#45;&gt;[170.06, 238.62]\n[6.95, 85.7]</title>
<path fill="none" stroke="black" d="M135.19,-314.42C144.86,-312.24 154.88,-309.97 164.72,-307.75"/>
<polygon fill="black" stroke="black" points="165.5,-311.16 174.48,-305.54 163.96,-304.33 165.5,-311.16"/>
</g>
<!-- [170.06, 211.26]\n[25.97, 85.7] -->
<g id="node4" class="node">
<title>[170.06, 211.26]\n[25.97, 85.7]</title>
<polygon fill="none" stroke="black" points="484,-403.5 349,-403.5 349,-335.5 484,-335.5 484,-403.5"/>
<text text-anchor="middle" x="416.5" y="-388.3" font-family="Times,serif" font-size="14.00">[170.06, 211.26]</text>
<text text-anchor="middle" x="416.5" y="-373.3" font-family="Times,serif" font-size="14.00">[25.97, 85.7]</text>
<text text-anchor="middle" x="416.5" y="-358.3" font-family="Times,serif" font-size="14.00">sp: 57.77</text>
<text text-anchor="middle" x="416.5" y="-343.3" font-family="Times,serif" font-size="14.00">dim: 1</text>
</g>
<!-- [170.06, 238.62]\n[6.95, 85.7]&#45;&gt;[170.06, 211.26]\n[25.97, 85.7] -->
<g id="edge3" class="edge">
<title>[170.06, 238.62]\n[6.95, 85.7]&#45;&gt;[170.06, 211.26]\n[25.97, 85.7]</title>
<path fill="none" stroke="black" d="M309.69,-321.04C319.56,-325.56 329.8,-330.25 339.84,-334.85"/>
<polygon fill="black" stroke="black" points="338.44,-338.06 348.98,-339.04 341.35,-331.69 338.44,-338.06"/>
</g>
<!-- [212.74, 238.62]\n[6.95, 70.66] -->
<g id="node5" class="node">
<title>[212.74, 238.62]\n[6.95, 70.66]</title>
<polygon fill="none" stroke="black" points="484,-249.5 349,-249.5 349,-181.5 484,-181.5 484,-249.5"/>
<text text-anchor="middle" x="416.5" y="-234.3" font-family="Times,serif" font-size="14.00">[212.74, 238.62]</text>
<text text-anchor="middle" x="416.5" y="-219.3" font-family="Times,serif" font-size="14.00">[6.95, 70.66]</text>
<text text-anchor="middle" x="416.5" y="-204.3" font-family="Times,serif" font-size="14.00">sp: 233.27</text>
<text text-anchor="middle" x="416.5" y="-189.3" font-family="Times,serif" font-size="14.00">dim: 0</text>
</g>
<!-- [170.06, 238.62]\n[6.95, 85.7]&#45;&gt;[212.74, 238.62]\n[6.95, 70.66] -->
<g id="edge4" class="edge">
<title>[170.06, 238.62]\n[6.95, 85.7]&#45;&gt;[212.74, 238.62]\n[6.95, 70.66]</title>
<path fill="none" stroke="black" d="M309.69,-261.5C319.46,-257.25 329.59,-252.85 339.53,-248.53"/>
<polygon fill="black" stroke="black" points="341.21,-251.62 348.98,-244.42 338.42,-245.2 341.21,-251.62"/>
</g>
<!-- [177.62, 204.37]\n[25.97, 52.82] -->
<g id="node6" class="node">
<title>[177.62, 204.37]\n[25.97, 52.82]</title>
<polygon fill="none" stroke="black" points="655,-525.5 520,-525.5 520,-457.5 655,-457.5 655,-525.5"/>
<text text-anchor="middle" x="587.5" y="-510.3" font-family="Times,serif" font-size="14.00">[177.62, 204.37]</text>
<text text-anchor="middle" x="587.5" y="-495.3" font-family="Times,serif" font-size="14.00">[25.97, 52.82]</text>
<text text-anchor="middle" x="587.5" y="-480.3" font-family="Times,serif" font-size="14.00">sp: 34.76</text>
<text text-anchor="middle" x="587.5" y="-465.3" font-family="Times,serif" font-size="14.00">dim: 1</text>
</g>
<!-- [170.06, 211.26]\n[25.97, 85.7]&#45;&gt;[177.62, 204.37]\n[25.97, 52.82] -->
<g id="edge5" class="edge">
<title>[170.06, 211.26]\n[25.97, 85.7]&#45;&gt;[177.62, 204.37]\n[25.97, 52.82]</title>
<path fill="none" stroke="black" d="M465.03,-403.81C485.54,-418.62 509.67,-436.04 531,-451.44"/>
<polygon fill="black" stroke="black" points="529.17,-454.43 539.33,-457.45 533.27,-448.76 529.17,-454.43"/>
</g>
<!-- [170.06, 211.26]\n[58.38, 85.7] -->
<g id="node7" class="node">
<title>[170.06, 211.26]\n[58.38, 85.7]</title>
<polygon fill="none" stroke="black" points="655,-403.5 520,-403.5 520,-335.5 655,-335.5 655,-403.5"/>
<text text-anchor="middle" x="587.5" y="-388.3" font-family="Times,serif" font-size="14.00">[170.06, 211.26]</text>
<text text-anchor="middle" x="587.5" y="-373.3" font-family="Times,serif" font-size="14.00">[58.38, 85.7]</text>
<text text-anchor="middle" x="587.5" y="-358.3" font-family="Times,serif" font-size="14.00">sp: 174.33</text>
<text text-anchor="middle" x="587.5" y="-343.3" font-family="Times,serif" font-size="14.00">dim: 0</text>
</g>
<!-- [170.06, 211.26]\n[25.97, 85.7]&#45;&gt;[170.06, 211.26]\n[58.38, 85.7] -->
<g id="edge6" class="edge">
<title>[170.06, 211.26]\n[25.97, 85.7]&#45;&gt;[170.06, 211.26]\n[58.38, 85.7]</title>
<path fill="none" stroke="black" d="M484.29,-369.5C492.62,-369.5 501.19,-369.5 509.66,-369.5"/>
<polygon fill="black" stroke="black" points="509.92,-373 519.92,-369.5 509.92,-366 509.92,-373"/>
</g>
<!-- [212.74, 215.83]\n[6.95, 70.29] -->
<g id="node16" class="node">
<title>[212.74, 215.83]\n[6.95, 70.29]</title>
<polygon fill="none" stroke="black" points="655,-249.5 520,-249.5 520,-181.5 655,-181.5 655,-249.5"/>
<text text-anchor="middle" x="587.5" y="-234.3" font-family="Times,serif" font-size="14.00">[212.74, 215.83]</text>
<text text-anchor="middle" x="587.5" y="-219.3" font-family="Times,serif" font-size="14.00">[6.95, 70.29]</text>
<text text-anchor="middle" x="587.5" y="-204.3" font-family="Times,serif" font-size="14.00">sp: 61.21</text>
<text text-anchor="middle" x="587.5" y="-189.3" font-family="Times,serif" font-size="14.00">dim: 1</text>
</g>
<!-- [212.74, 238.62]\n[6.95, 70.66]&#45;&gt;[212.74, 215.83]\n[6.95, 70.29] -->
<g id="edge15" class="edge">
<title>[212.74, 238.62]\n[6.95, 70.66]&#45;&gt;[212.74, 215.83]\n[6.95, 70.29]</title>
<path fill="none" stroke="black" d="M484.29,-215.5C492.62,-215.5 501.19,-215.5 509.66,-215.5"/>
<polygon fill="black" stroke="black" points="509.92,-219 519.92,-215.5 509.92,-212 509.92,-219"/>
</g>
<!-- [237.66, 238.62]\n[54.24, 70.66] -->
<g id="node17" class="node">
<title>[237.66, 238.62]\n[54.24, 70.66]</title>
<polygon fill="none" stroke="black" points="655,-131.5 520,-131.5 520,-63.5 655,-63.5 655,-131.5"/>
<text text-anchor="middle" x="587.5" y="-116.3" font-family="Times,serif" font-size="14.00">[237.66, 238.62]</text>
<text text-anchor="middle" x="587.5" y="-101.3" font-family="Times,serif" font-size="14.00">[54.24, 70.66]</text>
<text text-anchor="middle" x="587.5" y="-86.3" font-family="Times,serif" font-size="14.00">sp: 237.84</text>
<text text-anchor="middle" x="587.5" y="-71.3" font-family="Times,serif" font-size="14.00">dim: 0</text>
</g>
<!-- [212.74, 238.62]\n[6.95, 70.66]&#45;&gt;[237.66, 238.62]\n[54.24, 70.66] -->
<g id="edge16" class="edge">
<title>[212.74, 238.62]\n[6.95, 70.66]&#45;&gt;[237.66, 238.62]\n[54.24, 70.66]</title>
<path fill="none" stroke="black" d="M466.38,-181.37C486.09,-167.61 508.96,-151.64 529.42,-137.35"/>
<polygon fill="black" stroke="black" points="531.53,-140.15 537.73,-131.55 527.53,-134.41 531.53,-140.15"/>
</g>
<!-- [202.97, 202.97]\n[25.97, 25.97] -->
<g id="node8" class="node">
<title>[202.97, 202.97]\n[25.97, 25.97]</title>
<polygon fill="none" stroke="black" points="833,-597 691,-597 691,-544 833,-544 833,-597"/>
<text text-anchor="middle" x="762" y="-581.8" font-family="Times,serif" font-size="14.00">[202.97, 202.97]</text>
<text text-anchor="middle" x="762" y="-566.8" font-family="Times,serif" font-size="14.00">[25.97, 25.97]</text>
<text text-anchor="middle" x="762" y="-551.8" font-family="Times,serif" font-size="14.00">path_length: 7.93</text>
</g>
<!-- [177.62, 204.37]\n[25.97, 52.82]&#45;&gt;[202.97, 202.97]\n[25.97, 25.97] -->
<g id="edge7" class="edge">
<title>[177.62, 204.37]\n[25.97, 52.82]&#45;&gt;[202.97, 202.97]\n[25.97, 25.97]</title>
<path fill="none" stroke="black" d="M655.19,-522.04C667.86,-527.84 681.12,-533.92 693.8,-539.72"/>
<polygon fill="black" stroke="black" points="692.36,-542.91 702.91,-543.9 695.27,-536.55 692.36,-542.91"/>
</g>
<!-- [177.62, 204.37]\n[37.15, 52.82] -->
<g id="node9" class="node">
<title>[177.62, 204.37]\n[37.15, 52.82]</title>
<polygon fill="none" stroke="black" points="829.5,-525.5 694.5,-525.5 694.5,-457.5 829.5,-457.5 829.5,-525.5"/>
<text text-anchor="middle" x="762" y="-510.3" font-family="Times,serif" font-size="14.00">[177.62, 204.37]</text>
<text text-anchor="middle" x="762" y="-495.3" font-family="Times,serif" font-size="14.00">[37.15, 52.82]</text>
<text text-anchor="middle" x="762" y="-480.3" font-family="Times,serif" font-size="14.00">sp: 194.14</text>
<text text-anchor="middle" x="762" y="-465.3" font-family="Times,serif" font-size="14.00">dim: 0</text>
</g>
<!-- [177.62, 204.37]\n[25.97, 52.82]&#45;&gt;[177.62, 204.37]\n[37.15, 52.82] -->
<g id="edge8" class="edge">
<title>[177.62, 204.37]\n[25.97, 52.82]&#45;&gt;[177.62, 204.37]\n[37.15, 52.82]</title>
<path fill="none" stroke="black" d="M655.19,-491.5C664.76,-491.5 674.67,-491.5 684.41,-491.5"/>
<polygon fill="black" stroke="black" points="684.48,-495 694.48,-491.5 684.48,-488 684.48,-495"/>
</g>
<!-- [170.06, 170.06]\n[58.38, 58.38] -->
<g id="node12" class="node">
<title>[170.06, 170.06]\n[58.38, 58.38]</title>
<polygon fill="none" stroke="black" points="833,-439 691,-439 691,-386 833,-386 833,-439"/>
<text text-anchor="middle" x="762" y="-423.8" font-family="Times,serif" font-size="14.00">[170.06, 170.06]</text>
<text text-anchor="middle" x="762" y="-408.8" font-family="Times,serif" font-size="14.00">[58.38, 58.38]</text>
<text text-anchor="middle" x="762" y="-393.8" font-family="Times,serif" font-size="14.00">path_length: 9.31</text>
</g>
<!-- [170.06, 211.26]\n[58.38, 85.7]&#45;&gt;[170.06, 170.06]\n[58.38, 58.38] -->
<g id="edge11" class="edge">
<title>[170.06, 211.26]\n[58.38, 85.7]&#45;&gt;[170.06, 170.06]\n[58.38, 58.38]</title>
<path fill="none" stroke="black" d="M655.19,-386.12C663.67,-388.24 672.4,-390.42 681.06,-392.57"/>
<polygon fill="black" stroke="black" points="680.22,-395.97 690.77,-394.99 681.92,-389.18 680.22,-395.97"/>
</g>
<!-- [174.85, 211.26]\n[58.49, 85.7] -->
<g id="node13" class="node">
<title>[174.85, 211.26]\n[58.49, 85.7]</title>
<polygon fill="none" stroke="black" points="829.5,-367.5 694.5,-367.5 694.5,-299.5 829.5,-299.5 829.5,-367.5"/>
<text text-anchor="middle" x="762" y="-352.3" font-family="Times,serif" font-size="14.00">[174.85, 211.26]</text>
<text text-anchor="middle" x="762" y="-337.3" font-family="Times,serif" font-size="14.00">[58.49, 85.7]</text>
<text text-anchor="middle" x="762" y="-322.3" font-family="Times,serif" font-size="14.00">sp: 60.69</text>
<text text-anchor="middle" x="762" y="-307.3" font-family="Times,serif" font-size="14.00">dim: 1</text>
</g>
<!-- [170.06, 211.26]\n[58.38, 85.7]&#45;&gt;[174.85, 211.26]\n[58.49, 85.7] -->
<g id="edge12" class="edge">
<title>[170.06, 211.26]\n[58.38, 85.7]&#45;&gt;[174.85, 211.26]\n[58.49, 85.7]</title>
<path fill="none" stroke="black" d="M655.19,-355.58C664.76,-353.58 674.67,-351.52 684.41,-349.48"/>
<polygon fill="black" stroke="black" points="685.41,-352.85 694.48,-347.38 683.98,-346 685.41,-352.85"/>
</g>
<!-- [177.62, 178.76]\n[37.15, 52.0] -->
<g id="node10" class="node">
<title>[177.62, 178.76]\n[37.15, 52.0]</title>
<polygon fill="none" stroke="black" points="1015.5,-581 873.5,-581 873.5,-528 1015.5,-528 1015.5,-581"/>
<text text-anchor="middle" x="944.5" y="-565.8" font-family="Times,serif" font-size="14.00">[177.62, 178.76]</text>
<text text-anchor="middle" x="944.5" y="-550.8" font-family="Times,serif" font-size="14.00">[37.15, 52.0]</text>
<text text-anchor="middle" x="944.5" y="-535.8" font-family="Times,serif" font-size="14.00">path_length: 8.35</text>
</g>
<!-- [177.62, 204.37]\n[37.15, 52.82]&#45;&gt;[177.62, 178.76]\n[37.15, 52.0] -->
<g id="edge9" class="edge">
<title>[177.62, 204.37]\n[37.15, 52.82]&#45;&gt;[177.62, 178.76]\n[37.15, 52.0]</title>
<path fill="none" stroke="black" d="M829.7,-514.78C840.84,-518.67 852.5,-522.74 863.92,-526.72"/>
<polygon fill="black" stroke="black" points="862.85,-530.06 873.45,-530.05 865.16,-523.45 862.85,-530.06"/>
</g>
<!-- [201.56, 204.37]\n[40.01, 52.82] -->
<g id="node11" class="node">
<title>[201.56, 204.37]\n[40.01, 52.82]</title>
<polygon fill="none" stroke="black" points="1015.5,-510 873.5,-510 873.5,-457 1015.5,-457 1015.5,-510"/>
<text text-anchor="middle" x="944.5" y="-494.8" font-family="Times,serif" font-size="14.00">[201.56, 204.37]</text>
<text text-anchor="middle" x="944.5" y="-479.8" font-family="Times,serif" font-size="14.00">[40.01, 52.82]</text>
<text text-anchor="middle" x="944.5" y="-464.8" font-family="Times,serif" font-size="14.00">path_length: 8.35</text>
</g>
<!-- [177.62, 204.37]\n[37.15, 52.82]&#45;&gt;[201.56, 204.37]\n[40.01, 52.82] -->
<g id="edge10" class="edge">
<title>[177.62, 204.37]\n[37.15, 52.82]&#45;&gt;[201.56, 204.37]\n[40.01, 52.82]</title>
<path fill="none" stroke="black" d="M829.7,-488.54C840.62,-488.06 852.03,-487.55 863.23,-487.06"/>
<polygon fill="black" stroke="black" points="863.61,-490.54 873.45,-486.6 863.3,-483.55 863.61,-490.54"/>
</g>
<!-- [203.68, 211.26]\n[58.49, 59.41] -->
<g id="node14" class="node">
<title>[203.68, 211.26]\n[58.49, 59.41]</title>
<polygon fill="none" stroke="black" points="1020,-427 869,-427 869,-374 1020,-374 1020,-427"/>
<text text-anchor="middle" x="944.5" y="-411.8" font-family="Times,serif" font-size="14.00">[203.68, 211.26]</text>
<text text-anchor="middle" x="944.5" y="-396.8" font-family="Times,serif" font-size="14.00">[58.49, 59.41]</text>
<text text-anchor="middle" x="944.5" y="-381.8" font-family="Times,serif" font-size="14.00">path_length: 10.05</text>
</g>
<!-- [174.85, 211.26]\n[58.49, 85.7]&#45;&gt;[203.68, 211.26]\n[58.49, 59.41] -->
<g id="edge13" class="edge">
<title>[174.85, 211.26]\n[58.49, 85.7]&#45;&gt;[203.68, 211.26]\n[58.49, 59.41]</title>
<path fill="none" stroke="black" d="M829.7,-358.26C840.34,-362.21 851.45,-366.33 862.38,-370.39"/>
<polygon fill="black" stroke="black" points="861.33,-373.73 871.92,-373.93 863.77,-367.17 861.33,-373.73"/>
</g>
<!-- [174.85, 210.96]\n[61.69, 85.7] -->
<g id="node15" class="node">
<title>[174.85, 210.96]\n[61.69, 85.7]</title>
<polygon fill="none" stroke="black" points="1020,-356 869,-356 869,-303 1020,-303 1020,-356"/>
<text text-anchor="middle" x="944.5" y="-340.8" font-family="Times,serif" font-size="14.00">[174.85, 210.96]</text>
<text text-anchor="middle" x="944.5" y="-325.8" font-family="Times,serif" font-size="14.00">[61.69, 85.7]</text>
<text text-anchor="middle" x="944.5" y="-310.8" font-family="Times,serif" font-size="14.00">path_length: 10.05</text>
</g>
<!-- [174.85, 211.26]\n[58.49, 85.7]&#45;&gt;[174.85, 210.96]\n[61.69, 85.7] -->
<g id="edge14" class="edge">
<title>[174.85, 211.26]\n[58.49, 85.7]&#45;&gt;[174.85, 210.96]\n[61.69, 85.7]</title>
<path fill="none" stroke="black" d="M829.7,-332.02C839.16,-331.81 849,-331.59 858.75,-331.38"/>
<polygon fill="black" stroke="black" points="858.95,-334.87 868.87,-331.15 858.79,-327.88 858.95,-334.87"/>
</g>
<!-- [212.74, 215.83]\n[6.95, 35.1] -->
<g id="node18" class="node">
<title>[212.74, 215.83]\n[6.95, 35.1]</title>
<polygon fill="none" stroke="black" points="829.5,-281.5 694.5,-281.5 694.5,-213.5 829.5,-213.5 829.5,-281.5"/>
<text text-anchor="middle" x="762" y="-266.3" font-family="Times,serif" font-size="14.00">[212.74, 215.83]</text>
<text text-anchor="middle" x="762" y="-251.3" font-family="Times,serif" font-size="14.00">[6.95, 35.1]</text>
<text text-anchor="middle" x="762" y="-236.3" font-family="Times,serif" font-size="14.00">sp: 212.77</text>
<text text-anchor="middle" x="762" y="-221.3" font-family="Times,serif" font-size="14.00">dim: 0</text>
</g>
<!-- [212.74, 215.83]\n[6.95, 70.29]&#45;&gt;[212.74, 215.83]\n[6.95, 35.1] -->
<g id="edge17" class="edge">
<title>[212.74, 215.83]\n[6.95, 70.29]&#45;&gt;[212.74, 215.83]\n[6.95, 35.1]</title>
<path fill="none" stroke="black" d="M655.19,-227.87C664.76,-229.65 674.67,-231.49 684.41,-233.29"/>
<polygon fill="black" stroke="black" points="684.01,-236.78 694.48,-235.16 685.29,-229.9 684.01,-236.78"/>
</g>
<!-- [213.91, 213.91]\n[70.29, 70.29] -->
<g id="node19" class="node">
<title>[213.91, 213.91]\n[70.29, 70.29]</title>
<polygon fill="none" stroke="black" points="833,-195 691,-195 691,-142 833,-142 833,-195"/>
<text text-anchor="middle" x="762" y="-179.8" font-family="Times,serif" font-size="14.00">[213.91, 213.91]</text>
<text text-anchor="middle" x="762" y="-164.8" font-family="Times,serif" font-size="14.00">[70.29, 70.29]</text>
<text text-anchor="middle" x="762" y="-149.8" font-family="Times,serif" font-size="14.00">path_length: 6.54</text>
</g>
<!-- [212.74, 215.83]\n[6.95, 70.29]&#45;&gt;[213.91, 213.91]\n[70.29, 70.29] -->
<g id="edge18" class="edge">
<title>[212.74, 215.83]\n[6.95, 70.29]&#45;&gt;[213.91, 213.91]\n[70.29, 70.29]</title>
<path fill="none" stroke="black" d="M655.19,-197.33C663.67,-195.02 672.4,-192.64 681.06,-190.28"/>
<polygon fill="black" stroke="black" points="682.04,-193.64 690.77,-187.63 680.2,-186.89 682.04,-193.64"/>
</g>
<!-- [237.66, 237.66]\n[70.66, 70.66] -->
<g id="node22" class="node">
<title>[237.66, 237.66]\n[70.66, 70.66]</title>
<polygon fill="none" stroke="black" points="829.5,-124 694.5,-124 694.5,-71 829.5,-71 829.5,-124"/>
<text text-anchor="middle" x="762" y="-108.8" font-family="Times,serif" font-size="14.00">[237.66, 237.66]</text>
<text text-anchor="middle" x="762" y="-93.8" font-family="Times,serif" font-size="14.00">[70.66, 70.66]</text>
<text text-anchor="middle" x="762" y="-78.8" font-family="Times,serif" font-size="14.00">path_length: 6</text>
</g>
<!-- [237.66, 238.62]\n[54.24, 70.66]&#45;&gt;[237.66, 237.66]\n[70.66, 70.66] -->
<g id="edge21" class="edge">
<title>[237.66, 238.62]\n[54.24, 70.66]&#45;&gt;[237.66, 237.66]\n[70.66, 70.66]</title>
<path fill="none" stroke="black" d="M655.19,-97.5C664.76,-97.5 674.67,-97.5 684.41,-97.5"/>
<polygon fill="black" stroke="black" points="684.48,-101 694.48,-97.5 684.48,-94 684.48,-101"/>
</g>
<!-- [238.62, 238.62]\n[54.24, 54.24] -->
<g id="node23" class="node">
<title>[238.62, 238.62]\n[54.24, 54.24]</title>
<polygon fill="none" stroke="black" points="829.5,-53 694.5,-53 694.5,0 829.5,0 829.5,-53"/>
<text text-anchor="middle" x="762" y="-37.8" font-family="Times,serif" font-size="14.00">[238.62, 238.62]</text>
<text text-anchor="middle" x="762" y="-22.8" font-family="Times,serif" font-size="14.00">[54.24, 54.24]</text>
<text text-anchor="middle" x="762" y="-7.8" font-family="Times,serif" font-size="14.00">path_length: 6</text>
</g>
<!-- [237.66, 238.62]\n[54.24, 70.66]&#45;&gt;[238.62, 238.62]\n[54.24, 54.24] -->
<g id="edge22" class="edge">
<title>[237.66, 238.62]\n[54.24, 70.66]&#45;&gt;[238.62, 238.62]\n[54.24, 54.24]</title>
<path fill="none" stroke="black" d="M655.19,-70.05C665.68,-65.73 676.57,-61.25 687.21,-56.87"/>
<polygon fill="black" stroke="black" points="688.55,-60.1 696.47,-53.06 685.89,-53.63 688.55,-60.1"/>
</g>
<!-- [212.74, 212.74]\n[35.1, 35.1] -->
<g id="node20" class="node">
<title>[212.74, 212.74]\n[35.1, 35.1]</title>
<polygon fill="none" stroke="black" points="1012,-278 877,-278 877,-225 1012,-225 1012,-278"/>
<text text-anchor="middle" x="944.5" y="-262.8" font-family="Times,serif" font-size="14.00">[212.74, 212.74]</text>
<text text-anchor="middle" x="944.5" y="-247.8" font-family="Times,serif" font-size="14.00">[35.1, 35.1]</text>
<text text-anchor="middle" x="944.5" y="-232.8" font-family="Times,serif" font-size="14.00">path_length: 7</text>
</g>
<!-- [212.74, 215.83]\n[6.95, 35.1]&#45;&gt;[212.74, 212.74]\n[35.1, 35.1] -->
<g id="edge19" class="edge">
<title>[212.74, 215.83]\n[6.95, 35.1]&#45;&gt;[212.74, 212.74]\n[35.1, 35.1]</title>
<path fill="none" stroke="black" d="M829.7,-248.98C841.7,-249.24 854.3,-249.52 866.57,-249.8"/>
<polygon fill="black" stroke="black" points="866.7,-253.3 876.77,-250.02 866.85,-246.3 866.7,-253.3"/>
</g>
<!-- [215.83, 215.83]\n[6.95, 6.95] -->
<g id="node21" class="node">
<title>[215.83, 215.83]\n[6.95, 6.95]</title>
<polygon fill="none" stroke="black" points="1012,-207 877,-207 877,-154 1012,-154 1012,-207"/>
<text text-anchor="middle" x="944.5" y="-191.8" font-family="Times,serif" font-size="14.00">[215.83, 215.83]</text>
<text text-anchor="middle" x="944.5" y="-176.8" font-family="Times,serif" font-size="14.00">[6.95, 6.95]</text>
<text text-anchor="middle" x="944.5" y="-161.8" font-family="Times,serif" font-size="14.00">path_length: 7</text>
</g>
<!-- [212.74, 215.83]\n[6.95, 35.1]&#45;&gt;[215.83, 215.83]\n[6.95, 6.95] -->
<g id="edge20" class="edge">
<title>[212.74, 215.83]\n[6.95, 35.1]&#45;&gt;[215.83, 215.83]\n[6.95, 6.95]</title>
<path fill="none" stroke="black" d="M829.7,-222.74C841.94,-218.2 854.81,-213.42 867.31,-208.78"/>
<polygon fill="black" stroke="black" points="868.62,-212.03 876.77,-205.27 866.18,-205.47 868.62,-212.03"/>
</g>
</g>
</svg>
