<?xml version="1.0" encoding="UTF-8" standalone="no"?>
<!DOCTYPE svg PUBLIC "-//W3C//DTD SVG 1.1//EN"
 "http://www.w3.org/Graphics/SVG/1.1/DTD/svg11.dtd">
<!-- Generated by graphviz version 12.0.0 (0)
 -->
<!-- Title: G Pages: 1 -->
<svg width="1712pt" height="493pt"
 viewBox="0.00 0.00 1711.50 492.50" xmlns="http://www.w3.org/2000/svg" xmlns:xlink="http://www.w3.org/1999/xlink">
<g id="graph0" class="graph" transform="scale(1 1) rotate(0) translate(4 488.5)">
<title>G</title>
<polygon fill="white" stroke="none" points="-4,4 -4,-488.5 1707.5,-488.5 1707.5,4 -4,4"/>
<!-- [15.0..105.0, 10.0..100.0] -->
<g id="node1" class="node">
<title>[15.0..105.0, 10.0..100.0]</title>
<polygon fill="none" stroke="black" points="1131.25,-50.75 908.25,-50.75 908.25,0 1131.25,0 1131.25,-50.75"/>
<text text-anchor="middle" x="1019.75" y="-33.45" font-family="Times,serif" font-size="14.00">borders: [[15.0, 105.0], [10.0, 100.0]]</text>
<text text-anchor="middle" x="1019.75" y="-19.2" font-family="Times,serif" font-size="14.00">sp: 72.63</text>
<text text-anchor="middle" x="1019.75" y="-4.95" font-family="Times,serif" font-size="14.00">dim: 1</text>
</g>
<!-- [90.0..105.0, 10.0..30.0] -->
<g id="node2" class="node">
<title>[90.0..105.0, 10.0..30.0]</title>
<polygon fill="none" stroke="black" points="1010.88,-137.5 794.62,-137.5 794.62,-86.75 1010.88,-86.75 1010.88,-137.5"/>
<text text-anchor="middle" x="902.75" y="-120.2" font-family="Times,serif" font-size="14.00">borders: [[90.0, 105.0], [10.0, 30.0]]</text>
<text text-anchor="middle" x="902.75" y="-105.95" font-family="Times,serif" font-size="14.00">sp: 103.08</text>
<text text-anchor="middle" x="902.75" y="-91.7" font-family="Times,serif" font-size="14.00">dim: 0</text>
</g>
<!-- [15.0..105.0, 10.0..100.0]&#45;&gt;[90.0..105.0, 10.0..30.0] -->
<g id="edge1" class="edge">
<title>[15.0..105.0, 10.0..100.0]&#45;&gt;[90.0..105.0, 10.0..30.0]</title>
<path fill="none" stroke="black" d="M985.59,-51.12C973.22,-60.08 959.08,-70.33 946.02,-79.78"/>
<polygon fill="black" stroke="black" points="944.02,-76.91 937.97,-85.61 948.12,-82.58 944.02,-76.91"/>
</g>
<!-- [15.0..35.0, 85.0..100.0] -->
<g id="node13" class="node">
<title>[15.0..35.0, 85.0..100.0]</title>
<polygon fill="none" stroke="black" points="1244.88,-137.5 1028.62,-137.5 1028.62,-86.75 1244.88,-86.75 1244.88,-137.5"/>
<text text-anchor="middle" x="1136.75" y="-120.2" font-family="Times,serif" font-size="14.00">borders: [[15.0, 35.0], [85.0, 100.0]]</text>
<text text-anchor="middle" x="1136.75" y="-105.95" font-family="Times,serif" font-size="14.00">sp: 20.32</text>
<text text-anchor="middle" x="1136.75" y="-91.7" font-family="Times,serif" font-size="14.00">dim: 0</text>
</g>
<!-- [15.0..105.0, 10.0..100.0]&#45;&gt;[15.0..35.0, 85.0..100.0] -->
<g id="edge2" class="edge">
<title>[15.0..105.0, 10.0..100.0]&#45;&gt;[15.0..35.0, 85.0..100.0]</title>
<path fill="none" stroke="black" d="M1053.91,-51.12C1066.28,-60.08 1080.42,-70.33 1093.48,-79.78"/>
<polygon fill="black" stroke="black" points="1091.38,-82.58 1101.53,-85.61 1095.48,-76.91 1091.38,-82.58"/>
</g>
<!-- [90.0..95.0, 10.0..30.0] -->
<g id="node3" class="node">
<title>[90.0..95.0, 10.0..30.0]</title>
<polygon fill="none" stroke="black" points="773.5,-224.25 564,-224.25 564,-173.5 773.5,-173.5 773.5,-224.25"/>
<text text-anchor="middle" x="668.75" y="-206.95" font-family="Times,serif" font-size="14.00">borders: [[90.0, 95.0], [10.0, 30.0]]</text>
<text text-anchor="middle" x="668.75" y="-192.7" font-family="Times,serif" font-size="14.00">sp: 93.9</text>
<text text-anchor="middle" x="668.75" y="-178.45" font-family="Times,serif" font-size="14.00">dim: 0</text>
</g>
<!-- [90.0..105.0, 10.0..30.0]&#45;&gt;[90.0..95.0, 10.0..30.0] -->
<g id="edge3" class="edge">
<title>[90.0..105.0, 10.0..30.0]&#45;&gt;[90.0..95.0, 10.0..30.0]</title>
<path fill="none" stroke="black" d="M834.12,-137.98C807.1,-147.77 775.89,-159.07 747.92,-169.2"/>
<polygon fill="black" stroke="black" points="747.01,-165.81 738.8,-172.5 749.39,-172.39 747.01,-165.81"/>
</g>
<!-- [105.0..105.0, 20.0..20.0] -->
<g id="node12" class="node">
<title>[105.0..105.0, 20.0..20.0]</title>
<polygon fill="none" stroke="black" points="1014.25,-224.25 791.25,-224.25 791.25,-173.5 1014.25,-173.5 1014.25,-224.25"/>
<text text-anchor="middle" x="902.75" y="-206.95" font-family="Times,serif" font-size="14.00">borders: [[105.0, 105.0], [20.0, 20.0]]</text>
<text text-anchor="middle" x="902.75" y="-192.7" font-family="Times,serif" font-size="14.00">path_length: 2</text>
<text text-anchor="middle" x="902.75" y="-178.45" font-family="Times,serif" font-size="14.00">depth: 2</text>
</g>
<!-- [90.0..105.0, 10.0..30.0]&#45;&gt;[105.0..105.0, 20.0..20.0] -->
<g id="edge4" class="edge">
<title>[90.0..105.0, 10.0..30.0]&#45;&gt;[105.0..105.0, 20.0..20.0]</title>
<path fill="none" stroke="black" d="M902.75,-137.64C902.75,-145.13 902.75,-153.53 902.75,-161.62"/>
<polygon fill="black" stroke="black" points="899.25,-161.61 902.75,-171.61 906.25,-161.61 899.25,-161.61"/>
</g>
<!-- [90.0..90.0, 10.0..30.0] -->
<g id="node4" class="node">
<title>[90.0..90.0, 10.0..30.0]</title>
<polygon fill="none" stroke="black" points="551.5,-311 342,-311 342,-260.25 551.5,-260.25 551.5,-311"/>
<text text-anchor="middle" x="446.75" y="-293.7" font-family="Times,serif" font-size="14.00">borders: [[90.0, 90.0], [10.0, 30.0]]</text>
<text text-anchor="middle" x="446.75" y="-279.45" font-family="Times,serif" font-size="14.00">sp: 27.64</text>
<text text-anchor="middle" x="446.75" y="-265.2" font-family="Times,serif" font-size="14.00">dim: 1</text>
</g>
<!-- [90.0..95.0, 10.0..30.0]&#45;&gt;[90.0..90.0, 10.0..30.0] -->
<g id="edge5" class="edge">
<title>[90.0..95.0, 10.0..30.0]&#45;&gt;[90.0..90.0, 10.0..30.0]</title>
<path fill="none" stroke="black" d="M603.64,-224.73C578.23,-234.43 548.92,-245.62 522.56,-255.68"/>
<polygon fill="black" stroke="black" points="521.36,-252.39 513.27,-259.23 523.86,-258.93 521.36,-252.39"/>
</g>
<!-- [95.0..95.0, 15.0..25.0] -->
<g id="node9" class="node">
<title>[95.0..95.0, 15.0..25.0]</title>
<polygon fill="none" stroke="black" points="779.5,-311 570,-311 570,-260.25 779.5,-260.25 779.5,-311"/>
<text text-anchor="middle" x="674.75" y="-293.7" font-family="Times,serif" font-size="14.00">borders: [[95.0, 95.0], [15.0, 25.0]]</text>
<text text-anchor="middle" x="674.75" y="-279.45" font-family="Times,serif" font-size="14.00">sp: 15.78</text>
<text text-anchor="middle" x="674.75" y="-265.2" font-family="Times,serif" font-size="14.00">dim: 1</text>
</g>
<!-- [90.0..95.0, 10.0..30.0]&#45;&gt;[95.0..95.0, 15.0..25.0] -->
<g id="edge6" class="edge">
<title>[90.0..95.0, 10.0..30.0]&#45;&gt;[95.0..95.0, 15.0..25.0]</title>
<path fill="none" stroke="black" d="M670.49,-224.39C671.02,-231.96 671.62,-240.47 672.2,-248.65"/>
<polygon fill="black" stroke="black" points="668.69,-248.64 672.89,-258.36 675.68,-248.14 668.69,-248.64"/>
</g>
<!-- [90.0..90.0, 10.0..20.0] -->
<g id="node5" class="node">
<title>[90.0..90.0, 10.0..20.0]</title>
<polygon fill="none" stroke="black" points="323.5,-397.75 114,-397.75 114,-347 323.5,-347 323.5,-397.75"/>
<text text-anchor="middle" x="218.75" y="-380.45" font-family="Times,serif" font-size="14.00">borders: [[90.0, 90.0], [10.0, 20.0]]</text>
<text text-anchor="middle" x="218.75" y="-366.2" font-family="Times,serif" font-size="14.00">sp: 11.08</text>
<text text-anchor="middle" x="218.75" y="-351.95" font-family="Times,serif" font-size="14.00">dim: 1</text>
</g>
<!-- [90.0..90.0, 10.0..30.0]&#45;&gt;[90.0..90.0, 10.0..20.0] -->
<g id="edge7" class="edge">
<title>[90.0..90.0, 10.0..30.0]&#45;&gt;[90.0..90.0, 10.0..20.0]</title>
<path fill="none" stroke="black" d="M379.88,-311.48C353.67,-321.22 323.41,-332.47 296.25,-342.57"/>
<polygon fill="black" stroke="black" points="295.19,-339.23 287.03,-345.99 297.63,-345.79 295.19,-339.23"/>
</g>
<!-- [90.0..90.0, 30.0..30.0] -->
<g id="node8" class="node">
<title>[90.0..90.0, 30.0..30.0]</title>
<polygon fill="none" stroke="black" points="551.5,-397.75 342,-397.75 342,-347 551.5,-347 551.5,-397.75"/>
<text text-anchor="middle" x="446.75" y="-380.45" font-family="Times,serif" font-size="14.00">borders: [[90.0, 90.0], [30.0, 30.0]]</text>
<text text-anchor="middle" x="446.75" y="-366.2" font-family="Times,serif" font-size="14.00">path_length: 4</text>
<text text-anchor="middle" x="446.75" y="-351.95" font-family="Times,serif" font-size="14.00">depth: 4</text>
</g>
<!-- [90.0..90.0, 10.0..30.0]&#45;&gt;[90.0..90.0, 30.0..30.0] -->
<g id="edge8" class="edge">
<title>[90.0..90.0, 10.0..30.0]&#45;&gt;[90.0..90.0, 30.0..30.0]</title>
<path fill="none" stroke="black" d="M446.75,-311.14C446.75,-318.63 446.75,-327.03 446.75,-335.12"/>
<polygon fill="black" stroke="black" points="443.25,-335.11 446.75,-345.11 450.25,-335.11 443.25,-335.11"/>
</g>
<!-- [90.0..90.0, 10.0..10.0] -->
<g id="node6" class="node">
<title>[90.0..90.0, 10.0..10.0]</title>
<polygon fill="none" stroke="black" points="209.5,-484.5 0,-484.5 0,-433.75 209.5,-433.75 209.5,-484.5"/>
<text text-anchor="middle" x="104.75" y="-467.2" font-family="Times,serif" font-size="14.00">borders: [[90.0, 90.0], [10.0, 10.0]]</text>
<text text-anchor="middle" x="104.75" y="-452.95" font-family="Times,serif" font-size="14.00">path_length: 5</text>
<text text-anchor="middle" x="104.75" y="-438.7" font-family="Times,serif" font-size="14.00">depth: 5</text>
</g>
<!-- [90.0..90.0, 10.0..20.0]&#45;&gt;[90.0..90.0, 10.0..10.0] -->
<g id="edge9" class="edge">
<title>[90.0..90.0, 10.0..20.0]&#45;&gt;[90.0..90.0, 10.0..10.0]</title>
<path fill="none" stroke="black" d="M185.47,-398.12C173.41,-407.08 159.63,-417.33 146.91,-426.78"/>
<polygon fill="black" stroke="black" points="145.03,-423.82 139.09,-432.6 149.2,-429.44 145.03,-423.82"/>
</g>
<!-- [90.0..90.0, 20.0..20.0] -->
<g id="node7" class="node">
<title>[90.0..90.0, 20.0..20.0]</title>
<polygon fill="none" stroke="black" points="437.5,-484.5 228,-484.5 228,-433.75 437.5,-433.75 437.5,-484.5"/>
<text text-anchor="middle" x="332.75" y="-467.2" font-family="Times,serif" font-size="14.00">borders: [[90.0, 90.0], [20.0, 20.0]]</text>
<text text-anchor="middle" x="332.75" y="-452.95" font-family="Times,serif" font-size="14.00">path_length: 5</text>
<text text-anchor="middle" x="332.75" y="-438.7" font-family="Times,serif" font-size="14.00">depth: 5</text>
</g>
<!-- [90.0..90.0, 10.0..20.0]&#45;&gt;[90.0..90.0, 20.0..20.0] -->
<g id="edge10" class="edge">
<title>[90.0..90.0, 10.0..20.0]&#45;&gt;[90.0..90.0, 20.0..20.0]</title>
<path fill="none" stroke="black" d="M252.03,-398.12C264.09,-407.08 277.87,-417.33 290.59,-426.78"/>
<polygon fill="black" stroke="black" points="288.3,-429.44 298.41,-432.6 292.47,-423.82 288.3,-429.44"/>
</g>
<!-- [95.0..95.0, 15.0..15.0] -->
<g id="node10" class="node">
<title>[95.0..95.0, 15.0..15.0]</title>
<polygon fill="none" stroke="black" points="779.5,-397.75 570,-397.75 570,-347 779.5,-347 779.5,-397.75"/>
<text text-anchor="middle" x="674.75" y="-380.45" font-family="Times,serif" font-size="14.00">borders: [[95.0, 95.0], [15.0, 15.0]]</text>
<text text-anchor="middle" x="674.75" y="-366.2" font-family="Times,serif" font-size="14.00">path_length: 4</text>
<text text-anchor="middle" x="674.75" y="-351.95" font-family="Times,serif" font-size="14.00">depth: 4</text>
</g>
<!-- [95.0..95.0, 15.0..25.0]&#45;&gt;[95.0..95.0, 15.0..15.0] -->
<g id="edge11" class="edge">
<title>[95.0..95.0, 15.0..25.0]&#45;&gt;[95.0..95.0, 15.0..15.0]</title>
<path fill="none" stroke="black" d="M674.75,-311.14C674.75,-318.63 674.75,-327.03 674.75,-335.12"/>
<polygon fill="black" stroke="black" points="671.25,-335.11 674.75,-345.11 678.25,-335.11 671.25,-335.11"/>
</g>
<!-- [95.0..95.0, 25.0..25.0] -->
<g id="node11" class="node">
<title>[95.0..95.0, 25.0..25.0]</title>
<polygon fill="none" stroke="black" points="1007.5,-397.75 798,-397.75 798,-347 1007.5,-347 1007.5,-397.75"/>
<text text-anchor="middle" x="902.75" y="-380.45" font-family="Times,serif" font-size="14.00">borders: [[95.0, 95.0], [25.0, 25.0]]</text>
<text text-anchor="middle" x="902.75" y="-366.2" font-family="Times,serif" font-size="14.00">path_length: 4</text>
<text text-anchor="middle" x="902.75" y="-351.95" font-family="Times,serif" font-size="14.00">depth: 4</text>
</g>
<!-- [95.0..95.0, 15.0..25.0]&#45;&gt;[95.0..95.0, 25.0..25.0] -->
<g id="edge12" class="edge">
<title>[95.0..95.0, 15.0..25.0]&#45;&gt;[95.0..95.0, 25.0..25.0]</title>
<path fill="none" stroke="black" d="M741.62,-311.48C767.83,-321.22 798.09,-332.47 825.25,-342.57"/>
<polygon fill="black" stroke="black" points="823.87,-345.79 834.47,-345.99 826.31,-339.23 823.87,-345.79"/>
</g>
<!-- [15.0..20.0, 85.0..90.0] -->
<g id="node14" class="node">
<title>[15.0..20.0, 85.0..90.0]</title>
<polygon fill="none" stroke="black" points="1241.5,-224.25 1032,-224.25 1032,-173.5 1241.5,-173.5 1241.5,-224.25"/>
<text text-anchor="middle" x="1136.75" y="-206.95" font-family="Times,serif" font-size="14.00">borders: [[15.0, 20.0], [85.0, 90.0]]</text>
<text text-anchor="middle" x="1136.75" y="-192.7" font-family="Times,serif" font-size="14.00">sp: 19.82</text>
<text text-anchor="middle" x="1136.75" y="-178.45" font-family="Times,serif" font-size="14.00">dim: 0</text>
</g>
<!-- [15.0..35.0, 85.0..100.0]&#45;&gt;[15.0..20.0, 85.0..90.0] -->
<g id="edge13" class="edge">
<title>[15.0..35.0, 85.0..100.0]&#45;&gt;[15.0..20.0, 85.0..90.0]</title>
<path fill="none" stroke="black" d="M1136.75,-137.64C1136.75,-145.13 1136.75,-153.53 1136.75,-161.62"/>
<polygon fill="black" stroke="black" points="1133.25,-161.61 1136.75,-171.61 1140.25,-161.61 1133.25,-161.61"/>
</g>
<!-- [25.0..35.0, 85.0..100.0] -->
<g id="node17" class="node">
<title>[25.0..35.0, 85.0..100.0]</title>
<polygon fill="none" stroke="black" points="1475.88,-224.25 1259.62,-224.25 1259.62,-173.5 1475.88,-173.5 1475.88,-224.25"/>
<text text-anchor="middle" x="1367.75" y="-206.95" font-family="Times,serif" font-size="14.00">borders: [[25.0, 35.0], [85.0, 100.0]]</text>
<text text-anchor="middle" x="1367.75" y="-192.7" font-family="Times,serif" font-size="14.00">sp: 30.17</text>
<text text-anchor="middle" x="1367.75" y="-178.45" font-family="Times,serif" font-size="14.00">dim: 0</text>
</g>
<!-- [15.0..35.0, 85.0..100.0]&#45;&gt;[25.0..35.0, 85.0..100.0] -->
<g id="edge14" class="edge">
<title>[15.0..35.0, 85.0..100.0]&#45;&gt;[25.0..35.0, 85.0..100.0]</title>
<path fill="none" stroke="black" d="M1204.5,-137.98C1231.06,-147.72 1261.71,-158.97 1289.23,-169.07"/>
<polygon fill="black" stroke="black" points="1287.99,-172.34 1298.58,-172.5 1290.4,-165.77 1287.99,-172.34"/>
</g>
<!-- [15.0..15.0, 85.0..85.0] -->
<g id="node15" class="node">
<title>[15.0..15.0, 85.0..85.0]</title>
<polygon fill="none" stroke="black" points="1013.5,-311 804,-311 804,-260.25 1013.5,-260.25 1013.5,-311"/>
<text text-anchor="middle" x="908.75" y="-293.7" font-family="Times,serif" font-size="14.00">borders: [[15.0, 15.0], [85.0, 85.0]]</text>
<text text-anchor="middle" x="908.75" y="-279.45" font-family="Times,serif" font-size="14.00">path_length: 3</text>
<text text-anchor="middle" x="908.75" y="-265.2" font-family="Times,serif" font-size="14.00">depth: 3</text>
</g>
<!-- [15.0..20.0, 85.0..90.0]&#45;&gt;[15.0..15.0, 85.0..85.0] -->
<g id="edge15" class="edge">
<title>[15.0..20.0, 85.0..90.0]&#45;&gt;[15.0..15.0, 85.0..85.0]</title>
<path fill="none" stroke="black" d="M1069.88,-224.73C1043.67,-234.47 1013.41,-245.72 986.25,-255.82"/>
<polygon fill="black" stroke="black" points="985.19,-252.48 977.03,-259.24 987.63,-259.04 985.19,-252.48"/>
</g>
<!-- [20.0..20.0, 90.0..90.0] -->
<g id="node16" class="node">
<title>[20.0..20.0, 90.0..90.0]</title>
<polygon fill="none" stroke="black" points="1241.5,-311 1032,-311 1032,-260.25 1241.5,-260.25 1241.5,-311"/>
<text text-anchor="middle" x="1136.75" y="-293.7" font-family="Times,serif" font-size="14.00">borders: [[20.0, 20.0], [90.0, 90.0]]</text>
<text text-anchor="middle" x="1136.75" y="-279.45" font-family="Times,serif" font-size="14.00">path_length: 3</text>
<text text-anchor="middle" x="1136.75" y="-265.2" font-family="Times,serif" font-size="14.00">depth: 3</text>
</g>
<!-- [15.0..20.0, 85.0..90.0]&#45;&gt;[20.0..20.0, 90.0..90.0] -->
<g id="edge16" class="edge">
<title>[15.0..20.0, 85.0..90.0]&#45;&gt;[20.0..20.0, 90.0..90.0]</title>
<path fill="none" stroke="black" d="M1136.75,-224.39C1136.75,-231.88 1136.75,-240.28 1136.75,-248.37"/>
<polygon fill="black" stroke="black" points="1133.25,-248.36 1136.75,-258.36 1140.25,-248.36 1133.25,-248.36"/>
</g>
<!-- [25.0..30.0, 85.0..100.0] -->
<g id="node18" class="node">
<title>[25.0..30.0, 85.0..100.0]</title>
<polygon fill="none" stroke="black" points="1475.88,-311 1259.62,-311 1259.62,-260.25 1475.88,-260.25 1475.88,-311"/>
<text text-anchor="middle" x="1367.75" y="-293.7" font-family="Times,serif" font-size="14.00">borders: [[25.0, 30.0], [85.0, 100.0]]</text>
<text text-anchor="middle" x="1367.75" y="-279.45" font-family="Times,serif" font-size="14.00">sp: 28.93</text>
<text text-anchor="middle" x="1367.75" y="-265.2" font-family="Times,serif" font-size="14.00">dim: 0</text>
</g>
<!-- [25.0..35.0, 85.0..100.0]&#45;&gt;[25.0..30.0, 85.0..100.0] -->
<g id="edge17" class="edge">
<title>[25.0..35.0, 85.0..100.0]&#45;&gt;[25.0..30.0, 85.0..100.0]</title>
<path fill="none" stroke="black" d="M1367.75,-224.39C1367.75,-231.88 1367.75,-240.28 1367.75,-248.37"/>
<polygon fill="black" stroke="black" points="1364.25,-248.36 1367.75,-258.36 1371.25,-248.36 1364.25,-248.36"/>
</g>
<!-- [35.0..35.0, 85.0..85.0] -->
<g id="node23" class="node">
<title>[35.0..35.0, 85.0..85.0]</title>
<polygon fill="none" stroke="black" points="1703.5,-311 1494,-311 1494,-260.25 1703.5,-260.25 1703.5,-311"/>
<text text-anchor="middle" x="1598.75" y="-293.7" font-family="Times,serif" font-size="14.00">borders: [[35.0, 35.0], [85.0, 85.0]]</text>
<text text-anchor="middle" x="1598.75" y="-279.45" font-family="Times,serif" font-size="14.00">path_length: 3</text>
<text text-anchor="middle" x="1598.75" y="-265.2" font-family="Times,serif" font-size="14.00">depth: 3</text>
</g>
<!-- [25.0..35.0, 85.0..100.0]&#45;&gt;[35.0..35.0, 85.0..85.0] -->
<g id="edge18" class="edge">
<title>[25.0..35.0, 85.0..100.0]&#45;&gt;[35.0..35.0, 85.0..85.0]</title>
<path fill="none" stroke="black" d="M1435.5,-224.73C1462.06,-234.47 1492.71,-245.72 1520.23,-255.82"/>
<polygon fill="black" stroke="black" points="1518.99,-259.09 1529.58,-259.25 1521.4,-252.52 1518.99,-259.09"/>
</g>
<!-- [25.0..25.0, 85.0..100.0] -->
<g id="node19" class="node">
<title>[25.0..25.0, 85.0..100.0]</title>
<polygon fill="none" stroke="black" points="1360.88,-397.75 1144.62,-397.75 1144.62,-347 1360.88,-347 1360.88,-397.75"/>
<text text-anchor="middle" x="1252.75" y="-380.45" font-family="Times,serif" font-size="14.00">borders: [[25.0, 25.0], [85.0, 100.0]]</text>
<text text-anchor="middle" x="1252.75" y="-366.2" font-family="Times,serif" font-size="14.00">sp: 95.0</text>
<text text-anchor="middle" x="1252.75" y="-351.95" font-family="Times,serif" font-size="14.00">dim: 1</text>
</g>
<!-- [25.0..30.0, 85.0..100.0]&#45;&gt;[25.0..25.0, 85.0..100.0] -->
<g id="edge19" class="edge">
<title>[25.0..30.0, 85.0..100.0]&#45;&gt;[25.0..25.0, 85.0..100.0]</title>
<path fill="none" stroke="black" d="M1334.18,-311.37C1322.01,-320.33 1308.11,-330.58 1295.28,-340.03"/>
<polygon fill="black" stroke="black" points="1293.36,-337.1 1287.38,-345.85 1297.51,-342.74 1293.36,-337.1"/>
</g>
<!-- [30.0..30.0, 90.0..90.0] -->
<g id="node22" class="node">
<title>[30.0..30.0, 90.0..90.0]</title>
<polygon fill="none" stroke="black" points="1588.5,-397.75 1379,-397.75 1379,-347 1588.5,-347 1588.5,-397.75"/>
<text text-anchor="middle" x="1483.75" y="-380.45" font-family="Times,serif" font-size="14.00">borders: [[30.0, 30.0], [90.0, 90.0]]</text>
<text text-anchor="middle" x="1483.75" y="-366.2" font-family="Times,serif" font-size="14.00">path_length: 4</text>
<text text-anchor="middle" x="1483.75" y="-351.95" font-family="Times,serif" font-size="14.00">depth: 4</text>
</g>
<!-- [25.0..30.0, 85.0..100.0]&#45;&gt;[30.0..30.0, 90.0..90.0] -->
<g id="edge20" class="edge">
<title>[25.0..30.0, 85.0..100.0]&#45;&gt;[30.0..30.0, 90.0..90.0]</title>
<path fill="none" stroke="black" d="M1401.61,-311.37C1413.88,-320.33 1427.91,-330.58 1440.85,-340.03"/>
<polygon fill="black" stroke="black" points="1438.68,-342.78 1448.82,-345.86 1442.81,-337.13 1438.68,-342.78"/>
</g>
<!-- [25.0..25.0, 85.0..85.0] -->
<g id="node20" class="node">
<title>[25.0..25.0, 85.0..85.0]</title>
<polygon fill="none" stroke="black" points="1240.5,-484.5 1031,-484.5 1031,-433.75 1240.5,-433.75 1240.5,-484.5"/>
<text text-anchor="middle" x="1135.75" y="-467.2" font-family="Times,serif" font-size="14.00">borders: [[25.0, 25.0], [85.0, 85.0]]</text>
<text text-anchor="middle" x="1135.75" y="-452.95" font-family="Times,serif" font-size="14.00">path_length: 5</text>
<text text-anchor="middle" x="1135.75" y="-438.7" font-family="Times,serif" font-size="14.00">depth: 5</text>
</g>
<!-- [25.0..25.0, 85.0..100.0]&#45;&gt;[25.0..25.0, 85.0..85.0] -->
<g id="edge21" class="edge">
<title>[25.0..25.0, 85.0..100.0]&#45;&gt;[25.0..25.0, 85.0..85.0]</title>
<path fill="none" stroke="black" d="M1218.59,-398.12C1206.22,-407.08 1192.08,-417.33 1179.02,-426.78"/>
<polygon fill="black" stroke="black" points="1177.02,-423.91 1170.97,-432.61 1181.12,-429.58 1177.02,-423.91"/>
</g>
<!-- [25.0..25.0, 100.0..100.0] -->
<g id="node21" class="node">
<title>[25.0..25.0, 100.0..100.0]</title>
<polygon fill="none" stroke="black" points="1481.25,-484.5 1258.25,-484.5 1258.25,-433.75 1481.25,-433.75 1481.25,-484.5"/>
<text text-anchor="middle" x="1369.75" y="-467.2" font-family="Times,serif" font-size="14.00">borders: [[25.0, 25.0], [100.0, 100.0]]</text>
<text text-anchor="middle" x="1369.75" y="-452.95" font-family="Times,serif" font-size="14.00">path_length: 5</text>
<text text-anchor="middle" x="1369.75" y="-438.7" font-family="Times,serif" font-size="14.00">depth: 5</text>
</g>
<!-- [25.0..25.0, 85.0..100.0]&#45;&gt;[25.0..25.0, 100.0..100.0] -->
<g id="edge22" class="edge">
<title>[25.0..25.0, 85.0..100.0]&#45;&gt;[25.0..25.0, 100.0..100.0]</title>
<path fill="none" stroke="black" d="M1286.91,-398.12C1299.28,-407.08 1313.42,-417.33 1326.48,-426.78"/>
<polygon fill="black" stroke="black" points="1324.38,-429.58 1334.53,-432.61 1328.48,-423.91 1324.38,-429.58"/>
</g>
</g>
</svg>
