<?xml version="1.0" encoding="UTF-8" standalone="no"?>
<!DOCTYPE svg PUBLIC "-//W3C//DTD SVG 1.1//EN"
 "http://www.w3.org/Graphics/SVG/1.1/DTD/svg11.dtd">
<!-- Generated by graphviz version 2.43.0 (0)
 -->
<!-- Title: G Pages: 1 -->
<svg width="1787pt" height="700pt"
 viewBox="0.00 0.00 1787.00 700.00" xmlns="http://www.w3.org/2000/svg" xmlns:xlink="http://www.w3.org/1999/xlink">
<g id="graph0" class="graph" transform="scale(1 1) rotate(0) translate(4 696)">
<title>G</title>
<polygon fill="white" stroke="transparent" points="-4,4 -4,-696 1783,-696 1783,4 -4,4"/>
<!-- [100..500, 0..150] -->
<g id="node1" class="node">
<title>[100..500, 0..150]</title>
<polygon fill="none" stroke="black" points="230,-160 0,-160 0,-107 230,-107 230,-160"/>
<text text-anchor="middle" x="115" y="-144.8" font-family="Times,serif" font-size="14.00">borders: [[100, 500], [0, 150]]</text>
<text text-anchor="middle" x="115" y="-129.8" font-family="Times,serif" font-size="14.00">sp: 300.0</text>
<text text-anchor="middle" x="115" y="-114.8" font-family="Times,serif" font-size="14.00">dim: 0</text>
</g>
<!-- [100..300.0, 0..150] -->
<g id="node2" class="node">
<title>[100..300.0, 0..150]</title>
<polygon fill="none" stroke="black" points="509,-196 266,-196 266,-143 509,-143 509,-196"/>
<text text-anchor="middle" x="387.5" y="-180.8" font-family="Times,serif" font-size="14.00">borders: [[100, 300.0], [0, 150]]</text>
<text text-anchor="middle" x="387.5" y="-165.8" font-family="Times,serif" font-size="14.00">sp: 75.0</text>
<text text-anchor="middle" x="387.5" y="-150.8" font-family="Times,serif" font-size="14.00">dim: 1</text>
</g>
<!-- [100..500, 0..150]&#45;&gt;[100..300.0, 0..150] -->
<g id="edge1" class="edge">
<title>[100..500, 0..150]&#45;&gt;[100..300.0, 0..150]</title>
<path fill="none" stroke="black" d="M230.32,-148.72C238.72,-149.83 247.22,-150.96 255.71,-152.09"/>
<polygon fill="black" stroke="black" points="255.27,-155.57 265.64,-153.42 256.19,-148.63 255.27,-155.57"/>
</g>
<!-- [300.0..500, 0..150] -->
<g id="node25" class="node">
<title>[300.0..500, 0..150]</title>
<polygon fill="none" stroke="black" points="509,-125 266,-125 266,-72 509,-72 509,-125"/>
<text text-anchor="middle" x="387.5" y="-109.8" font-family="Times,serif" font-size="14.00">borders: [[300.0, 500], [0, 150]]</text>
<text text-anchor="middle" x="387.5" y="-94.8" font-family="Times,serif" font-size="14.00">path_length: 1</text>
<text text-anchor="middle" x="387.5" y="-79.8" font-family="Times,serif" font-size="14.00">depth: 1</text>
</g>
<!-- [100..500, 0..150]&#45;&gt;[300.0..500, 0..150] -->
<g id="edge2" class="edge">
<title>[100..500, 0..150]&#45;&gt;[300.0..500, 0..150]</title>
<path fill="none" stroke="black" d="M230.32,-118.71C238.72,-117.62 247.22,-116.52 255.71,-115.42"/>
<polygon fill="black" stroke="black" points="256.17,-118.89 265.64,-114.14 255.28,-111.95 256.17,-118.89"/>
</g>
<!-- [100..300.0, 0..75.0] -->
<g id="node3" class="node">
<title>[100..300.0, 0..75.0]</title>
<polygon fill="none" stroke="black" points="802,-302 554,-302 554,-249 802,-249 802,-302"/>
<text text-anchor="middle" x="678" y="-286.8" font-family="Times,serif" font-size="14.00">borders: [[100, 300.0], [0, 75.0]]</text>
<text text-anchor="middle" x="678" y="-271.8" font-family="Times,serif" font-size="14.00">sp: 200.0</text>
<text text-anchor="middle" x="678" y="-256.8" font-family="Times,serif" font-size="14.00">dim: 0</text>
</g>
<!-- [100..300.0, 0..150]&#45;&gt;[100..300.0, 0..75.0] -->
<g id="edge3" class="edge">
<title>[100..300.0, 0..150]&#45;&gt;[100..300.0, 0..75.0]</title>
<path fill="none" stroke="black" d="M460.93,-196.11C501.82,-211.13 553.04,-229.96 595.35,-245.5"/>
<polygon fill="black" stroke="black" points="594.2,-248.81 604.79,-248.97 596.61,-242.24 594.2,-248.81"/>
</g>
<!-- [100..300.0, 75.0..150] -->
<g id="node18" class="node">
<title>[100..300.0, 75.0..150]</title>
<polygon fill="none" stroke="black" points="811,-124 545,-124 545,-71 811,-71 811,-124"/>
<text text-anchor="middle" x="678" y="-108.8" font-family="Times,serif" font-size="14.00">borders: [[100, 300.0], [75.0, 150]]</text>
<text text-anchor="middle" x="678" y="-93.8" font-family="Times,serif" font-size="14.00">sp: 112.5</text>
<text text-anchor="middle" x="678" y="-78.8" font-family="Times,serif" font-size="14.00">dim: 1</text>
</g>
<!-- [100..300.0, 0..150]&#45;&gt;[100..300.0, 75.0..150] -->
<g id="edge4" class="edge">
<title>[100..300.0, 0..150]&#45;&gt;[100..300.0, 75.0..150]</title>
<path fill="none" stroke="black" d="M494.7,-143C516.15,-137.64 538.82,-131.99 560.61,-126.55"/>
<polygon fill="black" stroke="black" points="561.69,-129.88 570.54,-124.07 559.99,-123.09 561.69,-129.88"/>
</g>
<!-- [100..200.0, 0..75.0] -->
<g id="node4" class="node">
<title>[100..200.0, 0..75.0]</title>
<polygon fill="none" stroke="black" points="1110.5,-514 862.5,-514 862.5,-461 1110.5,-461 1110.5,-514"/>
<text text-anchor="middle" x="986.5" y="-498.8" font-family="Times,serif" font-size="14.00">borders: [[100, 200.0], [0, 75.0]]</text>
<text text-anchor="middle" x="986.5" y="-483.8" font-family="Times,serif" font-size="14.00">sp: 37.5</text>
<text text-anchor="middle" x="986.5" y="-468.8" font-family="Times,serif" font-size="14.00">dim: 1</text>
</g>
<!-- [100..300.0, 0..75.0]&#45;&gt;[100..200.0, 0..75.0] -->
<g id="edge5" class="edge">
<title>[100..300.0, 0..75.0]&#45;&gt;[100..200.0, 0..75.0]</title>
<path fill="none" stroke="black" d="M717.51,-302.14C773.71,-341.01 878.09,-413.2 938.66,-455.1"/>
<polygon fill="black" stroke="black" points="936.69,-458 946.91,-460.81 940.68,-452.24 936.69,-458"/>
</g>
<!-- [200.0..300.0, 0..75.0] -->
<g id="node11" class="node">
<title>[200.0..300.0, 0..75.0]</title>
<polygon fill="none" stroke="black" points="1117,-302 856,-302 856,-249 1117,-249 1117,-302"/>
<text text-anchor="middle" x="986.5" y="-286.8" font-family="Times,serif" font-size="14.00">borders: [[200.0, 300.0], [0, 75.0]]</text>
<text text-anchor="middle" x="986.5" y="-271.8" font-family="Times,serif" font-size="14.00">sp: 37.5</text>
<text text-anchor="middle" x="986.5" y="-256.8" font-family="Times,serif" font-size="14.00">dim: 1</text>
</g>
<!-- [100..300.0, 0..75.0]&#45;&gt;[200.0..300.0, 0..75.0] -->
<g id="edge6" class="edge">
<title>[100..300.0, 0..75.0]&#45;&gt;[200.0..300.0, 0..75.0]</title>
<path fill="none" stroke="black" d="M802.34,-275.5C816.67,-275.5 831.36,-275.5 845.88,-275.5"/>
<polygon fill="black" stroke="black" points="845.9,-279 855.9,-275.5 845.9,-272 845.9,-279"/>
</g>
<!-- [100..200.0, 0..37.5] -->
<g id="node5" class="node">
<title>[100..200.0, 0..37.5]</title>
<polygon fill="none" stroke="black" points="1430,-621 1182,-621 1182,-568 1430,-568 1430,-621"/>
<text text-anchor="middle" x="1306" y="-605.8" font-family="Times,serif" font-size="14.00">borders: [[100, 200.0], [0, 37.5]]</text>
<text text-anchor="middle" x="1306" y="-590.8" font-family="Times,serif" font-size="14.00">sp: 150.0</text>
<text text-anchor="middle" x="1306" y="-575.8" font-family="Times,serif" font-size="14.00">dim: 0</text>
</g>
<!-- [100..200.0, 0..75.0]&#45;&gt;[100..200.0, 0..37.5] -->
<g id="edge7" class="edge">
<title>[100..200.0, 0..75.0]&#45;&gt;[100..200.0, 0..37.5]</title>
<path fill="none" stroke="black" d="M1066.39,-514.09C1112.01,-529.46 1169.52,-548.84 1216.65,-564.73"/>
<polygon fill="black" stroke="black" points="1215.65,-568.08 1226.24,-567.96 1217.88,-561.45 1215.65,-568.08"/>
</g>
<!-- [100..200.0, 37.5..75.0] -->
<g id="node8" class="node">
<title>[100..200.0, 37.5..75.0]</title>
<polygon fill="none" stroke="black" points="1441,-514 1171,-514 1171,-461 1441,-461 1441,-514"/>
<text text-anchor="middle" x="1306" y="-498.8" font-family="Times,serif" font-size="14.00">borders: [[100, 200.0], [37.5, 75.0]]</text>
<text text-anchor="middle" x="1306" y="-483.8" font-family="Times,serif" font-size="14.00">sp: 150.0</text>
<text text-anchor="middle" x="1306" y="-468.8" font-family="Times,serif" font-size="14.00">dim: 0</text>
</g>
<!-- [100..200.0, 0..75.0]&#45;&gt;[100..200.0, 37.5..75.0] -->
<g id="edge8" class="edge">
<title>[100..200.0, 0..75.0]&#45;&gt;[100..200.0, 37.5..75.0]</title>
<path fill="none" stroke="black" d="M1110.71,-487.5C1127.02,-487.5 1143.86,-487.5 1160.49,-487.5"/>
<polygon fill="black" stroke="black" points="1160.81,-491 1170.81,-487.5 1160.81,-484 1160.81,-491"/>
</g>
<!-- [100..150.0, 0..37.5] -->
<g id="node6" class="node">
<title>[100..150.0, 0..37.5]</title>
<polygon fill="none" stroke="black" points="1756.5,-692 1508.5,-692 1508.5,-639 1756.5,-639 1756.5,-692"/>
<text text-anchor="middle" x="1632.5" y="-676.8" font-family="Times,serif" font-size="14.00">borders: [[100, 150.0], [0, 37.5]]</text>
<text text-anchor="middle" x="1632.5" y="-661.8" font-family="Times,serif" font-size="14.00">path_length: 5</text>
<text text-anchor="middle" x="1632.5" y="-646.8" font-family="Times,serif" font-size="14.00">depth: 5</text>
</g>
<!-- [100..200.0, 0..37.5]&#45;&gt;[100..150.0, 0..37.5] -->
<g id="edge9" class="edge">
<title>[100..200.0, 0..37.5]&#45;&gt;[100..150.0, 0..37.5]</title>
<path fill="none" stroke="black" d="M1428.29,-621.04C1451.87,-626.2 1476.68,-631.63 1500.55,-636.85"/>
<polygon fill="black" stroke="black" points="1499.84,-640.28 1510.35,-638.99 1501.33,-633.44 1499.84,-640.28"/>
</g>
<!-- [150.0..200.0, 0..37.5] -->
<g id="node7" class="node">
<title>[150.0..200.0, 0..37.5]</title>
<polygon fill="none" stroke="black" points="1763,-621 1502,-621 1502,-568 1763,-568 1763,-621"/>
<text text-anchor="middle" x="1632.5" y="-605.8" font-family="Times,serif" font-size="14.00">borders: [[150.0, 200.0], [0, 37.5]]</text>
<text text-anchor="middle" x="1632.5" y="-590.8" font-family="Times,serif" font-size="14.00">path_length: 7</text>
<text text-anchor="middle" x="1632.5" y="-575.8" font-family="Times,serif" font-size="14.00">depth: 5</text>
</g>
<!-- [100..200.0, 0..37.5]&#45;&gt;[150.0..200.0, 0..37.5] -->
<g id="edge10" class="edge">
<title>[100..200.0, 0..37.5]&#45;&gt;[150.0..200.0, 0..37.5]</title>
<path fill="none" stroke="black" d="M1430.14,-594.5C1450.33,-594.5 1471.37,-594.5 1491.92,-594.5"/>
<polygon fill="black" stroke="black" points="1491.96,-598 1501.96,-594.5 1491.96,-591 1491.96,-598"/>
</g>
<!-- [100..150.0, 37.5..75.0] -->
<g id="node9" class="node">
<title>[100..150.0, 37.5..75.0]</title>
<polygon fill="none" stroke="black" points="1767.5,-550 1497.5,-550 1497.5,-497 1767.5,-497 1767.5,-550"/>
<text text-anchor="middle" x="1632.5" y="-534.8" font-family="Times,serif" font-size="14.00">borders: [[100, 150.0], [37.5, 75.0]]</text>
<text text-anchor="middle" x="1632.5" y="-519.8" font-family="Times,serif" font-size="14.00">path_length: 5</text>
<text text-anchor="middle" x="1632.5" y="-504.8" font-family="Times,serif" font-size="14.00">depth: 5</text>
</g>
<!-- [100..200.0, 37.5..75.0]&#45;&gt;[100..150.0, 37.5..75.0] -->
<g id="edge11" class="edge">
<title>[100..200.0, 37.5..75.0]&#45;&gt;[100..150.0, 37.5..75.0]</title>
<path fill="none" stroke="black" d="M1441.33,-502.4C1456.49,-504.08 1471.99,-505.8 1487.27,-507.5"/>
<polygon fill="black" stroke="black" points="1486.95,-510.98 1497.27,-508.61 1487.72,-504.03 1486.95,-510.98"/>
</g>
<!-- [150.0..200.0, 37.5..75.0] -->
<g id="node10" class="node">
<title>[150.0..200.0, 37.5..75.0]</title>
<polygon fill="none" stroke="black" points="1774.5,-479 1490.5,-479 1490.5,-426 1774.5,-426 1774.5,-479"/>
<text text-anchor="middle" x="1632.5" y="-463.8" font-family="Times,serif" font-size="14.00">borders: [[150.0, 200.0], [37.5, 75.0]]</text>
<text text-anchor="middle" x="1632.5" y="-448.8" font-family="Times,serif" font-size="14.00">path_length: 7.54</text>
<text text-anchor="middle" x="1632.5" y="-433.8" font-family="Times,serif" font-size="14.00">depth: 5</text>
</g>
<!-- [100..200.0, 37.5..75.0]&#45;&gt;[150.0..200.0, 37.5..75.0] -->
<g id="edge12" class="edge">
<title>[100..200.0, 37.5..75.0]&#45;&gt;[150.0..200.0, 37.5..75.0]</title>
<path fill="none" stroke="black" d="M1441.33,-473.01C1454.25,-471.62 1467.42,-470.2 1480.48,-468.79"/>
<polygon fill="black" stroke="black" points="1480.88,-472.27 1490.45,-467.71 1480.13,-465.31 1480.88,-472.27"/>
</g>
<!-- [200.0..300.0, 0..37.5] -->
<g id="node12" class="node">
<title>[200.0..300.0, 0..37.5]</title>
<polygon fill="none" stroke="black" points="1436.5,-337 1175.5,-337 1175.5,-284 1436.5,-284 1436.5,-337"/>
<text text-anchor="middle" x="1306" y="-321.8" font-family="Times,serif" font-size="14.00">borders: [[200.0, 300.0], [0, 37.5]]</text>
<text text-anchor="middle" x="1306" y="-306.8" font-family="Times,serif" font-size="14.00">sp: 18.75</text>
<text text-anchor="middle" x="1306" y="-291.8" font-family="Times,serif" font-size="14.00">dim: 1</text>
</g>
<!-- [200.0..300.0, 0..75.0]&#45;&gt;[200.0..300.0, 0..37.5] -->
<g id="edge13" class="edge">
<title>[200.0..300.0, 0..75.0]&#45;&gt;[200.0..300.0, 0..37.5]</title>
<path fill="none" stroke="black" d="M1117.1,-289.79C1133,-291.54 1149.31,-293.34 1165.35,-295.11"/>
<polygon fill="black" stroke="black" points="1164.98,-298.59 1175.3,-296.2 1165.75,-291.63 1164.98,-298.59"/>
</g>
<!-- [200.0..300.0, 37.5..75.0] -->
<g id="node15" class="node">
<title>[200.0..300.0, 37.5..75.0]</title>
<polygon fill="none" stroke="black" points="1448,-266 1164,-266 1164,-213 1448,-213 1448,-266"/>
<text text-anchor="middle" x="1306" y="-250.8" font-family="Times,serif" font-size="14.00">borders: [[200.0, 300.0], [37.5, 75.0]]</text>
<text text-anchor="middle" x="1306" y="-235.8" font-family="Times,serif" font-size="14.00">sp: 250.0</text>
<text text-anchor="middle" x="1306" y="-220.8" font-family="Times,serif" font-size="14.00">dim: 0</text>
</g>
<!-- [200.0..300.0, 0..75.0]&#45;&gt;[200.0..300.0, 37.5..75.0] -->
<g id="edge14" class="edge">
<title>[200.0..300.0, 0..75.0]&#45;&gt;[200.0..300.0, 37.5..75.0]</title>
<path fill="none" stroke="black" d="M1117.1,-260.81C1129.15,-259.44 1141.44,-258.05 1153.67,-256.66"/>
<polygon fill="black" stroke="black" points="1154.38,-260.1 1163.93,-255.5 1153.59,-253.14 1154.38,-260.1"/>
</g>
<!-- [200.0..300.0, 0..18.75] -->
<g id="node13" class="node">
<title>[200.0..300.0, 0..18.75]</title>
<polygon fill="none" stroke="black" points="1767.5,-408 1497.5,-408 1497.5,-355 1767.5,-355 1767.5,-408"/>
<text text-anchor="middle" x="1632.5" y="-392.8" font-family="Times,serif" font-size="14.00">borders: [[200.0, 300.0], [0, 18.75]]</text>
<text text-anchor="middle" x="1632.5" y="-377.8" font-family="Times,serif" font-size="14.00">path_length: 6</text>
<text text-anchor="middle" x="1632.5" y="-362.8" font-family="Times,serif" font-size="14.00">depth: 5</text>
</g>
<!-- [200.0..300.0, 0..37.5]&#45;&gt;[200.0..300.0, 0..18.75] -->
<g id="edge15" class="edge">
<title>[200.0..300.0, 0..37.5]&#45;&gt;[200.0..300.0, 0..18.75]</title>
<path fill="none" stroke="black" d="M1428.29,-337.04C1451.87,-342.2 1476.68,-347.63 1500.55,-352.85"/>
<polygon fill="black" stroke="black" points="1499.84,-356.28 1510.35,-354.99 1501.33,-349.44 1499.84,-356.28"/>
</g>
<!-- [200.0..300.0, 18.75..37.5] -->
<g id="node14" class="node">
<title>[200.0..300.0, 18.75..37.5]</title>
<polygon fill="none" stroke="black" points="1779,-337 1486,-337 1486,-284 1779,-284 1779,-337"/>
<text text-anchor="middle" x="1632.5" y="-321.8" font-family="Times,serif" font-size="14.00">borders: [[200.0, 300.0], [18.75, 37.5]]</text>
<text text-anchor="middle" x="1632.5" y="-306.8" font-family="Times,serif" font-size="14.00">path_length: 7</text>
<text text-anchor="middle" x="1632.5" y="-291.8" font-family="Times,serif" font-size="14.00">depth: 5</text>
</g>
<!-- [200.0..300.0, 0..37.5]&#45;&gt;[200.0..300.0, 18.75..37.5] -->
<g id="edge16" class="edge">
<title>[200.0..300.0, 0..37.5]&#45;&gt;[200.0..300.0, 18.75..37.5]</title>
<path fill="none" stroke="black" d="M1436.65,-310.5C1449.52,-310.5 1462.68,-310.5 1475.78,-310.5"/>
<polygon fill="black" stroke="black" points="1475.78,-314 1485.78,-310.5 1475.78,-307 1475.78,-314"/>
</g>
<!-- [200.0..250.0, 37.5..75.0] -->
<g id="node16" class="node">
<title>[200.0..250.0, 37.5..75.0]</title>
<polygon fill="none" stroke="black" points="1774.5,-266 1490.5,-266 1490.5,-213 1774.5,-213 1774.5,-266"/>
<text text-anchor="middle" x="1632.5" y="-250.8" font-family="Times,serif" font-size="14.00">borders: [[200.0, 250.0], [37.5, 75.0]]</text>
<text text-anchor="middle" x="1632.5" y="-235.8" font-family="Times,serif" font-size="14.00">path_length: 10.05</text>
<text text-anchor="middle" x="1632.5" y="-220.8" font-family="Times,serif" font-size="14.00">depth: 5</text>
</g>
<!-- [200.0..300.0, 37.5..75.0]&#45;&gt;[200.0..250.0, 37.5..75.0] -->
<g id="edge17" class="edge">
<title>[200.0..300.0, 37.5..75.0]&#45;&gt;[200.0..250.0, 37.5..75.0]</title>
<path fill="none" stroke="black" d="M1448.39,-239.5C1458.93,-239.5 1469.6,-239.5 1480.21,-239.5"/>
<polygon fill="black" stroke="black" points="1480.35,-243 1490.35,-239.5 1480.35,-236 1480.35,-243"/>
</g>
<!-- [250.0..300.0, 37.5..75.0] -->
<g id="node17" class="node">
<title>[250.0..300.0, 37.5..75.0]</title>
<polygon fill="none" stroke="black" points="1774.5,-195 1490.5,-195 1490.5,-142 1774.5,-142 1774.5,-195"/>
<text text-anchor="middle" x="1632.5" y="-179.8" font-family="Times,serif" font-size="14.00">borders: [[250.0, 300.0], [37.5, 75.0]]</text>
<text text-anchor="middle" x="1632.5" y="-164.8" font-family="Times,serif" font-size="14.00">path_length: 5</text>
<text text-anchor="middle" x="1632.5" y="-149.8" font-family="Times,serif" font-size="14.00">depth: 5</text>
</g>
<!-- [200.0..300.0, 37.5..75.0]&#45;&gt;[250.0..300.0, 37.5..75.0] -->
<g id="edge18" class="edge">
<title>[200.0..300.0, 37.5..75.0]&#45;&gt;[250.0..300.0, 37.5..75.0]</title>
<path fill="none" stroke="black" d="M1428.29,-212.96C1451.87,-207.8 1476.68,-202.37 1500.55,-197.15"/>
<polygon fill="black" stroke="black" points="1501.33,-200.56 1510.35,-195.01 1499.84,-193.72 1501.33,-200.56"/>
</g>
<!-- [100..300.0, 75.0..112.5] -->
<g id="node19" class="node">
<title>[100..300.0, 75.0..112.5]</title>
<polygon fill="none" stroke="black" points="1126,-124 847,-124 847,-71 1126,-71 1126,-124"/>
<text text-anchor="middle" x="986.5" y="-108.8" font-family="Times,serif" font-size="14.00">borders: [[100, 300.0], [75.0, 112.5]]</text>
<text text-anchor="middle" x="986.5" y="-93.8" font-family="Times,serif" font-size="14.00">sp: 93.75</text>
<text text-anchor="middle" x="986.5" y="-78.8" font-family="Times,serif" font-size="14.00">dim: 1</text>
</g>
<!-- [100..300.0, 75.0..150]&#45;&gt;[100..300.0, 75.0..112.5] -->
<g id="edge19" class="edge">
<title>[100..300.0, 75.0..150]&#45;&gt;[100..300.0, 75.0..112.5]</title>
<path fill="none" stroke="black" d="M811.21,-97.5C819.71,-97.5 828.3,-97.5 836.87,-97.5"/>
<polygon fill="black" stroke="black" points="836.91,-101 846.91,-97.5 836.91,-94 836.91,-101"/>
</g>
<!-- [100..300.0, 112.5..150] -->
<g id="node24" class="node">
<title>[100..300.0, 112.5..150]</title>
<polygon fill="none" stroke="black" points="1124,-53 849,-53 849,0 1124,0 1124,-53"/>
<text text-anchor="middle" x="986.5" y="-37.8" font-family="Times,serif" font-size="14.00">borders: [[100, 300.0], [112.5, 150]]</text>
<text text-anchor="middle" x="986.5" y="-22.8" font-family="Times,serif" font-size="14.00">path_length: 3</text>
<text text-anchor="middle" x="986.5" y="-7.8" font-family="Times,serif" font-size="14.00">depth: 3</text>
</g>
<!-- [100..300.0, 75.0..150]&#45;&gt;[100..300.0, 112.5..150] -->
<g id="edge20" class="edge">
<title>[100..300.0, 75.0..150]&#45;&gt;[100..300.0, 112.5..150]</title>
<path fill="none" stroke="black" d="M793.57,-70.96C815.63,-65.85 838.85,-60.47 861.21,-55.29"/>
<polygon fill="black" stroke="black" points="862.12,-58.67 871.07,-53.01 860.54,-51.85 862.12,-58.67"/>
</g>
<!-- [100..300.0, 75.0..93.75] -->
<g id="node20" class="node">
<title>[100..300.0, 75.0..93.75]</title>
<polygon fill="none" stroke="black" points="1445.5,-124 1166.5,-124 1166.5,-71 1445.5,-71 1445.5,-124"/>
<text text-anchor="middle" x="1306" y="-108.8" font-family="Times,serif" font-size="14.00">borders: [[100, 300.0], [75.0, 93.75]]</text>
<text text-anchor="middle" x="1306" y="-93.8" font-family="Times,serif" font-size="14.00">sp: 84.38</text>
<text text-anchor="middle" x="1306" y="-78.8" font-family="Times,serif" font-size="14.00">dim: 1</text>
</g>
<!-- [100..300.0, 75.0..112.5]&#45;&gt;[100..300.0, 75.0..93.75] -->
<g id="edge21" class="edge">
<title>[100..300.0, 75.0..112.5]&#45;&gt;[100..300.0, 75.0..93.75]</title>
<path fill="none" stroke="black" d="M1126.3,-97.5C1136.14,-97.5 1146.09,-97.5 1155.99,-97.5"/>
<polygon fill="black" stroke="black" points="1156.28,-101 1166.28,-97.5 1156.28,-94 1156.28,-101"/>
</g>
<!-- [100..300.0, 93.75..112.5] -->
<g id="node23" class="node">
<title>[100..300.0, 93.75..112.5]</title>
<polygon fill="none" stroke="black" points="1450,-53 1162,-53 1162,0 1450,0 1450,-53"/>
<text text-anchor="middle" x="1306" y="-37.8" font-family="Times,serif" font-size="14.00">borders: [[100, 300.0], [93.75, 112.5]]</text>
<text text-anchor="middle" x="1306" y="-22.8" font-family="Times,serif" font-size="14.00">path_length: 4</text>
<text text-anchor="middle" x="1306" y="-7.8" font-family="Times,serif" font-size="14.00">depth: 4</text>
</g>
<!-- [100..300.0, 75.0..112.5]&#45;&gt;[100..300.0, 93.75..112.5] -->
<g id="edge22" class="edge">
<title>[100..300.0, 75.0..112.5]&#45;&gt;[100..300.0, 93.75..112.5]</title>
<path fill="none" stroke="black" d="M1106.18,-70.96C1129.14,-65.83 1153.3,-60.42 1176.56,-55.22"/>
<polygon fill="black" stroke="black" points="1177.47,-58.6 1186.47,-53.01 1175.94,-51.77 1177.47,-58.6"/>
</g>
<!-- [100..300.0, 75.0..84.375] -->
<g id="node21" class="node">
<title>[100..300.0, 75.0..84.375]</title>
<polygon fill="none" stroke="black" points="1772,-124 1493,-124 1493,-71 1772,-71 1772,-124"/>
<text text-anchor="middle" x="1632.5" y="-108.8" font-family="Times,serif" font-size="14.00">borders: [[100, 300.0], [75.0, 84.38]]</text>
<text text-anchor="middle" x="1632.5" y="-93.8" font-family="Times,serif" font-size="14.00">path_length: 7.54</text>
<text text-anchor="middle" x="1632.5" y="-78.8" font-family="Times,serif" font-size="14.00">depth: 5</text>
</g>
<!-- [100..300.0, 75.0..93.75]&#45;&gt;[100..300.0, 75.0..84.375] -->
<g id="edge23" class="edge">
<title>[100..300.0, 75.0..93.75]&#45;&gt;[100..300.0, 75.0..84.375]</title>
<path fill="none" stroke="black" d="M1445.56,-97.5C1457.81,-97.5 1470.24,-97.5 1482.56,-97.5"/>
<polygon fill="black" stroke="black" points="1482.89,-101 1492.89,-97.5 1482.89,-94 1482.89,-101"/>
</g>
<!-- [100..300.0, 84.375..93.75] -->
<g id="node22" class="node">
<title>[100..300.0, 84.375..93.75]</title>
<polygon fill="none" stroke="black" points="1776.5,-53 1488.5,-53 1488.5,0 1776.5,0 1776.5,-53"/>
<text text-anchor="middle" x="1632.5" y="-37.8" font-family="Times,serif" font-size="14.00">borders: [[100, 300.0], [84.38, 93.75]]</text>
<text text-anchor="middle" x="1632.5" y="-22.8" font-family="Times,serif" font-size="14.00">path_length: 6</text>
<text text-anchor="middle" x="1632.5" y="-7.8" font-family="Times,serif" font-size="14.00">depth: 5</text>
</g>
<!-- [100..300.0, 75.0..93.75]&#45;&gt;[100..300.0, 84.375..93.75] -->
<g id="edge24" class="edge">
<title>[100..300.0, 75.0..93.75]&#45;&gt;[100..300.0, 84.375..93.75]</title>
<path fill="none" stroke="black" d="M1428.29,-70.96C1451.87,-65.8 1476.68,-60.37 1500.55,-55.15"/>
<polygon fill="black" stroke="black" points="1501.33,-58.56 1510.35,-53.01 1499.84,-51.72 1501.33,-58.56"/>
</g>
</g>
</svg>
