<?xml version="1.0" encoding="UTF-8" standalone="no"?>
<!DOCTYPE svg PUBLIC "-//W3C//DTD SVG 1.1//EN"
 "http://www.w3.org/Graphics/SVG/1.1/DTD/svg11.dtd">
<!-- Generated by graphviz version 2.43.0 (0)
 -->
<!-- Title: G Pages: 1 -->
<svg width="1323pt" height="913pt"
 viewBox="0.00 0.00 1323.00 913.00" xmlns="http://www.w3.org/2000/svg" xmlns:xlink="http://www.w3.org/1999/xlink">
<g id="graph0" class="graph" transform="scale(1 1) rotate(0) translate(4 909)">
<title>G</title>
<polygon fill="white" stroke="transparent" points="-4,4 -4,-909 1319,-909 1319,4 -4,4"/>
<!-- [160.95, 238.62]\n[6.95, 85.7] -->
<g id="node1" class="node">
<title>[160.95, 238.62]\n[6.95, 85.7]</title>
<polygon fill="none" stroke="black" points="200,-603.5 0,-603.5 0,-535.5 200,-535.5 200,-603.5"/>
<text text-anchor="middle" x="100" y="-588.3" font-family="Times,serif" font-size="14.00">[160.95, 238.62]</text>
<text text-anchor="middle" x="100" y="-573.3" font-family="Times,serif" font-size="14.00">[6.95, 85.7]</text>
<text text-anchor="middle" x="100" y="-558.3" font-family="Times,serif" font-size="14.00">sp: 42.570909026942715</text>
<text text-anchor="middle" x="100" y="-543.3" font-family="Times,serif" font-size="14.00">dim: 1</text>
</g>
<!-- [160.95, 215.83]\n[6.95, 40.01] -->
<g id="node2" class="node">
<title>[160.95, 215.83]\n[6.95, 40.01]</title>
<polygon fill="none" stroke="black" points="436,-711.5 236,-711.5 236,-643.5 436,-643.5 436,-711.5"/>
<text text-anchor="middle" x="336" y="-696.3" font-family="Times,serif" font-size="14.00">[160.95, 215.83]</text>
<text text-anchor="middle" x="336" y="-681.3" font-family="Times,serif" font-size="14.00">[6.95, 40.01]</text>
<text text-anchor="middle" x="336" y="-666.3" font-family="Times,serif" font-size="14.00">sp: 203.61628587399895</text>
<text text-anchor="middle" x="336" y="-651.3" font-family="Times,serif" font-size="14.00">dim: 0</text>
</g>
<!-- [160.95, 238.62]\n[6.95, 85.7]&#45;&gt;[160.95, 215.83]\n[6.95, 40.01] -->
<g id="edge1" class="edge">
<title>[160.95, 238.62]\n[6.95, 85.7]&#45;&gt;[160.95, 215.83]\n[6.95, 40.01]</title>
<path fill="none" stroke="black" d="M174.72,-603.52C199.3,-614.87 226.84,-627.58 252.07,-639.22"/>
<polygon fill="black" stroke="black" points="250.7,-642.45 261.25,-643.46 253.64,-636.09 250.7,-642.45"/>
</g>
<!-- [170.06, 238.62]\n[52.0, 85.7] -->
<g id="node3" class="node">
<title>[170.06, 238.62]\n[52.0, 85.7]</title>
<polygon fill="none" stroke="black" points="436,-485.5 236,-485.5 236,-417.5 436,-417.5 436,-485.5"/>
<text text-anchor="middle" x="336" y="-470.3" font-family="Times,serif" font-size="14.00">[170.06, 238.62]</text>
<text text-anchor="middle" x="336" y="-455.3" font-family="Times,serif" font-size="14.00">[52.0, 85.7]</text>
<text text-anchor="middle" x="336" y="-440.3" font-family="Times,serif" font-size="14.00">sp: 200.19098872457366</text>
<text text-anchor="middle" x="336" y="-425.3" font-family="Times,serif" font-size="14.00">dim: 0</text>
</g>
<!-- [160.95, 238.62]\n[6.95, 85.7]&#45;&gt;[170.06, 238.62]\n[52.0, 85.7] -->
<g id="edge2" class="edge">
<title>[160.95, 238.62]\n[6.95, 85.7]&#45;&gt;[170.06, 238.62]\n[52.0, 85.7]</title>
<path fill="none" stroke="black" d="M168.68,-535.37C196.7,-521.24 229.33,-504.79 258.23,-490.21"/>
<polygon fill="black" stroke="black" points="260.12,-493.18 267.47,-485.55 256.96,-486.93 260.12,-493.18"/>
</g>
<!-- [160.95, 202.97]\n[25.97, 37.15] -->
<g id="node4" class="node">
<title>[160.95, 202.97]\n[25.97, 37.15]</title>
<polygon fill="none" stroke="black" points="667.5,-833.5 476.5,-833.5 476.5,-765.5 667.5,-765.5 667.5,-833.5"/>
<text text-anchor="middle" x="572" y="-818.3" font-family="Times,serif" font-size="14.00">[160.95, 202.97]</text>
<text text-anchor="middle" x="572" y="-803.3" font-family="Times,serif" font-size="14.00">[25.97, 37.15]</text>
<text text-anchor="middle" x="572" y="-788.3" font-family="Times,serif" font-size="14.00">sp: 26.10193366077827</text>
<text text-anchor="middle" x="572" y="-773.3" font-family="Times,serif" font-size="14.00">dim: 1</text>
</g>
<!-- [160.95, 215.83]\n[6.95, 40.01]&#45;&gt;[160.95, 202.97]\n[25.97, 37.15] -->
<g id="edge3" class="edge">
<title>[160.95, 215.83]\n[6.95, 40.01]&#45;&gt;[160.95, 202.97]\n[25.97, 37.15]</title>
<path fill="none" stroke="black" d="M402.49,-711.65C431.66,-726.85 466.15,-744.84 496.31,-760.56"/>
<polygon fill="black" stroke="black" points="495.04,-763.84 505.52,-765.36 498.27,-757.64 495.04,-763.84"/>
</g>
<!-- [204.37, 215.83]\n[6.95, 40.01] -->
<g id="node5" class="node">
<title>[204.37, 215.83]\n[6.95, 40.01]</title>
<polygon fill="none" stroke="black" points="672,-711.5 472,-711.5 472,-643.5 672,-643.5 672,-711.5"/>
<text text-anchor="middle" x="572" y="-696.3" font-family="Times,serif" font-size="14.00">[204.37, 215.83]</text>
<text text-anchor="middle" x="572" y="-681.3" font-family="Times,serif" font-size="14.00">[6.95, 40.01]</text>
<text text-anchor="middle" x="572" y="-666.3" font-family="Times,serif" font-size="14.00">sp: 205.58094279062317</text>
<text text-anchor="middle" x="572" y="-651.3" font-family="Times,serif" font-size="14.00">dim: 0</text>
</g>
<!-- [160.95, 215.83]\n[6.95, 40.01]&#45;&gt;[204.37, 215.83]\n[6.95, 40.01] -->
<g id="edge4" class="edge">
<title>[160.95, 215.83]\n[6.95, 40.01]&#45;&gt;[204.37, 215.83]\n[6.95, 40.01]</title>
<path fill="none" stroke="black" d="M436.24,-677.5C444.74,-677.5 453.38,-677.5 461.95,-677.5"/>
<polygon fill="black" stroke="black" points="461.98,-681 471.98,-677.5 461.98,-674 461.98,-681"/>
</g>
<!-- [170.06, 181.41]\n[52.0, 85.7] -->
<g id="node14" class="node">
<title>[170.06, 181.41]\n[52.0, 85.7]</title>
<polygon fill="none" stroke="black" points="667.5,-485.5 476.5,-485.5 476.5,-417.5 667.5,-417.5 667.5,-485.5"/>
<text text-anchor="middle" x="572" y="-470.3" font-family="Times,serif" font-size="14.00">[170.06, 181.41]</text>
<text text-anchor="middle" x="572" y="-455.3" font-family="Times,serif" font-size="14.00">[52.0, 85.7]</text>
<text text-anchor="middle" x="572" y="-440.3" font-family="Times,serif" font-size="14.00">sp: 67.04885479708236</text>
<text text-anchor="middle" x="572" y="-425.3" font-family="Times,serif" font-size="14.00">dim: 1</text>
</g>
<!-- [170.06, 238.62]\n[52.0, 85.7]&#45;&gt;[170.06, 181.41]\n[52.0, 85.7] -->
<g id="edge13" class="edge">
<title>[170.06, 238.62]\n[52.0, 85.7]&#45;&gt;[170.06, 181.41]\n[52.0, 85.7]</title>
<path fill="none" stroke="black" d="M436.24,-451.5C446.13,-451.5 456.19,-451.5 466.14,-451.5"/>
<polygon fill="black" stroke="black" points="466.45,-455 476.45,-451.5 466.45,-448 466.45,-455"/>
</g>
<!-- [201.56, 238.62]\n[52.82, 80.45] -->
<g id="node15" class="node">
<title>[201.56, 238.62]\n[52.82, 80.45]</title>
<polygon fill="none" stroke="black" points="672,-257.5 472,-257.5 472,-189.5 672,-189.5 672,-257.5"/>
<text text-anchor="middle" x="572" y="-242.3" font-family="Times,serif" font-size="14.00">[201.56, 238.62]</text>
<text text-anchor="middle" x="572" y="-227.3" font-family="Times,serif" font-size="14.00">[52.82, 80.45]</text>
<text text-anchor="middle" x="572" y="-212.3" font-family="Times,serif" font-size="14.00">sp: 222.52864788077952</text>
<text text-anchor="middle" x="572" y="-197.3" font-family="Times,serif" font-size="14.00">dim: 0</text>
</g>
<!-- [170.06, 238.62]\n[52.0, 85.7]&#45;&gt;[201.56, 238.62]\n[52.82, 80.45] -->
<g id="edge14" class="edge">
<title>[170.06, 238.62]\n[52.0, 85.7]&#45;&gt;[201.56, 238.62]\n[52.82, 80.45]</title>
<path fill="none" stroke="black" d="M372.03,-417.37C413.82,-376.65 483.64,-308.62 528.48,-264.93"/>
<polygon fill="black" stroke="black" points="531.01,-267.35 535.73,-257.87 526.12,-262.34 531.01,-267.35"/>
</g>
<!-- [202.97, 202.97]\n[25.97, 25.97] -->
<g id="node6" class="node">
<title>[202.97, 202.97]\n[25.97, 25.97]</title>
<polygon fill="none" stroke="black" points="875.5,-905 740.5,-905 740.5,-852 875.5,-852 875.5,-905"/>
<text text-anchor="middle" x="808" y="-889.8" font-family="Times,serif" font-size="14.00">[202.97, 202.97]</text>
<text text-anchor="middle" x="808" y="-874.8" font-family="Times,serif" font-size="14.00">[25.97, 25.97]</text>
<text text-anchor="middle" x="808" y="-859.8" font-family="Times,serif" font-size="14.00">LEAF</text>
</g>
<!-- [160.95, 202.97]\n[25.97, 37.15]&#45;&gt;[202.97, 202.97]\n[25.97, 25.97] -->
<g id="edge5" class="edge">
<title>[160.95, 202.97]\n[25.97, 37.15]&#45;&gt;[202.97, 202.97]\n[25.97, 25.97]</title>
<path fill="none" stroke="black" d="M667.5,-831.4C688.43,-838.47 710.36,-845.87 730.47,-852.66"/>
<polygon fill="black" stroke="black" points="729.59,-856.06 740.18,-855.94 731.82,-849.43 729.59,-856.06"/>
</g>
<!-- [160.95, 177.62]\n[29.53, 37.15] -->
<g id="node7" class="node">
<title>[160.95, 177.62]\n[29.53, 37.15]</title>
<polygon fill="none" stroke="black" points="908,-833.5 708,-833.5 708,-765.5 908,-765.5 908,-833.5"/>
<text text-anchor="middle" x="808" y="-818.3" font-family="Times,serif" font-size="14.00">[160.95, 177.62]</text>
<text text-anchor="middle" x="808" y="-803.3" font-family="Times,serif" font-size="14.00">[29.53, 37.15]</text>
<text text-anchor="middle" x="808" y="-788.3" font-family="Times,serif" font-size="14.00">sp: 165.88846768288357</text>
<text text-anchor="middle" x="808" y="-773.3" font-family="Times,serif" font-size="14.00">dim: 0</text>
</g>
<!-- [160.95, 202.97]\n[25.97, 37.15]&#45;&gt;[160.95, 177.62]\n[29.53, 37.15] -->
<g id="edge6" class="edge">
<title>[160.95, 202.97]\n[25.97, 37.15]&#45;&gt;[160.95, 177.62]\n[29.53, 37.15]</title>
<path fill="none" stroke="black" d="M667.5,-799.5C677.49,-799.5 687.71,-799.5 697.84,-799.5"/>
<polygon fill="black" stroke="black" points="697.94,-803 707.94,-799.5 697.94,-796 697.94,-803"/>
</g>
<!-- [204.37, 204.37]\n[40.01, 40.01] -->
<g id="node10" class="node">
<title>[204.37, 204.37]\n[40.01, 40.01]</title>
<polygon fill="none" stroke="black" points="875.5,-747 740.5,-747 740.5,-694 875.5,-694 875.5,-747"/>
<text text-anchor="middle" x="808" y="-731.8" font-family="Times,serif" font-size="14.00">[204.37, 204.37]</text>
<text text-anchor="middle" x="808" y="-716.8" font-family="Times,serif" font-size="14.00">[40.01, 40.01]</text>
<text text-anchor="middle" x="808" y="-701.8" font-family="Times,serif" font-size="14.00">LEAF</text>
</g>
<!-- [204.37, 215.83]\n[6.95, 40.01]&#45;&gt;[204.37, 204.37]\n[40.01, 40.01] -->
<g id="edge9" class="edge">
<title>[204.37, 215.83]\n[6.95, 40.01]&#45;&gt;[204.37, 204.37]\n[40.01, 40.01]</title>
<path fill="none" stroke="black" d="M672.24,-695.74C691.67,-699.31 711.76,-703 730.32,-706.41"/>
<polygon fill="black" stroke="black" points="729.69,-709.85 740.16,-708.22 730.96,-702.97 729.69,-709.85"/>
</g>
<!-- [212.74, 215.83]\n[6.95, 35.1] -->
<g id="node11" class="node">
<title>[212.74, 215.83]\n[6.95, 35.1]</title>
<polygon fill="none" stroke="black" points="908,-675.5 708,-675.5 708,-607.5 908,-607.5 908,-675.5"/>
<text text-anchor="middle" x="808" y="-660.3" font-family="Times,serif" font-size="14.00">[212.74, 215.83]</text>
<text text-anchor="middle" x="808" y="-645.3" font-family="Times,serif" font-size="14.00">[6.95, 35.1]</text>
<text text-anchor="middle" x="808" y="-630.3" font-family="Times,serif" font-size="14.00">sp: 215.57307850748523</text>
<text text-anchor="middle" x="808" y="-615.3" font-family="Times,serif" font-size="14.00">dim: 0</text>
</g>
<!-- [204.37, 215.83]\n[6.95, 40.01]&#45;&gt;[212.74, 215.83]\n[6.95, 35.1] -->
<g id="edge10" class="edge">
<title>[204.37, 215.83]\n[6.95, 40.01]&#45;&gt;[212.74, 215.83]\n[6.95, 35.1]</title>
<path fill="none" stroke="black" d="M672.24,-662.23C680.74,-660.92 689.38,-659.6 697.95,-658.28"/>
<polygon fill="black" stroke="black" points="698.63,-661.71 707.98,-656.73 697.57,-654.79 698.63,-661.71"/>
</g>
<!-- [160.95, 160.95]\n[29.53, 29.53] -->
<g id="node8" class="node">
<title>[160.95, 160.95]\n[29.53, 29.53]</title>
<polygon fill="none" stroke="black" points="1111.5,-889 976.5,-889 976.5,-836 1111.5,-836 1111.5,-889"/>
<text text-anchor="middle" x="1044" y="-873.8" font-family="Times,serif" font-size="14.00">[160.95, 160.95]</text>
<text text-anchor="middle" x="1044" y="-858.8" font-family="Times,serif" font-size="14.00">[29.53, 29.53]</text>
<text text-anchor="middle" x="1044" y="-843.8" font-family="Times,serif" font-size="14.00">LEAF</text>
</g>
<!-- [160.95, 177.62]\n[29.53, 37.15]&#45;&gt;[160.95, 160.95]\n[29.53, 29.53] -->
<g id="edge7" class="edge">
<title>[160.95, 177.62]\n[29.53, 37.15]&#45;&gt;[160.95, 160.95]\n[29.53, 29.53]</title>
<path fill="none" stroke="black" d="M908.24,-826.22C927.67,-831.45 947.76,-836.86 966.32,-841.85"/>
<polygon fill="black" stroke="black" points="965.59,-845.28 976.16,-844.5 967.41,-838.53 965.59,-845.28"/>
</g>
<!-- [177.62, 177.62]\n[37.15, 37.15] -->
<g id="node9" class="node">
<title>[177.62, 177.62]\n[37.15, 37.15]</title>
<polygon fill="none" stroke="black" points="1111.5,-818 976.5,-818 976.5,-765 1111.5,-765 1111.5,-818"/>
<text text-anchor="middle" x="1044" y="-802.8" font-family="Times,serif" font-size="14.00">[177.62, 177.62]</text>
<text text-anchor="middle" x="1044" y="-787.8" font-family="Times,serif" font-size="14.00">[37.15, 37.15]</text>
<text text-anchor="middle" x="1044" y="-772.8" font-family="Times,serif" font-size="14.00">LEAF</text>
</g>
<!-- [160.95, 177.62]\n[29.53, 37.15]&#45;&gt;[177.62, 177.62]\n[37.15, 37.15] -->
<g id="edge8" class="edge">
<title>[160.95, 177.62]\n[29.53, 37.15]&#45;&gt;[177.62, 177.62]\n[37.15, 37.15]</title>
<path fill="none" stroke="black" d="M908.24,-796.11C927.58,-795.45 947.58,-794.76 966.06,-794.13"/>
<polygon fill="black" stroke="black" points="966.29,-797.62 976.16,-793.79 966.05,-790.63 966.29,-797.62"/>
</g>
<!-- [212.74, 212.74]\n[35.1, 35.1] -->
<g id="node12" class="node">
<title>[212.74, 212.74]\n[35.1, 35.1]</title>
<polygon fill="none" stroke="black" points="1111.5,-739 976.5,-739 976.5,-686 1111.5,-686 1111.5,-739"/>
<text text-anchor="middle" x="1044" y="-723.8" font-family="Times,serif" font-size="14.00">[212.74, 212.74]</text>
<text text-anchor="middle" x="1044" y="-708.8" font-family="Times,serif" font-size="14.00">[35.1, 35.1]</text>
<text text-anchor="middle" x="1044" y="-693.8" font-family="Times,serif" font-size="14.00">LEAF</text>
</g>
<!-- [212.74, 215.83]\n[6.95, 35.1]&#45;&gt;[212.74, 212.74]\n[35.1, 35.1] -->
<g id="edge11" class="edge">
<title>[212.74, 215.83]\n[6.95, 35.1]&#45;&gt;[212.74, 212.74]\n[35.1, 35.1]</title>
<path fill="none" stroke="black" d="M908.24,-671.61C927.75,-677.53 947.95,-683.66 966.57,-689.31"/>
<polygon fill="black" stroke="black" points="965.57,-692.67 976.16,-692.22 967.61,-685.97 965.57,-692.67"/>
</g>
<!-- [215.83, 215.83]\n[6.95, 6.95] -->
<g id="node13" class="node">
<title>[215.83, 215.83]\n[6.95, 6.95]</title>
<polygon fill="none" stroke="black" points="1111.5,-668 976.5,-668 976.5,-615 1111.5,-615 1111.5,-668"/>
<text text-anchor="middle" x="1044" y="-652.8" font-family="Times,serif" font-size="14.00">[215.83, 215.83]</text>
<text text-anchor="middle" x="1044" y="-637.8" font-family="Times,serif" font-size="14.00">[6.95, 6.95]</text>
<text text-anchor="middle" x="1044" y="-622.8" font-family="Times,serif" font-size="14.00">LEAF</text>
</g>
<!-- [212.74, 215.83]\n[6.95, 35.1]&#45;&gt;[215.83, 215.83]\n[6.95, 6.95] -->
<g id="edge12" class="edge">
<title>[212.74, 215.83]\n[6.95, 35.1]&#45;&gt;[215.83, 215.83]\n[6.95, 6.95]</title>
<path fill="none" stroke="black" d="M908.24,-641.5C927.58,-641.5 947.58,-641.5 966.06,-641.5"/>
<polygon fill="black" stroke="black" points="966.16,-645 976.16,-641.5 966.16,-638 966.16,-645"/>
</g>
<!-- [170.06, 181.41]\n[52.0, 61.69] -->
<g id="node16" class="node">
<title>[170.06, 181.41]\n[52.0, 61.69]</title>
<polygon fill="none" stroke="black" points="908,-528.5 708,-528.5 708,-460.5 908,-460.5 908,-528.5"/>
<text text-anchor="middle" x="808" y="-513.3" font-family="Times,serif" font-size="14.00">[170.06, 181.41]</text>
<text text-anchor="middle" x="808" y="-498.3" font-family="Times,serif" font-size="14.00">[52.0, 61.69]</text>
<text text-anchor="middle" x="808" y="-483.3" font-family="Times,serif" font-size="14.00">sp: 58.345224933808886</text>
<text text-anchor="middle" x="808" y="-468.3" font-family="Times,serif" font-size="14.00">dim: 1</text>
</g>
<!-- [170.06, 181.41]\n[52.0, 85.7]&#45;&gt;[170.06, 181.41]\n[52.0, 61.69] -->
<g id="edge15" class="edge">
<title>[170.06, 181.41]\n[52.0, 85.7]&#45;&gt;[170.06, 181.41]\n[52.0, 61.69]</title>
<path fill="none" stroke="black" d="M667.5,-468.87C677.49,-470.7 687.71,-472.58 697.84,-474.44"/>
<polygon fill="black" stroke="black" points="697.48,-477.93 707.94,-476.3 698.74,-471.05 697.48,-477.93"/>
</g>
<!-- [174.85, 178.12]\n[79.05, 85.7] -->
<g id="node17" class="node">
<title>[174.85, 178.12]\n[79.05, 85.7]</title>
<polygon fill="none" stroke="black" points="903.5,-442.5 712.5,-442.5 712.5,-374.5 903.5,-374.5 903.5,-442.5"/>
<text text-anchor="middle" x="808" y="-427.3" font-family="Times,serif" font-size="14.00">[174.85, 178.12]</text>
<text text-anchor="middle" x="808" y="-412.3" font-family="Times,serif" font-size="14.00">[79.05, 85.7]</text>
<text text-anchor="middle" x="808" y="-397.3" font-family="Times,serif" font-size="14.00">sp: 175.0587551451478</text>
<text text-anchor="middle" x="808" y="-382.3" font-family="Times,serif" font-size="14.00">dim: 0</text>
</g>
<!-- [170.06, 181.41]\n[52.0, 85.7]&#45;&gt;[174.85, 178.12]\n[79.05, 85.7] -->
<g id="edge16" class="edge">
<title>[170.06, 181.41]\n[52.0, 85.7]&#45;&gt;[174.85, 178.12]\n[79.05, 85.7]</title>
<path fill="none" stroke="black" d="M667.5,-434.13C678.88,-432.04 690.56,-429.9 702.08,-427.78"/>
<polygon fill="black" stroke="black" points="702.94,-431.18 712.14,-425.93 701.68,-424.3 702.94,-431.18"/>
</g>
<!-- [201.56, 213.91]\n[52.82, 80.45] -->
<g id="node24" class="node">
<title>[201.56, 213.91]\n[52.82, 80.45]</title>
<polygon fill="none" stroke="black" points="908,-257.5 708,-257.5 708,-189.5 908,-189.5 908,-257.5"/>
<text text-anchor="middle" x="808" y="-242.3" font-family="Times,serif" font-size="14.00">[201.56, 213.91]</text>
<text text-anchor="middle" x="808" y="-227.3" font-family="Times,serif" font-size="14.00">[52.82, 80.45]</text>
<text text-anchor="middle" x="808" y="-212.3" font-family="Times,serif" font-size="14.00">sp: 204.53222750884092</text>
<text text-anchor="middle" x="808" y="-197.3" font-family="Times,serif" font-size="14.00">dim: 0</text>
</g>
<!-- [201.56, 238.62]\n[52.82, 80.45]&#45;&gt;[201.56, 213.91]\n[52.82, 80.45] -->
<g id="edge23" class="edge">
<title>[201.56, 238.62]\n[52.82, 80.45]&#45;&gt;[201.56, 213.91]\n[52.82, 80.45]</title>
<path fill="none" stroke="black" d="M672.24,-223.5C680.74,-223.5 689.38,-223.5 697.95,-223.5"/>
<polygon fill="black" stroke="black" points="697.98,-227 707.98,-223.5 697.98,-220 697.98,-227"/>
</g>
<!-- [237.66, 238.62]\n[54.24, 70.66] -->
<g id="node25" class="node">
<title>[237.66, 238.62]\n[54.24, 70.66]</title>
<polygon fill="none" stroke="black" points="903.5,-131.5 712.5,-131.5 712.5,-63.5 903.5,-63.5 903.5,-131.5"/>
<text text-anchor="middle" x="808" y="-116.3" font-family="Times,serif" font-size="14.00">[237.66, 238.62]</text>
<text text-anchor="middle" x="808" y="-101.3" font-family="Times,serif" font-size="14.00">[54.24, 70.66]</text>
<text text-anchor="middle" x="808" y="-86.3" font-family="Times,serif" font-size="14.00">sp: 238.5328595725065</text>
<text text-anchor="middle" x="808" y="-71.3" font-family="Times,serif" font-size="14.00">dim: 0</text>
</g>
<!-- [201.56, 238.62]\n[52.82, 80.45]&#45;&gt;[237.66, 238.62]\n[54.24, 70.66] -->
<g id="edge24" class="edge">
<title>[201.56, 238.62]\n[52.82, 80.45]&#45;&gt;[237.66, 238.62]\n[54.24, 70.66]</title>
<path fill="none" stroke="black" d="M636.32,-189.4C666.63,-173.08 703.07,-153.46 734.48,-136.55"/>
<polygon fill="black" stroke="black" points="736.48,-139.45 743.63,-131.62 733.16,-133.28 736.48,-139.45"/>
</g>
<!-- [178.76, 178.76]\n[52.0, 52.0] -->
<g id="node18" class="node">
<title>[178.76, 178.76]\n[52.0, 52.0]</title>
<polygon fill="none" stroke="black" points="1111.5,-597 976.5,-597 976.5,-544 1111.5,-544 1111.5,-597"/>
<text text-anchor="middle" x="1044" y="-581.8" font-family="Times,serif" font-size="14.00">[178.76, 178.76]</text>
<text text-anchor="middle" x="1044" y="-566.8" font-family="Times,serif" font-size="14.00">[52.0, 52.0]</text>
<text text-anchor="middle" x="1044" y="-551.8" font-family="Times,serif" font-size="14.00">LEAF</text>
</g>
<!-- [170.06, 181.41]\n[52.0, 61.69]&#45;&gt;[178.76, 178.76]\n[52.0, 52.0] -->
<g id="edge17" class="edge">
<title>[170.06, 181.41]\n[52.0, 61.69]&#45;&gt;[178.76, 178.76]\n[52.0, 52.0]</title>
<path fill="none" stroke="black" d="M908.24,-526.73C927.75,-533.07 947.95,-539.63 966.57,-545.68"/>
<polygon fill="black" stroke="black" points="965.57,-549.03 976.16,-548.79 967.73,-542.37 965.57,-549.03"/>
</g>
<!-- [170.06, 181.41]\n[58.38, 61.69] -->
<g id="node19" class="node">
<title>[170.06, 181.41]\n[58.38, 61.69]</title>
<polygon fill="none" stroke="black" points="1135,-525.5 953,-525.5 953,-457.5 1135,-457.5 1135,-525.5"/>
<text text-anchor="middle" x="1044" y="-510.3" font-family="Times,serif" font-size="14.00">[170.06, 181.41]</text>
<text text-anchor="middle" x="1044" y="-495.3" font-family="Times,serif" font-size="14.00">[58.38, 61.69]</text>
<text text-anchor="middle" x="1044" y="-480.3" font-family="Times,serif" font-size="14.00">sp: 61.6186456598481</text>
<text text-anchor="middle" x="1044" y="-465.3" font-family="Times,serif" font-size="14.00">dim: 1</text>
</g>
<!-- [170.06, 181.41]\n[52.0, 61.69]&#45;&gt;[170.06, 181.41]\n[58.38, 61.69] -->
<g id="edge18" class="edge">
<title>[170.06, 181.41]\n[52.0, 61.69]&#45;&gt;[170.06, 181.41]\n[58.38, 61.69]</title>
<path fill="none" stroke="black" d="M908.24,-493.23C919.7,-493.08 931.4,-492.93 942.88,-492.78"/>
<polygon fill="black" stroke="black" points="942.94,-496.28 952.89,-492.66 942.85,-489.28 942.94,-496.28"/>
</g>
<!-- [174.85, 174.85]\n[85.7, 85.7] -->
<g id="node22" class="node">
<title>[174.85, 174.85]\n[85.7, 85.7]</title>
<polygon fill="none" stroke="black" points="1111.5,-439 976.5,-439 976.5,-386 1111.5,-386 1111.5,-439"/>
<text text-anchor="middle" x="1044" y="-423.8" font-family="Times,serif" font-size="14.00">[174.85, 174.85]</text>
<text text-anchor="middle" x="1044" y="-408.8" font-family="Times,serif" font-size="14.00">[85.7, 85.7]</text>
<text text-anchor="middle" x="1044" y="-393.8" font-family="Times,serif" font-size="14.00">LEAF</text>
</g>
<!-- [174.85, 178.12]\n[79.05, 85.7]&#45;&gt;[174.85, 174.85]\n[85.7, 85.7] -->
<g id="edge21" class="edge">
<title>[174.85, 178.12]\n[79.05, 85.7]&#45;&gt;[174.85, 174.85]\n[85.7, 85.7]</title>
<path fill="none" stroke="black" d="M903.5,-410.12C924.24,-410.47 945.96,-410.84 965.92,-411.18"/>
<polygon fill="black" stroke="black" points="966.12,-414.69 976.18,-411.36 966.24,-407.69 966.12,-414.69"/>
</g>
<!-- [178.12, 178.12]\n[79.05, 79.05] -->
<g id="node23" class="node">
<title>[178.12, 178.12]\n[79.05, 79.05]</title>
<polygon fill="none" stroke="black" points="1111.5,-368 976.5,-368 976.5,-315 1111.5,-315 1111.5,-368"/>
<text text-anchor="middle" x="1044" y="-352.8" font-family="Times,serif" font-size="14.00">[178.12, 178.12]</text>
<text text-anchor="middle" x="1044" y="-337.8" font-family="Times,serif" font-size="14.00">[79.05, 79.05]</text>
<text text-anchor="middle" x="1044" y="-322.8" font-family="Times,serif" font-size="14.00">LEAF</text>
</g>
<!-- [174.85, 178.12]\n[79.05, 85.7]&#45;&gt;[178.12, 178.12]\n[79.05, 79.05] -->
<g id="edge22" class="edge">
<title>[174.85, 178.12]\n[79.05, 85.7]&#45;&gt;[178.12, 178.12]\n[79.05, 79.05]</title>
<path fill="none" stroke="black" d="M903.5,-381.44C924.43,-375.45 946.36,-369.17 966.47,-363.41"/>
<polygon fill="black" stroke="black" points="967.53,-366.75 976.18,-360.63 965.6,-360.02 967.53,-366.75"/>
</g>
<!-- [170.06, 170.06]\n[58.38, 58.38] -->
<g id="node20" class="node">
<title>[170.06, 170.06]\n[58.38, 58.38]</title>
<polygon fill="none" stroke="black" points="1315,-553 1180,-553 1180,-500 1315,-500 1315,-553"/>
<text text-anchor="middle" x="1247.5" y="-537.8" font-family="Times,serif" font-size="14.00">[170.06, 170.06]</text>
<text text-anchor="middle" x="1247.5" y="-522.8" font-family="Times,serif" font-size="14.00">[58.38, 58.38]</text>
<text text-anchor="middle" x="1247.5" y="-507.8" font-family="Times,serif" font-size="14.00">LEAF</text>
</g>
<!-- [170.06, 181.41]\n[58.38, 61.69]&#45;&gt;[170.06, 170.06]\n[58.38, 58.38] -->
<g id="edge19" class="edge">
<title>[170.06, 181.41]\n[58.38, 61.69]&#45;&gt;[170.06, 170.06]\n[58.38, 58.38]</title>
<path fill="none" stroke="black" d="M1135.14,-507.16C1146.81,-509.18 1158.67,-511.24 1170.09,-513.23"/>
<polygon fill="black" stroke="black" points="1169.55,-516.69 1180,-514.95 1170.74,-509.79 1169.55,-516.69"/>
</g>
<!-- [181.41, 181.41]\n[61.69, 61.69] -->
<g id="node21" class="node">
<title>[181.41, 181.41]\n[61.69, 61.69]</title>
<polygon fill="none" stroke="black" points="1315,-482 1180,-482 1180,-429 1315,-429 1315,-482"/>
<text text-anchor="middle" x="1247.5" y="-466.8" font-family="Times,serif" font-size="14.00">[181.41, 181.41]</text>
<text text-anchor="middle" x="1247.5" y="-451.8" font-family="Times,serif" font-size="14.00">[61.69, 61.69]</text>
<text text-anchor="middle" x="1247.5" y="-436.8" font-family="Times,serif" font-size="14.00">LEAF</text>
</g>
<!-- [170.06, 181.41]\n[58.38, 61.69]&#45;&gt;[181.41, 181.41]\n[61.69, 61.69] -->
<g id="edge20" class="edge">
<title>[170.06, 181.41]\n[58.38, 61.69]&#45;&gt;[181.41, 181.41]\n[61.69, 61.69]</title>
<path fill="none" stroke="black" d="M1135.14,-475.4C1146.81,-473.31 1158.67,-471.19 1170.09,-469.15"/>
<polygon fill="black" stroke="black" points="1170.77,-472.59 1180,-467.38 1169.54,-465.69 1170.77,-472.59"/>
</g>
<!-- [201.56, 204.38]\n[52.82, 80.45] -->
<g id="node26" class="node">
<title>[201.56, 204.38]\n[52.82, 80.45]</title>
<polygon fill="none" stroke="black" points="1144,-296.5 944,-296.5 944,-228.5 1144,-228.5 1144,-296.5"/>
<text text-anchor="middle" x="1044" y="-281.3" font-family="Times,serif" font-size="14.00">[201.56, 204.38]</text>
<text text-anchor="middle" x="1044" y="-266.3" font-family="Times,serif" font-size="14.00">[52.82, 80.45]</text>
<text text-anchor="middle" x="1044" y="-251.3" font-family="Times,serif" font-size="14.00">sp: 201.91890558746024</text>
<text text-anchor="middle" x="1044" y="-236.3" font-family="Times,serif" font-size="14.00">dim: 0</text>
</g>
<!-- [201.56, 213.91]\n[52.82, 80.45]&#45;&gt;[201.56, 204.38]\n[52.82, 80.45] -->
<g id="edge25" class="edge">
<title>[201.56, 213.91]\n[52.82, 80.45]&#45;&gt;[201.56, 204.38]\n[52.82, 80.45]</title>
<path fill="none" stroke="black" d="M908.24,-240.04C916.74,-241.46 925.38,-242.9 933.95,-244.33"/>
<polygon fill="black" stroke="black" points="933.54,-247.81 943.98,-246 934.69,-240.9 933.54,-247.81"/>
</g>
<!-- [205.61, 213.91]\n[58.49, 79.14] -->
<g id="node27" class="node">
<title>[205.61, 213.91]\n[58.49, 79.14]</title>
<polygon fill="none" stroke="black" points="1139.5,-210.5 948.5,-210.5 948.5,-142.5 1139.5,-142.5 1139.5,-210.5"/>
<text text-anchor="middle" x="1044" y="-195.3" font-family="Times,serif" font-size="14.00">[205.61, 213.91]</text>
<text text-anchor="middle" x="1044" y="-180.3" font-family="Times,serif" font-size="14.00">[58.49, 79.14]</text>
<text text-anchor="middle" x="1044" y="-165.3" font-family="Times,serif" font-size="14.00">sp: 73.62537456383738</text>
<text text-anchor="middle" x="1044" y="-150.3" font-family="Times,serif" font-size="14.00">dim: 1</text>
</g>
<!-- [201.56, 213.91]\n[52.82, 80.45]&#45;&gt;[205.61, 213.91]\n[58.49, 79.14] -->
<g id="edge26" class="edge">
<title>[201.56, 213.91]\n[52.82, 80.45]&#45;&gt;[205.61, 213.91]\n[58.49, 79.14]</title>
<path fill="none" stroke="black" d="M908.24,-203.57C918.23,-201.56 928.41,-199.52 938.46,-197.5"/>
<polygon fill="black" stroke="black" points="939.34,-200.89 948.45,-195.49 937.96,-194.03 939.34,-200.89"/>
</g>
<!-- [237.66, 237.66]\n[70.66, 70.66] -->
<g id="node32" class="node">
<title>[237.66, 237.66]\n[70.66, 70.66]</title>
<polygon fill="none" stroke="black" points="1111.5,-124 976.5,-124 976.5,-71 1111.5,-71 1111.5,-124"/>
<text text-anchor="middle" x="1044" y="-108.8" font-family="Times,serif" font-size="14.00">[237.66, 237.66]</text>
<text text-anchor="middle" x="1044" y="-93.8" font-family="Times,serif" font-size="14.00">[70.66, 70.66]</text>
<text text-anchor="middle" x="1044" y="-78.8" font-family="Times,serif" font-size="14.00">LEAF</text>
</g>
<!-- [237.66, 238.62]\n[54.24, 70.66]&#45;&gt;[237.66, 237.66]\n[70.66, 70.66] -->
<g id="edge31" class="edge">
<title>[237.66, 238.62]\n[54.24, 70.66]&#45;&gt;[237.66, 237.66]\n[70.66, 70.66]</title>
<path fill="none" stroke="black" d="M903.5,-97.5C924.24,-97.5 945.96,-97.5 965.92,-97.5"/>
<polygon fill="black" stroke="black" points="966.18,-101 976.18,-97.5 966.18,-94 966.18,-101"/>
</g>
<!-- [238.62, 238.62]\n[54.24, 54.24] -->
<g id="node33" class="node">
<title>[238.62, 238.62]\n[54.24, 54.24]</title>
<polygon fill="none" stroke="black" points="1111.5,-53 976.5,-53 976.5,0 1111.5,0 1111.5,-53"/>
<text text-anchor="middle" x="1044" y="-37.8" font-family="Times,serif" font-size="14.00">[238.62, 238.62]</text>
<text text-anchor="middle" x="1044" y="-22.8" font-family="Times,serif" font-size="14.00">[54.24, 54.24]</text>
<text text-anchor="middle" x="1044" y="-7.8" font-family="Times,serif" font-size="14.00">LEAF</text>
</g>
<!-- [237.66, 238.62]\n[54.24, 70.66]&#45;&gt;[238.62, 238.62]\n[54.24, 54.24] -->
<g id="edge32" class="edge">
<title>[237.66, 238.62]\n[54.24, 70.66]&#45;&gt;[238.62, 238.62]\n[54.24, 54.24]</title>
<path fill="none" stroke="black" d="M903.5,-68.83C924.43,-62.48 946.36,-55.82 966.47,-49.72"/>
<polygon fill="black" stroke="black" points="967.63,-53.03 976.18,-46.77 965.59,-46.33 967.63,-53.03"/>
</g>
<!-- [201.56, 201.56]\n[52.82, 52.82] -->
<g id="node28" class="node">
<title>[201.56, 201.56]\n[52.82, 52.82]</title>
<polygon fill="none" stroke="black" points="1315,-353 1180,-353 1180,-300 1315,-300 1315,-353"/>
<text text-anchor="middle" x="1247.5" y="-337.8" font-family="Times,serif" font-size="14.00">[201.56, 201.56]</text>
<text text-anchor="middle" x="1247.5" y="-322.8" font-family="Times,serif" font-size="14.00">[52.82, 52.82]</text>
<text text-anchor="middle" x="1247.5" y="-307.8" font-family="Times,serif" font-size="14.00">LEAF</text>
</g>
<!-- [201.56, 204.38]\n[52.82, 80.45]&#45;&gt;[201.56, 201.56]\n[52.82, 52.82] -->
<g id="edge27" class="edge">
<title>[201.56, 204.38]\n[52.82, 80.45]&#45;&gt;[201.56, 201.56]\n[52.82, 52.82]</title>
<path fill="none" stroke="black" d="M1144.27,-294.03C1152.91,-296.78 1161.57,-299.52 1169.98,-302.2"/>
<polygon fill="black" stroke="black" points="1169.14,-305.6 1179.73,-305.29 1171.26,-298.93 1169.14,-305.6"/>
</g>
<!-- [203.68, 204.38]\n[59.41, 80.45] -->
<g id="node29" class="node">
<title>[203.68, 204.38]\n[59.41, 80.45]</title>
<polygon fill="none" stroke="black" points="1315,-282 1180,-282 1180,-229 1315,-229 1315,-282"/>
<text text-anchor="middle" x="1247.5" y="-266.8" font-family="Times,serif" font-size="14.00">[203.68, 204.38]</text>
<text text-anchor="middle" x="1247.5" y="-251.8" font-family="Times,serif" font-size="14.00">[59.41, 80.45]</text>
<text text-anchor="middle" x="1247.5" y="-236.8" font-family="Times,serif" font-size="14.00">LEAF</text>
</g>
<!-- [201.56, 204.38]\n[52.82, 80.45]&#45;&gt;[203.68, 204.38]\n[59.41, 80.45] -->
<g id="edge28" class="edge">
<title>[201.56, 204.38]\n[52.82, 80.45]&#45;&gt;[203.68, 204.38]\n[59.41, 80.45]</title>
<path fill="none" stroke="black" d="M1144.27,-259.05C1152.82,-258.75 1161.38,-258.46 1169.71,-258.17"/>
<polygon fill="black" stroke="black" points="1169.86,-261.66 1179.73,-257.82 1169.62,-254.67 1169.86,-261.66"/>
</g>
<!-- [205.61, 213.91]\n[58.49, 70.75] -->
<g id="node30" class="node">
<title>[205.61, 213.91]\n[58.49, 70.75]</title>
<polygon fill="none" stroke="black" points="1315,-207 1180,-207 1180,-154 1315,-154 1315,-207"/>
<text text-anchor="middle" x="1247.5" y="-191.8" font-family="Times,serif" font-size="14.00">[205.61, 213.91]</text>
<text text-anchor="middle" x="1247.5" y="-176.8" font-family="Times,serif" font-size="14.00">[58.49, 70.75]</text>
<text text-anchor="middle" x="1247.5" y="-161.8" font-family="Times,serif" font-size="14.00">LEAF</text>
</g>
<!-- [205.61, 213.91]\n[58.49, 79.14]&#45;&gt;[205.61, 213.91]\n[58.49, 70.75] -->
<g id="edge29" class="edge">
<title>[205.61, 213.91]\n[58.49, 79.14]&#45;&gt;[205.61, 213.91]\n[58.49, 70.75]</title>
<path fill="none" stroke="black" d="M1139.55,-178.38C1149.65,-178.58 1159.82,-178.78 1169.68,-178.97"/>
<polygon fill="black" stroke="black" points="1169.74,-182.48 1179.81,-179.18 1169.88,-175.48 1169.74,-182.48"/>
</g>
<!-- [210.96, 210.96]\n[79.14, 79.14] -->
<g id="node31" class="node">
<title>[210.96, 210.96]\n[79.14, 79.14]</title>
<polygon fill="none" stroke="black" points="1315,-136 1180,-136 1180,-83 1315,-83 1315,-136"/>
<text text-anchor="middle" x="1247.5" y="-120.8" font-family="Times,serif" font-size="14.00">[210.96, 210.96]</text>
<text text-anchor="middle" x="1247.5" y="-105.8" font-family="Times,serif" font-size="14.00">[79.14, 79.14]</text>
<text text-anchor="middle" x="1247.5" y="-90.8" font-family="Times,serif" font-size="14.00">LEAF</text>
</g>
<!-- [205.61, 213.91]\n[58.49, 79.14]&#45;&gt;[210.96, 210.96]\n[79.14, 79.14] -->
<g id="edge30" class="edge">
<title>[205.61, 213.91]\n[58.49, 79.14]&#45;&gt;[210.96, 210.96]\n[79.14, 79.14]</title>
<path fill="none" stroke="black" d="M1139.55,-145.06C1149.86,-141.63 1160.25,-138.18 1170.3,-134.84"/>
<polygon fill="black" stroke="black" points="1171.43,-138.15 1179.81,-131.67 1169.22,-131.51 1171.43,-138.15"/>
</g>
</g>
</svg>
