<?xml version="1.0" encoding="UTF-8" standalone="no"?>
<!DOCTYPE svg PUBLIC "-//W3C//DTD SVG 1.1//EN"
 "http://www.w3.org/Graphics/SVG/1.1/DTD/svg11.dtd">
<!-- Generated by graphviz version 2.43.0 (0)
 -->
<!-- Title: G Pages: 1 -->
<svg width="998pt" height="550pt"
 viewBox="0.00 0.00 998.00 550.00" xmlns="http://www.w3.org/2000/svg" xmlns:xlink="http://www.w3.org/1999/xlink">
<g id="graph0" class="graph" transform="scale(1 1) rotate(0) translate(4 546)">
<title>G</title>
<polygon fill="white" stroke="transparent" points="-4,4 -4,-546 994,-546 994,4 -4,4"/>
<!-- [160.95, 238.62]\n[6.95, 85.7] -->
<g id="node1" class="node">
<title>[160.95, 238.62]\n[6.95, 85.7]</title>
<polygon fill="none" stroke="black" points="135,-374 0,-374 0,-336 135,-336 135,-374"/>
<text text-anchor="middle" x="67.5" y="-358.8" font-family="Times,serif" font-size="14.00">[160.95, 238.62]</text>
<text text-anchor="middle" x="67.5" y="-343.8" font-family="Times,serif" font-size="14.00">[6.95, 85.7]</text>
</g>
<!-- [202.97, 215.83]\n[6.95, 25.97] -->
<g id="node2" class="node">
<title>[202.97, 215.83]\n[6.95, 25.97]</title>
<polygon fill="none" stroke="black" points="306,-402 171,-402 171,-364 306,-364 306,-402"/>
<text text-anchor="middle" x="238.5" y="-386.8" font-family="Times,serif" font-size="14.00">[202.97, 215.83]</text>
<text text-anchor="middle" x="238.5" y="-371.8" font-family="Times,serif" font-size="14.00">[6.95, 25.97]</text>
</g>
<!-- [160.95, 238.62]\n[6.95, 85.7]&#45;&gt;[202.97, 215.83]\n[6.95, 25.97] -->
<g id="edge1" class="edge">
<title>[160.95, 238.62]\n[6.95, 85.7]&#45;&gt;[202.97, 215.83]\n[6.95, 25.97]</title>
<path fill="none" stroke="black" d="M135.29,-366.07C143.72,-367.46 152.38,-368.9 160.94,-370.32"/>
<polygon fill="black" stroke="black" points="160.48,-373.79 170.92,-371.97 161.62,-366.88 160.48,-373.79"/>
</g>
<!-- [160.95, 238.62]\n[29.53, 85.7] -->
<g id="node3" class="node">
<title>[160.95, 238.62]\n[29.53, 85.7]</title>
<polygon fill="none" stroke="black" points="306,-346 171,-346 171,-308 306,-308 306,-346"/>
<text text-anchor="middle" x="238.5" y="-330.8" font-family="Times,serif" font-size="14.00">[160.95, 238.62]</text>
<text text-anchor="middle" x="238.5" y="-315.8" font-family="Times,serif" font-size="14.00">[29.53, 85.7]</text>
</g>
<!-- [160.95, 238.62]\n[6.95, 85.7]&#45;&gt;[160.95, 238.62]\n[29.53, 85.7] -->
<g id="edge2" class="edge">
<title>[160.95, 238.62]\n[6.95, 85.7]&#45;&gt;[160.95, 238.62]\n[29.53, 85.7]</title>
<path fill="none" stroke="black" d="M135.29,-343.93C143.72,-342.54 152.38,-341.1 160.94,-339.68"/>
<polygon fill="black" stroke="black" points="161.62,-343.12 170.92,-338.03 160.48,-336.21 161.62,-343.12"/>
</g>
<!-- [215.83, 215.83]\n[6.95, 6.95] -->
<g id="node4" class="node">
<title>[215.83, 215.83]\n[6.95, 6.95]</title>
<polygon fill="none" stroke="black" points="477,-458 342,-458 342,-420 477,-420 477,-458"/>
<text text-anchor="middle" x="409.5" y="-442.8" font-family="Times,serif" font-size="14.00">[215.83, 215.83]</text>
<text text-anchor="middle" x="409.5" y="-427.8" font-family="Times,serif" font-size="14.00">[6.95, 6.95]</text>
</g>
<!-- [202.97, 215.83]\n[6.95, 25.97]&#45;&gt;[215.83, 215.83]\n[6.95, 6.95] -->
<g id="edge3" class="edge">
<title>[202.97, 215.83]\n[6.95, 25.97]&#45;&gt;[215.83, 215.83]\n[6.95, 6.95]</title>
<path fill="none" stroke="black" d="M297.19,-402.12C311.46,-406.85 326.88,-411.95 341.55,-416.82"/>
<polygon fill="black" stroke="black" points="340.48,-420.15 351.07,-419.97 342.68,-413.5 340.48,-420.15"/>
</g>
<!-- [202.97, 202.97]\n[25.97, 25.97] -->
<g id="node5" class="node">
<title>[202.97, 202.97]\n[25.97, 25.97]</title>
<polygon fill="none" stroke="black" points="477,-402 342,-402 342,-364 477,-364 477,-402"/>
<text text-anchor="middle" x="409.5" y="-386.8" font-family="Times,serif" font-size="14.00">[202.97, 202.97]</text>
<text text-anchor="middle" x="409.5" y="-371.8" font-family="Times,serif" font-size="14.00">[25.97, 25.97]</text>
</g>
<!-- [202.97, 215.83]\n[6.95, 25.97]&#45;&gt;[202.97, 202.97]\n[25.97, 25.97] -->
<g id="edge4" class="edge">
<title>[202.97, 215.83]\n[6.95, 25.97]&#45;&gt;[202.97, 202.97]\n[25.97, 25.97]</title>
<path fill="none" stroke="black" d="M306.29,-383C314.62,-383 323.19,-383 331.66,-383"/>
<polygon fill="black" stroke="black" points="331.92,-386.5 341.92,-383 331.92,-379.5 331.92,-386.5"/>
</g>
<!-- [160.95, 238.62]\n[29.53, 61.69] -->
<g id="node6" class="node">
<title>[160.95, 238.62]\n[29.53, 61.69]</title>
<polygon fill="none" stroke="black" points="477,-346 342,-346 342,-308 477,-308 477,-346"/>
<text text-anchor="middle" x="409.5" y="-330.8" font-family="Times,serif" font-size="14.00">[160.95, 238.62]</text>
<text text-anchor="middle" x="409.5" y="-315.8" font-family="Times,serif" font-size="14.00">[29.53, 61.69]</text>
</g>
<!-- [160.95, 238.62]\n[29.53, 85.7]&#45;&gt;[160.95, 238.62]\n[29.53, 61.69] -->
<g id="edge5" class="edge">
<title>[160.95, 238.62]\n[29.53, 85.7]&#45;&gt;[160.95, 238.62]\n[29.53, 61.69]</title>
<path fill="none" stroke="black" d="M306.29,-327C314.62,-327 323.19,-327 331.66,-327"/>
<polygon fill="black" stroke="black" points="331.92,-330.5 341.92,-327 331.92,-323.5 331.92,-330.5"/>
</g>
<!-- [174.85, 237.66]\n[70.29, 85.7] -->
<g id="node7" class="node">
<title>[174.85, 237.66]\n[70.29, 85.7]</title>
<polygon fill="none" stroke="black" points="477,-234 342,-234 342,-196 477,-196 477,-234"/>
<text text-anchor="middle" x="409.5" y="-218.8" font-family="Times,serif" font-size="14.00">[174.85, 237.66]</text>
<text text-anchor="middle" x="409.5" y="-203.8" font-family="Times,serif" font-size="14.00">[70.29, 85.7]</text>
</g>
<!-- [160.95, 238.62]\n[29.53, 85.7]&#45;&gt;[174.85, 237.66]\n[70.29, 85.7] -->
<g id="edge6" class="edge">
<title>[160.95, 238.62]\n[29.53, 85.7]&#45;&gt;[174.85, 237.66]\n[70.29, 85.7]</title>
<path fill="none" stroke="black" d="M268.55,-307.75C297.02,-288.88 340.52,-260.05 371.46,-239.55"/>
<polygon fill="black" stroke="black" points="373.42,-242.44 379.83,-234 369.56,-236.61 373.42,-242.44"/>
</g>
<!-- [160.95, 177.62]\n[29.53, 58.38] -->
<g id="node8" class="node">
<title>[160.95, 177.62]\n[29.53, 58.38]</title>
<polygon fill="none" stroke="black" points="648,-486 513,-486 513,-448 648,-448 648,-486"/>
<text text-anchor="middle" x="580.5" y="-470.8" font-family="Times,serif" font-size="14.00">[160.95, 177.62]</text>
<text text-anchor="middle" x="580.5" y="-455.8" font-family="Times,serif" font-size="14.00">[29.53, 58.38]</text>
</g>
<!-- [160.95, 238.62]\n[29.53, 61.69]&#45;&gt;[160.95, 177.62]\n[29.53, 58.38] -->
<g id="edge7" class="edge">
<title>[160.95, 238.62]\n[29.53, 61.69]&#45;&gt;[160.95, 177.62]\n[29.53, 58.38]</title>
<path fill="none" stroke="black" d="M462.17,-346.09C467.35,-348.78 472.39,-351.75 477,-355 510.34,-378.5 540.83,-414.52 559.73,-439.33"/>
<polygon fill="black" stroke="black" points="557.12,-441.69 565.92,-447.6 562.73,-437.5 557.12,-441.69"/>
</g>
<!-- [178.76, 238.62]\n[35.1, 61.69] -->
<g id="node9" class="node">
<title>[178.76, 238.62]\n[35.1, 61.69]</title>
<polygon fill="none" stroke="black" points="648,-346 513,-346 513,-308 648,-308 648,-346"/>
<text text-anchor="middle" x="580.5" y="-330.8" font-family="Times,serif" font-size="14.00">[178.76, 238.62]</text>
<text text-anchor="middle" x="580.5" y="-315.8" font-family="Times,serif" font-size="14.00">[35.1, 61.69]</text>
</g>
<!-- [160.95, 238.62]\n[29.53, 61.69]&#45;&gt;[178.76, 238.62]\n[35.1, 61.69] -->
<g id="edge8" class="edge">
<title>[160.95, 238.62]\n[29.53, 61.69]&#45;&gt;[178.76, 238.62]\n[35.1, 61.69]</title>
<path fill="none" stroke="black" d="M477.29,-327C485.62,-327 494.19,-327 502.66,-327"/>
<polygon fill="black" stroke="black" points="502.92,-330.5 512.92,-327 502.92,-323.5 502.92,-330.5"/>
</g>
<!-- [174.85, 178.12]\n[79.05, 85.7] -->
<g id="node20" class="node">
<title>[174.85, 178.12]\n[79.05, 85.7]</title>
<polygon fill="none" stroke="black" points="648,-234 513,-234 513,-196 648,-196 648,-234"/>
<text text-anchor="middle" x="580.5" y="-218.8" font-family="Times,serif" font-size="14.00">[174.85, 178.12]</text>
<text text-anchor="middle" x="580.5" y="-203.8" font-family="Times,serif" font-size="14.00">[79.05, 85.7]</text>
</g>
<!-- [174.85, 237.66]\n[70.29, 85.7]&#45;&gt;[174.85, 178.12]\n[79.05, 85.7] -->
<g id="edge19" class="edge">
<title>[174.85, 237.66]\n[70.29, 85.7]&#45;&gt;[174.85, 178.12]\n[79.05, 85.7]</title>
<path fill="none" stroke="black" d="M477.29,-215C485.62,-215 494.19,-215 502.66,-215"/>
<polygon fill="black" stroke="black" points="502.92,-218.5 512.92,-215 502.92,-211.5 502.92,-218.5"/>
</g>
<!-- [204.38, 237.66]\n[70.29, 80.45] -->
<g id="node21" class="node">
<title>[204.38, 237.66]\n[70.29, 80.45]</title>
<polygon fill="none" stroke="black" points="648,-150 513,-150 513,-112 648,-112 648,-150"/>
<text text-anchor="middle" x="580.5" y="-134.8" font-family="Times,serif" font-size="14.00">[204.38, 237.66]</text>
<text text-anchor="middle" x="580.5" y="-119.8" font-family="Times,serif" font-size="14.00">[70.29, 80.45]</text>
</g>
<!-- [174.85, 237.66]\n[70.29, 85.7]&#45;&gt;[204.38, 237.66]\n[70.29, 80.45] -->
<g id="edge20" class="edge">
<title>[174.85, 237.66]\n[70.29, 85.7]&#45;&gt;[204.38, 237.66]\n[70.29, 80.45]</title>
<path fill="none" stroke="black" d="M448.85,-195.94C473.5,-183.69 505.72,-167.67 531.99,-154.62"/>
<polygon fill="black" stroke="black" points="533.61,-157.72 541.01,-150.13 530.5,-151.45 533.61,-157.72"/>
</g>
<!-- [160.95, 160.95]\n[29.53, 29.53] -->
<g id="node10" class="node">
<title>[160.95, 160.95]\n[29.53, 29.53]</title>
<polygon fill="none" stroke="black" points="819,-542 684,-542 684,-504 819,-504 819,-542"/>
<text text-anchor="middle" x="751.5" y="-526.8" font-family="Times,serif" font-size="14.00">[160.95, 160.95]</text>
<text text-anchor="middle" x="751.5" y="-511.8" font-family="Times,serif" font-size="14.00">[29.53, 29.53]</text>
</g>
<!-- [160.95, 177.62]\n[29.53, 58.38]&#45;&gt;[160.95, 160.95]\n[29.53, 29.53] -->
<g id="edge9" class="edge">
<title>[160.95, 177.62]\n[29.53, 58.38]&#45;&gt;[160.95, 160.95]\n[29.53, 29.53]</title>
<path fill="none" stroke="black" d="M639.19,-486.12C653.46,-490.85 668.88,-495.95 683.55,-500.82"/>
<polygon fill="black" stroke="black" points="682.48,-504.15 693.07,-503.97 684.68,-497.5 682.48,-504.15"/>
</g>
<!-- [170.06, 177.62]\n[37.15, 58.38] -->
<g id="node11" class="node">
<title>[170.06, 177.62]\n[37.15, 58.38]</title>
<polygon fill="none" stroke="black" points="819,-486 684,-486 684,-448 819,-448 819,-486"/>
<text text-anchor="middle" x="751.5" y="-470.8" font-family="Times,serif" font-size="14.00">[170.06, 177.62]</text>
<text text-anchor="middle" x="751.5" y="-455.8" font-family="Times,serif" font-size="14.00">[37.15, 58.38]</text>
</g>
<!-- [160.95, 177.62]\n[29.53, 58.38]&#45;&gt;[170.06, 177.62]\n[37.15, 58.38] -->
<g id="edge10" class="edge">
<title>[160.95, 177.62]\n[29.53, 58.38]&#45;&gt;[170.06, 177.62]\n[37.15, 58.38]</title>
<path fill="none" stroke="black" d="M648.29,-467C656.62,-467 665.19,-467 673.66,-467"/>
<polygon fill="black" stroke="black" points="673.92,-470.5 683.92,-467 673.92,-463.5 673.92,-470.5"/>
</g>
<!-- [178.76, 204.37]\n[40.01, 61.69] -->
<g id="node14" class="node">
<title>[178.76, 204.37]\n[40.01, 61.69]</title>
<polygon fill="none" stroke="black" points="819,-374 684,-374 684,-336 819,-336 819,-374"/>
<text text-anchor="middle" x="751.5" y="-358.8" font-family="Times,serif" font-size="14.00">[178.76, 204.37]</text>
<text text-anchor="middle" x="751.5" y="-343.8" font-family="Times,serif" font-size="14.00">[40.01, 61.69]</text>
</g>
<!-- [178.76, 238.62]\n[35.1, 61.69]&#45;&gt;[178.76, 204.37]\n[40.01, 61.69] -->
<g id="edge13" class="edge">
<title>[178.76, 238.62]\n[35.1, 61.69]&#45;&gt;[178.76, 204.37]\n[40.01, 61.69]</title>
<path fill="none" stroke="black" d="M648.29,-338.07C656.72,-339.46 665.38,-340.9 673.94,-342.32"/>
<polygon fill="black" stroke="black" points="673.48,-345.79 683.92,-343.97 674.62,-338.88 673.48,-345.79"/>
</g>
<!-- [211.26, 238.62]\n[35.1, 58.49] -->
<g id="node15" class="node">
<title>[211.26, 238.62]\n[35.1, 58.49]</title>
<polygon fill="none" stroke="black" points="819,-318 684,-318 684,-280 819,-280 819,-318"/>
<text text-anchor="middle" x="751.5" y="-302.8" font-family="Times,serif" font-size="14.00">[211.26, 238.62]</text>
<text text-anchor="middle" x="751.5" y="-287.8" font-family="Times,serif" font-size="14.00">[35.1, 58.49]</text>
</g>
<!-- [178.76, 238.62]\n[35.1, 61.69]&#45;&gt;[211.26, 238.62]\n[35.1, 58.49] -->
<g id="edge14" class="edge">
<title>[178.76, 238.62]\n[35.1, 61.69]&#45;&gt;[211.26, 238.62]\n[35.1, 58.49]</title>
<path fill="none" stroke="black" d="M648.29,-315.93C656.72,-314.54 665.38,-313.1 673.94,-311.68"/>
<polygon fill="black" stroke="black" points="674.62,-315.12 683.92,-310.03 673.48,-308.21 674.62,-315.12"/>
</g>
<!-- [177.62, 177.62]\n[37.15, 37.15] -->
<g id="node12" class="node">
<title>[177.62, 177.62]\n[37.15, 37.15]</title>
<polygon fill="none" stroke="black" points="990,-542 855,-542 855,-504 990,-504 990,-542"/>
<text text-anchor="middle" x="922.5" y="-526.8" font-family="Times,serif" font-size="14.00">[177.62, 177.62]</text>
<text text-anchor="middle" x="922.5" y="-511.8" font-family="Times,serif" font-size="14.00">[37.15, 37.15]</text>
</g>
<!-- [170.06, 177.62]\n[37.15, 58.38]&#45;&gt;[177.62, 177.62]\n[37.15, 37.15] -->
<g id="edge11" class="edge">
<title>[170.06, 177.62]\n[37.15, 58.38]&#45;&gt;[177.62, 177.62]\n[37.15, 37.15]</title>
<path fill="none" stroke="black" d="M810.19,-486.12C824.46,-490.85 839.88,-495.95 854.55,-500.82"/>
<polygon fill="black" stroke="black" points="853.48,-504.15 864.07,-503.97 855.68,-497.5 853.48,-504.15"/>
</g>
<!-- [170.06, 170.06]\n[58.38, 58.38] -->
<g id="node13" class="node">
<title>[170.06, 170.06]\n[58.38, 58.38]</title>
<polygon fill="none" stroke="black" points="990,-486 855,-486 855,-448 990,-448 990,-486"/>
<text text-anchor="middle" x="922.5" y="-470.8" font-family="Times,serif" font-size="14.00">[170.06, 170.06]</text>
<text text-anchor="middle" x="922.5" y="-455.8" font-family="Times,serif" font-size="14.00">[58.38, 58.38]</text>
</g>
<!-- [170.06, 177.62]\n[37.15, 58.38]&#45;&gt;[170.06, 170.06]\n[58.38, 58.38] -->
<g id="edge12" class="edge">
<title>[170.06, 177.62]\n[37.15, 58.38]&#45;&gt;[170.06, 170.06]\n[58.38, 58.38]</title>
<path fill="none" stroke="black" d="M819.29,-467C827.62,-467 836.19,-467 844.66,-467"/>
<polygon fill="black" stroke="black" points="844.92,-470.5 854.92,-467 844.92,-463.5 844.92,-470.5"/>
</g>
<!-- [178.76, 204.37]\n[40.01, 52.82] -->
<g id="node16" class="node">
<title>[178.76, 204.37]\n[40.01, 52.82]</title>
<polygon fill="none" stroke="black" points="990,-430 855,-430 855,-392 990,-392 990,-430"/>
<text text-anchor="middle" x="922.5" y="-414.8" font-family="Times,serif" font-size="14.00">[178.76, 204.37]</text>
<text text-anchor="middle" x="922.5" y="-399.8" font-family="Times,serif" font-size="14.00">[40.01, 52.82]</text>
</g>
<!-- [178.76, 204.37]\n[40.01, 61.69]&#45;&gt;[178.76, 204.37]\n[40.01, 52.82] -->
<g id="edge15" class="edge">
<title>[178.76, 204.37]\n[40.01, 61.69]&#45;&gt;[178.76, 204.37]\n[40.01, 52.82]</title>
<path fill="none" stroke="black" d="M810.19,-374.12C824.46,-378.85 839.88,-383.95 854.55,-388.82"/>
<polygon fill="black" stroke="black" points="853.48,-392.15 864.07,-391.97 855.68,-385.5 853.48,-392.15"/>
</g>
<!-- [181.41, 203.68]\n[59.41, 61.69] -->
<g id="node17" class="node">
<title>[181.41, 203.68]\n[59.41, 61.69]</title>
<polygon fill="none" stroke="black" points="990,-374 855,-374 855,-336 990,-336 990,-374"/>
<text text-anchor="middle" x="922.5" y="-358.8" font-family="Times,serif" font-size="14.00">[181.41, 203.68]</text>
<text text-anchor="middle" x="922.5" y="-343.8" font-family="Times,serif" font-size="14.00">[59.41, 61.69]</text>
</g>
<!-- [178.76, 204.37]\n[40.01, 61.69]&#45;&gt;[181.41, 203.68]\n[59.41, 61.69] -->
<g id="edge16" class="edge">
<title>[178.76, 204.37]\n[40.01, 61.69]&#45;&gt;[181.41, 203.68]\n[59.41, 61.69]</title>
<path fill="none" stroke="black" d="M819.29,-355C827.62,-355 836.19,-355 844.66,-355"/>
<polygon fill="black" stroke="black" points="844.92,-358.5 854.92,-355 844.92,-351.5 844.92,-358.5"/>
</g>
<!-- [211.26, 212.74]\n[35.1, 58.49] -->
<g id="node18" class="node">
<title>[211.26, 212.74]\n[35.1, 58.49]</title>
<polygon fill="none" stroke="black" points="990,-318 855,-318 855,-280 990,-280 990,-318"/>
<text text-anchor="middle" x="922.5" y="-302.8" font-family="Times,serif" font-size="14.00">[211.26, 212.74]</text>
<text text-anchor="middle" x="922.5" y="-287.8" font-family="Times,serif" font-size="14.00">[35.1, 58.49]</text>
</g>
<!-- [211.26, 238.62]\n[35.1, 58.49]&#45;&gt;[211.26, 212.74]\n[35.1, 58.49] -->
<g id="edge17" class="edge">
<title>[211.26, 238.62]\n[35.1, 58.49]&#45;&gt;[211.26, 212.74]\n[35.1, 58.49]</title>
<path fill="none" stroke="black" d="M819.29,-299C827.62,-299 836.19,-299 844.66,-299"/>
<polygon fill="black" stroke="black" points="844.92,-302.5 854.92,-299 844.92,-295.5 844.92,-302.5"/>
</g>
<!-- [238.62, 238.62]\n[54.24, 54.24] -->
<g id="node19" class="node">
<title>[238.62, 238.62]\n[54.24, 54.24]</title>
<polygon fill="none" stroke="black" points="990,-262 855,-262 855,-224 990,-224 990,-262"/>
<text text-anchor="middle" x="922.5" y="-246.8" font-family="Times,serif" font-size="14.00">[238.62, 238.62]</text>
<text text-anchor="middle" x="922.5" y="-231.8" font-family="Times,serif" font-size="14.00">[54.24, 54.24]</text>
</g>
<!-- [211.26, 238.62]\n[35.1, 58.49]&#45;&gt;[238.62, 238.62]\n[54.24, 54.24] -->
<g id="edge18" class="edge">
<title>[211.26, 238.62]\n[35.1, 58.49]&#45;&gt;[238.62, 238.62]\n[54.24, 54.24]</title>
<path fill="none" stroke="black" d="M810.19,-279.88C824.46,-275.15 839.88,-270.05 854.55,-265.18"/>
<polygon fill="black" stroke="black" points="855.68,-268.5 864.07,-262.03 853.48,-261.85 855.68,-268.5"/>
</g>
<!-- [178.12, 178.12]\n[79.05, 79.05] -->
<g id="node22" class="node">
<title>[178.12, 178.12]\n[79.05, 79.05]</title>
<polygon fill="none" stroke="black" points="819,-262 684,-262 684,-224 819,-224 819,-262"/>
<text text-anchor="middle" x="751.5" y="-246.8" font-family="Times,serif" font-size="14.00">[178.12, 178.12]</text>
<text text-anchor="middle" x="751.5" y="-231.8" font-family="Times,serif" font-size="14.00">[79.05, 79.05]</text>
</g>
<!-- [174.85, 178.12]\n[79.05, 85.7]&#45;&gt;[178.12, 178.12]\n[79.05, 79.05] -->
<g id="edge21" class="edge">
<title>[174.85, 178.12]\n[79.05, 85.7]&#45;&gt;[178.12, 178.12]\n[79.05, 79.05]</title>
<path fill="none" stroke="black" d="M648.29,-226.07C656.72,-227.46 665.38,-228.9 673.94,-230.32"/>
<polygon fill="black" stroke="black" points="673.48,-233.79 683.92,-231.97 674.62,-226.88 673.48,-233.79"/>
</g>
<!-- [174.85, 174.85]\n[85.7, 85.7] -->
<g id="node23" class="node">
<title>[174.85, 174.85]\n[85.7, 85.7]</title>
<polygon fill="none" stroke="black" points="819,-206 684,-206 684,-168 819,-168 819,-206"/>
<text text-anchor="middle" x="751.5" y="-190.8" font-family="Times,serif" font-size="14.00">[174.85, 174.85]</text>
<text text-anchor="middle" x="751.5" y="-175.8" font-family="Times,serif" font-size="14.00">[85.7, 85.7]</text>
</g>
<!-- [174.85, 178.12]\n[79.05, 85.7]&#45;&gt;[174.85, 174.85]\n[85.7, 85.7] -->
<g id="edge22" class="edge">
<title>[174.85, 178.12]\n[79.05, 85.7]&#45;&gt;[174.85, 174.85]\n[85.7, 85.7]</title>
<path fill="none" stroke="black" d="M648.29,-203.93C656.72,-202.54 665.38,-201.1 673.94,-199.68"/>
<polygon fill="black" stroke="black" points="674.62,-203.12 683.92,-198.03 673.48,-196.21 674.62,-203.12"/>
</g>
<!-- [205.61, 237.66]\n[70.29, 70.75] -->
<g id="node24" class="node">
<title>[205.61, 237.66]\n[70.29, 70.75]</title>
<polygon fill="none" stroke="black" points="819,-150 684,-150 684,-112 819,-112 819,-150"/>
<text text-anchor="middle" x="751.5" y="-134.8" font-family="Times,serif" font-size="14.00">[205.61, 237.66]</text>
<text text-anchor="middle" x="751.5" y="-119.8" font-family="Times,serif" font-size="14.00">[70.29, 70.75]</text>
</g>
<!-- [204.38, 237.66]\n[70.29, 80.45]&#45;&gt;[205.61, 237.66]\n[70.29, 70.75] -->
<g id="edge23" class="edge">
<title>[204.38, 237.66]\n[70.29, 80.45]&#45;&gt;[205.61, 237.66]\n[70.29, 70.75]</title>
<path fill="none" stroke="black" d="M648.29,-131C656.62,-131 665.19,-131 673.66,-131"/>
<polygon fill="black" stroke="black" points="673.92,-134.5 683.92,-131 673.92,-127.5 673.92,-134.5"/>
</g>
<!-- [204.38, 210.96]\n[79.14, 80.45] -->
<g id="node25" class="node">
<title>[204.38, 210.96]\n[79.14, 80.45]</title>
<polygon fill="none" stroke="black" points="819,-94 684,-94 684,-56 819,-56 819,-94"/>
<text text-anchor="middle" x="751.5" y="-78.8" font-family="Times,serif" font-size="14.00">[204.38, 210.96]</text>
<text text-anchor="middle" x="751.5" y="-63.8" font-family="Times,serif" font-size="14.00">[79.14, 80.45]</text>
</g>
<!-- [204.38, 237.66]\n[70.29, 80.45]&#45;&gt;[204.38, 210.96]\n[79.14, 80.45] -->
<g id="edge24" class="edge">
<title>[204.38, 237.66]\n[70.29, 80.45]&#45;&gt;[204.38, 210.96]\n[79.14, 80.45]</title>
<path fill="none" stroke="black" d="M639.19,-111.88C653.46,-107.15 668.88,-102.05 683.55,-97.18"/>
<polygon fill="black" stroke="black" points="684.68,-100.5 693.07,-94.03 682.48,-93.85 684.68,-100.5"/>
</g>
<!-- [205.61, 213.91]\n[70.29, 70.75] -->
<g id="node26" class="node">
<title>[205.61, 213.91]\n[70.29, 70.75]</title>
<polygon fill="none" stroke="black" points="990,-206 855,-206 855,-168 990,-168 990,-206"/>
<text text-anchor="middle" x="922.5" y="-190.8" font-family="Times,serif" font-size="14.00">[205.61, 213.91]</text>
<text text-anchor="middle" x="922.5" y="-175.8" font-family="Times,serif" font-size="14.00">[70.29, 70.75]</text>
</g>
<!-- [205.61, 237.66]\n[70.29, 70.75]&#45;&gt;[205.61, 213.91]\n[70.29, 70.75] -->
<g id="edge25" class="edge">
<title>[205.61, 237.66]\n[70.29, 70.75]&#45;&gt;[205.61, 213.91]\n[70.29, 70.75]</title>
<path fill="none" stroke="black" d="M810.19,-150.12C824.46,-154.85 839.88,-159.95 854.55,-164.82"/>
<polygon fill="black" stroke="black" points="853.48,-168.15 864.07,-167.97 855.68,-161.5 853.48,-168.15"/>
</g>
<!-- [237.66, 237.66]\n[70.66, 70.66] -->
<g id="node27" class="node">
<title>[237.66, 237.66]\n[70.66, 70.66]</title>
<polygon fill="none" stroke="black" points="990,-150 855,-150 855,-112 990,-112 990,-150"/>
<text text-anchor="middle" x="922.5" y="-134.8" font-family="Times,serif" font-size="14.00">[237.66, 237.66]</text>
<text text-anchor="middle" x="922.5" y="-119.8" font-family="Times,serif" font-size="14.00">[70.66, 70.66]</text>
</g>
<!-- [205.61, 237.66]\n[70.29, 70.75]&#45;&gt;[237.66, 237.66]\n[70.66, 70.66] -->
<g id="edge26" class="edge">
<title>[205.61, 237.66]\n[70.29, 70.75]&#45;&gt;[237.66, 237.66]\n[70.66, 70.66]</title>
<path fill="none" stroke="black" d="M819.29,-131C827.62,-131 836.19,-131 844.66,-131"/>
<polygon fill="black" stroke="black" points="844.92,-134.5 854.92,-131 844.92,-127.5 844.92,-134.5"/>
</g>
<!-- [204.38, 204.38]\n[80.45, 80.45] -->
<g id="node28" class="node">
<title>[204.38, 204.38]\n[80.45, 80.45]</title>
<polygon fill="none" stroke="black" points="990,-94 855,-94 855,-56 990,-56 990,-94"/>
<text text-anchor="middle" x="922.5" y="-78.8" font-family="Times,serif" font-size="14.00">[204.38, 204.38]</text>
<text text-anchor="middle" x="922.5" y="-63.8" font-family="Times,serif" font-size="14.00">[80.45, 80.45]</text>
</g>
<!-- [204.38, 210.96]\n[79.14, 80.45]&#45;&gt;[204.38, 204.38]\n[80.45, 80.45] -->
<g id="edge27" class="edge">
<title>[204.38, 210.96]\n[79.14, 80.45]&#45;&gt;[204.38, 204.38]\n[80.45, 80.45]</title>
<path fill="none" stroke="black" d="M819.29,-75C827.62,-75 836.19,-75 844.66,-75"/>
<polygon fill="black" stroke="black" points="844.92,-78.5 854.92,-75 844.92,-71.5 844.92,-78.5"/>
</g>
<!-- [210.96, 210.96]\n[79.14, 79.14] -->
<g id="node29" class="node">
<title>[210.96, 210.96]\n[79.14, 79.14]</title>
<polygon fill="none" stroke="black" points="990,-38 855,-38 855,0 990,0 990,-38"/>
<text text-anchor="middle" x="922.5" y="-22.8" font-family="Times,serif" font-size="14.00">[210.96, 210.96]</text>
<text text-anchor="middle" x="922.5" y="-7.8" font-family="Times,serif" font-size="14.00">[79.14, 79.14]</text>
</g>
<!-- [204.38, 210.96]\n[79.14, 80.45]&#45;&gt;[210.96, 210.96]\n[79.14, 79.14] -->
<g id="edge28" class="edge">
<title>[204.38, 210.96]\n[79.14, 80.45]&#45;&gt;[210.96, 210.96]\n[79.14, 79.14]</title>
<path fill="none" stroke="black" d="M810.19,-55.88C824.46,-51.15 839.88,-46.05 854.55,-41.18"/>
<polygon fill="black" stroke="black" points="855.68,-44.5 864.07,-38.03 853.48,-37.85 855.68,-44.5"/>
</g>
</g>
</svg>
