<?xml version="1.0" encoding="UTF-8" standalone="no"?>
<!DOCTYPE svg PUBLIC "-//W3C//DTD SVG 1.1//EN"
 "http://www.w3.org/Graphics/SVG/1.1/DTD/svg11.dtd">
<!-- Generated by graphviz version 2.43.0 (0)
 -->
<!-- Title: G Pages: 1 -->
<svg width="947pt" height="558pt"
 viewBox="0.00 0.00 947.00 558.00" xmlns="http://www.w3.org/2000/svg" xmlns:xlink="http://www.w3.org/1999/xlink">
<g id="graph0" class="graph" transform="scale(1 1) rotate(0) translate(4 554)">
<title>G</title>
<polygon fill="white" stroke="transparent" points="-4,4 -4,-554 943,-554 943,4 -4,4"/>
<!-- [100, 500]\n[0, 150] -->
<g id="node1" class="node">
<title>[100, 500]\n[0, 150]</title>
<polygon fill="none" stroke="black" points="90,-268.5 0,-268.5 0,-200.5 90,-200.5 90,-268.5"/>
<text text-anchor="middle" x="45" y="-253.3" font-family="Times,serif" font-size="14.00">[100, 500]</text>
<text text-anchor="middle" x="45" y="-238.3" font-family="Times,serif" font-size="14.00">[0, 150]</text>
<text text-anchor="middle" x="45" y="-223.3" font-family="Times,serif" font-size="14.00">sp: 300.0</text>
<text text-anchor="middle" x="45" y="-208.3" font-family="Times,serif" font-size="14.00">dim: 0</text>
</g>
<!-- [100, 300.0]\n[0, 150] -->
<g id="node2" class="node">
<title>[100, 300.0]\n[0, 150]</title>
<polygon fill="none" stroke="black" points="249,-308.5 145,-308.5 145,-240.5 249,-240.5 249,-308.5"/>
<text text-anchor="middle" x="197" y="-293.3" font-family="Times,serif" font-size="14.00">[100, 300.0]</text>
<text text-anchor="middle" x="197" y="-278.3" font-family="Times,serif" font-size="14.00">[0, 150]</text>
<text text-anchor="middle" x="197" y="-263.3" font-family="Times,serif" font-size="14.00">sp: 200.0</text>
<text text-anchor="middle" x="197" y="-248.3" font-family="Times,serif" font-size="14.00">dim: 0</text>
</g>
<!-- [100, 500]\n[0, 150]&#45;&gt;[100, 300.0]\n[0, 150] -->
<g id="edge1" class="edge">
<title>[100, 500]\n[0, 150]&#45;&gt;[100, 300.0]\n[0, 150]</title>
<path fill="none" stroke="black" d="M90.19,-246.28C104.23,-250.03 120.01,-254.24 135.01,-258.24"/>
<polygon fill="black" stroke="black" points="134.17,-261.63 144.73,-260.83 135.97,-254.87 134.17,-261.63"/>
</g>
<!-- [300.0, 500]\n[0, 150] -->
<g id="node3" class="node">
<title>[300.0, 500]\n[0, 150]</title>
<polygon fill="none" stroke="black" points="268,-222 126,-222 126,-169 268,-169 268,-222"/>
<text text-anchor="middle" x="197" y="-206.8" font-family="Times,serif" font-size="14.00">[300.0, 500]</text>
<text text-anchor="middle" x="197" y="-191.8" font-family="Times,serif" font-size="14.00">[0, 150]</text>
<text text-anchor="middle" x="197" y="-176.8" font-family="Times,serif" font-size="14.00">path_length: 8.04</text>
</g>
<!-- [100, 500]\n[0, 150]&#45;&gt;[300.0, 500]\n[0, 150] -->
<g id="edge2" class="edge">
<title>[100, 500]\n[0, 150]&#45;&gt;[300.0, 500]\n[0, 150]</title>
<path fill="none" stroke="black" d="M90.19,-223.01C98.44,-220.86 107.3,-218.56 116.24,-216.24"/>
<polygon fill="black" stroke="black" points="117.16,-219.62 125.95,-213.71 115.4,-212.84 117.16,-219.62"/>
</g>
<!-- [100, 200.0]\n[0, 150] -->
<g id="node4" class="node">
<title>[100, 200.0]\n[0, 150]</title>
<polygon fill="none" stroke="black" points="414.5,-361.5 310.5,-361.5 310.5,-293.5 414.5,-293.5 414.5,-361.5"/>
<text text-anchor="middle" x="362.5" y="-346.3" font-family="Times,serif" font-size="14.00">[100, 200.0]</text>
<text text-anchor="middle" x="362.5" y="-331.3" font-family="Times,serif" font-size="14.00">[0, 150]</text>
<text text-anchor="middle" x="362.5" y="-316.3" font-family="Times,serif" font-size="14.00">sp: 150.0</text>
<text text-anchor="middle" x="362.5" y="-301.3" font-family="Times,serif" font-size="14.00">dim: 0</text>
</g>
<!-- [100, 300.0]\n[0, 150]&#45;&gt;[100, 200.0]\n[0, 150] -->
<g id="edge3" class="edge">
<title>[100, 300.0]\n[0, 150]&#45;&gt;[100, 200.0]\n[0, 150]</title>
<path fill="none" stroke="black" d="M249.28,-291.12C265.57,-296.4 283.73,-302.29 300.62,-307.77"/>
<polygon fill="black" stroke="black" points="299.81,-311.18 310.4,-310.93 301.96,-304.52 299.81,-311.18"/>
</g>
<!-- [200.0, 300.0]\n[0, 150] -->
<g id="node5" class="node">
<title>[200.0, 300.0]\n[0, 150]</title>
<polygon fill="none" stroke="black" points="421,-255.5 304,-255.5 304,-187.5 421,-187.5 421,-255.5"/>
<text text-anchor="middle" x="362.5" y="-240.3" font-family="Times,serif" font-size="14.00">[200.0, 300.0]</text>
<text text-anchor="middle" x="362.5" y="-225.3" font-family="Times,serif" font-size="14.00">[0, 150]</text>
<text text-anchor="middle" x="362.5" y="-210.3" font-family="Times,serif" font-size="14.00">sp: 250.0</text>
<text text-anchor="middle" x="362.5" y="-195.3" font-family="Times,serif" font-size="14.00">dim: 0</text>
</g>
<!-- [100, 300.0]\n[0, 150]&#45;&gt;[200.0, 300.0]\n[0, 150] -->
<g id="edge4" class="edge">
<title>[100, 300.0]\n[0, 150]&#45;&gt;[200.0, 300.0]\n[0, 150]</title>
<path fill="none" stroke="black" d="M249.28,-257.88C263.5,-253.27 279.14,-248.2 294.12,-243.34"/>
<polygon fill="black" stroke="black" points="295.42,-246.6 303.85,-240.19 293.26,-239.94 295.42,-246.6"/>
</g>
<!-- [100, 150.0]\n[0, 150] -->
<g id="node6" class="node">
<title>[100, 150.0]\n[0, 150]</title>
<polygon fill="none" stroke="black" points="599,-433 457,-433 457,-380 599,-380 599,-433"/>
<text text-anchor="middle" x="528" y="-417.8" font-family="Times,serif" font-size="14.00">[100, 150.0]</text>
<text text-anchor="middle" x="528" y="-402.8" font-family="Times,serif" font-size="14.00">[0, 150]</text>
<text text-anchor="middle" x="528" y="-387.8" font-family="Times,serif" font-size="14.00">path_length: 7.74</text>
</g>
<!-- [100, 200.0]\n[0, 150]&#45;&gt;[100, 150.0]\n[0, 150] -->
<g id="edge5" class="edge">
<title>[100, 200.0]\n[0, 150]&#45;&gt;[100, 150.0]\n[0, 150]</title>
<path fill="none" stroke="black" d="M414.78,-352.28C429.97,-359.62 446.8,-367.75 462.7,-375.43"/>
<polygon fill="black" stroke="black" points="461.41,-378.69 471.93,-379.89 464.45,-372.39 461.41,-378.69"/>
</g>
<!-- [150.0, 200.0]\n[0, 150] -->
<g id="node7" class="node">
<title>[150.0, 200.0]\n[0, 150]</title>
<polygon fill="none" stroke="black" points="586.5,-361.5 469.5,-361.5 469.5,-293.5 586.5,-293.5 586.5,-361.5"/>
<text text-anchor="middle" x="528" y="-346.3" font-family="Times,serif" font-size="14.00">[150.0, 200.0]</text>
<text text-anchor="middle" x="528" y="-331.3" font-family="Times,serif" font-size="14.00">[0, 150]</text>
<text text-anchor="middle" x="528" y="-316.3" font-family="Times,serif" font-size="14.00">sp: 75.0</text>
<text text-anchor="middle" x="528" y="-301.3" font-family="Times,serif" font-size="14.00">dim: 1</text>
</g>
<!-- [100, 200.0]\n[0, 150]&#45;&gt;[150.0, 200.0]\n[0, 150] -->
<g id="edge6" class="edge">
<title>[100, 200.0]\n[0, 150]&#45;&gt;[150.0, 200.0]\n[0, 150]</title>
<path fill="none" stroke="black" d="M414.78,-327.5C428.86,-327.5 444.34,-327.5 459.19,-327.5"/>
<polygon fill="black" stroke="black" points="459.35,-331 469.35,-327.5 459.35,-324 459.35,-331"/>
</g>
<!-- [200.0, 250.0]\n[0, 150] -->
<g id="node14" class="node">
<title>[200.0, 250.0]\n[0, 150]</title>
<polygon fill="none" stroke="black" points="586.5,-255.5 469.5,-255.5 469.5,-187.5 586.5,-187.5 586.5,-255.5"/>
<text text-anchor="middle" x="528" y="-240.3" font-family="Times,serif" font-size="14.00">[200.0, 250.0]</text>
<text text-anchor="middle" x="528" y="-225.3" font-family="Times,serif" font-size="14.00">[0, 150]</text>
<text text-anchor="middle" x="528" y="-210.3" font-family="Times,serif" font-size="14.00">sp: 75.0</text>
<text text-anchor="middle" x="528" y="-195.3" font-family="Times,serif" font-size="14.00">dim: 1</text>
</g>
<!-- [200.0, 300.0]\n[0, 150]&#45;&gt;[200.0, 250.0]\n[0, 150] -->
<g id="edge13" class="edge">
<title>[200.0, 300.0]\n[0, 150]&#45;&gt;[200.0, 250.0]\n[0, 150]</title>
<path fill="none" stroke="black" d="M421.14,-221.5C433.48,-221.5 446.61,-221.5 459.29,-221.5"/>
<polygon fill="black" stroke="black" points="459.33,-225 469.33,-221.5 459.33,-218 459.33,-225"/>
</g>
<!-- [250.0, 300.0]\n[0, 150] -->
<g id="node15" class="node">
<title>[250.0, 300.0]\n[0, 150]</title>
<polygon fill="none" stroke="black" points="599,-169 457,-169 457,-116 599,-116 599,-169"/>
<text text-anchor="middle" x="528" y="-153.8" font-family="Times,serif" font-size="14.00">[250.0, 300.0]</text>
<text text-anchor="middle" x="528" y="-138.8" font-family="Times,serif" font-size="14.00">[0, 150]</text>
<text text-anchor="middle" x="528" y="-123.8" font-family="Times,serif" font-size="14.00">path_length: 9.12</text>
</g>
<!-- [200.0, 300.0]\n[0, 150]&#45;&gt;[250.0, 300.0]\n[0, 150] -->
<g id="edge14" class="edge">
<title>[200.0, 300.0]\n[0, 150]&#45;&gt;[250.0, 300.0]\n[0, 150]</title>
<path fill="none" stroke="black" d="M421.14,-193.65C434.59,-187.15 448.99,-180.19 462.71,-173.57"/>
<polygon fill="black" stroke="black" points="464.59,-176.54 472.07,-169.04 461.54,-170.24 464.59,-176.54"/>
</g>
<!-- [150.0, 200.0]\n[0, 75.0] -->
<g id="node8" class="node">
<title>[150.0, 200.0]\n[0, 75.0]</title>
<polygon fill="none" stroke="black" points="752,-486.5 635,-486.5 635,-418.5 752,-418.5 752,-486.5"/>
<text text-anchor="middle" x="693.5" y="-471.3" font-family="Times,serif" font-size="14.00">[150.0, 200.0]</text>
<text text-anchor="middle" x="693.5" y="-456.3" font-family="Times,serif" font-size="14.00">[0, 75.0]</text>
<text text-anchor="middle" x="693.5" y="-441.3" font-family="Times,serif" font-size="14.00">sp: 175.0</text>
<text text-anchor="middle" x="693.5" y="-426.3" font-family="Times,serif" font-size="14.00">dim: 0</text>
</g>
<!-- [150.0, 200.0]\n[0, 150]&#45;&gt;[150.0, 200.0]\n[0, 75.0] -->
<g id="edge7" class="edge">
<title>[150.0, 200.0]\n[0, 150]&#45;&gt;[150.0, 200.0]\n[0, 75.0]</title>
<path fill="none" stroke="black" d="M584.92,-361.57C589.75,-364.83 594.5,-368.17 599,-371.5 615.61,-383.8 632.94,-398.3 648.11,-411.6"/>
<polygon fill="black" stroke="black" points="646.02,-414.43 655.83,-418.44 650.66,-409.19 646.02,-414.43"/>
</g>
<!-- [150.0, 200.0]\n[75.0, 150] -->
<g id="node9" class="node">
<title>[150.0, 200.0]\n[75.0, 150]</title>
<polygon fill="none" stroke="black" points="752,-361.5 635,-361.5 635,-293.5 752,-293.5 752,-361.5"/>
<text text-anchor="middle" x="693.5" y="-346.3" font-family="Times,serif" font-size="14.00">[150.0, 200.0]</text>
<text text-anchor="middle" x="693.5" y="-331.3" font-family="Times,serif" font-size="14.00">[75.0, 150]</text>
<text text-anchor="middle" x="693.5" y="-316.3" font-family="Times,serif" font-size="14.00">sp: 112.5</text>
<text text-anchor="middle" x="693.5" y="-301.3" font-family="Times,serif" font-size="14.00">dim: 1</text>
</g>
<!-- [150.0, 200.0]\n[0, 150]&#45;&gt;[150.0, 200.0]\n[75.0, 150] -->
<g id="edge8" class="edge">
<title>[150.0, 200.0]\n[0, 150]&#45;&gt;[150.0, 200.0]\n[75.0, 150]</title>
<path fill="none" stroke="black" d="M586.64,-327.5C598.98,-327.5 612.11,-327.5 624.79,-327.5"/>
<polygon fill="black" stroke="black" points="624.83,-331 634.83,-327.5 624.83,-324 624.83,-331"/>
</g>
<!-- [150.0, 175.0]\n[0, 75.0] -->
<g id="node10" class="node">
<title>[150.0, 175.0]\n[0, 75.0]</title>
<polygon fill="none" stroke="black" points="934.5,-550 792.5,-550 792.5,-497 934.5,-497 934.5,-550"/>
<text text-anchor="middle" x="863.5" y="-534.8" font-family="Times,serif" font-size="14.00">[150.0, 175.0]</text>
<text text-anchor="middle" x="863.5" y="-519.8" font-family="Times,serif" font-size="14.00">[0, 75.0]</text>
<text text-anchor="middle" x="863.5" y="-504.8" font-family="Times,serif" font-size="14.00">path_length: 8.93</text>
</g>
<!-- [150.0, 200.0]\n[0, 75.0]&#45;&gt;[150.0, 175.0]\n[0, 75.0] -->
<g id="edge9" class="edge">
<title>[150.0, 200.0]\n[0, 75.0]&#45;&gt;[150.0, 175.0]\n[0, 75.0]</title>
<path fill="none" stroke="black" d="M752.32,-476.93C764.49,-482.08 777.49,-487.57 790.12,-492.91"/>
<polygon fill="black" stroke="black" points="789.12,-496.29 799.69,-496.96 791.85,-489.84 789.12,-496.29"/>
</g>
<!-- [175.0, 200.0]\n[0, 75.0] -->
<g id="node11" class="node">
<title>[175.0, 200.0]\n[0, 75.0]</title>
<polygon fill="none" stroke="black" points="934.5,-479 792.5,-479 792.5,-426 934.5,-426 934.5,-479"/>
<text text-anchor="middle" x="863.5" y="-463.8" font-family="Times,serif" font-size="14.00">[175.0, 200.0]</text>
<text text-anchor="middle" x="863.5" y="-448.8" font-family="Times,serif" font-size="14.00">[0, 75.0]</text>
<text text-anchor="middle" x="863.5" y="-433.8" font-family="Times,serif" font-size="14.00">path_length: 8.93</text>
</g>
<!-- [150.0, 200.0]\n[0, 75.0]&#45;&gt;[175.0, 200.0]\n[0, 75.0] -->
<g id="edge10" class="edge">
<title>[150.0, 200.0]\n[0, 75.0]&#45;&gt;[175.0, 200.0]\n[0, 75.0]</title>
<path fill="none" stroke="black" d="M752.32,-452.5C762,-452.5 772.19,-452.5 782.32,-452.5"/>
<polygon fill="black" stroke="black" points="782.39,-456 792.39,-452.5 782.39,-449 782.39,-456"/>
</g>
<!-- [150.0, 200.0]\n[75.0, 112.5] -->
<g id="node12" class="node">
<title>[150.0, 200.0]\n[75.0, 112.5]</title>
<polygon fill="none" stroke="black" points="923,-408 804,-408 804,-355 923,-355 923,-408"/>
<text text-anchor="middle" x="863.5" y="-392.8" font-family="Times,serif" font-size="14.00">[150.0, 200.0]</text>
<text text-anchor="middle" x="863.5" y="-377.8" font-family="Times,serif" font-size="14.00">[75.0, 112.5]</text>
<text text-anchor="middle" x="863.5" y="-362.8" font-family="Times,serif" font-size="14.00">path_length: 7</text>
</g>
<!-- [150.0, 200.0]\n[75.0, 150]&#45;&gt;[150.0, 200.0]\n[75.0, 112.5] -->
<g id="edge11" class="edge">
<title>[150.0, 200.0]\n[75.0, 150]&#45;&gt;[150.0, 200.0]\n[75.0, 112.5]</title>
<path fill="none" stroke="black" d="M752.32,-346.08C765.68,-350.38 780.03,-354.99 793.81,-359.42"/>
<polygon fill="black" stroke="black" points="793.13,-362.88 803.72,-362.61 795.27,-356.21 793.13,-362.88"/>
</g>
<!-- [150.0, 200.0]\n[112.5, 150] -->
<g id="node13" class="node">
<title>[150.0, 200.0]\n[112.5, 150]</title>
<polygon fill="none" stroke="black" points="923,-337 804,-337 804,-284 923,-284 923,-337"/>
<text text-anchor="middle" x="863.5" y="-321.8" font-family="Times,serif" font-size="14.00">[150.0, 200.0]</text>
<text text-anchor="middle" x="863.5" y="-306.8" font-family="Times,serif" font-size="14.00">[112.5, 150]</text>
<text text-anchor="middle" x="863.5" y="-291.8" font-family="Times,serif" font-size="14.00">path_length: 7</text>
</g>
<!-- [150.0, 200.0]\n[75.0, 150]&#45;&gt;[150.0, 200.0]\n[112.5, 150] -->
<g id="edge12" class="edge">
<title>[150.0, 200.0]\n[75.0, 150]&#45;&gt;[150.0, 200.0]\n[112.5, 150]</title>
<path fill="none" stroke="black" d="M752.32,-321.65C765.55,-320.31 779.75,-318.87 793.41,-317.49"/>
<polygon fill="black" stroke="black" points="794.12,-320.94 803.72,-316.45 793.42,-313.97 794.12,-320.94"/>
</g>
<!-- [200.0, 250.0]\n[0, 75.0] -->
<g id="node16" class="node">
<title>[200.0, 250.0]\n[0, 75.0]</title>
<polygon fill="none" stroke="black" points="752,-255.5 635,-255.5 635,-187.5 752,-187.5 752,-255.5"/>
<text text-anchor="middle" x="693.5" y="-240.3" font-family="Times,serif" font-size="14.00">[200.0, 250.0]</text>
<text text-anchor="middle" x="693.5" y="-225.3" font-family="Times,serif" font-size="14.00">[0, 75.0]</text>
<text text-anchor="middle" x="693.5" y="-210.3" font-family="Times,serif" font-size="14.00">sp: 37.5</text>
<text text-anchor="middle" x="693.5" y="-195.3" font-family="Times,serif" font-size="14.00">dim: 1</text>
</g>
<!-- [200.0, 250.0]\n[0, 150]&#45;&gt;[200.0, 250.0]\n[0, 75.0] -->
<g id="edge15" class="edge">
<title>[200.0, 250.0]\n[0, 150]&#45;&gt;[200.0, 250.0]\n[0, 75.0]</title>
<path fill="none" stroke="black" d="M586.64,-221.5C598.98,-221.5 612.11,-221.5 624.79,-221.5"/>
<polygon fill="black" stroke="black" points="624.83,-225 634.83,-221.5 624.83,-218 624.83,-225"/>
</g>
<!-- [200.0, 250.0]\n[75.0, 150] -->
<g id="node17" class="node">
<title>[200.0, 250.0]\n[75.0, 150]</title>
<polygon fill="none" stroke="black" points="752,-131.5 635,-131.5 635,-63.5 752,-63.5 752,-131.5"/>
<text text-anchor="middle" x="693.5" y="-116.3" font-family="Times,serif" font-size="14.00">[200.0, 250.0]</text>
<text text-anchor="middle" x="693.5" y="-101.3" font-family="Times,serif" font-size="14.00">[75.0, 150]</text>
<text text-anchor="middle" x="693.5" y="-86.3" font-family="Times,serif" font-size="14.00">sp: 112.5</text>
<text text-anchor="middle" x="693.5" y="-71.3" font-family="Times,serif" font-size="14.00">dim: 1</text>
</g>
<!-- [200.0, 250.0]\n[0, 150]&#45;&gt;[200.0, 250.0]\n[75.0, 150] -->
<g id="edge16" class="edge">
<title>[200.0, 250.0]\n[0, 150]&#45;&gt;[200.0, 250.0]\n[75.0, 150]</title>
<path fill="none" stroke="black" d="M586.43,-187.29C590.74,-184.4 594.97,-181.45 599,-178.5 615.67,-166.28 633.02,-151.81 648.18,-138.5"/>
<polygon fill="black" stroke="black" points="650.73,-140.91 655.89,-131.66 646.09,-135.67 650.73,-140.91"/>
</g>
<!-- [200.0, 250.0]\n[0, 37.5] -->
<g id="node18" class="node">
<title>[200.0, 250.0]\n[0, 37.5]</title>
<polygon fill="none" stroke="black" points="939,-266 788,-266 788,-213 939,-213 939,-266"/>
<text text-anchor="middle" x="863.5" y="-250.8" font-family="Times,serif" font-size="14.00">[200.0, 250.0]</text>
<text text-anchor="middle" x="863.5" y="-235.8" font-family="Times,serif" font-size="14.00">[0, 37.5]</text>
<text text-anchor="middle" x="863.5" y="-220.8" font-family="Times,serif" font-size="14.00">path_length: 10.76</text>
</g>
<!-- [200.0, 250.0]\n[0, 75.0]&#45;&gt;[200.0, 250.0]\n[0, 37.5] -->
<g id="edge17" class="edge">
<title>[200.0, 250.0]\n[0, 75.0]&#45;&gt;[200.0, 250.0]\n[0, 37.5]</title>
<path fill="none" stroke="black" d="M752.32,-227.69C760.57,-228.58 769.2,-229.5 777.84,-230.43"/>
<polygon fill="black" stroke="black" points="777.65,-233.93 787.96,-231.51 778.39,-226.97 777.65,-233.93"/>
</g>
<!-- [200.0, 250.0]\n[37.5, 75.0] -->
<g id="node19" class="node">
<title>[200.0, 250.0]\n[37.5, 75.0]</title>
<polygon fill="none" stroke="black" points="939,-195 788,-195 788,-142 939,-142 939,-195"/>
<text text-anchor="middle" x="863.5" y="-179.8" font-family="Times,serif" font-size="14.00">[200.0, 250.0]</text>
<text text-anchor="middle" x="863.5" y="-164.8" font-family="Times,serif" font-size="14.00">[37.5, 75.0]</text>
<text text-anchor="middle" x="863.5" y="-149.8" font-family="Times,serif" font-size="14.00">path_length: 10.76</text>
</g>
<!-- [200.0, 250.0]\n[0, 75.0]&#45;&gt;[200.0, 250.0]\n[37.5, 75.0] -->
<g id="edge18" class="edge">
<title>[200.0, 250.0]\n[0, 75.0]&#45;&gt;[200.0, 250.0]\n[37.5, 75.0]</title>
<path fill="none" stroke="black" d="M752.32,-203.26C760.75,-200.6 769.58,-197.82 778.4,-195.03"/>
<polygon fill="black" stroke="black" points="779.48,-198.36 787.96,-192.01 777.37,-191.69 779.48,-198.36"/>
</g>
<!-- [200.0, 250.0]\n[75.0, 112.5] -->
<g id="node20" class="node">
<title>[200.0, 250.0]\n[75.0, 112.5]</title>
<polygon fill="none" stroke="black" points="923,-124 804,-124 804,-71 923,-71 923,-124"/>
<text text-anchor="middle" x="863.5" y="-108.8" font-family="Times,serif" font-size="14.00">[200.0, 250.0]</text>
<text text-anchor="middle" x="863.5" y="-93.8" font-family="Times,serif" font-size="14.00">[75.0, 112.5]</text>
<text text-anchor="middle" x="863.5" y="-78.8" font-family="Times,serif" font-size="14.00">path_length: 7</text>
</g>
<!-- [200.0, 250.0]\n[75.0, 150]&#45;&gt;[200.0, 250.0]\n[75.0, 112.5] -->
<g id="edge19" class="edge">
<title>[200.0, 250.0]\n[75.0, 150]&#45;&gt;[200.0, 250.0]\n[75.0, 112.5]</title>
<path fill="none" stroke="black" d="M752.32,-97.5C765.55,-97.5 779.75,-97.5 793.41,-97.5"/>
<polygon fill="black" stroke="black" points="793.72,-101 803.72,-97.5 793.72,-94 793.72,-101"/>
</g>
<!-- [200.0, 250.0]\n[112.5, 150] -->
<g id="node21" class="node">
<title>[200.0, 250.0]\n[112.5, 150]</title>
<polygon fill="none" stroke="black" points="923,-53 804,-53 804,0 923,0 923,-53"/>
<text text-anchor="middle" x="863.5" y="-37.8" font-family="Times,serif" font-size="14.00">[200.0, 250.0]</text>
<text text-anchor="middle" x="863.5" y="-22.8" font-family="Times,serif" font-size="14.00">[112.5, 150]</text>
<text text-anchor="middle" x="863.5" y="-7.8" font-family="Times,serif" font-size="14.00">path_length: 7</text>
</g>
<!-- [200.0, 250.0]\n[75.0, 150]&#45;&gt;[200.0, 250.0]\n[112.5, 150] -->
<g id="edge20" class="edge">
<title>[200.0, 250.0]\n[75.0, 150]&#45;&gt;[200.0, 250.0]\n[112.5, 150]</title>
<path fill="none" stroke="black" d="M752.32,-73.07C765.81,-67.36 780.31,-61.24 794.21,-55.36"/>
<polygon fill="black" stroke="black" points="795.87,-58.46 803.72,-51.34 793.15,-52.01 795.87,-58.46"/>
</g>
</g>
</svg>
