<?xml version="1.0" encoding="UTF-8" standalone="no"?>
<!DOCTYPE svg PUBLIC "-//W3C//DTD SVG 1.1//EN"
 "http://www.w3.org/Graphics/SVG/1.1/DTD/svg11.dtd">
<!-- Generated by graphviz version 2.43.0 (0)
 -->
<!-- Title: G Pages: 1 -->
<svg width="998pt" height="326pt"
 viewBox="0.00 0.00 998.00 326.00" xmlns="http://www.w3.org/2000/svg" xmlns:xlink="http://www.w3.org/1999/xlink">
<g id="graph0" class="graph" transform="scale(1 1) rotate(0) translate(4 322)">
<title>G</title>
<polygon fill="white" stroke="transparent" points="-4,4 -4,-322 994,-322 994,4 -4,4"/>
<!-- [160.95, 238.62]\n[6.95, 85.7] -->
<g id="node1" class="node">
<title>[160.95, 238.62]\n[6.95, 85.7]</title>
<polygon fill="none" stroke="black" points="135,-206 0,-206 0,-168 135,-168 135,-206"/>
<text text-anchor="middle" x="67.5" y="-190.8" font-family="Times,serif" font-size="14.00">[160.95, 238.62]</text>
<text text-anchor="middle" x="67.5" y="-175.8" font-family="Times,serif" font-size="14.00">[6.95, 85.7]</text>
</g>
<!-- [160.95, 215.83]\n[6.95, 85.7] -->
<g id="node2" class="node">
<title>[160.95, 215.83]\n[6.95, 85.7]</title>
<polygon fill="none" stroke="black" points="306,-234 171,-234 171,-196 306,-196 306,-234"/>
<text text-anchor="middle" x="238.5" y="-218.8" font-family="Times,serif" font-size="14.00">[160.95, 215.83]</text>
<text text-anchor="middle" x="238.5" y="-203.8" font-family="Times,serif" font-size="14.00">[6.95, 85.7]</text>
</g>
<!-- [160.95, 238.62]\n[6.95, 85.7]&#45;&gt;[160.95, 215.83]\n[6.95, 85.7] -->
<g id="edge1" class="edge">
<title>[160.95, 238.62]\n[6.95, 85.7]&#45;&gt;[160.95, 215.83]\n[6.95, 85.7]</title>
<path fill="none" stroke="black" d="M135.29,-198.07C143.72,-199.46 152.38,-200.9 160.94,-202.32"/>
<polygon fill="black" stroke="black" points="160.48,-205.79 170.92,-203.97 161.62,-198.88 160.48,-205.79"/>
</g>
<!-- [237.66, 238.62]\n[54.24, 70.66] -->
<g id="node3" class="node">
<title>[237.66, 238.62]\n[54.24, 70.66]</title>
<polygon fill="none" stroke="black" points="306,-178 171,-178 171,-140 306,-140 306,-178"/>
<text text-anchor="middle" x="238.5" y="-162.8" font-family="Times,serif" font-size="14.00">[237.66, 238.62]</text>
<text text-anchor="middle" x="238.5" y="-147.8" font-family="Times,serif" font-size="14.00">[54.24, 70.66]</text>
</g>
<!-- [160.95, 238.62]\n[6.95, 85.7]&#45;&gt;[237.66, 238.62]\n[54.24, 70.66] -->
<g id="edge2" class="edge">
<title>[160.95, 238.62]\n[6.95, 85.7]&#45;&gt;[237.66, 238.62]\n[54.24, 70.66]</title>
<path fill="none" stroke="black" d="M135.29,-175.93C143.72,-174.54 152.38,-173.1 160.94,-171.68"/>
<polygon fill="black" stroke="black" points="161.62,-175.12 170.92,-170.03 160.48,-168.21 161.62,-175.12"/>
</g>
<!-- [160.95, 160.95]\n[29.53, 29.53] -->
<g id="node4" class="node">
<title>[160.95, 160.95]\n[29.53, 29.53]</title>
<polygon fill="none" stroke="black" points="477,-290 342,-290 342,-252 477,-252 477,-290"/>
<text text-anchor="middle" x="409.5" y="-274.8" font-family="Times,serif" font-size="14.00">[160.95, 160.95]</text>
<text text-anchor="middle" x="409.5" y="-259.8" font-family="Times,serif" font-size="14.00">[29.53, 29.53]</text>
</g>
<!-- [160.95, 215.83]\n[6.95, 85.7]&#45;&gt;[160.95, 160.95]\n[29.53, 29.53] -->
<g id="edge3" class="edge">
<title>[160.95, 215.83]\n[6.95, 85.7]&#45;&gt;[160.95, 160.95]\n[29.53, 29.53]</title>
<path fill="none" stroke="black" d="M297.19,-234.12C311.46,-238.85 326.88,-243.95 341.55,-248.82"/>
<polygon fill="black" stroke="black" points="340.48,-252.15 351.07,-251.97 342.68,-245.5 340.48,-252.15"/>
</g>
<!-- [170.06, 215.83]\n[6.95, 85.7] -->
<g id="node5" class="node">
<title>[170.06, 215.83]\n[6.95, 85.7]</title>
<polygon fill="none" stroke="black" points="477,-234 342,-234 342,-196 477,-196 477,-234"/>
<text text-anchor="middle" x="409.5" y="-218.8" font-family="Times,serif" font-size="14.00">[170.06, 215.83]</text>
<text text-anchor="middle" x="409.5" y="-203.8" font-family="Times,serif" font-size="14.00">[6.95, 85.7]</text>
</g>
<!-- [160.95, 215.83]\n[6.95, 85.7]&#45;&gt;[170.06, 215.83]\n[6.95, 85.7] -->
<g id="edge4" class="edge">
<title>[160.95, 215.83]\n[6.95, 85.7]&#45;&gt;[170.06, 215.83]\n[6.95, 85.7]</title>
<path fill="none" stroke="black" d="M306.29,-215C314.62,-215 323.19,-215 331.66,-215"/>
<polygon fill="black" stroke="black" points="331.92,-218.5 341.92,-215 331.92,-211.5 331.92,-218.5"/>
</g>
<!-- [238.62, 238.62]\n[54.24, 54.24] -->
<g id="node18" class="node">
<title>[238.62, 238.62]\n[54.24, 54.24]</title>
<polygon fill="none" stroke="black" points="477,-178 342,-178 342,-140 477,-140 477,-178"/>
<text text-anchor="middle" x="409.5" y="-162.8" font-family="Times,serif" font-size="14.00">[238.62, 238.62]</text>
<text text-anchor="middle" x="409.5" y="-147.8" font-family="Times,serif" font-size="14.00">[54.24, 54.24]</text>
</g>
<!-- [237.66, 238.62]\n[54.24, 70.66]&#45;&gt;[238.62, 238.62]\n[54.24, 54.24] -->
<g id="edge17" class="edge">
<title>[237.66, 238.62]\n[54.24, 70.66]&#45;&gt;[238.62, 238.62]\n[54.24, 54.24]</title>
<path fill="none" stroke="black" d="M306.29,-159C314.62,-159 323.19,-159 331.66,-159"/>
<polygon fill="black" stroke="black" points="331.92,-162.5 341.92,-159 331.92,-155.5 331.92,-162.5"/>
</g>
<!-- [237.66, 237.66]\n[70.66, 70.66] -->
<g id="node19" class="node">
<title>[237.66, 237.66]\n[70.66, 70.66]</title>
<polygon fill="none" stroke="black" points="477,-122 342,-122 342,-84 477,-84 477,-122"/>
<text text-anchor="middle" x="409.5" y="-106.8" font-family="Times,serif" font-size="14.00">[237.66, 237.66]</text>
<text text-anchor="middle" x="409.5" y="-91.8" font-family="Times,serif" font-size="14.00">[70.66, 70.66]</text>
</g>
<!-- [237.66, 238.62]\n[54.24, 70.66]&#45;&gt;[237.66, 237.66]\n[70.66, 70.66] -->
<g id="edge18" class="edge">
<title>[237.66, 238.62]\n[54.24, 70.66]&#45;&gt;[237.66, 237.66]\n[70.66, 70.66]</title>
<path fill="none" stroke="black" d="M297.19,-139.88C311.46,-135.15 326.88,-130.05 341.55,-125.18"/>
<polygon fill="black" stroke="black" points="342.68,-128.5 351.07,-122.03 340.48,-121.85 342.68,-128.5"/>
</g>
<!-- [170.06, 215.83]\n[6.95, 70.75] -->
<g id="node6" class="node">
<title>[170.06, 215.83]\n[6.95, 70.75]</title>
<polygon fill="none" stroke="black" points="648,-262 513,-262 513,-224 648,-224 648,-262"/>
<text text-anchor="middle" x="580.5" y="-246.8" font-family="Times,serif" font-size="14.00">[170.06, 215.83]</text>
<text text-anchor="middle" x="580.5" y="-231.8" font-family="Times,serif" font-size="14.00">[6.95, 70.75]</text>
</g>
<!-- [170.06, 215.83]\n[6.95, 85.7]&#45;&gt;[170.06, 215.83]\n[6.95, 70.75] -->
<g id="edge5" class="edge">
<title>[170.06, 215.83]\n[6.95, 85.7]&#45;&gt;[170.06, 215.83]\n[6.95, 70.75]</title>
<path fill="none" stroke="black" d="M477.29,-226.07C485.72,-227.46 494.38,-228.9 502.94,-230.32"/>
<polygon fill="black" stroke="black" points="502.48,-233.79 512.92,-231.97 503.62,-226.88 502.48,-233.79"/>
</g>
<!-- [174.85, 210.96]\n[79.05, 85.7] -->
<g id="node7" class="node">
<title>[174.85, 210.96]\n[79.05, 85.7]</title>
<polygon fill="none" stroke="black" points="648,-178 513,-178 513,-140 648,-140 648,-178"/>
<text text-anchor="middle" x="580.5" y="-162.8" font-family="Times,serif" font-size="14.00">[174.85, 210.96]</text>
<text text-anchor="middle" x="580.5" y="-147.8" font-family="Times,serif" font-size="14.00">[79.05, 85.7]</text>
</g>
<!-- [170.06, 215.83]\n[6.95, 85.7]&#45;&gt;[174.85, 210.96]\n[79.05, 85.7] -->
<g id="edge6" class="edge">
<title>[170.06, 215.83]\n[6.95, 85.7]&#45;&gt;[174.85, 210.96]\n[79.05, 85.7]</title>
<path fill="none" stroke="black" d="M468.19,-195.88C482.46,-191.15 497.88,-186.05 512.55,-181.18"/>
<polygon fill="black" stroke="black" points="513.68,-184.5 522.07,-178.03 511.48,-177.85 513.68,-184.5"/>
</g>
<!-- [215.83, 215.83]\n[6.95, 6.95] -->
<g id="node8" class="node">
<title>[215.83, 215.83]\n[6.95, 6.95]</title>
<polygon fill="none" stroke="black" points="819,-318 684,-318 684,-280 819,-280 819,-318"/>
<text text-anchor="middle" x="751.5" y="-302.8" font-family="Times,serif" font-size="14.00">[215.83, 215.83]</text>
<text text-anchor="middle" x="751.5" y="-287.8" font-family="Times,serif" font-size="14.00">[6.95, 6.95]</text>
</g>
<!-- [170.06, 215.83]\n[6.95, 70.75]&#45;&gt;[215.83, 215.83]\n[6.95, 6.95] -->
<g id="edge7" class="edge">
<title>[170.06, 215.83]\n[6.95, 70.75]&#45;&gt;[215.83, 215.83]\n[6.95, 6.95]</title>
<path fill="none" stroke="black" d="M639.19,-262.12C653.46,-266.85 668.88,-271.95 683.55,-276.82"/>
<polygon fill="black" stroke="black" points="682.48,-280.15 693.07,-279.97 684.68,-273.5 682.48,-280.15"/>
</g>
<!-- [170.06, 213.91]\n[25.97, 70.75] -->
<g id="node9" class="node">
<title>[170.06, 213.91]\n[25.97, 70.75]</title>
<polygon fill="none" stroke="black" points="819,-262 684,-262 684,-224 819,-224 819,-262"/>
<text text-anchor="middle" x="751.5" y="-246.8" font-family="Times,serif" font-size="14.00">[170.06, 213.91]</text>
<text text-anchor="middle" x="751.5" y="-231.8" font-family="Times,serif" font-size="14.00">[25.97, 70.75]</text>
</g>
<!-- [170.06, 215.83]\n[6.95, 70.75]&#45;&gt;[170.06, 213.91]\n[25.97, 70.75] -->
<g id="edge8" class="edge">
<title>[170.06, 215.83]\n[6.95, 70.75]&#45;&gt;[170.06, 213.91]\n[25.97, 70.75]</title>
<path fill="none" stroke="black" d="M648.29,-243C656.62,-243 665.19,-243 673.66,-243"/>
<polygon fill="black" stroke="black" points="673.92,-246.5 683.92,-243 673.92,-239.5 673.92,-246.5"/>
</g>
<!-- [174.85, 178.12]\n[79.05, 85.7] -->
<g id="node12" class="node">
<title>[174.85, 178.12]\n[79.05, 85.7]</title>
<polygon fill="none" stroke="black" points="819,-178 684,-178 684,-140 819,-140 819,-178"/>
<text text-anchor="middle" x="751.5" y="-162.8" font-family="Times,serif" font-size="14.00">[174.85, 178.12]</text>
<text text-anchor="middle" x="751.5" y="-147.8" font-family="Times,serif" font-size="14.00">[79.05, 85.7]</text>
</g>
<!-- [174.85, 210.96]\n[79.05, 85.7]&#45;&gt;[174.85, 178.12]\n[79.05, 85.7] -->
<g id="edge11" class="edge">
<title>[174.85, 210.96]\n[79.05, 85.7]&#45;&gt;[174.85, 178.12]\n[79.05, 85.7]</title>
<path fill="none" stroke="black" d="M648.29,-159C656.62,-159 665.19,-159 673.66,-159"/>
<polygon fill="black" stroke="black" points="673.92,-162.5 683.92,-159 673.92,-155.5 673.92,-162.5"/>
</g>
<!-- [204.38, 210.96]\n[79.14, 80.45] -->
<g id="node13" class="node">
<title>[204.38, 210.96]\n[79.14, 80.45]</title>
<polygon fill="none" stroke="black" points="819,-94 684,-94 684,-56 819,-56 819,-94"/>
<text text-anchor="middle" x="751.5" y="-78.8" font-family="Times,serif" font-size="14.00">[204.38, 210.96]</text>
<text text-anchor="middle" x="751.5" y="-63.8" font-family="Times,serif" font-size="14.00">[79.14, 80.45]</text>
</g>
<!-- [174.85, 210.96]\n[79.05, 85.7]&#45;&gt;[204.38, 210.96]\n[79.14, 80.45] -->
<g id="edge12" class="edge">
<title>[174.85, 210.96]\n[79.05, 85.7]&#45;&gt;[204.38, 210.96]\n[79.14, 80.45]</title>
<path fill="none" stroke="black" d="M619.85,-139.94C644.5,-127.69 676.72,-111.67 702.99,-98.62"/>
<polygon fill="black" stroke="black" points="704.61,-101.72 712.01,-94.13 701.5,-95.45 704.61,-101.72"/>
</g>
<!-- [170.06, 212.74]\n[25.97, 61.69] -->
<g id="node10" class="node">
<title>[170.06, 212.74]\n[25.97, 61.69]</title>
<polygon fill="none" stroke="black" points="990,-318 855,-318 855,-280 990,-280 990,-318"/>
<text text-anchor="middle" x="922.5" y="-302.8" font-family="Times,serif" font-size="14.00">[170.06, 212.74]</text>
<text text-anchor="middle" x="922.5" y="-287.8" font-family="Times,serif" font-size="14.00">[25.97, 61.69]</text>
</g>
<!-- [170.06, 213.91]\n[25.97, 70.75]&#45;&gt;[170.06, 212.74]\n[25.97, 61.69] -->
<g id="edge9" class="edge">
<title>[170.06, 213.91]\n[25.97, 70.75]&#45;&gt;[170.06, 212.74]\n[25.97, 61.69]</title>
<path fill="none" stroke="black" d="M810.19,-262.12C824.46,-266.85 839.88,-271.95 854.55,-276.82"/>
<polygon fill="black" stroke="black" points="853.48,-280.15 864.07,-279.97 855.68,-273.5 853.48,-280.15"/>
</g>
<!-- [205.61, 213.91]\n[70.29, 70.75] -->
<g id="node11" class="node">
<title>[205.61, 213.91]\n[70.29, 70.75]</title>
<polygon fill="none" stroke="black" points="990,-262 855,-262 855,-224 990,-224 990,-262"/>
<text text-anchor="middle" x="922.5" y="-246.8" font-family="Times,serif" font-size="14.00">[205.61, 213.91]</text>
<text text-anchor="middle" x="922.5" y="-231.8" font-family="Times,serif" font-size="14.00">[70.29, 70.75]</text>
</g>
<!-- [170.06, 213.91]\n[25.97, 70.75]&#45;&gt;[205.61, 213.91]\n[70.29, 70.75] -->
<g id="edge10" class="edge">
<title>[170.06, 213.91]\n[25.97, 70.75]&#45;&gt;[205.61, 213.91]\n[70.29, 70.75]</title>
<path fill="none" stroke="black" d="M819.29,-243C827.62,-243 836.19,-243 844.66,-243"/>
<polygon fill="black" stroke="black" points="844.92,-246.5 854.92,-243 844.92,-239.5 844.92,-246.5"/>
</g>
<!-- [174.85, 174.85]\n[85.7, 85.7] -->
<g id="node14" class="node">
<title>[174.85, 174.85]\n[85.7, 85.7]</title>
<polygon fill="none" stroke="black" points="990,-206 855,-206 855,-168 990,-168 990,-206"/>
<text text-anchor="middle" x="922.5" y="-190.8" font-family="Times,serif" font-size="14.00">[174.85, 174.85]</text>
<text text-anchor="middle" x="922.5" y="-175.8" font-family="Times,serif" font-size="14.00">[85.7, 85.7]</text>
</g>
<!-- [174.85, 178.12]\n[79.05, 85.7]&#45;&gt;[174.85, 174.85]\n[85.7, 85.7] -->
<g id="edge13" class="edge">
<title>[174.85, 178.12]\n[79.05, 85.7]&#45;&gt;[174.85, 174.85]\n[85.7, 85.7]</title>
<path fill="none" stroke="black" d="M819.29,-170.07C827.72,-171.46 836.38,-172.9 844.94,-174.32"/>
<polygon fill="black" stroke="black" points="844.48,-177.79 854.92,-175.97 845.62,-170.88 844.48,-177.79"/>
</g>
<!-- [178.12, 178.12]\n[79.05, 79.05] -->
<g id="node15" class="node">
<title>[178.12, 178.12]\n[79.05, 79.05]</title>
<polygon fill="none" stroke="black" points="990,-150 855,-150 855,-112 990,-112 990,-150"/>
<text text-anchor="middle" x="922.5" y="-134.8" font-family="Times,serif" font-size="14.00">[178.12, 178.12]</text>
<text text-anchor="middle" x="922.5" y="-119.8" font-family="Times,serif" font-size="14.00">[79.05, 79.05]</text>
</g>
<!-- [174.85, 178.12]\n[79.05, 85.7]&#45;&gt;[178.12, 178.12]\n[79.05, 79.05] -->
<g id="edge14" class="edge">
<title>[174.85, 178.12]\n[79.05, 85.7]&#45;&gt;[178.12, 178.12]\n[79.05, 79.05]</title>
<path fill="none" stroke="black" d="M819.29,-147.93C827.72,-146.54 836.38,-145.1 844.94,-143.68"/>
<polygon fill="black" stroke="black" points="845.62,-147.12 854.92,-142.03 844.48,-140.21 845.62,-147.12"/>
</g>
<!-- [210.96, 210.96]\n[79.14, 79.14] -->
<g id="node16" class="node">
<title>[210.96, 210.96]\n[79.14, 79.14]</title>
<polygon fill="none" stroke="black" points="990,-94 855,-94 855,-56 990,-56 990,-94"/>
<text text-anchor="middle" x="922.5" y="-78.8" font-family="Times,serif" font-size="14.00">[210.96, 210.96]</text>
<text text-anchor="middle" x="922.5" y="-63.8" font-family="Times,serif" font-size="14.00">[79.14, 79.14]</text>
</g>
<!-- [204.38, 210.96]\n[79.14, 80.45]&#45;&gt;[210.96, 210.96]\n[79.14, 79.14] -->
<g id="edge15" class="edge">
<title>[204.38, 210.96]\n[79.14, 80.45]&#45;&gt;[210.96, 210.96]\n[79.14, 79.14]</title>
<path fill="none" stroke="black" d="M819.29,-75C827.62,-75 836.19,-75 844.66,-75"/>
<polygon fill="black" stroke="black" points="844.92,-78.5 854.92,-75 844.92,-71.5 844.92,-78.5"/>
</g>
<!-- [204.38, 204.38]\n[80.45, 80.45] -->
<g id="node17" class="node">
<title>[204.38, 204.38]\n[80.45, 80.45]</title>
<polygon fill="none" stroke="black" points="990,-38 855,-38 855,0 990,0 990,-38"/>
<text text-anchor="middle" x="922.5" y="-22.8" font-family="Times,serif" font-size="14.00">[204.38, 204.38]</text>
<text text-anchor="middle" x="922.5" y="-7.8" font-family="Times,serif" font-size="14.00">[80.45, 80.45]</text>
</g>
<!-- [204.38, 210.96]\n[79.14, 80.45]&#45;&gt;[204.38, 204.38]\n[80.45, 80.45] -->
<g id="edge16" class="edge">
<title>[204.38, 210.96]\n[79.14, 80.45]&#45;&gt;[204.38, 204.38]\n[80.45, 80.45]</title>
<path fill="none" stroke="black" d="M810.19,-55.88C824.46,-51.15 839.88,-46.05 854.55,-41.18"/>
<polygon fill="black" stroke="black" points="855.68,-44.5 864.07,-38.03 853.48,-37.85 855.68,-44.5"/>
</g>
</g>
</svg>
