<?xml version="1.0" encoding="UTF-8" standalone="no"?>
<!DOCTYPE svg PUBLIC "-//W3C//DTD SVG 1.1//EN"
 "http://www.w3.org/Graphics/SVG/1.1/DTD/svg11.dtd">
<!-- Generated by graphviz version 2.43.0 (0)
 -->
<!-- Title: G Pages: 1 -->
<svg width="998pt" height="438pt"
 viewBox="0.00 0.00 998.00 438.00" xmlns="http://www.w3.org/2000/svg" xmlns:xlink="http://www.w3.org/1999/xlink">
<g id="graph0" class="graph" transform="scale(1 1) rotate(0) translate(4 434)">
<title>G</title>
<polygon fill="white" stroke="transparent" points="-4,4 -4,-434 994,-434 994,4 -4,4"/>
<!-- [160.95, 238.62]\n[6.95, 85.7] -->
<g id="node1" class="node">
<title>[160.95, 238.62]\n[6.95, 85.7]</title>
<polygon fill="none" stroke="black" points="135,-290 0,-290 0,-252 135,-252 135,-290"/>
<text text-anchor="middle" x="67.5" y="-274.8" font-family="Times,serif" font-size="14.00">[160.95, 238.62]</text>
<text text-anchor="middle" x="67.5" y="-259.8" font-family="Times,serif" font-size="14.00">[6.95, 85.7]</text>
</g>
<!-- [202.97, 215.83]\n[6.95, 25.97] -->
<g id="node2" class="node">
<title>[202.97, 215.83]\n[6.95, 25.97]</title>
<polygon fill="none" stroke="black" points="306,-318 171,-318 171,-280 306,-280 306,-318"/>
<text text-anchor="middle" x="238.5" y="-302.8" font-family="Times,serif" font-size="14.00">[202.97, 215.83]</text>
<text text-anchor="middle" x="238.5" y="-287.8" font-family="Times,serif" font-size="14.00">[6.95, 25.97]</text>
</g>
<!-- [160.95, 238.62]\n[6.95, 85.7]&#45;&gt;[202.97, 215.83]\n[6.95, 25.97] -->
<g id="edge1" class="edge">
<title>[160.95, 238.62]\n[6.95, 85.7]&#45;&gt;[202.97, 215.83]\n[6.95, 25.97]</title>
<path fill="none" stroke="black" d="M135.29,-282.07C143.72,-283.46 152.38,-284.9 160.94,-286.32"/>
<polygon fill="black" stroke="black" points="160.48,-289.79 170.92,-287.97 161.62,-282.88 160.48,-289.79"/>
</g>
<!-- [160.95, 238.62]\n[29.53, 85.7] -->
<g id="node3" class="node">
<title>[160.95, 238.62]\n[29.53, 85.7]</title>
<polygon fill="none" stroke="black" points="306,-262 171,-262 171,-224 306,-224 306,-262"/>
<text text-anchor="middle" x="238.5" y="-246.8" font-family="Times,serif" font-size="14.00">[160.95, 238.62]</text>
<text text-anchor="middle" x="238.5" y="-231.8" font-family="Times,serif" font-size="14.00">[29.53, 85.7]</text>
</g>
<!-- [160.95, 238.62]\n[6.95, 85.7]&#45;&gt;[160.95, 238.62]\n[29.53, 85.7] -->
<g id="edge2" class="edge">
<title>[160.95, 238.62]\n[6.95, 85.7]&#45;&gt;[160.95, 238.62]\n[29.53, 85.7]</title>
<path fill="none" stroke="black" d="M135.29,-259.93C143.72,-258.54 152.38,-257.1 160.94,-255.68"/>
<polygon fill="black" stroke="black" points="161.62,-259.12 170.92,-254.03 160.48,-252.21 161.62,-259.12"/>
</g>
<!-- [202.97, 202.97]\n[25.97, 25.97] -->
<g id="node4" class="node">
<title>[202.97, 202.97]\n[25.97, 25.97]</title>
<polygon fill="none" stroke="black" points="477,-374 342,-374 342,-336 477,-336 477,-374"/>
<text text-anchor="middle" x="409.5" y="-358.8" font-family="Times,serif" font-size="14.00">[202.97, 202.97]</text>
<text text-anchor="middle" x="409.5" y="-343.8" font-family="Times,serif" font-size="14.00">[25.97, 25.97]</text>
</g>
<!-- [202.97, 215.83]\n[6.95, 25.97]&#45;&gt;[202.97, 202.97]\n[25.97, 25.97] -->
<g id="edge3" class="edge">
<title>[202.97, 215.83]\n[6.95, 25.97]&#45;&gt;[202.97, 202.97]\n[25.97, 25.97]</title>
<path fill="none" stroke="black" d="M297.19,-318.12C311.46,-322.85 326.88,-327.95 341.55,-332.82"/>
<polygon fill="black" stroke="black" points="340.48,-336.15 351.07,-335.97 342.68,-329.5 340.48,-336.15"/>
</g>
<!-- [215.83, 215.83]\n[6.95, 6.95] -->
<g id="node5" class="node">
<title>[215.83, 215.83]\n[6.95, 6.95]</title>
<polygon fill="none" stroke="black" points="477,-318 342,-318 342,-280 477,-280 477,-318"/>
<text text-anchor="middle" x="409.5" y="-302.8" font-family="Times,serif" font-size="14.00">[215.83, 215.83]</text>
<text text-anchor="middle" x="409.5" y="-287.8" font-family="Times,serif" font-size="14.00">[6.95, 6.95]</text>
</g>
<!-- [202.97, 215.83]\n[6.95, 25.97]&#45;&gt;[215.83, 215.83]\n[6.95, 6.95] -->
<g id="edge4" class="edge">
<title>[202.97, 215.83]\n[6.95, 25.97]&#45;&gt;[215.83, 215.83]\n[6.95, 6.95]</title>
<path fill="none" stroke="black" d="M306.29,-299C314.62,-299 323.19,-299 331.66,-299"/>
<polygon fill="black" stroke="black" points="331.92,-302.5 341.92,-299 331.92,-295.5 331.92,-302.5"/>
</g>
<!-- [160.95, 212.74]\n[29.53, 40.01] -->
<g id="node6" class="node">
<title>[160.95, 212.74]\n[29.53, 40.01]</title>
<polygon fill="none" stroke="black" points="477,-262 342,-262 342,-224 477,-224 477,-262"/>
<text text-anchor="middle" x="409.5" y="-246.8" font-family="Times,serif" font-size="14.00">[160.95, 212.74]</text>
<text text-anchor="middle" x="409.5" y="-231.8" font-family="Times,serif" font-size="14.00">[29.53, 40.01]</text>
</g>
<!-- [160.95, 238.62]\n[29.53, 85.7]&#45;&gt;[160.95, 212.74]\n[29.53, 40.01] -->
<g id="edge5" class="edge">
<title>[160.95, 238.62]\n[29.53, 85.7]&#45;&gt;[160.95, 212.74]\n[29.53, 40.01]</title>
<path fill="none" stroke="black" d="M306.29,-243C314.62,-243 323.19,-243 331.66,-243"/>
<polygon fill="black" stroke="black" points="331.92,-246.5 341.92,-243 331.92,-239.5 331.92,-246.5"/>
</g>
<!-- [170.06, 238.62]\n[52.0, 85.7] -->
<g id="node7" class="node">
<title>[170.06, 238.62]\n[52.0, 85.7]</title>
<polygon fill="none" stroke="black" points="477,-206 342,-206 342,-168 477,-168 477,-206"/>
<text text-anchor="middle" x="409.5" y="-190.8" font-family="Times,serif" font-size="14.00">[170.06, 238.62]</text>
<text text-anchor="middle" x="409.5" y="-175.8" font-family="Times,serif" font-size="14.00">[52.0, 85.7]</text>
</g>
<!-- [160.95, 238.62]\n[29.53, 85.7]&#45;&gt;[170.06, 238.62]\n[52.0, 85.7] -->
<g id="edge6" class="edge">
<title>[160.95, 238.62]\n[29.53, 85.7]&#45;&gt;[170.06, 238.62]\n[52.0, 85.7]</title>
<path fill="none" stroke="black" d="M297.19,-223.88C311.46,-219.15 326.88,-214.05 341.55,-209.18"/>
<polygon fill="black" stroke="black" points="342.68,-212.5 351.07,-206.03 340.48,-205.85 342.68,-212.5"/>
</g>
<!-- [160.95, 204.37]\n[29.53, 40.01] -->
<g id="node8" class="node">
<title>[160.95, 204.37]\n[29.53, 40.01]</title>
<polygon fill="none" stroke="black" points="648,-318 513,-318 513,-280 648,-280 648,-318"/>
<text text-anchor="middle" x="580.5" y="-302.8" font-family="Times,serif" font-size="14.00">[160.95, 204.37]</text>
<text text-anchor="middle" x="580.5" y="-287.8" font-family="Times,serif" font-size="14.00">[29.53, 40.01]</text>
</g>
<!-- [160.95, 212.74]\n[29.53, 40.01]&#45;&gt;[160.95, 204.37]\n[29.53, 40.01] -->
<g id="edge7" class="edge">
<title>[160.95, 212.74]\n[29.53, 40.01]&#45;&gt;[160.95, 204.37]\n[29.53, 40.01]</title>
<path fill="none" stroke="black" d="M468.19,-262.12C482.46,-266.85 497.88,-271.95 512.55,-276.82"/>
<polygon fill="black" stroke="black" points="511.48,-280.15 522.07,-279.97 513.68,-273.5 511.48,-280.15"/>
</g>
<!-- [212.74, 212.74]\n[35.1, 35.1] -->
<g id="node9" class="node">
<title>[212.74, 212.74]\n[35.1, 35.1]</title>
<polygon fill="none" stroke="black" points="648,-262 513,-262 513,-224 648,-224 648,-262"/>
<text text-anchor="middle" x="580.5" y="-246.8" font-family="Times,serif" font-size="14.00">[212.74, 212.74]</text>
<text text-anchor="middle" x="580.5" y="-231.8" font-family="Times,serif" font-size="14.00">[35.1, 35.1]</text>
</g>
<!-- [160.95, 212.74]\n[29.53, 40.01]&#45;&gt;[212.74, 212.74]\n[35.1, 35.1] -->
<g id="edge8" class="edge">
<title>[160.95, 212.74]\n[29.53, 40.01]&#45;&gt;[212.74, 212.74]\n[35.1, 35.1]</title>
<path fill="none" stroke="black" d="M477.29,-243C485.62,-243 494.19,-243 502.66,-243"/>
<polygon fill="black" stroke="black" points="502.92,-246.5 512.92,-243 502.92,-239.5 502.92,-246.5"/>
</g>
<!-- [170.06, 238.62]\n[52.0, 70.75] -->
<g id="node14" class="node">
<title>[170.06, 238.62]\n[52.0, 70.75]</title>
<polygon fill="none" stroke="black" points="648,-206 513,-206 513,-168 648,-168 648,-206"/>
<text text-anchor="middle" x="580.5" y="-190.8" font-family="Times,serif" font-size="14.00">[170.06, 238.62]</text>
<text text-anchor="middle" x="580.5" y="-175.8" font-family="Times,serif" font-size="14.00">[52.0, 70.75]</text>
</g>
<!-- [170.06, 238.62]\n[52.0, 85.7]&#45;&gt;[170.06, 238.62]\n[52.0, 70.75] -->
<g id="edge13" class="edge">
<title>[170.06, 238.62]\n[52.0, 85.7]&#45;&gt;[170.06, 238.62]\n[52.0, 70.75]</title>
<path fill="none" stroke="black" d="M477.29,-187C485.62,-187 494.19,-187 502.66,-187"/>
<polygon fill="black" stroke="black" points="502.92,-190.5 512.92,-187 502.92,-183.5 502.92,-190.5"/>
</g>
<!-- [174.85, 210.96]\n[79.05, 85.7] -->
<g id="node15" class="node">
<title>[174.85, 210.96]\n[79.05, 85.7]</title>
<polygon fill="none" stroke="black" points="648,-94 513,-94 513,-56 648,-56 648,-94"/>
<text text-anchor="middle" x="580.5" y="-78.8" font-family="Times,serif" font-size="14.00">[174.85, 210.96]</text>
<text text-anchor="middle" x="580.5" y="-63.8" font-family="Times,serif" font-size="14.00">[79.05, 85.7]</text>
</g>
<!-- [170.06, 238.62]\n[52.0, 85.7]&#45;&gt;[174.85, 210.96]\n[79.05, 85.7] -->
<g id="edge14" class="edge">
<title>[170.06, 238.62]\n[52.0, 85.7]&#45;&gt;[174.85, 210.96]\n[79.05, 85.7]</title>
<path fill="none" stroke="black" d="M439.55,-167.75C468.02,-148.88 511.52,-120.05 542.46,-99.55"/>
<polygon fill="black" stroke="black" points="544.42,-102.44 550.83,-94 540.56,-96.61 544.42,-102.44"/>
</g>
<!-- [160.95, 177.62]\n[29.53, 37.15] -->
<g id="node10" class="node">
<title>[160.95, 177.62]\n[29.53, 37.15]</title>
<polygon fill="none" stroke="black" points="819,-374 684,-374 684,-336 819,-336 819,-374"/>
<text text-anchor="middle" x="751.5" y="-358.8" font-family="Times,serif" font-size="14.00">[160.95, 177.62]</text>
<text text-anchor="middle" x="751.5" y="-343.8" font-family="Times,serif" font-size="14.00">[29.53, 37.15]</text>
</g>
<!-- [160.95, 204.37]\n[29.53, 40.01]&#45;&gt;[160.95, 177.62]\n[29.53, 37.15] -->
<g id="edge9" class="edge">
<title>[160.95, 204.37]\n[29.53, 40.01]&#45;&gt;[160.95, 177.62]\n[29.53, 37.15]</title>
<path fill="none" stroke="black" d="M639.19,-318.12C653.46,-322.85 668.88,-327.95 683.55,-332.82"/>
<polygon fill="black" stroke="black" points="682.48,-336.15 693.07,-335.97 684.68,-329.5 682.48,-336.15"/>
</g>
<!-- [204.37, 204.37]\n[40.01, 40.01] -->
<g id="node11" class="node">
<title>[204.37, 204.37]\n[40.01, 40.01]</title>
<polygon fill="none" stroke="black" points="819,-318 684,-318 684,-280 819,-280 819,-318"/>
<text text-anchor="middle" x="751.5" y="-302.8" font-family="Times,serif" font-size="14.00">[204.37, 204.37]</text>
<text text-anchor="middle" x="751.5" y="-287.8" font-family="Times,serif" font-size="14.00">[40.01, 40.01]</text>
</g>
<!-- [160.95, 204.37]\n[29.53, 40.01]&#45;&gt;[204.37, 204.37]\n[40.01, 40.01] -->
<g id="edge10" class="edge">
<title>[160.95, 204.37]\n[29.53, 40.01]&#45;&gt;[204.37, 204.37]\n[40.01, 40.01]</title>
<path fill="none" stroke="black" d="M648.29,-299C656.62,-299 665.19,-299 673.66,-299"/>
<polygon fill="black" stroke="black" points="673.92,-302.5 683.92,-299 673.92,-295.5 673.92,-302.5"/>
</g>
<!-- [160.95, 160.95]\n[29.53, 29.53] -->
<g id="node12" class="node">
<title>[160.95, 160.95]\n[29.53, 29.53]</title>
<polygon fill="none" stroke="black" points="990,-430 855,-430 855,-392 990,-392 990,-430"/>
<text text-anchor="middle" x="922.5" y="-414.8" font-family="Times,serif" font-size="14.00">[160.95, 160.95]</text>
<text text-anchor="middle" x="922.5" y="-399.8" font-family="Times,serif" font-size="14.00">[29.53, 29.53]</text>
</g>
<!-- [160.95, 177.62]\n[29.53, 37.15]&#45;&gt;[160.95, 160.95]\n[29.53, 29.53] -->
<g id="edge11" class="edge">
<title>[160.95, 177.62]\n[29.53, 37.15]&#45;&gt;[160.95, 160.95]\n[29.53, 29.53]</title>
<path fill="none" stroke="black" d="M810.19,-374.12C824.46,-378.85 839.88,-383.95 854.55,-388.82"/>
<polygon fill="black" stroke="black" points="853.48,-392.15 864.07,-391.97 855.68,-385.5 853.48,-392.15"/>
</g>
<!-- [177.62, 177.62]\n[37.15, 37.15] -->
<g id="node13" class="node">
<title>[177.62, 177.62]\n[37.15, 37.15]</title>
<polygon fill="none" stroke="black" points="990,-374 855,-374 855,-336 990,-336 990,-374"/>
<text text-anchor="middle" x="922.5" y="-358.8" font-family="Times,serif" font-size="14.00">[177.62, 177.62]</text>
<text text-anchor="middle" x="922.5" y="-343.8" font-family="Times,serif" font-size="14.00">[37.15, 37.15]</text>
</g>
<!-- [160.95, 177.62]\n[29.53, 37.15]&#45;&gt;[177.62, 177.62]\n[37.15, 37.15] -->
<g id="edge12" class="edge">
<title>[160.95, 177.62]\n[29.53, 37.15]&#45;&gt;[177.62, 177.62]\n[37.15, 37.15]</title>
<path fill="none" stroke="black" d="M819.29,-355C827.62,-355 836.19,-355 844.66,-355"/>
<polygon fill="black" stroke="black" points="844.92,-358.5 854.92,-355 844.92,-351.5 844.92,-358.5"/>
</g>
<!-- [170.06, 238.62]\n[52.0, 61.69] -->
<g id="node16" class="node">
<title>[170.06, 238.62]\n[52.0, 61.69]</title>
<polygon fill="none" stroke="black" points="819,-262 684,-262 684,-224 819,-224 819,-262"/>
<text text-anchor="middle" x="751.5" y="-246.8" font-family="Times,serif" font-size="14.00">[170.06, 238.62]</text>
<text text-anchor="middle" x="751.5" y="-231.8" font-family="Times,serif" font-size="14.00">[52.0, 61.69]</text>
</g>
<!-- [170.06, 238.62]\n[52.0, 70.75]&#45;&gt;[170.06, 238.62]\n[52.0, 61.69] -->
<g id="edge15" class="edge">
<title>[170.06, 238.62]\n[52.0, 70.75]&#45;&gt;[170.06, 238.62]\n[52.0, 61.69]</title>
<path fill="none" stroke="black" d="M639.19,-206.12C653.46,-210.85 668.88,-215.95 683.55,-220.82"/>
<polygon fill="black" stroke="black" points="682.48,-224.15 693.07,-223.97 684.68,-217.5 682.48,-224.15"/>
</g>
<!-- [205.61, 237.66]\n[70.29, 70.75] -->
<g id="node17" class="node">
<title>[205.61, 237.66]\n[70.29, 70.75]</title>
<polygon fill="none" stroke="black" points="819,-206 684,-206 684,-168 819,-168 819,-206"/>
<text text-anchor="middle" x="751.5" y="-190.8" font-family="Times,serif" font-size="14.00">[205.61, 237.66]</text>
<text text-anchor="middle" x="751.5" y="-175.8" font-family="Times,serif" font-size="14.00">[70.29, 70.75]</text>
</g>
<!-- [170.06, 238.62]\n[52.0, 70.75]&#45;&gt;[205.61, 237.66]\n[70.29, 70.75] -->
<g id="edge16" class="edge">
<title>[170.06, 238.62]\n[52.0, 70.75]&#45;&gt;[205.61, 237.66]\n[70.29, 70.75]</title>
<path fill="none" stroke="black" d="M648.29,-187C656.62,-187 665.19,-187 673.66,-187"/>
<polygon fill="black" stroke="black" points="673.92,-190.5 683.92,-187 673.92,-183.5 673.92,-190.5"/>
</g>
<!-- [178.12, 210.96]\n[79.05, 80.45] -->
<g id="node22" class="node">
<title>[178.12, 210.96]\n[79.05, 80.45]</title>
<polygon fill="none" stroke="black" points="819,-94 684,-94 684,-56 819,-56 819,-94"/>
<text text-anchor="middle" x="751.5" y="-78.8" font-family="Times,serif" font-size="14.00">[178.12, 210.96]</text>
<text text-anchor="middle" x="751.5" y="-63.8" font-family="Times,serif" font-size="14.00">[79.05, 80.45]</text>
</g>
<!-- [174.85, 210.96]\n[79.05, 85.7]&#45;&gt;[178.12, 210.96]\n[79.05, 80.45] -->
<g id="edge21" class="edge">
<title>[174.85, 210.96]\n[79.05, 85.7]&#45;&gt;[178.12, 210.96]\n[79.05, 80.45]</title>
<path fill="none" stroke="black" d="M648.29,-75C656.62,-75 665.19,-75 673.66,-75"/>
<polygon fill="black" stroke="black" points="673.92,-78.5 683.92,-75 673.92,-71.5 673.92,-78.5"/>
</g>
<!-- [174.85, 174.85]\n[85.7, 85.7] -->
<g id="node23" class="node">
<title>[174.85, 174.85]\n[85.7, 85.7]</title>
<polygon fill="none" stroke="black" points="819,-38 684,-38 684,0 819,0 819,-38"/>
<text text-anchor="middle" x="751.5" y="-22.8" font-family="Times,serif" font-size="14.00">[174.85, 174.85]</text>
<text text-anchor="middle" x="751.5" y="-7.8" font-family="Times,serif" font-size="14.00">[85.7, 85.7]</text>
</g>
<!-- [174.85, 210.96]\n[79.05, 85.7]&#45;&gt;[174.85, 174.85]\n[85.7, 85.7] -->
<g id="edge22" class="edge">
<title>[174.85, 210.96]\n[79.05, 85.7]&#45;&gt;[174.85, 174.85]\n[85.7, 85.7]</title>
<path fill="none" stroke="black" d="M639.19,-55.88C653.46,-51.15 668.88,-46.05 683.55,-41.18"/>
<polygon fill="black" stroke="black" points="684.68,-44.5 693.07,-38.03 682.48,-37.85 684.68,-44.5"/>
</g>
<!-- [170.06, 181.41]\n[52.0, 61.69] -->
<g id="node18" class="node">
<title>[170.06, 181.41]\n[52.0, 61.69]</title>
<polygon fill="none" stroke="black" points="990,-318 855,-318 855,-280 990,-280 990,-318"/>
<text text-anchor="middle" x="922.5" y="-302.8" font-family="Times,serif" font-size="14.00">[170.06, 181.41]</text>
<text text-anchor="middle" x="922.5" y="-287.8" font-family="Times,serif" font-size="14.00">[52.0, 61.69]</text>
</g>
<!-- [170.06, 238.62]\n[52.0, 61.69]&#45;&gt;[170.06, 181.41]\n[52.0, 61.69] -->
<g id="edge17" class="edge">
<title>[170.06, 238.62]\n[52.0, 61.69]&#45;&gt;[170.06, 181.41]\n[52.0, 61.69]</title>
<path fill="none" stroke="black" d="M810.19,-262.12C824.46,-266.85 839.88,-271.95 854.55,-276.82"/>
<polygon fill="black" stroke="black" points="853.48,-280.15 864.07,-279.97 855.68,-273.5 853.48,-280.15"/>
</g>
<!-- [201.56, 238.62]\n[52.82, 59.41] -->
<g id="node19" class="node">
<title>[201.56, 238.62]\n[52.82, 59.41]</title>
<polygon fill="none" stroke="black" points="990,-262 855,-262 855,-224 990,-224 990,-262"/>
<text text-anchor="middle" x="922.5" y="-246.8" font-family="Times,serif" font-size="14.00">[201.56, 238.62]</text>
<text text-anchor="middle" x="922.5" y="-231.8" font-family="Times,serif" font-size="14.00">[52.82, 59.41]</text>
</g>
<!-- [170.06, 238.62]\n[52.0, 61.69]&#45;&gt;[201.56, 238.62]\n[52.82, 59.41] -->
<g id="edge18" class="edge">
<title>[170.06, 238.62]\n[52.0, 61.69]&#45;&gt;[201.56, 238.62]\n[52.82, 59.41]</title>
<path fill="none" stroke="black" d="M819.29,-243C827.62,-243 836.19,-243 844.66,-243"/>
<polygon fill="black" stroke="black" points="844.92,-246.5 854.92,-243 844.92,-239.5 844.92,-246.5"/>
</g>
<!-- [213.91, 237.66]\n[70.29, 70.66] -->
<g id="node20" class="node">
<title>[213.91, 237.66]\n[70.29, 70.66]</title>
<polygon fill="none" stroke="black" points="990,-206 855,-206 855,-168 990,-168 990,-206"/>
<text text-anchor="middle" x="922.5" y="-190.8" font-family="Times,serif" font-size="14.00">[213.91, 237.66]</text>
<text text-anchor="middle" x="922.5" y="-175.8" font-family="Times,serif" font-size="14.00">[70.29, 70.66]</text>
</g>
<!-- [205.61, 237.66]\n[70.29, 70.75]&#45;&gt;[213.91, 237.66]\n[70.29, 70.66] -->
<g id="edge19" class="edge">
<title>[205.61, 237.66]\n[70.29, 70.75]&#45;&gt;[213.91, 237.66]\n[70.29, 70.66]</title>
<path fill="none" stroke="black" d="M819.29,-187C827.62,-187 836.19,-187 844.66,-187"/>
<polygon fill="black" stroke="black" points="844.92,-190.5 854.92,-187 844.92,-183.5 844.92,-190.5"/>
</g>
<!-- [205.61, 205.61]\n[70.75, 70.75] -->
<g id="node21" class="node">
<title>[205.61, 205.61]\n[70.75, 70.75]</title>
<polygon fill="none" stroke="black" points="990,-150 855,-150 855,-112 990,-112 990,-150"/>
<text text-anchor="middle" x="922.5" y="-134.8" font-family="Times,serif" font-size="14.00">[205.61, 205.61]</text>
<text text-anchor="middle" x="922.5" y="-119.8" font-family="Times,serif" font-size="14.00">[70.75, 70.75]</text>
</g>
<!-- [205.61, 237.66]\n[70.29, 70.75]&#45;&gt;[205.61, 205.61]\n[70.75, 70.75] -->
<g id="edge20" class="edge">
<title>[205.61, 237.66]\n[70.29, 70.75]&#45;&gt;[205.61, 205.61]\n[70.75, 70.75]</title>
<path fill="none" stroke="black" d="M810.19,-167.88C824.46,-163.15 839.88,-158.05 854.55,-153.18"/>
<polygon fill="black" stroke="black" points="855.68,-156.5 864.07,-150.03 853.48,-149.85 855.68,-156.5"/>
</g>
<!-- [178.12, 210.96]\n[79.05, 79.14] -->
<g id="node24" class="node">
<title>[178.12, 210.96]\n[79.05, 79.14]</title>
<polygon fill="none" stroke="black" points="990,-94 855,-94 855,-56 990,-56 990,-94"/>
<text text-anchor="middle" x="922.5" y="-78.8" font-family="Times,serif" font-size="14.00">[178.12, 210.96]</text>
<text text-anchor="middle" x="922.5" y="-63.8" font-family="Times,serif" font-size="14.00">[79.05, 79.14]</text>
</g>
<!-- [178.12, 210.96]\n[79.05, 80.45]&#45;&gt;[178.12, 210.96]\n[79.05, 79.14] -->
<g id="edge23" class="edge">
<title>[178.12, 210.96]\n[79.05, 80.45]&#45;&gt;[178.12, 210.96]\n[79.05, 79.14]</title>
<path fill="none" stroke="black" d="M819.29,-75C827.62,-75 836.19,-75 844.66,-75"/>
<polygon fill="black" stroke="black" points="844.92,-78.5 854.92,-75 844.92,-71.5 844.92,-78.5"/>
</g>
<!-- [204.38, 204.38]\n[80.45, 80.45] -->
<g id="node25" class="node">
<title>[204.38, 204.38]\n[80.45, 80.45]</title>
<polygon fill="none" stroke="black" points="990,-38 855,-38 855,0 990,0 990,-38"/>
<text text-anchor="middle" x="922.5" y="-22.8" font-family="Times,serif" font-size="14.00">[204.38, 204.38]</text>
<text text-anchor="middle" x="922.5" y="-7.8" font-family="Times,serif" font-size="14.00">[80.45, 80.45]</text>
</g>
<!-- [178.12, 210.96]\n[79.05, 80.45]&#45;&gt;[204.38, 204.38]\n[80.45, 80.45] -->
<g id="edge24" class="edge">
<title>[178.12, 210.96]\n[79.05, 80.45]&#45;&gt;[204.38, 204.38]\n[80.45, 80.45]</title>
<path fill="none" stroke="black" d="M810.19,-55.88C824.46,-51.15 839.88,-46.05 854.55,-41.18"/>
<polygon fill="black" stroke="black" points="855.68,-44.5 864.07,-38.03 853.48,-37.85 855.68,-44.5"/>
</g>
</g>
</svg>
