<?xml version="1.0" encoding="UTF-8" standalone="no"?>
<!DOCTYPE svg PUBLIC "-//W3C//DTD SVG 1.1//EN"
 "http://www.w3.org/Graphics/SVG/1.1/DTD/svg11.dtd">
<!-- Generated by graphviz version 2.43.0 (0)
 -->
<!-- Title: G Pages: 1 -->
<svg width="660pt" height="64pt"
 viewBox="0.00 0.00 660.00 64.00" xmlns="http://www.w3.org/2000/svg" xmlns:xlink="http://www.w3.org/1999/xlink">
<g id="graph0" class="graph" transform="scale(1 1) rotate(0) translate(4 60)">
<title>G</title>
<polygon fill="white" stroke="transparent" points="-4,4 -4,-60 656,-60 656,4 -4,4"/>
<!-- 11.6..29.0\n2.35..6.75 -->
<g id="node1" class="node">
<title>11.6..29.0\n2.35..6.75</title>
<polygon fill="none" stroke="black" points="89,-38 0,-38 0,0 89,0 89,-38"/>
<text text-anchor="middle" x="44.5" y="-22.8" font-family="Times,serif" font-size="14.00">11.6..29.0</text>
<text text-anchor="middle" x="44.5" y="-7.8" font-family="Times,serif" font-size="14.00">2.35..6.75</text>
</g>
<!-- 11.6..22.3\n22.35..23.55 -->
<g id="node2" class="node">
<title>11.6..22.3\n22.35..23.55</title>
<polygon fill="none" stroke="black" points="232,-38 125,-38 125,0 232,0 232,-38"/>
<text text-anchor="middle" x="178.5" y="-22.8" font-family="Times,serif" font-size="14.00">11.6..22.3</text>
<text text-anchor="middle" x="178.5" y="-7.8" font-family="Times,serif" font-size="14.00">22.35..23.55</text>
</g>
<!-- 11.6..29.0\n2.35..6.75&#45;&gt;11.6..22.3\n22.35..23.55 -->
<g id="edge1" class="edge">
<title>11.6..29.0\n2.35..6.75&#45;&gt;11.6..22.3\n22.35..23.55</title>
<path fill="none" stroke="black" d="M89.09,-19C97.29,-19 106.02,-19 114.68,-19"/>
<polygon fill="black" stroke="black" points="114.77,-22.5 124.77,-19 114.77,-15.5 114.77,-22.5"/>
</g>
<!-- 11.6..15.85\n15.95..23.55 -->
<g id="node3" class="node">
<title>11.6..15.85\n15.95..23.55</title>
<polygon fill="none" stroke="black" points="375,-38 268,-38 268,0 375,0 375,-38"/>
<text text-anchor="middle" x="321.5" y="-22.8" font-family="Times,serif" font-size="14.00">11.6..15.85</text>
<text text-anchor="middle" x="321.5" y="-7.8" font-family="Times,serif" font-size="14.00">15.95..23.55</text>
</g>
<!-- 11.6..22.3\n22.35..23.55&#45;&gt;11.6..15.85\n15.95..23.55 -->
<g id="edge2" class="edge">
<title>11.6..22.3\n22.35..23.55&#45;&gt;11.6..15.85\n15.95..23.55</title>
<path fill="none" stroke="black" d="M232,-19C240.44,-19 249.26,-19 257.9,-19"/>
<polygon fill="black" stroke="black" points="257.95,-22.5 267.95,-19 257.95,-15.5 257.95,-22.5"/>
</g>
<!-- 11.6..22.45\n23.55..23.55 -->
<g id="node4" class="node">
<title>11.6..22.45\n23.55..23.55</title>
<polygon fill="none" stroke="black" points="518,-38 411,-38 411,0 518,0 518,-38"/>
<text text-anchor="middle" x="464.5" y="-22.8" font-family="Times,serif" font-size="14.00">11.6..22.45</text>
<text text-anchor="middle" x="464.5" y="-7.8" font-family="Times,serif" font-size="14.00">23.55..23.55</text>
</g>
<!-- 11.6..15.85\n15.95..23.55&#45;&gt;11.6..22.45\n23.55..23.55 -->
<g id="edge3" class="edge">
<title>11.6..15.85\n15.95..23.55&#45;&gt;11.6..22.45\n23.55..23.55</title>
<path fill="none" stroke="black" d="M375,-19C383.44,-19 392.26,-19 400.9,-19"/>
<polygon fill="black" stroke="black" points="400.95,-22.5 410.95,-19 400.95,-15.5 400.95,-22.5"/>
</g>
<!-- 11.6..18.45\n19.1..23.55 -->
<g id="node5" class="node">
<title>11.6..18.45\n19.1..23.55</title>
<polygon fill="none" stroke="black" points="652,-38 554,-38 554,0 652,0 652,-38"/>
<text text-anchor="middle" x="603" y="-22.8" font-family="Times,serif" font-size="14.00">11.6..18.45</text>
<text text-anchor="middle" x="603" y="-7.8" font-family="Times,serif" font-size="14.00">19.1..23.55</text>
</g>
<!-- 11.6..22.45\n23.55..23.55&#45;&gt;11.6..18.45\n19.1..23.55 -->
<g id="edge4" class="edge">
<title>11.6..22.45\n23.55..23.55&#45;&gt;11.6..18.45\n19.1..23.55</title>
<path fill="none" stroke="black" d="M518.27,-19C526.59,-19 535.24,-19 543.68,-19"/>
<polygon fill="black" stroke="black" points="543.83,-22.5 553.83,-19 543.83,-15.5 543.83,-22.5"/>
</g>
<!-- 11.6..18.45\n19.1..23.55&#45;&gt;11.6..18.45\n19.1..23.55 -->
<g id="edge5" class="edge">
<title>11.6..18.45\n19.1..23.55&#45;&gt;11.6..18.45\n19.1..23.55</title>
<path fill="none" stroke="black" d="M577.89,-38.04C574.41,-47.53 582.79,-56 603,-56 615.32,-56 623.24,-52.86 626.76,-48.25"/>
<polygon fill="black" stroke="black" points="630.27,-48.41 628.11,-38.04 623.33,-47.49 630.27,-48.41"/>
</g>
</g>
</svg>
