<?xml version="1.0" encoding="UTF-8" standalone="no"?>
<!DOCTYPE svg PUBLIC "-//W3C//DTD SVG 1.1//EN"
 "http://www.w3.org/Graphics/SVG/1.1/DTD/svg11.dtd">
<!-- Generated by graphviz version 2.43.0 (0)
 -->
<!-- Title: G Pages: 1 -->
<svg width="2207pt" height="662pt"
 viewBox="0.00 0.00 2207.00 662.00" xmlns="http://www.w3.org/2000/svg" xmlns:xlink="http://www.w3.org/1999/xlink">
<g id="graph0" class="graph" transform="scale(1 1) rotate(0) translate(4 658)">
<title>G</title>
<polygon fill="white" stroke="transparent" points="-4,4 -4,-658 2203,-658 2203,4 -4,4"/>
<!-- 160.9466823455541..238.6203925603514\n6.953847930927282..85.70320038687044 -->
<g id="node1" class="node">
<title>160.9466823455541..238.6203925603514\n6.953847930927282..85.70320038687044</title>
<polygon fill="none" stroke="black" points="323,-262 0,-262 0,-224 323,-224 323,-262"/>
<text text-anchor="middle" x="161.5" y="-246.8" font-family="Times,serif" font-size="14.00">160.9466823455541..238.6203925603514</text>
<text text-anchor="middle" x="161.5" y="-231.8" font-family="Times,serif" font-size="14.00">6.953847930927282..85.70320038687044</text>
</g>
<!-- 160.9466823455541..215.82780078640866\n6.953847930927282..85.70320038687044 -->
<g id="node2" class="node">
<title>160.9466823455541..215.82780078640866\n6.953847930927282..85.70320038687044</title>
<polygon fill="none" stroke="black" points="691,-290 359,-290 359,-252 691,-252 691,-290"/>
<text text-anchor="middle" x="525" y="-274.8" font-family="Times,serif" font-size="14.00">160.9466823455541..215.82780078640866</text>
<text text-anchor="middle" x="525" y="-259.8" font-family="Times,serif" font-size="14.00">6.953847930927282..85.70320038687044</text>
</g>
<!-- 160.9466823455541..238.6203925603514\n6.953847930927282..85.70320038687044&#45;&gt;160.9466823455541..215.82780078640866\n6.953847930927282..85.70320038687044 -->
<g id="edge1" class="edge">
<title>160.9466823455541..238.6203925603514\n6.953847930927282..85.70320038687044&#45;&gt;160.9466823455541..215.82780078640866\n6.953847930927282..85.70320038687044</title>
<path fill="none" stroke="black" d="M323.16,-255.44C331.7,-256.11 340.3,-256.77 348.88,-257.44"/>
<polygon fill="black" stroke="black" points="348.71,-260.93 358.95,-258.22 349.25,-253.95 348.71,-260.93"/>
</g>
<!-- 237.66395406846053..238.6203925603514\n54.23894516897036..70.65713890254233 -->
<g id="node3" class="node">
<title>237.66395406846053..238.6203925603514\n54.23894516897036..70.65713890254233</title>
<polygon fill="none" stroke="black" points="691,-234 359,-234 359,-196 691,-196 691,-234"/>
<text text-anchor="middle" x="525" y="-218.8" font-family="Times,serif" font-size="14.00">237.66395406846053..238.6203925603514</text>
<text text-anchor="middle" x="525" y="-203.8" font-family="Times,serif" font-size="14.00">54.23894516897036..70.65713890254233</text>
</g>
<!-- 160.9466823455541..238.6203925603514\n6.953847930927282..85.70320038687044&#45;&gt;237.66395406846053..238.6203925603514\n54.23894516897036..70.65713890254233 -->
<g id="edge2" class="edge">
<title>160.9466823455541..238.6203925603514\n6.953847930927282..85.70320038687044&#45;&gt;237.66395406846053..238.6203925603514\n54.23894516897036..70.65713890254233</title>
<path fill="none" stroke="black" d="M323.16,-230.56C331.7,-229.89 340.3,-229.23 348.88,-228.56"/>
<polygon fill="black" stroke="black" points="349.25,-232.05 358.95,-227.78 348.71,-225.07 349.25,-232.05"/>
</g>
<!-- 160.9466823455541..181.41498212709297\n29.529631219079533..85.70320038687044 -->
<g id="node4" class="node">
<title>160.9466823455541..181.41498212709297\n29.529631219079533..85.70320038687044</title>
<polygon fill="none" stroke="black" points="1063.5,-402 731.5,-402 731.5,-364 1063.5,-364 1063.5,-402"/>
<text text-anchor="middle" x="897.5" y="-386.8" font-family="Times,serif" font-size="14.00">160.9466823455541..181.41498212709297</text>
<text text-anchor="middle" x="897.5" y="-371.8" font-family="Times,serif" font-size="14.00">29.529631219079533..85.70320038687044</text>
</g>
<!-- 160.9466823455541..215.82780078640866\n6.953847930927282..85.70320038687044&#45;&gt;160.9466823455541..181.41498212709297\n29.529631219079533..85.70320038687044 -->
<g id="edge3" class="edge">
<title>160.9466823455541..215.82780078640866\n6.953847930927282..85.70320038687044&#45;&gt;160.9466823455541..181.41498212709297\n29.529631219079533..85.70320038687044</title>
<path fill="none" stroke="black" d="M589.27,-290.13C654.28,-309.78 755.36,-340.33 823.66,-360.98"/>
<polygon fill="black" stroke="black" points="822.91,-364.41 833.49,-363.95 824.93,-357.71 822.91,-364.41"/>
</g>
<!-- 201.56225875097834..215.82780078640866\n6.953847930927282..80.44511997651682 -->
<g id="node5" class="node">
<title>201.56225875097834..215.82780078640866\n6.953847930927282..80.44511997651682</title>
<polygon fill="none" stroke="black" points="1068,-290 727,-290 727,-252 1068,-252 1068,-290"/>
<text text-anchor="middle" x="897.5" y="-274.8" font-family="Times,serif" font-size="14.00">201.56225875097834..215.82780078640866</text>
<text text-anchor="middle" x="897.5" y="-259.8" font-family="Times,serif" font-size="14.00">6.953847930927282..80.44511997651682</text>
</g>
<!-- 160.9466823455541..215.82780078640866\n6.953847930927282..85.70320038687044&#45;&gt;201.56225875097834..215.82780078640866\n6.953847930927282..80.44511997651682 -->
<g id="edge4" class="edge">
<title>160.9466823455541..215.82780078640866\n6.953847930927282..85.70320038687044&#45;&gt;201.56225875097834..215.82780078640866\n6.953847930927282..80.44511997651682</title>
<path fill="none" stroke="black" d="M691.2,-271C699.73,-271 708.32,-271 716.89,-271"/>
<polygon fill="black" stroke="black" points="716.94,-274.5 726.94,-271 716.94,-267.5 716.94,-274.5"/>
</g>
<!-- 238.6203925603514..238.6203925603514\n54.23894516897036..54.23894516897036 -->
<g id="node30" class="node">
<title>238.6203925603514..238.6203925603514\n54.23894516897036..54.23894516897036</title>
<polygon fill="none" stroke="black" points="1059,-234 736,-234 736,-196 1059,-196 1059,-234"/>
<text text-anchor="middle" x="897.5" y="-218.8" font-family="Times,serif" font-size="14.00">238.6203925603514..238.6203925603514</text>
<text text-anchor="middle" x="897.5" y="-203.8" font-family="Times,serif" font-size="14.00">54.23894516897036..54.23894516897036</text>
</g>
<!-- 237.66395406846053..238.6203925603514\n54.23894516897036..70.65713890254233&#45;&gt;238.6203925603514..238.6203925603514\n54.23894516897036..54.23894516897036 -->
<g id="edge29" class="edge">
<title>237.66395406846053..238.6203925603514\n54.23894516897036..70.65713890254233&#45;&gt;238.6203925603514..238.6203925603514\n54.23894516897036..54.23894516897036</title>
<path fill="none" stroke="black" d="M691.2,-215C702.7,-215 714.29,-215 725.81,-215"/>
<polygon fill="black" stroke="black" points="725.91,-218.5 735.91,-215 725.91,-211.5 725.91,-218.5"/>
</g>
<!-- 237.66395406846053..237.66395406846053\n70.65713890254233..70.65713890254233 -->
<g id="node31" class="node">
<title>237.66395406846053..237.66395406846053\n70.65713890254233..70.65713890254233</title>
<polygon fill="none" stroke="black" points="1068,-178 727,-178 727,-140 1068,-140 1068,-178"/>
<text text-anchor="middle" x="897.5" y="-162.8" font-family="Times,serif" font-size="14.00">237.66395406846053..237.66395406846053</text>
<text text-anchor="middle" x="897.5" y="-147.8" font-family="Times,serif" font-size="14.00">70.65713890254233..70.65713890254233</text>
</g>
<!-- 237.66395406846053..238.6203925603514\n54.23894516897036..70.65713890254233&#45;&gt;237.66395406846053..237.66395406846053\n70.65713890254233..70.65713890254233 -->
<g id="edge30" class="edge">
<title>237.66395406846053..238.6203925603514\n54.23894516897036..70.65713890254233&#45;&gt;237.66395406846053..237.66395406846053\n70.65713890254233..70.65713890254233</title>
<path fill="none" stroke="black" d="M651.95,-195.96C686.95,-190.67 725.1,-184.91 760.63,-179.54"/>
<polygon fill="black" stroke="black" points="761.22,-182.99 770.58,-178.03 760.17,-176.07 761.22,-182.99"/>
</g>
<!-- 160.9466823455541..178.75720904480573\n29.529631219079533..58.381117183342326 -->
<g id="node6" class="node">
<title>160.9466823455541..178.75720904480573\n29.529631219079533..58.381117183342326</title>
<polygon fill="none" stroke="black" points="1445,-514 1104,-514 1104,-476 1445,-476 1445,-514"/>
<text text-anchor="middle" x="1274.5" y="-498.8" font-family="Times,serif" font-size="14.00">160.9466823455541..178.75720904480573</text>
<text text-anchor="middle" x="1274.5" y="-483.8" font-family="Times,serif" font-size="14.00">29.529631219079533..58.381117183342326</text>
</g>
<!-- 160.9466823455541..181.41498212709297\n29.529631219079533..85.70320038687044&#45;&gt;160.9466823455541..178.75720904480573\n29.529631219079533..58.381117183342326 -->
<g id="edge5" class="edge">
<title>160.9466823455541..181.41498212709297\n29.529631219079533..85.70320038687044&#45;&gt;160.9466823455541..178.75720904480573\n29.529631219079533..58.381117183342326</title>
<path fill="none" stroke="black" d="M962.54,-402.13C1028.34,-421.78 1130.64,-452.33 1199.77,-472.98"/>
<polygon fill="black" stroke="black" points="1199.14,-476.44 1209.73,-475.95 1201.15,-469.74 1199.14,-476.44"/>
</g>
<!-- 174.84840946933488..181.41498212709297\n61.68981864567371..85.70320038687044 -->
<g id="node7" class="node">
<title>174.84840946933488..181.41498212709297\n61.68981864567371..85.70320038687044</title>
<polygon fill="none" stroke="black" points="1445,-402 1104,-402 1104,-364 1445,-364 1445,-402"/>
<text text-anchor="middle" x="1274.5" y="-386.8" font-family="Times,serif" font-size="14.00">174.84840946933488..181.41498212709297</text>
<text text-anchor="middle" x="1274.5" y="-371.8" font-family="Times,serif" font-size="14.00">61.68981864567371..85.70320038687044</text>
</g>
<!-- 160.9466823455541..181.41498212709297\n29.529631219079533..85.70320038687044&#45;&gt;174.84840946933488..181.41498212709297\n61.68981864567371..85.70320038687044 -->
<g id="edge6" class="edge">
<title>160.9466823455541..181.41498212709297\n29.529631219079533..85.70320038687044&#45;&gt;174.84840946933488..181.41498212709297\n61.68981864567371..85.70320038687044</title>
<path fill="none" stroke="black" d="M1063.53,-383C1073.55,-383 1083.66,-383 1093.73,-383"/>
<polygon fill="black" stroke="black" points="1093.8,-386.5 1103.8,-383 1093.8,-379.5 1093.8,-386.5"/>
</g>
<!-- 201.56225875097834..215.82780078640866\n6.953847930927282..59.40578664145079 -->
<g id="node18" class="node">
<title>201.56225875097834..215.82780078640866\n6.953847930927282..59.40578664145079</title>
<polygon fill="none" stroke="black" points="1445,-290 1104,-290 1104,-252 1445,-252 1445,-290"/>
<text text-anchor="middle" x="1274.5" y="-274.8" font-family="Times,serif" font-size="14.00">201.56225875097834..215.82780078640866</text>
<text text-anchor="middle" x="1274.5" y="-259.8" font-family="Times,serif" font-size="14.00">6.953847930927282..59.40578664145079</text>
</g>
<!-- 201.56225875097834..215.82780078640866\n6.953847930927282..80.44511997651682&#45;&gt;201.56225875097834..215.82780078640866\n6.953847930927282..59.40578664145079 -->
<g id="edge17" class="edge">
<title>201.56225875097834..215.82780078640866\n6.953847930927282..80.44511997651682&#45;&gt;201.56225875097834..215.82780078640866\n6.953847930927282..59.40578664145079</title>
<path fill="none" stroke="black" d="M1068.17,-271C1076.67,-271 1085.23,-271 1093.76,-271"/>
<polygon fill="black" stroke="black" points="1093.76,-274.5 1103.76,-271 1093.76,-267.5 1093.76,-274.5"/>
</g>
<!-- 204.37834694137254..213.91187707810434\n70.28989886167778..80.44511997651682 -->
<g id="node19" class="node">
<title>204.37834694137254..213.91187707810434\n70.28989886167778..80.44511997651682</title>
<polygon fill="none" stroke="black" points="1445,-178 1104,-178 1104,-140 1445,-140 1445,-178"/>
<text text-anchor="middle" x="1274.5" y="-162.8" font-family="Times,serif" font-size="14.00">204.37834694137254..213.91187707810434</text>
<text text-anchor="middle" x="1274.5" y="-147.8" font-family="Times,serif" font-size="14.00">70.28989886167778..80.44511997651682</text>
</g>
<!-- 201.56225875097834..215.82780078640866\n6.953847930927282..80.44511997651682&#45;&gt;204.37834694137254..213.91187707810434\n70.28989886167778..80.44511997651682 -->
<g id="edge18" class="edge">
<title>201.56225875097834..215.82780078640866\n6.953847930927282..80.44511997651682&#45;&gt;204.37834694137254..213.91187707810434\n70.28989886167778..80.44511997651682</title>
<path fill="none" stroke="black" d="M1031.45,-251.97C1043.89,-249.31 1056.23,-246.33 1068,-243 1123.39,-227.32 1184.1,-201.34 1225.07,-182.42"/>
<polygon fill="black" stroke="black" points="1226.68,-185.53 1234.27,-178.13 1223.73,-179.18 1226.68,-185.53"/>
</g>
<!-- 160.9466823455541..177.6228962422697\n29.529631219079533..37.15308328519245 -->
<g id="node8" class="node">
<title>160.9466823455541..177.6228962422697\n29.529631219079533..37.15308328519245</title>
<polygon fill="none" stroke="black" points="1817.5,-598 1485.5,-598 1485.5,-560 1817.5,-560 1817.5,-598"/>
<text text-anchor="middle" x="1651.5" y="-582.8" font-family="Times,serif" font-size="14.00">160.9466823455541..177.6228962422697</text>
<text text-anchor="middle" x="1651.5" y="-567.8" font-family="Times,serif" font-size="14.00">29.529631219079533..37.15308328519245</text>
</g>
<!-- 160.9466823455541..178.75720904480573\n29.529631219079533..58.381117183342326&#45;&gt;160.9466823455541..177.6228962422697\n29.529631219079533..37.15308328519245 -->
<g id="edge7" class="edge">
<title>160.9466823455541..178.75720904480573\n29.529631219079533..58.381117183342326&#45;&gt;160.9466823455541..177.6228962422697\n29.529631219079533..37.15308328519245</title>
<path fill="none" stroke="black" d="M1360.59,-514.06C1418.63,-527.06 1495.54,-544.29 1555.56,-557.73"/>
<polygon fill="black" stroke="black" points="1554.9,-561.17 1565.42,-559.94 1556.43,-554.34 1554.9,-561.17"/>
</g>
<!-- 170.05771964026314..178.75720904480573\n52.00468703958586..58.381117183342326 -->
<g id="node9" class="node">
<title>170.05771964026314..178.75720904480573\n52.00468703958586..58.381117183342326</title>
<polygon fill="none" stroke="black" points="1822,-514 1481,-514 1481,-476 1822,-476 1822,-514"/>
<text text-anchor="middle" x="1651.5" y="-498.8" font-family="Times,serif" font-size="14.00">170.05771964026314..178.75720904480573</text>
<text text-anchor="middle" x="1651.5" y="-483.8" font-family="Times,serif" font-size="14.00">52.00468703958586..58.381117183342326</text>
</g>
<!-- 160.9466823455541..178.75720904480573\n29.529631219079533..58.381117183342326&#45;&gt;170.05771964026314..178.75720904480573\n52.00468703958586..58.381117183342326 -->
<g id="edge8" class="edge">
<title>160.9466823455541..178.75720904480573\n29.529631219079533..58.381117183342326&#45;&gt;170.05771964026314..178.75720904480573\n52.00468703958586..58.381117183342326</title>
<path fill="none" stroke="black" d="M1445.17,-495C1453.67,-495 1462.23,-495 1470.76,-495"/>
<polygon fill="black" stroke="black" points="1470.76,-498.5 1480.76,-495 1470.76,-491.5 1470.76,-498.5"/>
</g>
<!-- 178.11612471508732..181.41498212709297\n61.68981864567371..79.05076300170794 -->
<g id="node14" class="node">
<title>178.11612471508732..181.41498212709297\n61.68981864567371..79.05076300170794</title>
<polygon fill="none" stroke="black" points="1822,-430 1481,-430 1481,-392 1822,-392 1822,-430"/>
<text text-anchor="middle" x="1651.5" y="-414.8" font-family="Times,serif" font-size="14.00">178.11612471508732..181.41498212709297</text>
<text text-anchor="middle" x="1651.5" y="-399.8" font-family="Times,serif" font-size="14.00">61.68981864567371..79.05076300170794</text>
</g>
<!-- 174.84840946933488..181.41498212709297\n61.68981864567371..85.70320038687044&#45;&gt;178.11612471508732..181.41498212709297\n61.68981864567371..79.05076300170794 -->
<g id="edge13" class="edge">
<title>174.84840946933488..181.41498212709297\n61.68981864567371..85.70320038687044&#45;&gt;178.11612471508732..181.41498212709297\n61.68981864567371..79.05076300170794</title>
<path fill="none" stroke="black" d="M1445.17,-395.67C1453.67,-396.3 1462.23,-396.94 1470.76,-397.58"/>
<polygon fill="black" stroke="black" points="1470.53,-401.07 1480.76,-398.33 1471.05,-394.09 1470.53,-401.07"/>
</g>
<!-- 174.84840946933488..174.84840946933488\n85.70320038687044..85.70320038687044 -->
<g id="node15" class="node">
<title>174.84840946933488..174.84840946933488\n85.70320038687044..85.70320038687044</title>
<polygon fill="none" stroke="black" points="1822,-374 1481,-374 1481,-336 1822,-336 1822,-374"/>
<text text-anchor="middle" x="1651.5" y="-358.8" font-family="Times,serif" font-size="14.00">174.84840946933488..174.84840946933488</text>
<text text-anchor="middle" x="1651.5" y="-343.8" font-family="Times,serif" font-size="14.00">85.70320038687044..85.70320038687044</text>
</g>
<!-- 174.84840946933488..181.41498212709297\n61.68981864567371..85.70320038687044&#45;&gt;174.84840946933488..174.84840946933488\n85.70320038687044..85.70320038687044 -->
<g id="edge14" class="edge">
<title>174.84840946933488..181.41498212709297\n61.68981864567371..85.70320038687044&#45;&gt;174.84840946933488..174.84840946933488\n85.70320038687044..85.70320038687044</title>
<path fill="none" stroke="black" d="M1445.17,-370.33C1453.67,-369.7 1462.23,-369.06 1470.76,-368.42"/>
<polygon fill="black" stroke="black" points="1471.05,-371.91 1480.76,-367.67 1470.53,-364.93 1471.05,-371.91"/>
</g>
<!-- 160.9466823455541..160.9466823455541\n29.529631219079533..29.529631219079533 -->
<g id="node10" class="node">
<title>160.9466823455541..160.9466823455541\n29.529631219079533..29.529631219079533</title>
<polygon fill="none" stroke="black" points="2199,-654 1858,-654 1858,-616 2199,-616 2199,-654"/>
<text text-anchor="middle" x="2028.5" y="-638.8" font-family="Times,serif" font-size="14.00">160.9466823455541..160.9466823455541</text>
<text text-anchor="middle" x="2028.5" y="-623.8" font-family="Times,serif" font-size="14.00">29.529631219079533..29.529631219079533</text>
</g>
<!-- 160.9466823455541..177.6228962422697\n29.529631219079533..37.15308328519245&#45;&gt;160.9466823455541..160.9466823455541\n29.529631219079533..29.529631219079533 -->
<g id="edge9" class="edge">
<title>160.9466823455541..177.6228962422697\n29.529631219079533..37.15308328519245&#45;&gt;160.9466823455541..160.9466823455541\n29.529631219079533..29.529631219079533</title>
<path fill="none" stroke="black" d="M1779.98,-598.04C1815.4,-603.33 1854.02,-609.09 1889.98,-614.46"/>
<polygon fill="black" stroke="black" points="1889.65,-617.95 1900.05,-615.97 1890.68,-611.03 1889.65,-617.95"/>
</g>
<!-- 177.6228962422697..177.6228962422697\n37.15308328519245..37.15308328519245 -->
<g id="node11" class="node">
<title>177.6228962422697..177.6228962422697\n37.15308328519245..37.15308328519245</title>
<polygon fill="none" stroke="black" points="2190,-598 1867,-598 1867,-560 2190,-560 2190,-598"/>
<text text-anchor="middle" x="2028.5" y="-582.8" font-family="Times,serif" font-size="14.00">177.6228962422697..177.6228962422697</text>
<text text-anchor="middle" x="2028.5" y="-567.8" font-family="Times,serif" font-size="14.00">37.15308328519245..37.15308328519245</text>
</g>
<!-- 160.9466823455541..177.6228962422697\n29.529631219079533..37.15308328519245&#45;&gt;177.6228962422697..177.6228962422697\n37.15308328519245..37.15308328519245 -->
<g id="edge10" class="edge">
<title>160.9466823455541..177.6228962422697\n29.529631219079533..37.15308328519245&#45;&gt;177.6228962422697..177.6228962422697\n37.15308328519245..37.15308328519245</title>
<path fill="none" stroke="black" d="M1817.53,-579C1830.6,-579 1843.82,-579 1856.94,-579"/>
<polygon fill="black" stroke="black" points="1856.94,-582.5 1866.94,-579 1856.94,-575.5 1856.94,-582.5"/>
</g>
<!-- 178.75720904480573..178.75720904480573\n52.00468703958586..52.00468703958586 -->
<g id="node12" class="node">
<title>178.75720904480573..178.75720904480573\n52.00468703958586..52.00468703958586</title>
<polygon fill="none" stroke="black" points="2199,-542 1858,-542 1858,-504 2199,-504 2199,-542"/>
<text text-anchor="middle" x="2028.5" y="-526.8" font-family="Times,serif" font-size="14.00">178.75720904480573..178.75720904480573</text>
<text text-anchor="middle" x="2028.5" y="-511.8" font-family="Times,serif" font-size="14.00">52.00468703958586..52.00468703958586</text>
</g>
<!-- 170.05771964026314..178.75720904480573\n52.00468703958586..58.381117183342326&#45;&gt;178.75720904480573..178.75720904480573\n52.00468703958586..52.00468703958586 -->
<g id="edge11" class="edge">
<title>170.05771964026314..178.75720904480573\n52.00468703958586..58.381117183342326&#45;&gt;178.75720904480573..178.75720904480573\n52.00468703958586..52.00468703958586</title>
<path fill="none" stroke="black" d="M1822.17,-507.67C1830.67,-508.3 1839.23,-508.94 1847.76,-509.58"/>
<polygon fill="black" stroke="black" points="1847.53,-513.07 1857.76,-510.33 1848.05,-506.09 1847.53,-513.07"/>
</g>
<!-- 170.05771964026314..170.05771964026314\n58.381117183342326..58.381117183342326 -->
<g id="node13" class="node">
<title>170.05771964026314..170.05771964026314\n58.381117183342326..58.381117183342326</title>
<polygon fill="none" stroke="black" points="2199,-486 1858,-486 1858,-448 2199,-448 2199,-486"/>
<text text-anchor="middle" x="2028.5" y="-470.8" font-family="Times,serif" font-size="14.00">170.05771964026314..170.05771964026314</text>
<text text-anchor="middle" x="2028.5" y="-455.8" font-family="Times,serif" font-size="14.00">58.381117183342326..58.381117183342326</text>
</g>
<!-- 170.05771964026314..178.75720904480573\n52.00468703958586..58.381117183342326&#45;&gt;170.05771964026314..170.05771964026314\n58.381117183342326..58.381117183342326 -->
<g id="edge12" class="edge">
<title>170.05771964026314..178.75720904480573\n52.00468703958586..58.381117183342326&#45;&gt;170.05771964026314..170.05771964026314\n58.381117183342326..58.381117183342326</title>
<path fill="none" stroke="black" d="M1822.17,-482.33C1830.67,-481.7 1839.23,-481.06 1847.76,-480.42"/>
<polygon fill="black" stroke="black" points="1848.05,-483.91 1857.76,-479.67 1847.53,-476.93 1848.05,-483.91"/>
</g>
<!-- 181.41498212709297..181.41498212709297\n61.68981864567371..61.68981864567371 -->
<g id="node16" class="node">
<title>181.41498212709297..181.41498212709297\n61.68981864567371..61.68981864567371</title>
<polygon fill="none" stroke="black" points="2199,-430 1858,-430 1858,-392 2199,-392 2199,-430"/>
<text text-anchor="middle" x="2028.5" y="-414.8" font-family="Times,serif" font-size="14.00">181.41498212709297..181.41498212709297</text>
<text text-anchor="middle" x="2028.5" y="-399.8" font-family="Times,serif" font-size="14.00">61.68981864567371..61.68981864567371</text>
</g>
<!-- 178.11612471508732..181.41498212709297\n61.68981864567371..79.05076300170794&#45;&gt;181.41498212709297..181.41498212709297\n61.68981864567371..61.68981864567371 -->
<g id="edge15" class="edge">
<title>178.11612471508732..181.41498212709297\n61.68981864567371..79.05076300170794&#45;&gt;181.41498212709297..181.41498212709297\n61.68981864567371..61.68981864567371</title>
<path fill="none" stroke="black" d="M1822.17,-411C1830.67,-411 1839.23,-411 1847.76,-411"/>
<polygon fill="black" stroke="black" points="1847.76,-414.5 1857.76,-411 1847.76,-407.5 1847.76,-414.5"/>
</g>
<!-- 178.11612471508732..178.11612471508732\n79.05076300170794..79.05076300170794 -->
<g id="node17" class="node">
<title>178.11612471508732..178.11612471508732\n79.05076300170794..79.05076300170794</title>
<polygon fill="none" stroke="black" points="2199,-374 1858,-374 1858,-336 2199,-336 2199,-374"/>
<text text-anchor="middle" x="2028.5" y="-358.8" font-family="Times,serif" font-size="14.00">178.11612471508732..178.11612471508732</text>
<text text-anchor="middle" x="2028.5" y="-343.8" font-family="Times,serif" font-size="14.00">79.05076300170794..79.05076300170794</text>
</g>
<!-- 178.11612471508732..181.41498212709297\n61.68981864567371..79.05076300170794&#45;&gt;178.11612471508732..178.11612471508732\n79.05076300170794..79.05076300170794 -->
<g id="edge16" class="edge">
<title>178.11612471508732..181.41498212709297\n61.68981864567371..79.05076300170794&#45;&gt;178.11612471508732..178.11612471508732\n79.05076300170794..79.05076300170794</title>
<path fill="none" stroke="black" d="M1779.98,-391.96C1815.4,-386.67 1854.02,-380.91 1889.98,-375.54"/>
<polygon fill="black" stroke="black" points="1890.68,-378.97 1900.05,-374.03 1889.65,-372.05 1890.68,-378.97"/>
</g>
<!-- 201.56225875097834..212.74029327283873\n25.97460949817946..59.40578664145079 -->
<g id="node20" class="node">
<title>201.56225875097834..212.74029327283873\n25.97460949817946..59.40578664145079</title>
<polygon fill="none" stroke="black" points="1822,-318 1481,-318 1481,-280 1822,-280 1822,-318"/>
<text text-anchor="middle" x="1651.5" y="-302.8" font-family="Times,serif" font-size="14.00">201.56225875097834..212.74029327283873</text>
<text text-anchor="middle" x="1651.5" y="-287.8" font-family="Times,serif" font-size="14.00">25.97460949817946..59.40578664145079</text>
</g>
<!-- 201.56225875097834..215.82780078640866\n6.953847930927282..59.40578664145079&#45;&gt;201.56225875097834..212.74029327283873\n25.97460949817946..59.40578664145079 -->
<g id="edge19" class="edge">
<title>201.56225875097834..215.82780078640866\n6.953847930927282..59.40578664145079&#45;&gt;201.56225875097834..212.74029327283873\n25.97460949817946..59.40578664145079</title>
<path fill="none" stroke="black" d="M1445.17,-283.67C1453.67,-284.3 1462.23,-284.94 1470.76,-285.58"/>
<polygon fill="black" stroke="black" points="1470.53,-289.07 1480.76,-286.33 1471.05,-282.09 1470.53,-289.07"/>
</g>
<!-- 215.82780078640866..215.82780078640866\n6.953847930927282..6.953847930927282 -->
<g id="node21" class="node">
<title>215.82780078640866..215.82780078640866\n6.953847930927282..6.953847930927282</title>
<polygon fill="none" stroke="black" points="1822,-262 1481,-262 1481,-224 1822,-224 1822,-262"/>
<text text-anchor="middle" x="1651.5" y="-246.8" font-family="Times,serif" font-size="14.00">215.82780078640866..215.82780078640866</text>
<text text-anchor="middle" x="1651.5" y="-231.8" font-family="Times,serif" font-size="14.00">6.953847930927282..6.953847930927282</text>
</g>
<!-- 201.56225875097834..215.82780078640866\n6.953847930927282..59.40578664145079&#45;&gt;215.82780078640866..215.82780078640866\n6.953847930927282..6.953847930927282 -->
<g id="edge20" class="edge">
<title>201.56225875097834..215.82780078640866\n6.953847930927282..59.40578664145079&#45;&gt;215.82780078640866..215.82780078640866\n6.953847930927282..6.953847930927282</title>
<path fill="none" stroke="black" d="M1445.17,-258.33C1453.67,-257.7 1462.23,-257.06 1470.76,-256.42"/>
<polygon fill="black" stroke="black" points="1471.05,-259.91 1480.76,-255.67 1470.53,-252.93 1471.05,-259.91"/>
</g>
<!-- 205.61313499038556..213.91187707810434\n70.28989886167778..70.74627711924927 -->
<g id="node24" class="node">
<title>205.61313499038556..213.91187707810434\n70.28989886167778..70.74627711924927</title>
<polygon fill="none" stroke="black" points="1822,-178 1481,-178 1481,-140 1822,-140 1822,-178"/>
<text text-anchor="middle" x="1651.5" y="-162.8" font-family="Times,serif" font-size="14.00">205.61313499038556..213.91187707810434</text>
<text text-anchor="middle" x="1651.5" y="-147.8" font-family="Times,serif" font-size="14.00">70.28989886167778..70.74627711924927</text>
</g>
<!-- 204.37834694137254..213.91187707810434\n70.28989886167778..80.44511997651682&#45;&gt;205.61313499038556..213.91187707810434\n70.28989886167778..70.74627711924927 -->
<g id="edge23" class="edge">
<title>204.37834694137254..213.91187707810434\n70.28989886167778..80.44511997651682&#45;&gt;205.61313499038556..213.91187707810434\n70.28989886167778..70.74627711924927</title>
<path fill="none" stroke="black" d="M1445.17,-159C1453.67,-159 1462.23,-159 1470.76,-159"/>
<polygon fill="black" stroke="black" points="1470.76,-162.5 1480.76,-159 1470.76,-155.5 1470.76,-162.5"/>
</g>
<!-- 204.37834694137254..210.95880210750647\n79.14239397485841..80.44511997651682 -->
<g id="node25" class="node">
<title>204.37834694137254..210.95880210750647\n79.14239397485841..80.44511997651682</title>
<polygon fill="none" stroke="black" points="1822,-94 1481,-94 1481,-56 1822,-56 1822,-94"/>
<text text-anchor="middle" x="1651.5" y="-78.8" font-family="Times,serif" font-size="14.00">204.37834694137254..210.95880210750647</text>
<text text-anchor="middle" x="1651.5" y="-63.8" font-family="Times,serif" font-size="14.00">79.14239397485841..80.44511997651682</text>
</g>
<!-- 204.37834694137254..213.91187707810434\n70.28989886167778..80.44511997651682&#45;&gt;204.37834694137254..210.95880210750647\n79.14239397485841..80.44511997651682 -->
<g id="edge24" class="edge">
<title>204.37834694137254..213.91187707810434\n70.28989886167778..80.44511997651682&#45;&gt;204.37834694137254..210.95880210750647\n79.14239397485841..80.44511997651682</title>
<path fill="none" stroke="black" d="M1360.59,-139.94C1418.63,-126.94 1495.54,-109.71 1555.56,-96.27"/>
<polygon fill="black" stroke="black" points="1556.43,-99.66 1565.42,-94.06 1554.9,-92.83 1556.43,-99.66"/>
</g>
<!-- 202.97128184966056..212.74029327283873\n25.97460949817946..40.00795674966827 -->
<g id="node22" class="node">
<title>202.97128184966056..212.74029327283873\n25.97460949817946..40.00795674966827</title>
<polygon fill="none" stroke="black" points="2199,-318 1858,-318 1858,-280 2199,-280 2199,-318"/>
<text text-anchor="middle" x="2028.5" y="-302.8" font-family="Times,serif" font-size="14.00">202.97128184966056..212.74029327283873</text>
<text text-anchor="middle" x="2028.5" y="-287.8" font-family="Times,serif" font-size="14.00">25.97460949817946..40.00795674966827</text>
</g>
<!-- 201.56225875097834..212.74029327283873\n25.97460949817946..59.40578664145079&#45;&gt;202.97128184966056..212.74029327283873\n25.97460949817946..40.00795674966827 -->
<g id="edge21" class="edge">
<title>201.56225875097834..212.74029327283873\n25.97460949817946..59.40578664145079&#45;&gt;202.97128184966056..212.74029327283873\n25.97460949817946..40.00795674966827</title>
<path fill="none" stroke="black" d="M1822.17,-299C1830.67,-299 1839.23,-299 1847.76,-299"/>
<polygon fill="black" stroke="black" points="1847.76,-302.5 1857.76,-299 1847.76,-295.5 1847.76,-302.5"/>
</g>
<!-- 201.56225875097834..211.25710704323578\n52.82331670884787..59.40578664145079 -->
<g id="node23" class="node">
<title>201.56225875097834..211.25710704323578\n52.82331670884787..59.40578664145079</title>
<polygon fill="none" stroke="black" points="2199,-262 1858,-262 1858,-224 2199,-224 2199,-262"/>
<text text-anchor="middle" x="2028.5" y="-246.8" font-family="Times,serif" font-size="14.00">201.56225875097834..211.25710704323578</text>
<text text-anchor="middle" x="2028.5" y="-231.8" font-family="Times,serif" font-size="14.00">52.82331670884787..59.40578664145079</text>
</g>
<!-- 201.56225875097834..212.74029327283873\n25.97460949817946..59.40578664145079&#45;&gt;201.56225875097834..211.25710704323578\n52.82331670884787..59.40578664145079 -->
<g id="edge22" class="edge">
<title>201.56225875097834..212.74029327283873\n25.97460949817946..59.40578664145079&#45;&gt;201.56225875097834..211.25710704323578\n52.82331670884787..59.40578664145079</title>
<path fill="none" stroke="black" d="M1779.98,-279.96C1815.4,-274.67 1854.02,-268.91 1889.98,-263.54"/>
<polygon fill="black" stroke="black" points="1890.68,-266.97 1900.05,-262.03 1889.65,-260.05 1890.68,-266.97"/>
</g>
<!-- 205.61313499038556..205.61313499038556\n70.74627711924927..70.74627711924927 -->
<g id="node26" class="node">
<title>205.61313499038556..205.61313499038556\n70.74627711924927..70.74627711924927</title>
<polygon fill="none" stroke="black" points="2199,-206 1858,-206 1858,-168 2199,-168 2199,-206"/>
<text text-anchor="middle" x="2028.5" y="-190.8" font-family="Times,serif" font-size="14.00">205.61313499038556..205.61313499038556</text>
<text text-anchor="middle" x="2028.5" y="-175.8" font-family="Times,serif" font-size="14.00">70.74627711924927..70.74627711924927</text>
</g>
<!-- 205.61313499038556..213.91187707810434\n70.28989886167778..70.74627711924927&#45;&gt;205.61313499038556..205.61313499038556\n70.74627711924927..70.74627711924927 -->
<g id="edge25" class="edge">
<title>205.61313499038556..213.91187707810434\n70.28989886167778..70.74627711924927&#45;&gt;205.61313499038556..205.61313499038556\n70.74627711924927..70.74627711924927</title>
<path fill="none" stroke="black" d="M1822.17,-171.67C1830.67,-172.3 1839.23,-172.94 1847.76,-173.58"/>
<polygon fill="black" stroke="black" points="1847.53,-177.07 1857.76,-174.33 1848.05,-170.09 1847.53,-177.07"/>
</g>
<!-- 213.91187707810434..213.91187707810434\n70.28989886167778..70.28989886167778 -->
<g id="node27" class="node">
<title>213.91187707810434..213.91187707810434\n70.28989886167778..70.28989886167778</title>
<polygon fill="none" stroke="black" points="2199,-150 1858,-150 1858,-112 2199,-112 2199,-150"/>
<text text-anchor="middle" x="2028.5" y="-134.8" font-family="Times,serif" font-size="14.00">213.91187707810434..213.91187707810434</text>
<text text-anchor="middle" x="2028.5" y="-119.8" font-family="Times,serif" font-size="14.00">70.28989886167778..70.28989886167778</text>
</g>
<!-- 205.61313499038556..213.91187707810434\n70.28989886167778..70.74627711924927&#45;&gt;213.91187707810434..213.91187707810434\n70.28989886167778..70.28989886167778 -->
<g id="edge26" class="edge">
<title>205.61313499038556..213.91187707810434\n70.28989886167778..70.74627711924927&#45;&gt;213.91187707810434..213.91187707810434\n70.28989886167778..70.28989886167778</title>
<path fill="none" stroke="black" d="M1822.17,-146.33C1830.67,-145.7 1839.23,-145.06 1847.76,-144.42"/>
<polygon fill="black" stroke="black" points="1848.05,-147.91 1857.76,-143.67 1847.53,-140.93 1848.05,-147.91"/>
</g>
<!-- 210.95880210750647..210.95880210750647\n79.14239397485841..79.14239397485841 -->
<g id="node28" class="node">
<title>210.95880210750647..210.95880210750647\n79.14239397485841..79.14239397485841</title>
<polygon fill="none" stroke="black" points="2199,-94 1858,-94 1858,-56 2199,-56 2199,-94"/>
<text text-anchor="middle" x="2028.5" y="-78.8" font-family="Times,serif" font-size="14.00">210.95880210750647..210.95880210750647</text>
<text text-anchor="middle" x="2028.5" y="-63.8" font-family="Times,serif" font-size="14.00">79.14239397485841..79.14239397485841</text>
</g>
<!-- 204.37834694137254..210.95880210750647\n79.14239397485841..80.44511997651682&#45;&gt;210.95880210750647..210.95880210750647\n79.14239397485841..79.14239397485841 -->
<g id="edge27" class="edge">
<title>204.37834694137254..210.95880210750647\n79.14239397485841..80.44511997651682&#45;&gt;210.95880210750647..210.95880210750647\n79.14239397485841..79.14239397485841</title>
<path fill="none" stroke="black" d="M1822.17,-75C1830.67,-75 1839.23,-75 1847.76,-75"/>
<polygon fill="black" stroke="black" points="1847.76,-78.5 1857.76,-75 1847.76,-71.5 1847.76,-78.5"/>
</g>
<!-- 204.37834694137254..204.37834694137254\n80.44511997651682..80.44511997651682 -->
<g id="node29" class="node">
<title>204.37834694137254..204.37834694137254\n80.44511997651682..80.44511997651682</title>
<polygon fill="none" stroke="black" points="2199,-38 1858,-38 1858,0 2199,0 2199,-38"/>
<text text-anchor="middle" x="2028.5" y="-22.8" font-family="Times,serif" font-size="14.00">204.37834694137254..204.37834694137254</text>
<text text-anchor="middle" x="2028.5" y="-7.8" font-family="Times,serif" font-size="14.00">80.44511997651682..80.44511997651682</text>
</g>
<!-- 204.37834694137254..210.95880210750647\n79.14239397485841..80.44511997651682&#45;&gt;204.37834694137254..204.37834694137254\n80.44511997651682..80.44511997651682 -->
<g id="edge28" class="edge">
<title>204.37834694137254..210.95880210750647\n79.14239397485841..80.44511997651682&#45;&gt;204.37834694137254..204.37834694137254\n80.44511997651682..80.44511997651682</title>
<path fill="none" stroke="black" d="M1779.98,-55.96C1815.4,-50.67 1854.02,-44.91 1889.98,-39.54"/>
<polygon fill="black" stroke="black" points="1890.68,-42.97 1900.05,-38.03 1889.65,-36.05 1890.68,-42.97"/>
</g>
</g>
</svg>
