<?xml version="1.0" encoding="UTF-8" standalone="no"?>
<!DOCTYPE svg PUBLIC "-//W3C//DTD SVG 1.1//EN"
 "http://www.w3.org/Graphics/SVG/1.1/DTD/svg11.dtd">
<!-- Generated by graphviz version 2.43.0 (0)
 -->
<!-- Title: G Pages: 1 -->
<svg width="833pt" height="333pt"
 viewBox="0.00 0.00 833.00 333.00" xmlns="http://www.w3.org/2000/svg" xmlns:xlink="http://www.w3.org/1999/xlink">
<g id="graph0" class="graph" transform="scale(1 1) rotate(0) translate(4 329)">
<title>G</title>
<polygon fill="none" stroke="transparent" points="-4,4 -4,-329 829,-329 829,4 -4,4"/>
<!-- &#45;100.0..800\n0.0..150 -->
<g id="node1" class="node">
<title>&#45;100.0..800\n0.0..150</title>
<polygon fill="none" stroke="black" points="98,-171 0,-171 0,-133 98,-133 98,-171"/>
<text text-anchor="middle" x="49" y="-155.8" font-family="Times,serif" font-size="14.00">&#45;100.0..800</text>
<text text-anchor="middle" x="49" y="-140.8" font-family="Times,serif" font-size="14.00">0.0..150</text>
</g>
<!-- &#45;100.0..800\n0.0..75.0 -->
<g id="node2" class="node">
<title>&#45;100.0..800\n0.0..75.0</title>
<polygon fill="none" stroke="black" points="232,-199 134,-199 134,-161 232,-161 232,-199"/>
<text text-anchor="middle" x="183" y="-183.8" font-family="Times,serif" font-size="14.00">&#45;100.0..800</text>
<text text-anchor="middle" x="183" y="-168.8" font-family="Times,serif" font-size="14.00">0.0..75.0</text>
</g>
<!-- &#45;100.0..800\n0.0..150&#45;&gt;&#45;100.0..800\n0.0..75.0 -->
<g id="edge1" class="edge">
<title>&#45;100.0..800\n0.0..150&#45;&gt;&#45;100.0..800\n0.0..75.0</title>
<path fill="none" stroke="black" d="M98.03,-162.19C106.4,-163.96 115.19,-165.83 123.8,-167.65"/>
<polygon fill="black" stroke="black" points="123.28,-171.12 133.79,-169.77 124.73,-164.27 123.28,-171.12"/>
</g>
<!-- &#45;100.0..800\n75.0..150 -->
<g id="node3" class="node">
<title>&#45;100.0..800\n75.0..150</title>
<polygon fill="none" stroke="black" points="232,-143 134,-143 134,-105 232,-105 232,-143"/>
<text text-anchor="middle" x="183" y="-127.8" font-family="Times,serif" font-size="14.00">&#45;100.0..800</text>
<text text-anchor="middle" x="183" y="-112.8" font-family="Times,serif" font-size="14.00">75.0..150</text>
</g>
<!-- &#45;100.0..800\n0.0..150&#45;&gt;&#45;100.0..800\n75.0..150 -->
<g id="edge2" class="edge">
<title>&#45;100.0..800\n0.0..150&#45;&gt;&#45;100.0..800\n75.0..150</title>
<path fill="none" stroke="black" d="M98.03,-141.81C106.4,-140.04 115.19,-138.17 123.8,-136.35"/>
<polygon fill="black" stroke="black" points="124.73,-139.73 133.79,-134.23 123.28,-132.88 124.73,-139.73"/>
</g>
<!-- &#45;100.0..350.0\n0.0..75.0 -->
<g id="node4" class="node">
<title>&#45;100.0..350.0\n0.0..75.0</title>
<polygon fill="none" stroke="black" points="379,-255 268,-255 268,-217 379,-217 379,-255"/>
<text text-anchor="middle" x="323.5" y="-239.8" font-family="Times,serif" font-size="14.00">&#45;100.0..350.0</text>
<text text-anchor="middle" x="323.5" y="-224.8" font-family="Times,serif" font-size="14.00">0.0..75.0</text>
</g>
<!-- &#45;100.0..800\n0.0..75.0&#45;&gt;&#45;100.0..350.0\n0.0..75.0 -->
<g id="edge3" class="edge">
<title>&#45;100.0..800\n0.0..75.0&#45;&gt;&#45;100.0..350.0\n0.0..75.0</title>
<path fill="none" stroke="black" d="M231.28,-199.12C242.42,-203.62 254.41,-208.47 265.91,-213.12"/>
<polygon fill="black" stroke="black" points="264.85,-216.47 275.44,-216.97 267.48,-209.98 264.85,-216.47"/>
</g>
<!-- 350.0..800\n0.0..75.0 -->
<g id="node5" class="node">
<title>350.0..800\n0.0..75.0</title>
<polygon fill="none" stroke="black" points="370,-199 277,-199 277,-161 370,-161 370,-199"/>
<text text-anchor="middle" x="323.5" y="-183.8" font-family="Times,serif" font-size="14.00">350.0..800</text>
<text text-anchor="middle" x="323.5" y="-168.8" font-family="Times,serif" font-size="14.00">0.0..75.0</text>
</g>
<!-- &#45;100.0..800\n0.0..75.0&#45;&gt;350.0..800\n0.0..75.0 -->
<g id="edge4" class="edge">
<title>&#45;100.0..800\n0.0..75.0&#45;&gt;350.0..800\n0.0..75.0</title>
<path fill="none" stroke="black" d="M232.05,-180C243.18,-180 255.11,-180 266.54,-180"/>
<polygon fill="black" stroke="black" points="266.86,-183.5 276.86,-180 266.86,-176.5 266.86,-183.5"/>
</g>
<!-- &#45;100.0..800\n75.0..112.5 -->
<g id="node14" class="node">
<title>&#45;100.0..800\n75.0..112.5</title>
<polygon fill="none" stroke="black" points="372.5,-143 274.5,-143 274.5,-105 372.5,-105 372.5,-143"/>
<text text-anchor="middle" x="323.5" y="-127.8" font-family="Times,serif" font-size="14.00">&#45;100.0..800</text>
<text text-anchor="middle" x="323.5" y="-112.8" font-family="Times,serif" font-size="14.00">75.0..112.5</text>
</g>
<!-- &#45;100.0..800\n75.0..150&#45;&gt;&#45;100.0..800\n75.0..112.5 -->
<g id="edge13" class="edge">
<title>&#45;100.0..800\n75.0..150&#45;&gt;&#45;100.0..800\n75.0..112.5</title>
<path fill="none" stroke="black" d="M232.05,-124C242.35,-124 253.35,-124 264,-124"/>
<polygon fill="black" stroke="black" points="264.06,-127.5 274.06,-124 264.06,-120.5 264.06,-127.5"/>
</g>
<!-- &#45;100.0..800\n112.5..150 -->
<g id="node15" class="node">
<title>&#45;100.0..800\n112.5..150</title>
<polygon fill="none" stroke="black" points="372.5,-87 274.5,-87 274.5,-49 372.5,-49 372.5,-87"/>
<text text-anchor="middle" x="323.5" y="-71.8" font-family="Times,serif" font-size="14.00">&#45;100.0..800</text>
<text text-anchor="middle" x="323.5" y="-56.8" font-family="Times,serif" font-size="14.00">112.5..150</text>
</g>
<!-- &#45;100.0..800\n75.0..150&#45;&gt;&#45;100.0..800\n112.5..150 -->
<g id="edge14" class="edge">
<title>&#45;100.0..800\n75.0..150&#45;&gt;&#45;100.0..800\n112.5..150</title>
<path fill="none" stroke="black" d="M231.28,-104.88C242.42,-100.38 254.41,-95.53 265.91,-90.88"/>
<polygon fill="black" stroke="black" points="267.48,-94.02 275.44,-87.03 264.85,-87.53 267.48,-94.02"/>
</g>
<!-- &#45;100.0..125.0\n0.0..75.0 -->
<g id="node6" class="node">
<title>&#45;100.0..125.0\n0.0..75.0</title>
<polygon fill="none" stroke="black" points="526,-283 415,-283 415,-245 526,-245 526,-283"/>
<text text-anchor="middle" x="470.5" y="-267.8" font-family="Times,serif" font-size="14.00">&#45;100.0..125.0</text>
<text text-anchor="middle" x="470.5" y="-252.8" font-family="Times,serif" font-size="14.00">0.0..75.0</text>
</g>
<!-- &#45;100.0..350.0\n0.0..75.0&#45;&gt;&#45;100.0..125.0\n0.0..75.0 -->
<g id="edge5" class="edge">
<title>&#45;100.0..350.0\n0.0..75.0&#45;&gt;&#45;100.0..125.0\n0.0..75.0</title>
<path fill="none" stroke="black" d="M379.32,-246.59C387.62,-248.19 396.25,-249.85 404.74,-251.49"/>
<polygon fill="black" stroke="black" points="404.12,-254.94 414.6,-253.4 405.45,-248.07 404.12,-254.94"/>
</g>
<!-- 125.0..350.0\n0.0..75.0 -->
<g id="node7" class="node">
<title>125.0..350.0\n0.0..75.0</title>
<polygon fill="none" stroke="black" points="524,-227 417,-227 417,-189 524,-189 524,-227"/>
<text text-anchor="middle" x="470.5" y="-211.8" font-family="Times,serif" font-size="14.00">125.0..350.0</text>
<text text-anchor="middle" x="470.5" y="-196.8" font-family="Times,serif" font-size="14.00">0.0..75.0</text>
</g>
<!-- &#45;100.0..350.0\n0.0..75.0&#45;&gt;125.0..350.0\n0.0..75.0 -->
<g id="edge6" class="edge">
<title>&#45;100.0..350.0\n0.0..75.0&#45;&gt;125.0..350.0\n0.0..75.0</title>
<path fill="none" stroke="black" d="M379.32,-225.41C388.18,-223.7 397.41,-221.92 406.44,-220.18"/>
<polygon fill="black" stroke="black" points="407.37,-223.56 416.52,-218.23 406.04,-216.69 407.37,-223.56"/>
</g>
<!-- 125.0..237.5\n0.0..75.0 -->
<g id="node8" class="node">
<title>125.0..237.5\n0.0..75.0</title>
<polygon fill="none" stroke="black" points="671,-269 564,-269 564,-231 671,-231 671,-269"/>
<text text-anchor="middle" x="617.5" y="-253.8" font-family="Times,serif" font-size="14.00">125.0..237.5</text>
<text text-anchor="middle" x="617.5" y="-238.8" font-family="Times,serif" font-size="14.00">0.0..75.0</text>
</g>
<!-- 125.0..350.0\n0.0..75.0&#45;&gt;125.0..237.5\n0.0..75.0 -->
<g id="edge7" class="edge">
<title>125.0..350.0\n0.0..75.0&#45;&gt;125.0..237.5\n0.0..75.0</title>
<path fill="none" stroke="black" d="M524.26,-223.28C533.85,-226.06 543.95,-228.99 553.8,-231.84"/>
<polygon fill="black" stroke="black" points="552.96,-235.24 563.54,-234.66 554.91,-228.52 552.96,-235.24"/>
</g>
<!-- 237.5..350.0\n0.0..75.0 -->
<g id="node9" class="node">
<title>237.5..350.0\n0.0..75.0</title>
<polygon fill="none" stroke="black" points="671,-213 564,-213 564,-175 671,-175 671,-213"/>
<text text-anchor="middle" x="617.5" y="-197.8" font-family="Times,serif" font-size="14.00">237.5..350.0</text>
<text text-anchor="middle" x="617.5" y="-182.8" font-family="Times,serif" font-size="14.00">0.0..75.0</text>
</g>
<!-- 125.0..350.0\n0.0..75.0&#45;&gt;237.5..350.0\n0.0..75.0 -->
<g id="edge8" class="edge">
<title>125.0..350.0\n0.0..75.0&#45;&gt;237.5..350.0\n0.0..75.0</title>
<path fill="none" stroke="black" d="M524.26,-202.91C533.75,-201.99 543.74,-201.03 553.49,-200.08"/>
<polygon fill="black" stroke="black" points="553.92,-203.56 563.54,-199.11 553.25,-196.59 553.92,-203.56"/>
</g>
<!-- 125.0..181.25\n0.0..75.0 -->
<g id="node10" class="node">
<title>125.0..181.25\n0.0..75.0</title>
<polygon fill="none" stroke="black" points="825,-325 709,-325 709,-287 825,-287 825,-325"/>
<text text-anchor="middle" x="767" y="-309.8" font-family="Times,serif" font-size="14.00">125.0..181.25</text>
<text text-anchor="middle" x="767" y="-294.8" font-family="Times,serif" font-size="14.00">0.0..75.0</text>
</g>
<!-- 125.0..237.5\n0.0..75.0&#45;&gt;125.0..181.25\n0.0..75.0 -->
<g id="edge9" class="edge">
<title>125.0..237.5\n0.0..75.0&#45;&gt;125.0..181.25\n0.0..75.0</title>
<path fill="none" stroke="black" d="M668.85,-269.12C680.95,-273.71 693.99,-278.66 706.47,-283.4"/>
<polygon fill="black" stroke="black" points="705.29,-286.69 715.88,-286.97 707.77,-280.15 705.29,-286.69"/>
</g>
<!-- 181.25..237.5\n0.0..75.0 -->
<g id="node11" class="node">
<title>181.25..237.5\n0.0..75.0</title>
<polygon fill="none" stroke="black" points="825,-269 709,-269 709,-231 825,-231 825,-269"/>
<text text-anchor="middle" x="767" y="-253.8" font-family="Times,serif" font-size="14.00">181.25..237.5</text>
<text text-anchor="middle" x="767" y="-238.8" font-family="Times,serif" font-size="14.00">0.0..75.0</text>
</g>
<!-- 125.0..237.5\n0.0..75.0&#45;&gt;181.25..237.5\n0.0..75.0 -->
<g id="edge10" class="edge">
<title>125.0..237.5\n0.0..75.0&#45;&gt;181.25..237.5\n0.0..75.0</title>
<path fill="none" stroke="black" d="M671.33,-250C680.16,-250 689.43,-250 698.56,-250"/>
<polygon fill="black" stroke="black" points="698.79,-253.5 708.79,-250 698.79,-246.5 698.79,-253.5"/>
</g>
<!-- 237.5..350.0\n0.0..37.5 -->
<g id="node12" class="node">
<title>237.5..350.0\n0.0..37.5</title>
<polygon fill="none" stroke="black" points="820.5,-213 713.5,-213 713.5,-175 820.5,-175 820.5,-213"/>
<text text-anchor="middle" x="767" y="-197.8" font-family="Times,serif" font-size="14.00">237.5..350.0</text>
<text text-anchor="middle" x="767" y="-182.8" font-family="Times,serif" font-size="14.00">0.0..37.5</text>
</g>
<!-- 237.5..350.0\n0.0..75.0&#45;&gt;237.5..350.0\n0.0..37.5 -->
<g id="edge11" class="edge">
<title>237.5..350.0\n0.0..75.0&#45;&gt;237.5..350.0\n0.0..37.5</title>
<path fill="none" stroke="black" d="M671.33,-194C681.61,-194 692.47,-194 703.03,-194"/>
<polygon fill="black" stroke="black" points="703.04,-197.5 713.04,-194 703.04,-190.5 703.04,-197.5"/>
</g>
<!-- 237.5..350.0\n37.5..75.0 -->
<g id="node13" class="node">
<title>237.5..350.0\n37.5..75.0</title>
<polygon fill="none" stroke="black" points="820.5,-157 713.5,-157 713.5,-119 820.5,-119 820.5,-157"/>
<text text-anchor="middle" x="767" y="-141.8" font-family="Times,serif" font-size="14.00">237.5..350.0</text>
<text text-anchor="middle" x="767" y="-126.8" font-family="Times,serif" font-size="14.00">37.5..75.0</text>
</g>
<!-- 237.5..350.0\n0.0..75.0&#45;&gt;237.5..350.0\n37.5..75.0 -->
<g id="edge12" class="edge">
<title>237.5..350.0\n0.0..75.0&#45;&gt;237.5..350.0\n37.5..75.0</title>
<path fill="none" stroke="black" d="M668.85,-174.88C680.95,-170.29 693.99,-165.34 706.47,-160.6"/>
<polygon fill="black" stroke="black" points="707.77,-163.85 715.88,-157.03 705.29,-157.31 707.77,-163.85"/>
</g>
<!-- &#45;100.0..350.0\n75.0..112.5 -->
<g id="node16" class="node">
<title>&#45;100.0..350.0\n75.0..112.5</title>
<polygon fill="none" stroke="black" points="526,-143 415,-143 415,-105 526,-105 526,-143"/>
<text text-anchor="middle" x="470.5" y="-127.8" font-family="Times,serif" font-size="14.00">&#45;100.0..350.0</text>
<text text-anchor="middle" x="470.5" y="-112.8" font-family="Times,serif" font-size="14.00">75.0..112.5</text>
</g>
<!-- &#45;100.0..800\n75.0..112.5&#45;&gt;&#45;100.0..350.0\n75.0..112.5 -->
<g id="edge15" class="edge">
<title>&#45;100.0..800\n75.0..112.5&#45;&gt;&#45;100.0..350.0\n75.0..112.5</title>
<path fill="none" stroke="black" d="M372.78,-124C383.02,-124 393.99,-124 404.73,-124"/>
<polygon fill="black" stroke="black" points="404.92,-127.5 414.92,-124 404.92,-120.5 404.92,-127.5"/>
</g>
<!-- 350.0..800\n75.0..112.5 -->
<g id="node17" class="node">
<title>350.0..800\n75.0..112.5</title>
<polygon fill="none" stroke="black" points="519.5,-87 421.5,-87 421.5,-49 519.5,-49 519.5,-87"/>
<text text-anchor="middle" x="470.5" y="-71.8" font-family="Times,serif" font-size="14.00">350.0..800</text>
<text text-anchor="middle" x="470.5" y="-56.8" font-family="Times,serif" font-size="14.00">75.0..112.5</text>
</g>
<!-- &#45;100.0..800\n75.0..112.5&#45;&gt;350.0..800\n75.0..112.5 -->
<g id="edge16" class="edge">
<title>&#45;100.0..800\n75.0..112.5&#45;&gt;350.0..800\n75.0..112.5</title>
<path fill="none" stroke="black" d="M372.78,-105.35C385.38,-100.49 399.08,-95.2 412.09,-90.17"/>
<polygon fill="black" stroke="black" points="413.36,-93.43 421.43,-86.57 410.84,-86.9 413.36,-93.43"/>
</g>
<!-- &#45;100.0..125.0\n75.0..112.5 -->
<g id="node18" class="node">
<title>&#45;100.0..125.0\n75.0..112.5</title>
<polygon fill="none" stroke="black" points="673,-143 562,-143 562,-105 673,-105 673,-143"/>
<text text-anchor="middle" x="617.5" y="-127.8" font-family="Times,serif" font-size="14.00">&#45;100.0..125.0</text>
<text text-anchor="middle" x="617.5" y="-112.8" font-family="Times,serif" font-size="14.00">75.0..112.5</text>
</g>
<!-- &#45;100.0..350.0\n75.0..112.5&#45;&gt;&#45;100.0..125.0\n75.0..112.5 -->
<g id="edge17" class="edge">
<title>&#45;100.0..350.0\n75.0..112.5&#45;&gt;&#45;100.0..125.0\n75.0..112.5</title>
<path fill="none" stroke="black" d="M526.32,-124C534.53,-124 543.06,-124 551.46,-124"/>
<polygon fill="black" stroke="black" points="551.6,-127.5 561.6,-124 551.6,-120.5 551.6,-127.5"/>
</g>
<!-- 125.0..350.0\n75.0..112.5 -->
<g id="node19" class="node">
<title>125.0..350.0\n75.0..112.5</title>
<polygon fill="none" stroke="black" points="671,-87 564,-87 564,-49 671,-49 671,-87"/>
<text text-anchor="middle" x="617.5" y="-71.8" font-family="Times,serif" font-size="14.00">125.0..350.0</text>
<text text-anchor="middle" x="617.5" y="-56.8" font-family="Times,serif" font-size="14.00">75.0..112.5</text>
</g>
<!-- &#45;100.0..350.0\n75.0..112.5&#45;&gt;125.0..350.0\n75.0..112.5 -->
<g id="edge18" class="edge">
<title>&#45;100.0..350.0\n75.0..112.5&#45;&gt;125.0..350.0\n75.0..112.5</title>
<path fill="none" stroke="black" d="M521,-104.88C532.78,-100.33 545.46,-95.43 557.62,-90.74"/>
<polygon fill="black" stroke="black" points="559.16,-93.9 567.23,-87.03 556.64,-87.37 559.16,-93.9"/>
</g>
<!-- 125.0..237.5\n75.0..112.5 -->
<g id="node20" class="node">
<title>125.0..237.5\n75.0..112.5</title>
<polygon fill="none" stroke="black" points="820.5,-94 713.5,-94 713.5,-56 820.5,-56 820.5,-94"/>
<text text-anchor="middle" x="767" y="-78.8" font-family="Times,serif" font-size="14.00">125.0..237.5</text>
<text text-anchor="middle" x="767" y="-63.8" font-family="Times,serif" font-size="14.00">75.0..112.5</text>
</g>
<!-- 125.0..350.0\n75.0..112.5&#45;&gt;125.0..237.5\n75.0..112.5 -->
<g id="edge19" class="edge">
<title>125.0..350.0\n75.0..112.5&#45;&gt;125.0..237.5\n75.0..112.5</title>
<path fill="none" stroke="black" d="M671.33,-70.51C681.61,-70.99 692.47,-71.51 703.03,-72.01"/>
<polygon fill="black" stroke="black" points="702.88,-75.51 713.04,-72.49 703.22,-68.52 702.88,-75.51"/>
</g>
<!-- 237.5..350.0\n75.0..112.5 -->
<g id="node21" class="node">
<title>237.5..350.0\n75.0..112.5</title>
<polygon fill="none" stroke="black" points="820.5,-38 713.5,-38 713.5,0 820.5,0 820.5,-38"/>
<text text-anchor="middle" x="767" y="-22.8" font-family="Times,serif" font-size="14.00">237.5..350.0</text>
<text text-anchor="middle" x="767" y="-7.8" font-family="Times,serif" font-size="14.00">75.0..112.5</text>
</g>
<!-- 125.0..350.0\n75.0..112.5&#45;&gt;237.5..350.0\n75.0..112.5 -->
<g id="edge20" class="edge">
<title>125.0..350.0\n75.0..112.5&#45;&gt;237.5..350.0\n75.0..112.5</title>
<path fill="none" stroke="black" d="M671.33,-50.45C681.71,-47 692.7,-43.35 703.36,-39.81"/>
<polygon fill="black" stroke="black" points="704.65,-43.07 713.04,-36.59 702.45,-36.43 704.65,-43.07"/>
</g>
</g>
</svg>
